<?xml version="1.0" encoding="UTF-8" standalone="no"?><svg xmlns="http://www.w3.org/2000/svg" xmlns:xlink="http://www.w3.org/1999/xlink" contentScriptType="application/ecmascript" contentStyleType="text/css" height="226px" preserveAspectRatio="none" style="width:374px;height:226px;" version="1.1" viewBox="0 0 374 226" width="374px" zoomAndPan="magnify"><defs><filter height="300%" id="fffpqrxl589jo" width="300%" x="-1" y="-1"><feGaussianBlur result="blurOut" stdDeviation="2.0"/><feColorMatrix in="blurOut" result="blurOut2" type="matrix" values="0 0 0 0 0 0 0 0 0 0 0 0 0 0 0 0 0 0 .4 0"/><feOffset dx="4.0" dy="4.0" in="blurOut2" result="blurOut3"/><feBlend in="SourceGraphic" in2="blurOut3" mode="normal"/></filter></defs><g><!--MD5=[3d38cadce87705393933b9749d90bcf8]
class DialogueHandler--><rect fill="#FEFECE" filter="url(#fffpqrxl589jo)" height="99.2188" id="DialogueHandler" style="stroke: #A80036; stroke-width: 1.5;" width="357" x="6" y="116"/><ellipse cx="128.25" cy="132" fill="#ADD1B2" rx="11" ry="11" style="stroke: #A80036; stroke-width: 1.0;"/><path d="M131.2188,137.6406 Q130.6406,137.9375 130,138.0781 Q129.3594,138.2344 128.6563,138.2344 Q126.1563,138.2344 124.8281,136.5938 Q123.5156,134.9375 123.5156,131.8125 Q123.5156,128.6875 124.8281,127.0313 Q126.1563,125.375 128.6563,125.375 Q129.3594,125.375 130,125.5313 Q130.6563,125.6875 131.2188,125.9844 L131.2188,128.7031 Q130.5938,128.125 130,127.8594 Q129.4063,127.5781 128.7813,127.5781 Q127.4375,127.5781 126.75,128.6563 Q126.0625,129.7188 126.0625,131.8125 Q126.0625,133.9063 126.75,134.9844 Q127.4375,136.0469 128.7813,136.0469 Q129.4063,136.0469 130,135.7813 Q130.5938,135.5 131.2188,134.9219 L131.2188,137.6406 Z "/><text fill="#000000" font-family="sans-serif" font-size="12" lengthAdjust="spacingAndGlyphs" textLength="104" x="148.75" y="136.1543">DialogueHandler</text><line style="stroke: #A80036; stroke-width: 1.5;" x1="7" x2="362" y1="148" y2="148"/><ellipse cx="17" cy="159" fill="none" rx="3" ry="3" style="stroke: #038048; stroke-width: 1.0;"/><text fill="#000000" font-family="sans-serif" font-size="11" lengthAdjust="spacingAndGlyphs" textLength="135" x="26" y="162.2104">currentDialogue : string</text><line style="stroke: #A80036; stroke-width: 1.5;" x1="7" x2="362" y1="168.8047" y2="168.8047"/><ellipse cx="17" cy="179.8047" fill="#84BE84" rx="3" ry="3" style="stroke: #038048; stroke-width: 1.0;"/><text fill="#000000" font-family="sans-serif" font-size="11" lengthAdjust="spacingAndGlyphs" textLength="331" x="26" y="183.0151">StartDialogue(dialogueContainer:DialogueContainer) : void</text><text fill="#000000" font-family="sans-serif" font-size="11" lengthAdjust="spacingAndGlyphs" textLength="83" x="26" y="195.8198">Update() : void</text><text fill="#000000" font-family="sans-serif" font-size="11" lengthAdjust="spacingAndGlyphs" textLength="140" x="26" y="208.6245">TypeLine() : IEnumerator</text><!--MD5=[83b3cf3d23d77c6f1e1b5291a241bc2a]
class MonoBehaviour--><rect fill="#FEFECE" filter="url(#fffpqrxl589jo)" height="48" id="MonoBehaviour" style="stroke: #A80036; stroke-width: 1.5;" width="128" x="120.5" y="8"/><ellipse cx="135.5" cy="24" fill="#ADD1B2" rx="11" ry="11" style="stroke: #A80036; stroke-width: 1.0;"/><path d="M138.4688,29.6406 Q137.8906,29.9375 137.25,30.0781 Q136.6094,30.2344 135.9063,30.2344 Q133.4063,30.2344 132.0781,28.5938 Q130.7656,26.9375 130.7656,23.8125 Q130.7656,20.6875 132.0781,19.0313 Q133.4063,17.375 135.9063,17.375 Q136.6094,17.375 137.25,17.5313 Q137.9063,17.6875 138.4688,17.9844 L138.4688,20.7031 Q137.8438,20.125 137.25,19.8594 Q136.6563,19.5781 136.0313,19.5781 Q134.6875,19.5781 134,20.6563 Q133.3125,21.7188 133.3125,23.8125 Q133.3125,25.9063 134,26.9844 Q134.6875,28.0469 136.0313,28.0469 Q136.6563,28.0469 137.25,27.7813 Q137.8438,27.5 138.4688,26.9219 L138.4688,29.6406 Z "/><text fill="#000000" font-family="sans-serif" font-size="12" lengthAdjust="spacingAndGlyphs" textLength="96" x="149.5" y="28.1543">MonoBehaviour</text><line style="stroke: #A80036; stroke-width: 1.5;" x1="121.5" x2="247.5" y1="40" y2="40"/><line style="stroke: #A80036; stroke-width: 1.5;" x1="121.5" x2="247.5" y1="48" y2="48"/><!--MD5=[c3396b81a9a866ff41f22f5dbae4b2cd]
reverse link MonoBehaviour to DialogueHandler--><path d="M184.5,76.51 C184.5,89.14 184.5,103.01 184.5,115.93 " fill="none" id="MonoBehaviour&lt;-DialogueHandler" style="stroke: #A80036; stroke-width: 1.0;"/><polygon fill="none" points="177.5,76.21,184.5,56.21,191.5,76.21,177.5,76.21" style="stroke: #A80036; stroke-width: 1.0;"/><!--MD5=[cc271ef02dab6743b663274bf9744e9b]
@startuml
class DialogueHandler {
    + currentDialogue : string
    + StartDialogue(dialogueContainer:DialogueContainer) : void
    Update() : void
    TypeLine() : IEnumerator
}
MonoBehaviour <|- - DialogueHandler
@enduml

PlantUML version 1.2020.02(Sun Mar 01 10:22:07 GMT 2020)
(GPL source distribution)
Java Runtime: OpenJDK Runtime Environment
JVM: OpenJDK 64-Bit Server VM
Java Version: 11.0.9+11-Ubuntu-0ubuntu1
Operating System: Linux
Default Encoding: ANSI_X3.4-1968
Language: en
Country: US
--></g></svg>