<?xml version="1.0" encoding="UTF-8" standalone="no"?><svg xmlns="http://www.w3.org/2000/svg" xmlns:xlink="http://www.w3.org/1999/xlink" contentScriptType="application/ecmascript" contentStyleType="text/css" height="200px" preserveAspectRatio="none" style="width:174px;height:200px;" version="1.1" viewBox="0 0 174 200" width="174px" zoomAndPan="magnify"><defs><filter height="300%" id="f2sy369h9kihb" width="300%" x="-1" y="-1"><feGaussianBlur result="blurOut" stdDeviation="2.0"/><feColorMatrix in="blurOut" result="blurOut2" type="matrix" values="0 0 0 0 0 0 0 0 0 0 0 0 0 0 0 0 0 0 .4 0"/><feOffset dx="4.0" dy="4.0" in="blurOut2" result="blurOut3"/><feBlend in="SourceGraphic" in2="blurOut3" mode="normal"/></filter></defs><g><!--MD5=[ee3aa26f9e1eb0ea49dc6a9667dedd60]
class Follow_Player--><rect fill="#FEFECE" filter="url(#f2sy369h9kihb)" height="73.6094" id="Follow_Player" style="stroke: #A80036; stroke-width: 1.5;" width="157" x="6" y="116"/><ellipse cx="40.35" cy="132" fill="#ADD1B2" rx="11" ry="11" style="stroke: #A80036; stroke-width: 1.0;"/><path d="M43.3188,137.6406 Q42.7406,137.9375 42.1,138.0781 Q41.4594,138.2344 40.7563,138.2344 Q38.2563,138.2344 36.9281,136.5938 Q35.6156,134.9375 35.6156,131.8125 Q35.6156,128.6875 36.9281,127.0313 Q38.2563,125.375 40.7563,125.375 Q41.4594,125.375 42.1,125.5313 Q42.7563,125.6875 43.3188,125.9844 L43.3188,128.7031 Q42.6938,128.125 42.1,127.8594 Q41.5063,127.5781 40.8813,127.5781 Q39.5375,127.5781 38.85,128.6563 Q38.1625,129.7188 38.1625,131.8125 Q38.1625,133.9063 38.85,134.9844 Q39.5375,136.0469 40.8813,136.0469 Q41.5063,136.0469 42.1,135.7813 Q42.6938,135.5 43.3188,134.9219 L43.3188,137.6406 Z "/><text fill="#000000" font-family="sans-serif" font-size="12" lengthAdjust="spacingAndGlyphs" textLength="82" x="58.65" y="136.1543">Follow_Player</text><line style="stroke: #A80036; stroke-width: 1.5;" x1="7" x2="162" y1="148" y2="148"/><line style="stroke: #A80036; stroke-width: 1.5;" x1="7" x2="162" y1="156" y2="156"/><text fill="#000000" font-family="sans-serif" font-size="11" lengthAdjust="spacingAndGlyphs" textLength="112" x="26" y="170.2104">FixedUpdate() : void</text><ellipse cx="17" cy="179.8047" fill="#84BE84" rx="3" ry="3" style="stroke: #038048; stroke-width: 1.0;"/><text fill="#000000" font-family="sans-serif" font-size="11" lengthAdjust="spacingAndGlyphs" textLength="131" x="26" y="183.0151">setFollowPlayer() : void</text><!--MD5=[83b3cf3d23d77c6f1e1b5291a241bc2a]
class MonoBehaviour--><rect fill="#FEFECE" filter="url(#f2sy369h9kihb)" height="48" id="MonoBehaviour" style="stroke: #A80036; stroke-width: 1.5;" width="128" x="20.5" y="8"/><ellipse cx="35.5" cy="24" fill="#ADD1B2" rx="11" ry="11" style="stroke: #A80036; stroke-width: 1.0;"/><path d="M38.4688,29.6406 Q37.8906,29.9375 37.25,30.0781 Q36.6094,30.2344 35.9063,30.2344 Q33.4063,30.2344 32.0781,28.5938 Q30.7656,26.9375 30.7656,23.8125 Q30.7656,20.6875 32.0781,19.0313 Q33.4063,17.375 35.9063,17.375 Q36.6094,17.375 37.25,17.5313 Q37.9063,17.6875 38.4688,17.9844 L38.4688,20.7031 Q37.8438,20.125 37.25,19.8594 Q36.6563,19.5781 36.0313,19.5781 Q34.6875,19.5781 34,20.6563 Q33.3125,21.7188 33.3125,23.8125 Q33.3125,25.9063 34,26.9844 Q34.6875,28.0469 36.0313,28.0469 Q36.6563,28.0469 37.25,27.7813 Q37.8438,27.5 38.4688,26.9219 L38.4688,29.6406 Z "/><text fill="#000000" font-family="sans-serif" font-size="12" lengthAdjust="spacingAndGlyphs" textLength="96" x="49.5" y="28.1543">MonoBehaviour</text><line style="stroke: #A80036; stroke-width: 1.5;" x1="21.5" x2="147.5" y1="40" y2="40"/><line style="stroke: #A80036; stroke-width: 1.5;" x1="21.5" x2="147.5" y1="48" y2="48"/><!--MD5=[1651ca19fb54642929dc687c6569a249]
reverse link MonoBehaviour to Follow_Player--><path d="M84.5,76.43 C84.5,89.33 84.5,103.32 84.5,115.71 " fill="none" id="MonoBehaviour&lt;-Follow_Player" style="stroke: #A80036; stroke-width: 1.0;"/><polygon fill="none" points="77.5,76.23,84.5,56.23,91.5,76.23,77.5,76.23" style="stroke: #A80036; stroke-width: 1.0;"/><!--MD5=[8e9cdcdc53004f3bf35de2aa77bdd444]
@startuml
class Follow_Player {
    FixedUpdate() : void
    + setFollowPlayer() : void
}
MonoBehaviour <|- - Follow_Player
@enduml

PlantUML version 1.2020.02(Sun Mar 01 10:22:07 GMT 2020)
(GPL source distribution)
Java Runtime: OpenJDK Runtime Environment
JVM: OpenJDK 64-Bit Server VM
Java Version: 11.0.9+11-Ubuntu-0ubuntu1
Operating System: Linux
Default Encoding: ANSI_X3.4-1968
Language: en
Country: US
--></g></svg>