<?xml version="1.0" encoding="UTF-8" standalone="no"?><svg xmlns="http://www.w3.org/2000/svg" xmlns:xlink="http://www.w3.org/1999/xlink" contentScriptType="application/ecmascript" contentStyleType="text/css" height="321px" preserveAspectRatio="none" style="width:284px;height:321px;" version="1.1" viewBox="0 0 284 321" width="284px" zoomAndPan="magnify"><defs><filter height="300%" id="fu5wttwfot5ri" width="300%" x="-1" y="-1"><feGaussianBlur result="blurOut" stdDeviation="2.0"/><feColorMatrix in="blurOut" result="blurOut2" type="matrix" values="0 0 0 0 0 0 0 0 0 0 0 0 0 0 0 0 0 0 .4 0"/><feOffset dx="4.0" dy="4.0" in="blurOut2" result="blurOut3"/><feBlend in="SourceGraphic" in2="blurOut3" mode="normal"/></filter></defs><g><!--MD5=[286ff5986dd00e4113ab26c61139d406]
class GummySceneManager--><rect fill="#FEFECE" filter="url(#fu5wttwfot5ri)" height="60.8047" id="GummySceneManager" style="stroke: #A80036; stroke-width: 1.5;" width="204" x="6" y="116"/><ellipse cx="35.85" cy="132" fill="#ADD1B2" rx="11" ry="11" style="stroke: #A80036; stroke-width: 1.0;"/><path d="M38.8188,137.6406 Q38.2406,137.9375 37.6,138.0781 Q36.9594,138.2344 36.2563,138.2344 Q33.7563,138.2344 32.4281,136.5938 Q31.1156,134.9375 31.1156,131.8125 Q31.1156,128.6875 32.4281,127.0313 Q33.7563,125.375 36.2563,125.375 Q36.9594,125.375 37.6,125.5313 Q38.2563,125.6875 38.8188,125.9844 L38.8188,128.7031 Q38.1938,128.125 37.6,127.8594 Q37.0063,127.5781 36.3813,127.5781 Q35.0375,127.5781 34.35,128.6563 Q33.6625,129.7188 33.6625,131.8125 Q33.6625,133.9063 34.35,134.9844 Q35.0375,136.0469 36.3813,136.0469 Q37.0063,136.0469 37.6,135.7813 Q38.1938,135.5 38.8188,134.9219 L38.8188,137.6406 Z "/><text fill="#000000" font-family="sans-serif" font-size="12" lengthAdjust="spacingAndGlyphs" textLength="139" x="53.15" y="136.1543">GummySceneManager</text><line style="stroke: #A80036; stroke-width: 1.5;" x1="7" x2="209" y1="148" y2="148"/><line style="stroke: #A80036; stroke-width: 1.5;" x1="7" x2="209" y1="156" y2="156"/><ellipse cx="17" cy="167" fill="#84BE84" rx="3" ry="3" style="stroke: #038048; stroke-width: 1.0;"/><text fill="#000000" font-family="sans-serif" font-size="11" lengthAdjust="spacingAndGlyphs" textLength="178" x="26" y="170.2104">LoadScene(scene:Scene) : void</text><!--MD5=[e4faacc5b8aef66b11ab0c816bbbc7f8]
class Scene--><rect fill="#FEFECE" filter="url(#fu5wttwfot5ri)" height="73.6094" id="Scene" style="stroke: #A80036; stroke-width: 1.5;" width="126" x="45" y="237"/><ellipse cx="84.75" cy="253" fill="#EB937F" rx="11" ry="11" style="stroke: #A80036; stroke-width: 1.0;"/><path d="M88.8594,259 L81.1406,259 L81.1406,246.6094 L88.8594,246.6094 L88.8594,248.7656 L83.5938,248.7656 L83.5938,251.4375 L88.3594,251.4375 L88.3594,253.5938 L83.5938,253.5938 L83.5938,256.8438 L88.8594,256.8438 L88.8594,259 Z "/><text fill="#000000" font-family="sans-serif" font-size="12" lengthAdjust="spacingAndGlyphs" textLength="39" x="104.25" y="257.1543">Scene</text><line style="stroke: #A80036; stroke-width: 1.5;" x1="46" x2="170" y1="269" y2="269"/><text fill="#000000" font-family="sans-serif" font-size="11" lengthAdjust="spacingAndGlyphs" textLength="114" x="51" y="283.2104">level1_sceneSwitch,</text><text fill="#000000" font-family="sans-serif" font-size="11" lengthAdjust="spacingAndGlyphs" textLength="114" x="51" y="296.0151">level2_sceneSwitch,</text><line style="stroke: #A80036; stroke-width: 1.5;" x1="46" x2="170" y1="302.6094" y2="302.6094"/><!--MD5=[83b3cf3d23d77c6f1e1b5291a241bc2a]
class MonoBehaviour--><rect fill="#FEFECE" filter="url(#fu5wttwfot5ri)" height="48" id="MonoBehaviour" style="stroke: #A80036; stroke-width: 1.5;" width="128" x="44" y="8"/><ellipse cx="59" cy="24" fill="#ADD1B2" rx="11" ry="11" style="stroke: #A80036; stroke-width: 1.0;"/><path d="M61.9688,29.6406 Q61.3906,29.9375 60.75,30.0781 Q60.1094,30.2344 59.4063,30.2344 Q56.9063,30.2344 55.5781,28.5938 Q54.2656,26.9375 54.2656,23.8125 Q54.2656,20.6875 55.5781,19.0313 Q56.9063,17.375 59.4063,17.375 Q60.1094,17.375 60.75,17.5313 Q61.4063,17.6875 61.9688,17.9844 L61.9688,20.7031 Q61.3438,20.125 60.75,19.8594 Q60.1563,19.5781 59.5313,19.5781 Q58.1875,19.5781 57.5,20.6563 Q56.8125,21.7188 56.8125,23.8125 Q56.8125,25.9063 57.5,26.9844 Q58.1875,28.0469 59.5313,28.0469 Q60.1563,28.0469 60.75,27.7813 Q61.3438,27.5 61.9688,26.9219 L61.9688,29.6406 Z "/><text fill="#000000" font-family="sans-serif" font-size="12" lengthAdjust="spacingAndGlyphs" textLength="96" x="73" y="28.1543">MonoBehaviour</text><line style="stroke: #A80036; stroke-width: 1.5;" x1="45" x2="171" y1="40" y2="40"/><line style="stroke: #A80036; stroke-width: 1.5;" x1="45" x2="171" y1="48" y2="48"/><!--MD5=[4f2fb43c3916922aa01c0fc46835a706]
reverse link MonoBehaviour to GummySceneManager--><path d="M108,76.11 C108,89.31 108,103.54 108,115.65 " fill="none" id="MonoBehaviour&lt;-GummySceneManager" style="stroke: #A80036; stroke-width: 1.0;"/><polygon fill="none" points="101,76.04,108,56.04,115,76.04,101,76.04" style="stroke: #A80036; stroke-width: 1.0;"/><!--MD5=[793c0ecf2c0b1e955184d0d933749b6d]
link GummySceneManager to GummySceneManager--><path d="M210.17,126.01 C230.5,128.31 245,135.14 245,146.5 C245,156.88 232.89,163.48 215.27,166.3 " fill="none" id="GummySceneManager-&gt;GummySceneManager" style="stroke: #A80036; stroke-width: 1.0;"/><polygon fill="#A80036" points="210.17,166.99,219.6254,169.7458,215.1248,166.3189,218.5517,161.8182,210.17,166.99" style="stroke: #A80036; stroke-width: 1.0;"/><text fill="#000000" font-family="sans-serif" font-size="13" lengthAdjust="spacingAndGlyphs" textLength="54" x="218.0413" y="164.8585">Instance</text><!--MD5=[c79852265fb0560bd59c4ac55caa31db]
reverse link GummySceneManager to Scene--><path d="M108,192.34 C108,206.91 108,222.89 108,236.76 " fill="none" id="GummySceneManager&lt;-Scene" style="stroke: #A80036; stroke-width: 1.0;"/><ellipse cx="108" cy="185.24" fill="#FFFFFF" rx="8" ry="8" style="stroke: #A80036; stroke-width: 1.0;"/><line style="stroke: #A80036; stroke-width: 1.0;" x1="108" x2="108" y1="193.24" y2="177.24"/><line style="stroke: #A80036; stroke-width: 1.0;" x1="100" x2="116" y1="185.24" y2="185.24"/><!--MD5=[2fb7c351c066692df70356cfbd9b55b9]
@startuml
class GummySceneManager {
    + LoadScene(scene:Scene) : void
}
enum Scene {
    level1_sceneSwitch,
    level2_sceneSwitch,
}
MonoBehaviour <|- - GummySceneManager
GummySceneManager - -> "Instance" GummySceneManager
GummySceneManager +- - Scene
@enduml

PlantUML version 1.2020.02(Sun Mar 01 10:22:07 GMT 2020)
(GPL source distribution)
Java Runtime: OpenJDK Runtime Environment
JVM: OpenJDK 64-Bit Server VM
Java Version: 11.0.9+11-Ubuntu-0ubuntu1
Operating System: Linux
Default Encoding: ANSI_X3.4-1968
Language: en
Country: US
--></g></svg>