<?xml version="1.0" encoding="UTF-8" standalone="no"?><svg xmlns="http://www.w3.org/2000/svg" xmlns:xlink="http://www.w3.org/1999/xlink" contentScriptType="application/ecmascript" contentStyleType="text/css" height="296px" preserveAspectRatio="none" style="width:171px;height:296px;" version="1.1" viewBox="0 0 171 296" width="171px" zoomAndPan="magnify"><defs><filter height="300%" id="fnevocc741gw0" width="300%" x="-1" y="-1"><feGaussianBlur result="blurOut" stdDeviation="2.0"/><feColorMatrix in="blurOut" result="blurOut2" type="matrix" values="0 0 0 0 0 0 0 0 0 0 0 0 0 0 0 0 0 0 .4 0"/><feOffset dx="4.0" dy="4.0" in="blurOut2" result="blurOut3"/><feBlend in="SourceGraphic" in2="blurOut3" mode="normal"/></filter></defs><g><!--MD5=[db479ad8c7c43a719ae293e16e25216a]
class Interact--><rect fill="#FEFECE" filter="url(#fnevocc741gw0)" height="60.8047" id="Interact" style="stroke: #A80036; stroke-width: 1.5;" width="114" x="26" y="116"/><ellipse cx="55.85" cy="132" fill="#ADD1B2" rx="11" ry="11" style="stroke: #A80036; stroke-width: 1.0;"/><path d="M58.8188,137.6406 Q58.2406,137.9375 57.6,138.0781 Q56.9594,138.2344 56.2563,138.2344 Q53.7563,138.2344 52.4281,136.5938 Q51.1156,134.9375 51.1156,131.8125 Q51.1156,128.6875 52.4281,127.0313 Q53.7563,125.375 56.2563,125.375 Q56.9594,125.375 57.6,125.5313 Q58.2563,125.6875 58.8188,125.9844 L58.8188,128.7031 Q58.1938,128.125 57.6,127.8594 Q57.0063,127.5781 56.3813,127.5781 Q55.0375,127.5781 54.35,128.6563 Q53.6625,129.7188 53.6625,131.8125 Q53.6625,133.9063 54.35,134.9844 Q55.0375,136.0469 56.3813,136.0469 Q57.0063,136.0469 57.6,135.7813 Q58.1938,135.5 58.8188,134.9219 L58.8188,137.6406 Z "/><text fill="#000000" font-family="sans-serif" font-size="12" lengthAdjust="spacingAndGlyphs" textLength="49" x="73.15" y="136.1543">Interact</text><line style="stroke: #A80036; stroke-width: 1.5;" x1="27" x2="139" y1="148" y2="148"/><line style="stroke: #A80036; stroke-width: 1.5;" x1="27" x2="139" y1="156" y2="156"/><text fill="#000000" font-family="sans-serif" font-size="11" lengthAdjust="spacingAndGlyphs" textLength="102" x="32" y="170.2104">OnInteract() : void</text><!--MD5=[83b3cf3d23d77c6f1e1b5291a241bc2a]
class MonoBehaviour--><rect fill="#FEFECE" filter="url(#fnevocc741gw0)" height="48" id="MonoBehaviour" style="stroke: #A80036; stroke-width: 1.5;" width="128" x="19" y="8"/><ellipse cx="34" cy="24" fill="#ADD1B2" rx="11" ry="11" style="stroke: #A80036; stroke-width: 1.0;"/><path d="M36.9688,29.6406 Q36.3906,29.9375 35.75,30.0781 Q35.1094,30.2344 34.4063,30.2344 Q31.9063,30.2344 30.5781,28.5938 Q29.2656,26.9375 29.2656,23.8125 Q29.2656,20.6875 30.5781,19.0313 Q31.9063,17.375 34.4063,17.375 Q35.1094,17.375 35.75,17.5313 Q36.4063,17.6875 36.9688,17.9844 L36.9688,20.7031 Q36.3438,20.125 35.75,19.8594 Q35.1563,19.5781 34.5313,19.5781 Q33.1875,19.5781 32.5,20.6563 Q31.8125,21.7188 31.8125,23.8125 Q31.8125,25.9063 32.5,26.9844 Q33.1875,28.0469 34.5313,28.0469 Q35.1563,28.0469 35.75,27.7813 Q36.3438,27.5 36.9688,26.9219 L36.9688,29.6406 Z "/><text fill="#000000" font-family="sans-serif" font-size="12" lengthAdjust="spacingAndGlyphs" textLength="96" x="48" y="28.1543">MonoBehaviour</text><line style="stroke: #A80036; stroke-width: 1.5;" x1="20" x2="146" y1="40" y2="40"/><line style="stroke: #A80036; stroke-width: 1.5;" x1="20" x2="146" y1="48" y2="48"/><!--MD5=[307abecfb749895f6b13598d3c13f2b6]
class GameEventChannel--><rect fill="#FEFECE" filter="url(#fnevocc741gw0)" height="48" id="GameEventChannel" style="stroke: #A80036; stroke-width: 1.5;" width="154" x="6" y="237"/><ellipse cx="21" cy="253" fill="#ADD1B2" rx="11" ry="11" style="stroke: #A80036; stroke-width: 1.0;"/><path d="M23.9688,258.6406 Q23.3906,258.9375 22.75,259.0781 Q22.1094,259.2344 21.4063,259.2344 Q18.9063,259.2344 17.5781,257.5938 Q16.2656,255.9375 16.2656,252.8125 Q16.2656,249.6875 17.5781,248.0313 Q18.9063,246.375 21.4063,246.375 Q22.1094,246.375 22.75,246.5313 Q23.4063,246.6875 23.9688,246.9844 L23.9688,249.7031 Q23.3438,249.125 22.75,248.8594 Q22.1563,248.5781 21.5313,248.5781 Q20.1875,248.5781 19.5,249.6563 Q18.8125,250.7188 18.8125,252.8125 Q18.8125,254.9063 19.5,255.9844 Q20.1875,257.0469 21.5313,257.0469 Q22.1563,257.0469 22.75,256.7813 Q23.3438,256.5 23.9688,255.9219 L23.9688,258.6406 Z "/><text fill="#000000" font-family="sans-serif" font-size="12" lengthAdjust="spacingAndGlyphs" textLength="122" x="35" y="257.1543">GameEventChannel</text><line style="stroke: #A80036; stroke-width: 1.5;" x1="7" x2="159" y1="269" y2="269"/><line style="stroke: #A80036; stroke-width: 1.5;" x1="7" x2="159" y1="277" y2="277"/><!--MD5=[64199d5086e16e0bfc92a02f12bbb4cb]
reverse link MonoBehaviour to Interact--><path d="M83,76.11 C83,89.31 83,103.54 83,115.65 " fill="none" id="MonoBehaviour&lt;-Interact" style="stroke: #A80036; stroke-width: 1.0;"/><polygon fill="none" points="76,76.04,83,56.04,90,76.04,76,76.04" style="stroke: #A80036; stroke-width: 1.0;"/><!--MD5=[09b5446599b3975a2fea75e788607f0c]
link Interact to GameEventChannel--><path d="M83,177.06 C83,193.93 83,214.98 83,231.65 " fill="none" id="Interact-&gt;GameEventChannel" style="stroke: #A80036; stroke-width: 1.0;"/><polygon fill="#A80036" points="83,236.67,87,227.67,83,231.67,79,227.67,83,236.67" style="stroke: #A80036; stroke-width: 1.0;"/><text fill="#000000" font-family="sans-serif" font-size="13" lengthAdjust="spacingAndGlyphs" textLength="49" x="28.0281" y="225.9945">interact</text><!--MD5=[8e7d4e35fd86eeb8020849f8a3333036]
@startuml
class Interact {
    OnInteract() : void
}
MonoBehaviour <|- - Interact
Interact - -> "interact" GameEventChannel
@enduml

PlantUML version 1.2020.02(Sun Mar 01 10:22:07 GMT 2020)
(GPL source distribution)
Java Runtime: OpenJDK Runtime Environment
JVM: OpenJDK 64-Bit Server VM
Java Version: 11.0.9+11-Ubuntu-0ubuntu1
Operating System: Linux
Default Encoding: ANSI_X3.4-1968
Language: en
Country: US
--></g></svg>