<?xml version="1.0" encoding="UTF-8" standalone="no"?><svg xmlns="http://www.w3.org/2000/svg" xmlns:xlink="http://www.w3.org/1999/xlink" contentScriptType="application/ecmascript" contentStyleType="text/css" height="239px" preserveAspectRatio="none" style="width:484px;height:239px;" version="1.1" viewBox="0 0 484 239" width="484px" zoomAndPan="magnify"><defs><filter height="300%" id="f2w5gl41m1sh9" width="300%" x="-1" y="-1"><feGaussianBlur result="blurOut" stdDeviation="2.0"/><feColorMatrix in="blurOut" result="blurOut2" type="matrix" values="0 0 0 0 0 0 0 0 0 0 0 0 0 0 0 0 0 0 .4 0"/><feOffset dx="4.0" dy="4.0" in="blurOut2" result="blurOut3"/><feBlend in="SourceGraphic" in2="blurOut3" mode="normal"/></filter></defs><g><!--MD5=[e8d36f2f96d5e5262f65ebe3ceecb377]
class ItemDataSave--><rect fill="#FEFECE" filter="url(#f2w5gl41m1sh9)" height="112.0234" id="ItemDataSave" style="stroke: #A80036; stroke-width: 1.5;" width="467" x="6" y="8"/><ellipse cx="191.75" cy="24" fill="#ADD1B2" rx="11" ry="11" style="stroke: #A80036; stroke-width: 1.0;"/><path d="M194.7188,29.6406 Q194.1406,29.9375 193.5,30.0781 Q192.8594,30.2344 192.1563,30.2344 Q189.6563,30.2344 188.3281,28.5938 Q187.0156,26.9375 187.0156,23.8125 Q187.0156,20.6875 188.3281,19.0313 Q189.6563,17.375 192.1563,17.375 Q192.8594,17.375 193.5,17.5313 Q194.1563,17.6875 194.7188,17.9844 L194.7188,20.7031 Q194.0938,20.125 193.5,19.8594 Q192.9063,19.5781 192.2813,19.5781 Q190.9375,19.5781 190.25,20.6563 Q189.5625,21.7188 189.5625,23.8125 Q189.5625,25.9063 190.25,26.9844 Q190.9375,28.0469 192.2813,28.0469 Q192.9063,28.0469 193.5,27.7813 Q194.0938,27.5 194.7188,26.9219 L194.7188,29.6406 Z "/><text fill="#000000" font-family="sans-serif" font-size="12" lengthAdjust="spacingAndGlyphs" textLength="87" x="212.25" y="28.1543">ItemDataSave</text><line style="stroke: #A80036; stroke-width: 1.5;" x1="7" x2="472" y1="40" y2="40"/><ellipse cx="17" cy="51" fill="none" rx="3" ry="3" style="stroke: #038048; stroke-width: 1.0;"/><text fill="#000000" font-family="sans-serif" font-size="11" lengthAdjust="spacingAndGlyphs" textLength="103" x="26" y="54.2104">itemName : string</text><ellipse cx="17" cy="63.8047" fill="none" rx="3" ry="3" style="stroke: #038048; stroke-width: 1.0;"/><text fill="#000000" font-family="sans-serif" font-size="11" lengthAdjust="spacingAndGlyphs" textLength="108" x="26" y="67.0151">description : string</text><ellipse cx="17" cy="76.6094" fill="none" rx="3" ry="3" style="stroke: #038048; stroke-width: 1.0;"/><text fill="#000000" font-family="sans-serif" font-size="11" lengthAdjust="spacingAndGlyphs" textLength="182" x="26" y="79.8198">hasBeenPickedUp : bool = false</text><ellipse cx="17" cy="89.4141" fill="none" rx="3" ry="3" style="stroke: #038048; stroke-width: 1.0;"/><text fill="#000000" font-family="sans-serif" font-size="11" lengthAdjust="spacingAndGlyphs" textLength="122" x="26" y="92.6245">pickedUpNumber : int</text><line style="stroke: #A80036; stroke-width: 1.5;" x1="7" x2="472" y1="99.2188" y2="99.2188"/><ellipse cx="17" cy="110.2188" fill="#84BE84" rx="3" ry="3" style="stroke: #038048; stroke-width: 1.0;"/><text fill="#000000" font-family="sans-serif" font-size="11" lengthAdjust="spacingAndGlyphs" textLength="441" x="26" y="113.4292">ItemDataSave(itemName:string, hasBeenPickedUp:bool, pickedUpNumber:int)</text><!--MD5=[85c2ed8dbf494cb60783de624603a7dd]
class Sprite--><rect fill="#FEFECE" filter="url(#f2w5gl41m1sh9)" height="48" id="Sprite" style="stroke: #A80036; stroke-width: 1.5;" width="69" x="205" y="180"/><ellipse cx="220" cy="196" fill="#ADD1B2" rx="11" ry="11" style="stroke: #A80036; stroke-width: 1.0;"/><path d="M222.9688,201.6406 Q222.3906,201.9375 221.75,202.0781 Q221.1094,202.2344 220.4063,202.2344 Q217.9063,202.2344 216.5781,200.5938 Q215.2656,198.9375 215.2656,195.8125 Q215.2656,192.6875 216.5781,191.0313 Q217.9063,189.375 220.4063,189.375 Q221.1094,189.375 221.75,189.5313 Q222.4063,189.6875 222.9688,189.9844 L222.9688,192.7031 Q222.3438,192.125 221.75,191.8594 Q221.1563,191.5781 220.5313,191.5781 Q219.1875,191.5781 218.5,192.6563 Q217.8125,193.7188 217.8125,195.8125 Q217.8125,197.9063 218.5,198.9844 Q219.1875,200.0469 220.5313,200.0469 Q221.1563,200.0469 221.75,199.7813 Q222.3438,199.5 222.9688,198.9219 L222.9688,201.6406 Z "/><text fill="#000000" font-family="sans-serif" font-size="12" lengthAdjust="spacingAndGlyphs" textLength="37" x="234" y="200.1543">Sprite</text><line style="stroke: #A80036; stroke-width: 1.5;" x1="206" x2="273" y1="212" y2="212"/><line style="stroke: #A80036; stroke-width: 1.5;" x1="206" x2="273" y1="220" y2="220"/><!--MD5=[ee139c9c0b70b25b0ccec97ba959e934]
link ItemDataSave to Sprite--><path d="M239.5,120.33 C239.5,138.93 239.5,158.9 239.5,174.56 " fill="none" id="ItemDataSave-&gt;Sprite" style="stroke: #A80036; stroke-width: 1.0;"/><polygon fill="#A80036" points="239.5,179.69,243.5,170.69,239.5,174.69,235.5,170.69,239.5,179.69" style="stroke: #A80036; stroke-width: 1.0;"/><text fill="#000000" font-family="sans-serif" font-size="13" lengthAdjust="spacingAndGlyphs" textLength="26" x="210.3313" y="169.0194">icon</text><!--MD5=[7a9ae9c7f255782baeca7fd894ee340f]
@startuml
class ItemDataSave {
    + itemName : string
    + description : string
    + hasBeenPickedUp : bool = false
    + pickedUpNumber : int
    + ItemDataSave(itemName:string, hasBeenPickedUp:bool, pickedUpNumber:int)
}
ItemDataSave - -> "icon" Sprite
@enduml

PlantUML version 1.2020.02(Sun Mar 01 10:22:07 GMT 2020)
(GPL source distribution)
Java Runtime: OpenJDK Runtime Environment
JVM: OpenJDK 64-Bit Server VM
Java Version: 11.0.9+11-Ubuntu-0ubuntu1
Operating System: Linux
Default Encoding: ANSI_X3.4-1968
Language: en
Country: US
--></g></svg>