<?xml version="1.0" encoding="UTF-8" standalone="no"?><svg xmlns="http://www.w3.org/2000/svg" xmlns:xlink="http://www.w3.org/1999/xlink" contentScriptType="application/ecmascript" contentStyleType="text/css" height="187px" preserveAspectRatio="none" style="width:258px;height:187px;" version="1.1" viewBox="0 0 258 187" width="258px" zoomAndPan="magnify"><defs><filter height="300%" id="f19gc3c1twgmx5" width="300%" x="-1" y="-1"><feGaussianBlur result="blurOut" stdDeviation="2.0"/><feColorMatrix in="blurOut" result="blurOut2" type="matrix" values="0 0 0 0 0 0 0 0 0 0 0 0 0 0 0 0 0 0 .4 0"/><feOffset dx="4.0" dy="4.0" in="blurOut2" result="blurOut3"/><feBlend in="SourceGraphic" in2="blurOut3" mode="normal"/></filter></defs><g><!--MD5=[53046beb72a4dd10971263620bb35227]
class ItemPopUpManager--><rect fill="#FEFECE" filter="url(#f19gc3c1twgmx5)" height="60.8047" id="ItemPopUpManager" style="stroke: #A80036; stroke-width: 1.5;" width="241" x="6" y="116"/><ellipse cx="60.75" cy="132" fill="#ADD1B2" rx="11" ry="11" style="stroke: #A80036; stroke-width: 1.0;"/><path d="M63.7188,137.6406 Q63.1406,137.9375 62.5,138.0781 Q61.8594,138.2344 61.1563,138.2344 Q58.6563,138.2344 57.3281,136.5938 Q56.0156,134.9375 56.0156,131.8125 Q56.0156,128.6875 57.3281,127.0313 Q58.6563,125.375 61.1563,125.375 Q61.8594,125.375 62.5,125.5313 Q63.1563,125.6875 63.7188,125.9844 L63.7188,128.7031 Q63.0938,128.125 62.5,127.8594 Q61.9063,127.5781 61.2813,127.5781 Q59.9375,127.5781 59.25,128.6563 Q58.5625,129.7188 58.5625,131.8125 Q58.5625,133.9063 59.25,134.9844 Q59.9375,136.0469 61.2813,136.0469 Q61.9063,136.0469 62.5,135.7813 Q63.0938,135.5 63.7188,134.9219 L63.7188,137.6406 Z "/><text fill="#000000" font-family="sans-serif" font-size="12" lengthAdjust="spacingAndGlyphs" textLength="123" x="81.25" y="136.1543">ItemPopUpManager</text><line style="stroke: #A80036; stroke-width: 1.5;" x1="7" x2="246" y1="148" y2="148"/><line style="stroke: #A80036; stroke-width: 1.5;" x1="7" x2="246" y1="156" y2="156"/><ellipse cx="17" cy="167" fill="#84BE84" rx="3" ry="3" style="stroke: #038048; stroke-width: 1.0;"/><text fill="#000000" font-family="sans-serif" font-size="11" lengthAdjust="spacingAndGlyphs" textLength="215" x="26" y="170.2104">showPopUp(itemData:ItemData) : void</text><!--MD5=[83b3cf3d23d77c6f1e1b5291a241bc2a]
class MonoBehaviour--><rect fill="#FEFECE" filter="url(#f19gc3c1twgmx5)" height="48" id="MonoBehaviour" style="stroke: #A80036; stroke-width: 1.5;" width="128" x="62.5" y="8"/><ellipse cx="77.5" cy="24" fill="#ADD1B2" rx="11" ry="11" style="stroke: #A80036; stroke-width: 1.0;"/><path d="M80.4688,29.6406 Q79.8906,29.9375 79.25,30.0781 Q78.6094,30.2344 77.9063,30.2344 Q75.4063,30.2344 74.0781,28.5938 Q72.7656,26.9375 72.7656,23.8125 Q72.7656,20.6875 74.0781,19.0313 Q75.4063,17.375 77.9063,17.375 Q78.6094,17.375 79.25,17.5313 Q79.9063,17.6875 80.4688,17.9844 L80.4688,20.7031 Q79.8438,20.125 79.25,19.8594 Q78.6563,19.5781 78.0313,19.5781 Q76.6875,19.5781 76,20.6563 Q75.3125,21.7188 75.3125,23.8125 Q75.3125,25.9063 76,26.9844 Q76.6875,28.0469 78.0313,28.0469 Q78.6563,28.0469 79.25,27.7813 Q79.8438,27.5 80.4688,26.9219 L80.4688,29.6406 Z "/><text fill="#000000" font-family="sans-serif" font-size="12" lengthAdjust="spacingAndGlyphs" textLength="96" x="91.5" y="28.1543">MonoBehaviour</text><line style="stroke: #A80036; stroke-width: 1.5;" x1="63.5" x2="189.5" y1="40" y2="40"/><line style="stroke: #A80036; stroke-width: 1.5;" x1="63.5" x2="189.5" y1="48" y2="48"/><!--MD5=[eb4087621e12fe5c1bed5f7a89be6e9b]
reverse link MonoBehaviour to ItemPopUpManager--><path d="M126.5,76.11 C126.5,89.31 126.5,103.54 126.5,115.65 " fill="none" id="MonoBehaviour&lt;-ItemPopUpManager" style="stroke: #A80036; stroke-width: 1.0;"/><polygon fill="none" points="119.5,76.04,126.5,56.04,133.5,76.04,119.5,76.04" style="stroke: #A80036; stroke-width: 1.0;"/><!--MD5=[a1eb399f394a21900656f8eabdb73654]
@startuml
class ItemPopUpManager {
    + showPopUp(itemData:ItemData) : void
}
MonoBehaviour <|- - ItemPopUpManager
@enduml

PlantUML version 1.2020.02(Sun Mar 01 10:22:07 GMT 2020)
(GPL source distribution)
Java Runtime: OpenJDK Runtime Environment
JVM: OpenJDK 64-Bit Server VM
Java Version: 11.0.9+11-Ubuntu-0ubuntu1
Operating System: Linux
Default Encoding: ANSI_X3.4-1968
Language: en
Country: US
--></g></svg>