<?xml version="1.0" encoding="UTF-8" standalone="no"?><svg xmlns="http://www.w3.org/2000/svg" xmlns:xlink="http://www.w3.org/1999/xlink" contentScriptType="application/ecmascript" contentStyleType="text/css" height="213px" preserveAspectRatio="none" style="width:204px;height:213px;" version="1.1" viewBox="0 0 204 213" width="204px" zoomAndPan="magnify"><defs><filter height="300%" id="f1j9od1zt8g453" width="300%" x="-1" y="-1"><feGaussianBlur result="blurOut" stdDeviation="2.0"/><feColorMatrix in="blurOut" result="blurOut2" type="matrix" values="0 0 0 0 0 0 0 0 0 0 0 0 0 0 0 0 0 0 .4 0"/><feOffset dx="4.0" dy="4.0" in="blurOut2" result="blurOut3"/><feBlend in="SourceGraphic" in2="blurOut3" mode="normal"/></filter></defs><g><!--MD5=[cc4951b911f99aaf622026dcee202d08]
class MainMenuScript--><rect fill="#FEFECE" filter="url(#f1j9od1zt8g453)" height="86.4141" id="MainMenuScript" style="stroke: #A80036; stroke-width: 1.5;" width="187" x="6" y="116"/><ellipse cx="46.2" cy="132" fill="#ADD1B2" rx="11" ry="11" style="stroke: #A80036; stroke-width: 1.0;"/><path d="M49.1688,137.6406 Q48.5906,137.9375 47.95,138.0781 Q47.3094,138.2344 46.6063,138.2344 Q44.1063,138.2344 42.7781,136.5938 Q41.4656,134.9375 41.4656,131.8125 Q41.4656,128.6875 42.7781,127.0313 Q44.1063,125.375 46.6063,125.375 Q47.3094,125.375 47.95,125.5313 Q48.6063,125.6875 49.1688,125.9844 L49.1688,128.7031 Q48.5438,128.125 47.95,127.8594 Q47.3563,127.5781 46.7313,127.5781 Q45.3875,127.5781 44.7,128.6563 Q44.0125,129.7188 44.0125,131.8125 Q44.0125,133.9063 44.7,134.9844 Q45.3875,136.0469 46.7313,136.0469 Q47.3563,136.0469 47.95,135.7813 Q48.5438,135.5 49.1688,134.9219 L49.1688,137.6406 Z "/><text fill="#000000" font-family="sans-serif" font-size="12" lengthAdjust="spacingAndGlyphs" textLength="99" x="65.8" y="136.1543">MainMenuScript</text><line style="stroke: #A80036; stroke-width: 1.5;" x1="7" x2="192" y1="148" y2="148"/><line style="stroke: #A80036; stroke-width: 1.5;" x1="7" x2="192" y1="156" y2="156"/><ellipse cx="17" cy="167" fill="#84BE84" rx="3" ry="3" style="stroke: #038048; stroke-width: 1.0;"/><text fill="#000000" font-family="sans-serif" font-size="11" lengthAdjust="spacingAndGlyphs" textLength="157" x="26" y="170.2104">OnNewGameClicked() : void</text><ellipse cx="17" cy="179.8047" fill="#84BE84" rx="3" ry="3" style="stroke: #038048; stroke-width: 1.0;"/><text fill="#000000" font-family="sans-serif" font-size="11" lengthAdjust="spacingAndGlyphs" textLength="160" x="26" y="183.0151">OnLoadGameClicked() : void</text><ellipse cx="17" cy="192.6094" fill="#84BE84" rx="3" ry="3" style="stroke: #038048; stroke-width: 1.0;"/><text fill="#000000" font-family="sans-serif" font-size="11" lengthAdjust="spacingAndGlyphs" textLength="161" x="26" y="195.8198">OnSaveGameClicked() : void</text><!--MD5=[83b3cf3d23d77c6f1e1b5291a241bc2a]
class MonoBehaviour--><rect fill="#FEFECE" filter="url(#f1j9od1zt8g453)" height="48" id="MonoBehaviour" style="stroke: #A80036; stroke-width: 1.5;" width="128" x="35.5" y="8"/><ellipse cx="50.5" cy="24" fill="#ADD1B2" rx="11" ry="11" style="stroke: #A80036; stroke-width: 1.0;"/><path d="M53.4688,29.6406 Q52.8906,29.9375 52.25,30.0781 Q51.6094,30.2344 50.9063,30.2344 Q48.4063,30.2344 47.0781,28.5938 Q45.7656,26.9375 45.7656,23.8125 Q45.7656,20.6875 47.0781,19.0313 Q48.4063,17.375 50.9063,17.375 Q51.6094,17.375 52.25,17.5313 Q52.9063,17.6875 53.4688,17.9844 L53.4688,20.7031 Q52.8438,20.125 52.25,19.8594 Q51.6563,19.5781 51.0313,19.5781 Q49.6875,19.5781 49,20.6563 Q48.3125,21.7188 48.3125,23.8125 Q48.3125,25.9063 49,26.9844 Q49.6875,28.0469 51.0313,28.0469 Q51.6563,28.0469 52.25,27.7813 Q52.8438,27.5 53.4688,26.9219 L53.4688,29.6406 Z "/><text fill="#000000" font-family="sans-serif" font-size="12" lengthAdjust="spacingAndGlyphs" textLength="96" x="64.5" y="28.1543">MonoBehaviour</text><line style="stroke: #A80036; stroke-width: 1.5;" x1="36.5" x2="162.5" y1="40" y2="40"/><line style="stroke: #A80036; stroke-width: 1.5;" x1="36.5" x2="162.5" y1="48" y2="48"/><!--MD5=[9175b0dd6e1eb58348783430443f947a]
reverse link MonoBehaviour to MainMenuScript--><path d="M99.5,76.27 C99.5,89.12 99.5,103.17 99.5,115.94 " fill="none" id="MonoBehaviour&lt;-MainMenuScript" style="stroke: #A80036; stroke-width: 1.0;"/><polygon fill="none" points="92.5,76.22,99.5,56.22,106.5,76.22,92.5,76.22" style="stroke: #A80036; stroke-width: 1.0;"/><!--MD5=[35cf39ea2abe1e4d9ad6caf85c541110]
@startuml
class MainMenuScript {
    + OnNewGameClicked() : void
    + OnLoadGameClicked() : void
    + OnSaveGameClicked() : void
}
MonoBehaviour <|- - MainMenuScript
@enduml

PlantUML version 1.2020.02(Sun Mar 01 10:22:07 GMT 2020)
(GPL source distribution)
Java Runtime: OpenJDK Runtime Environment
JVM: OpenJDK 64-Bit Server VM
Java Version: 11.0.9+11-Ubuntu-0ubuntu1
Operating System: Linux
Default Encoding: ANSI_X3.4-1968
Language: en
Country: US
--></g></svg>