<?xml version="1.0" encoding="UTF-8" standalone="no"?><svg xmlns="http://www.w3.org/2000/svg" xmlns:xlink="http://www.w3.org/1999/xlink" contentScriptType="application/ecmascript" contentStyleType="text/css" height="251px" preserveAspectRatio="none" style="width:319px;height:251px;" version="1.1" viewBox="0 0 319 251" width="319px" zoomAndPan="magnify"><defs><filter height="300%" id="ftr9ailnwcbuy" width="300%" x="-1" y="-1"><feGaussianBlur result="blurOut" stdDeviation="2.0"/><feColorMatrix in="blurOut" result="blurOut2" type="matrix" values="0 0 0 0 0 0 0 0 0 0 0 0 0 0 0 0 0 0 .4 0"/><feOffset dx="4.0" dy="4.0" in="blurOut2" result="blurOut3"/><feBlend in="SourceGraphic" in2="blurOut3" mode="normal"/></filter></defs><g><!--MD5=[22de6a7d2b8ae3a1cebf29b123f42e22]
class PlayerControl--><rect fill="#FEFECE" filter="url(#ftr9ailnwcbuy)" height="124.8281" id="PlayerControl" style="stroke: #A80036; stroke-width: 1.5;" width="236" x="36" y="116"/><ellipse cx="108.25" cy="132" fill="#ADD1B2" rx="11" ry="11" style="stroke: #A80036; stroke-width: 1.0;"/><path d="M111.2188,137.6406 Q110.6406,137.9375 110,138.0781 Q109.3594,138.2344 108.6563,138.2344 Q106.1563,138.2344 104.8281,136.5938 Q103.5156,134.9375 103.5156,131.8125 Q103.5156,128.6875 104.8281,127.0313 Q106.1563,125.375 108.6563,125.375 Q109.3594,125.375 110,125.5313 Q110.6563,125.6875 111.2188,125.9844 L111.2188,128.7031 Q110.5938,128.125 110,127.8594 Q109.4063,127.5781 108.7813,127.5781 Q107.4375,127.5781 106.75,128.6563 Q106.0625,129.7188 106.0625,131.8125 Q106.0625,133.9063 106.75,134.9844 Q107.4375,136.0469 108.7813,136.0469 Q109.4063,136.0469 110,135.7813 Q110.5938,135.5 111.2188,134.9219 L111.2188,137.6406 Z "/><text fill="#000000" font-family="sans-serif" font-size="12" lengthAdjust="spacingAndGlyphs" textLength="83" x="128.75" y="136.1543">PlayerControl</text><line style="stroke: #A80036; stroke-width: 1.5;" x1="37" x2="271" y1="148" y2="148"/><line style="stroke: #A80036; stroke-width: 1.5;" x1="37" x2="271" y1="156" y2="156"/><text fill="#000000" font-family="sans-serif" font-size="11" lengthAdjust="spacingAndGlyphs" textLength="71" x="56" y="170.2104">Start() : void</text><text fill="#000000" font-family="sans-serif" font-size="11" lengthAdjust="spacingAndGlyphs" textLength="83" x="56" y="183.0151">Update() : void</text><text fill="#000000" font-family="sans-serif" font-size="11" lengthAdjust="spacingAndGlyphs" textLength="210" x="56" y="195.8198">OnMove(inputValue:InputValue) : void</text><text fill="#000000" font-family="sans-serif" font-size="11" lengthAdjust="spacingAndGlyphs" textLength="109" x="56" y="208.6245">OnCheckInv() : void</text><ellipse cx="47" cy="218.2188" fill="#84BE84" rx="3" ry="3" style="stroke: #038048; stroke-width: 1.0;"/><text fill="#000000" font-family="sans-serif" font-size="11" lengthAdjust="spacingAndGlyphs" textLength="185" x="56" y="221.4292">LoadData(data:GameData) : void</text><ellipse cx="47" cy="231.0234" fill="#84BE84" rx="3" ry="3" style="stroke: #038048; stroke-width: 1.0;"/><text fill="#000000" font-family="sans-serif" font-size="11" lengthAdjust="spacingAndGlyphs" textLength="186" x="56" y="234.2339">SaveData(data:GameData) : void</text><!--MD5=[83b3cf3d23d77c6f1e1b5291a241bc2a]
class MonoBehaviour--><rect fill="#FEFECE" filter="url(#ftr9ailnwcbuy)" height="48" id="MonoBehaviour" style="stroke: #A80036; stroke-width: 1.5;" width="128" x="6" y="8"/><ellipse cx="21" cy="24" fill="#ADD1B2" rx="11" ry="11" style="stroke: #A80036; stroke-width: 1.0;"/><path d="M23.9688,29.6406 Q23.3906,29.9375 22.75,30.0781 Q22.1094,30.2344 21.4063,30.2344 Q18.9063,30.2344 17.5781,28.5938 Q16.2656,26.9375 16.2656,23.8125 Q16.2656,20.6875 17.5781,19.0313 Q18.9063,17.375 21.4063,17.375 Q22.1094,17.375 22.75,17.5313 Q23.4063,17.6875 23.9688,17.9844 L23.9688,20.7031 Q23.3438,20.125 22.75,19.8594 Q22.1563,19.5781 21.5313,19.5781 Q20.1875,19.5781 19.5,20.6563 Q18.8125,21.7188 18.8125,23.8125 Q18.8125,25.9063 19.5,26.9844 Q20.1875,28.0469 21.5313,28.0469 Q22.1563,28.0469 22.75,27.7813 Q23.3438,27.5 23.9688,26.9219 L23.9688,29.6406 Z "/><text fill="#000000" font-family="sans-serif" font-size="12" lengthAdjust="spacingAndGlyphs" textLength="96" x="35" y="28.1543">MonoBehaviour</text><line style="stroke: #A80036; stroke-width: 1.5;" x1="7" x2="133" y1="40" y2="40"/><line style="stroke: #A80036; stroke-width: 1.5;" x1="7" x2="133" y1="48" y2="48"/><!--MD5=[64a01738e00397fdc051c8255b006b82]
class IDataPersistence--><rect fill="#FEFECE" filter="url(#ftr9ailnwcbuy)" height="48" id="IDataPersistence" style="stroke: #A80036; stroke-width: 1.5;" width="139" x="169.5" y="8"/><ellipse cx="184.5" cy="24" fill="#ADD1B2" rx="11" ry="11" style="stroke: #A80036; stroke-width: 1.0;"/><path d="M187.4688,29.6406 Q186.8906,29.9375 186.25,30.0781 Q185.6094,30.2344 184.9063,30.2344 Q182.4063,30.2344 181.0781,28.5938 Q179.7656,26.9375 179.7656,23.8125 Q179.7656,20.6875 181.0781,19.0313 Q182.4063,17.375 184.9063,17.375 Q185.6094,17.375 186.25,17.5313 Q186.9063,17.6875 187.4688,17.9844 L187.4688,20.7031 Q186.8438,20.125 186.25,19.8594 Q185.6563,19.5781 185.0313,19.5781 Q183.6875,19.5781 183,20.6563 Q182.3125,21.7188 182.3125,23.8125 Q182.3125,25.9063 183,26.9844 Q183.6875,28.0469 185.0313,28.0469 Q185.6563,28.0469 186.25,27.7813 Q186.8438,27.5 187.4688,26.9219 L187.4688,29.6406 Z "/><text fill="#000000" font-family="sans-serif" font-size="12" lengthAdjust="spacingAndGlyphs" textLength="107" x="198.5" y="28.1543">IDataPersistence</text><line style="stroke: #A80036; stroke-width: 1.5;" x1="170.5" x2="307.5" y1="40" y2="40"/><line style="stroke: #A80036; stroke-width: 1.5;" x1="170.5" x2="307.5" y1="48" y2="48"/><!--MD5=[b569287617691f3b4c9356709ca02041]
reverse link MonoBehaviour to PlayerControl--><path d="M93.78,73.9 C101.38,86.99 109.98,101.77 118.24,115.99 " fill="none" id="MonoBehaviour&lt;-PlayerControl" style="stroke: #A80036; stroke-width: 1.0;"/><polygon fill="none" points="87.5,77.03,83.5,56.22,99.6,69.99,87.5,77.03" style="stroke: #A80036; stroke-width: 1.0;"/><!--MD5=[f721ee15836e15dcffa95d2a0b7eb851]
reverse link IDataPersistence to PlayerControl--><path d="M214.94,73.9 C207.24,86.99 198.54,101.77 190.18,115.99 " fill="none" id="IDataPersistence&lt;-PlayerControl" style="stroke: #A80036; stroke-width: 1.0;"/><polygon fill="none" points="209.17,69.91,225.34,56.22,221.24,77,209.17,69.91" style="stroke: #A80036; stroke-width: 1.0;"/><!--MD5=[ac05cfb6e6d9a0c9586194c9b2872d61]
@startuml
class PlayerControl {
    Start() : void
    Update() : void
    OnMove(inputValue:InputValue) : void
    OnCheckInv() : void
    + LoadData(data:GameData) : void
    + SaveData(data:GameData) : void
}
MonoBehaviour <|- - PlayerControl
IDataPersistence <|- - PlayerControl
@enduml

PlantUML version 1.2020.02(Sun Mar 01 10:22:07 GMT 2020)
(GPL source distribution)
Java Runtime: OpenJDK Runtime Environment
JVM: OpenJDK 64-Bit Server VM
Java Version: 11.0.9+11-Ubuntu-0ubuntu1
Operating System: Linux
Default Encoding: ANSI_X3.4-1968
Language: en
Country: US
--></g></svg>