<?xml version="1.0" encoding="UTF-8" standalone="no"?><svg xmlns="http://www.w3.org/2000/svg" xmlns:xlink="http://www.w3.org/1999/xlink" contentScriptType="application/ecmascript" contentStyleType="text/css" height="379px" preserveAspectRatio="none" style="width:321px;height:379px;" version="1.1" viewBox="0 0 321 379" width="321px" zoomAndPan="magnify"><defs><filter height="300%" id="fg1sdjxsyr9oj" width="300%" x="-1" y="-1"><feGaussianBlur result="blurOut" stdDeviation="2.0"/><feColorMatrix in="blurOut" result="blurOut2" type="matrix" values="0 0 0 0 0 0 0 0 0 0 0 0 0 0 0 0 0 0 .4 0"/><feOffset dx="4.0" dy="4.0" in="blurOut2" result="blurOut3"/><feBlend in="SourceGraphic" in2="blurOut3" mode="normal"/></filter></defs><g><!--MD5=[22de6a7d2b8ae3a1cebf29b123f42e22]
class PlayerControl--><rect fill="#FEFECE" filter="url(#fg1sdjxsyr9oj)" height="252.875" id="PlayerControl" style="stroke: #A80036; stroke-width: 1.5;" width="304" x="6" y="116"/><ellipse cx="112.25" cy="132" fill="#ADD1B2" rx="11" ry="11" style="stroke: #A80036; stroke-width: 1.0;"/><path d="M115.2188,137.6406 Q114.6406,137.9375 114,138.0781 Q113.3594,138.2344 112.6563,138.2344 Q110.1563,138.2344 108.8281,136.5938 Q107.5156,134.9375 107.5156,131.8125 Q107.5156,128.6875 108.8281,127.0313 Q110.1563,125.375 112.6563,125.375 Q113.3594,125.375 114,125.5313 Q114.6563,125.6875 115.2188,125.9844 L115.2188,128.7031 Q114.5938,128.125 114,127.8594 Q113.4063,127.5781 112.7813,127.5781 Q111.4375,127.5781 110.75,128.6563 Q110.0625,129.7188 110.0625,131.8125 Q110.0625,133.9063 110.75,134.9844 Q111.4375,136.0469 112.7813,136.0469 Q113.4063,136.0469 114,135.7813 Q114.5938,135.5 115.2188,134.9219 L115.2188,137.6406 Z "/><text fill="#000000" font-family="sans-serif" font-size="12" lengthAdjust="spacingAndGlyphs" textLength="83" x="132.75" y="136.1543">PlayerControl</text><line style="stroke: #A80036; stroke-width: 1.5;" x1="7" x2="309" y1="148" y2="148"/><ellipse cx="17" cy="159" fill="none" rx="3" ry="3" style="stroke: #038048; stroke-width: 1.0;"/><text fill="#000000" font-family="sans-serif" font-size="11" lengthAdjust="spacingAndGlyphs" textLength="182" x="26" y="162.2104">maxVelocityChange : float = 10f</text><line style="stroke: #A80036; stroke-width: 1.5;" x1="7" x2="309" y1="168.8047" y2="168.8047"/><text fill="#000000" font-family="sans-serif" font-size="11" lengthAdjust="spacingAndGlyphs" textLength="71" x="26" y="183.0151">Start() : void</text><text fill="#000000" font-family="sans-serif" font-size="11" lengthAdjust="spacingAndGlyphs" textLength="112" x="26" y="195.8198">FixedUpdate() : void</text><ellipse cx="17" cy="205.4141" fill="#84BE84" rx="3" ry="3" style="stroke: #038048; stroke-width: 1.0;"/><text fill="#000000" font-family="sans-serif" font-size="11" lengthAdjust="spacingAndGlyphs" textLength="109" x="26" y="208.6245">setDegrees() : void</text><text fill="#000000" font-family="sans-serif" font-size="11" lengthAdjust="spacingAndGlyphs" textLength="210" x="26" y="221.4292">OnMove(inputValue:InputValue) : void</text><text fill="#000000" font-family="sans-serif" font-size="11" lengthAdjust="spacingAndGlyphs" textLength="138" x="26" y="234.2339">OnResetLocation() : void</text><text fill="#000000" font-family="sans-serif" font-size="11" lengthAdjust="spacingAndGlyphs" textLength="111" x="26" y="247.0386">OnCamera1() : void</text><text fill="#000000" font-family="sans-serif" font-size="11" lengthAdjust="spacingAndGlyphs" textLength="111" x="26" y="259.8433">OnCamera2() : void</text><text fill="#000000" font-family="sans-serif" font-size="11" lengthAdjust="spacingAndGlyphs" textLength="111" x="26" y="272.6479">OnCamera3() : void</text><text fill="#000000" font-family="sans-serif" font-size="11" lengthAdjust="spacingAndGlyphs" textLength="111" x="26" y="285.4526">OnCamera4() : void</text><text fill="#000000" font-family="sans-serif" font-size="11" lengthAdjust="spacingAndGlyphs" textLength="111" x="26" y="298.2573">OnCamera5() : void</text><text fill="#000000" font-family="sans-serif" font-size="11" lengthAdjust="spacingAndGlyphs" textLength="111" x="26" y="311.062">OnCamera6() : void</text><ellipse cx="17" cy="320.6563" fill="#84BE84" rx="3" ry="3" style="stroke: #038048; stroke-width: 1.0;"/><text fill="#000000" font-family="sans-serif" font-size="11" lengthAdjust="spacingAndGlyphs" textLength="278" x="26" y="323.8667">OnOverworldWaking(inputValue:InputValue) : void</text><ellipse cx="17" cy="333.4609" fill="#84BE84" rx="3" ry="3" style="stroke: #038048; stroke-width: 1.0;"/><text fill="#000000" font-family="sans-serif" font-size="11" lengthAdjust="spacingAndGlyphs" textLength="227" x="26" y="336.6714">OnWalkLeft(inputValue:InputValue) : void</text><ellipse cx="17" cy="346.2656" fill="#84BE84" rx="3" ry="3" style="stroke: #038048; stroke-width: 1.0;"/><text fill="#000000" font-family="sans-serif" font-size="11" lengthAdjust="spacingAndGlyphs" textLength="252" x="26" y="349.4761">OnWalkForward(inputValue:InputValue) : void</text><ellipse cx="17" cy="359.0703" fill="#84BE84" rx="3" ry="3" style="stroke: #038048; stroke-width: 1.0;"/><text fill="#000000" font-family="sans-serif" font-size="11" lengthAdjust="spacingAndGlyphs" textLength="234" x="26" y="362.2808">OnWalkRight(inputValue:InputValue) : void</text><!--MD5=[83b3cf3d23d77c6f1e1b5291a241bc2a]
class MonoBehaviour--><rect fill="#FEFECE" filter="url(#fg1sdjxsyr9oj)" height="48" id="MonoBehaviour" style="stroke: #A80036; stroke-width: 1.5;" width="128" x="94" y="8"/><ellipse cx="109" cy="24" fill="#ADD1B2" rx="11" ry="11" style="stroke: #A80036; stroke-width: 1.0;"/><path d="M111.9688,29.6406 Q111.3906,29.9375 110.75,30.0781 Q110.1094,30.2344 109.4063,30.2344 Q106.9063,30.2344 105.5781,28.5938 Q104.2656,26.9375 104.2656,23.8125 Q104.2656,20.6875 105.5781,19.0313 Q106.9063,17.375 109.4063,17.375 Q110.1094,17.375 110.75,17.5313 Q111.4063,17.6875 111.9688,17.9844 L111.9688,20.7031 Q111.3438,20.125 110.75,19.8594 Q110.1563,19.5781 109.5313,19.5781 Q108.1875,19.5781 107.5,20.6563 Q106.8125,21.7188 106.8125,23.8125 Q106.8125,25.9063 107.5,26.9844 Q108.1875,28.0469 109.5313,28.0469 Q110.1563,28.0469 110.75,27.7813 Q111.3438,27.5 111.9688,26.9219 L111.9688,29.6406 Z "/><text fill="#000000" font-family="sans-serif" font-size="12" lengthAdjust="spacingAndGlyphs" textLength="96" x="123" y="28.1543">MonoBehaviour</text><line style="stroke: #A80036; stroke-width: 1.5;" x1="95" x2="221" y1="40" y2="40"/><line style="stroke: #A80036; stroke-width: 1.5;" x1="95" x2="221" y1="48" y2="48"/><!--MD5=[b569287617691f3b4c9356709ca02041]
reverse link MonoBehaviour to PlayerControl--><path d="M158,76.21 C158,88.18 158,101.81 158,115.99 " fill="none" id="MonoBehaviour&lt;-PlayerControl" style="stroke: #A80036; stroke-width: 1.0;"/><polygon fill="none" points="151,76.11,158,56.11,165,76.11,151,76.11" style="stroke: #A80036; stroke-width: 1.0;"/><!--MD5=[b6ab4ac78ea0b11748b4bc6ae44d4b04]
@startuml
class PlayerControl {
    + maxVelocityChange : float = 10f
    Start() : void
    FixedUpdate() : void
    + setDegrees() : void
    OnMove(inputValue:InputValue) : void
    OnResetLocation() : void
    OnCamera1() : void
    OnCamera2() : void
    OnCamera3() : void
    OnCamera4() : void
    OnCamera5() : void
    OnCamera6() : void
    + OnOverworldWaking(inputValue:InputValue) : void
    + OnWalkLeft(inputValue:InputValue) : void
    + OnWalkForward(inputValue:InputValue) : void
    + OnWalkRight(inputValue:InputValue) : void
}
MonoBehaviour <|- - PlayerControl
@enduml

PlantUML version 1.2020.02(Sun Mar 01 10:22:07 GMT 2020)
(GPL source distribution)
Java Runtime: OpenJDK Runtime Environment
JVM: OpenJDK 64-Bit Server VM
Java Version: 11.0.9+11-Ubuntu-0ubuntu1
Operating System: Linux
Default Encoding: ANSI_X3.4-1968
Language: en
Country: US
--></g></svg>