<?xml version="1.0" encoding="UTF-8" standalone="no"?><svg xmlns="http://www.w3.org/2000/svg" xmlns:xlink="http://www.w3.org/1999/xlink" contentScriptType="application/ecmascript" contentStyleType="text/css" height="213px" preserveAspectRatio="none" style="width:239px;height:213px;" version="1.1" viewBox="0 0 239 213" width="239px" zoomAndPan="magnify"><defs><filter height="300%" id="fcqyio6cf5al8" width="300%" x="-1" y="-1"><feGaussianBlur result="blurOut" stdDeviation="2.0"/><feColorMatrix in="blurOut" result="blurOut2" type="matrix" values="0 0 0 0 0 0 0 0 0 0 0 0 0 0 0 0 0 0 .4 0"/><feOffset dx="4.0" dy="4.0" in="blurOut2" result="blurOut3"/><feBlend in="SourceGraphic" in2="blurOut3" mode="normal"/></filter></defs><g><!--MD5=[22de6a7d2b8ae3a1cebf29b123f42e22]
class PlayerControl--><rect fill="#FEFECE" filter="url(#fcqyio6cf5al8)" height="86.4141" id="PlayerControl" style="stroke: #A80036; stroke-width: 1.5;" width="222" x="6" y="116"/><ellipse cx="71.25" cy="132" fill="#ADD1B2" rx="11" ry="11" style="stroke: #A80036; stroke-width: 1.0;"/><path d="M74.2188,137.6406 Q73.6406,137.9375 73,138.0781 Q72.3594,138.2344 71.6563,138.2344 Q69.1563,138.2344 67.8281,136.5938 Q66.5156,134.9375 66.5156,131.8125 Q66.5156,128.6875 67.8281,127.0313 Q69.1563,125.375 71.6563,125.375 Q72.3594,125.375 73,125.5313 Q73.6563,125.6875 74.2188,125.9844 L74.2188,128.7031 Q73.5938,128.125 73,127.8594 Q72.4063,127.5781 71.7813,127.5781 Q70.4375,127.5781 69.75,128.6563 Q69.0625,129.7188 69.0625,131.8125 Q69.0625,133.9063 69.75,134.9844 Q70.4375,136.0469 71.7813,136.0469 Q72.4063,136.0469 73,135.7813 Q73.5938,135.5 74.2188,134.9219 L74.2188,137.6406 Z "/><text fill="#000000" font-family="sans-serif" font-size="12" lengthAdjust="spacingAndGlyphs" textLength="83" x="91.75" y="136.1543">PlayerControl</text><line style="stroke: #A80036; stroke-width: 1.5;" x1="7" x2="227" y1="148" y2="148"/><line style="stroke: #A80036; stroke-width: 1.5;" x1="7" x2="227" y1="156" y2="156"/><text fill="#000000" font-family="sans-serif" font-size="11" lengthAdjust="spacingAndGlyphs" textLength="71" x="12" y="170.2104">Start() : void</text><text fill="#000000" font-family="sans-serif" font-size="11" lengthAdjust="spacingAndGlyphs" textLength="83" x="12" y="183.0151">Update() : void</text><text fill="#000000" font-family="sans-serif" font-size="11" lengthAdjust="spacingAndGlyphs" textLength="210" x="12" y="195.8198">OnMove(inputValue:InputValue) : void</text><!--MD5=[83b3cf3d23d77c6f1e1b5291a241bc2a]
class MonoBehaviour--><rect fill="#FEFECE" filter="url(#fcqyio6cf5al8)" height="48" id="MonoBehaviour" style="stroke: #A80036; stroke-width: 1.5;" width="128" x="53" y="8"/><ellipse cx="68" cy="24" fill="#ADD1B2" rx="11" ry="11" style="stroke: #A80036; stroke-width: 1.0;"/><path d="M70.9688,29.6406 Q70.3906,29.9375 69.75,30.0781 Q69.1094,30.2344 68.4063,30.2344 Q65.9063,30.2344 64.5781,28.5938 Q63.2656,26.9375 63.2656,23.8125 Q63.2656,20.6875 64.5781,19.0313 Q65.9063,17.375 68.4063,17.375 Q69.1094,17.375 69.75,17.5313 Q70.4063,17.6875 70.9688,17.9844 L70.9688,20.7031 Q70.3438,20.125 69.75,19.8594 Q69.1563,19.5781 68.5313,19.5781 Q67.1875,19.5781 66.5,20.6563 Q65.8125,21.7188 65.8125,23.8125 Q65.8125,25.9063 66.5,26.9844 Q67.1875,28.0469 68.5313,28.0469 Q69.1563,28.0469 69.75,27.7813 Q70.3438,27.5 70.9688,26.9219 L70.9688,29.6406 Z "/><text fill="#000000" font-family="sans-serif" font-size="12" lengthAdjust="spacingAndGlyphs" textLength="96" x="82" y="28.1543">MonoBehaviour</text><line style="stroke: #A80036; stroke-width: 1.5;" x1="54" x2="180" y1="40" y2="40"/><line style="stroke: #A80036; stroke-width: 1.5;" x1="54" x2="180" y1="48" y2="48"/><!--MD5=[b569287617691f3b4c9356709ca02041]
reverse link MonoBehaviour to PlayerControl--><path d="M117,76.27 C117,89.12 117,103.17 117,115.94 " fill="none" id="MonoBehaviour&lt;-PlayerControl" style="stroke: #A80036; stroke-width: 1.0;"/><polygon fill="none" points="110,76.22,117,56.22,124,76.22,110,76.22" style="stroke: #A80036; stroke-width: 1.0;"/><!--MD5=[e29d99879642254cc99c5dbff789697e]
@startuml
class PlayerControl {
    Start() : void
    Update() : void
    OnMove(inputValue:InputValue) : void
}
MonoBehaviour <|- - PlayerControl
@enduml

PlantUML version 1.2020.02(Sun Mar 01 10:22:07 GMT 2020)
(GPL source distribution)
Java Runtime: OpenJDK Runtime Environment
JVM: OpenJDK 64-Bit Server VM
Java Version: 11.0.9+11-Ubuntu-0ubuntu1
Operating System: Linux
Default Encoding: ANSI_X3.4-1968
Language: en
Country: US
--></g></svg>