<?xml version="1.0" encoding="UTF-8" standalone="no"?><svg xmlns="http://www.w3.org/2000/svg" xmlns:xlink="http://www.w3.org/1999/xlink" contentScriptType="application/ecmascript" contentStyleType="text/css" height="290px" preserveAspectRatio="none" style="width:253px;height:290px;" version="1.1" viewBox="0 0 253 290" width="253px" zoomAndPan="magnify"><defs><filter height="300%" id="f1ivdu2bp9ib1z" width="300%" x="-1" y="-1"><feGaussianBlur result="blurOut" stdDeviation="2.0"/><feColorMatrix in="blurOut" result="blurOut2" type="matrix" values="0 0 0 0 0 0 0 0 0 0 0 0 0 0 0 0 0 0 .4 0"/><feOffset dx="4.0" dy="4.0" in="blurOut2" result="blurOut3"/><feBlend in="SourceGraphic" in2="blurOut3" mode="normal"/></filter></defs><g><!--MD5=[22de6a7d2b8ae3a1cebf29b123f42e22]
class PlayerControl--><rect fill="#FEFECE" filter="url(#f1ivdu2bp9ib1z)" height="163.2422" id="PlayerControl" style="stroke: #A80036; stroke-width: 1.5;" width="236" x="6" y="116"/><ellipse cx="78.25" cy="132" fill="#ADD1B2" rx="11" ry="11" style="stroke: #A80036; stroke-width: 1.0;"/><path d="M81.2188,137.6406 Q80.6406,137.9375 80,138.0781 Q79.3594,138.2344 78.6563,138.2344 Q76.1563,138.2344 74.8281,136.5938 Q73.5156,134.9375 73.5156,131.8125 Q73.5156,128.6875 74.8281,127.0313 Q76.1563,125.375 78.6563,125.375 Q79.3594,125.375 80,125.5313 Q80.6563,125.6875 81.2188,125.9844 L81.2188,128.7031 Q80.5938,128.125 80,127.8594 Q79.4063,127.5781 78.7813,127.5781 Q77.4375,127.5781 76.75,128.6563 Q76.0625,129.7188 76.0625,131.8125 Q76.0625,133.9063 76.75,134.9844 Q77.4375,136.0469 78.7813,136.0469 Q79.4063,136.0469 80,135.7813 Q80.5938,135.5 81.2188,134.9219 L81.2188,137.6406 Z "/><text fill="#000000" font-family="sans-serif" font-size="12" lengthAdjust="spacingAndGlyphs" textLength="83" x="98.75" y="136.1543">PlayerControl</text><line style="stroke: #A80036; stroke-width: 1.5;" x1="7" x2="241" y1="148" y2="148"/><ellipse cx="17" cy="159" fill="none" rx="3" ry="3" style="stroke: #038048; stroke-width: 1.0;"/><text fill="#000000" font-family="sans-serif" font-size="11" lengthAdjust="spacingAndGlyphs" textLength="182" x="26" y="162.2104">maxVelocityChange : float = 10f</text><line style="stroke: #A80036; stroke-width: 1.5;" x1="7" x2="241" y1="168.8047" y2="168.8047"/><text fill="#000000" font-family="sans-serif" font-size="11" lengthAdjust="spacingAndGlyphs" textLength="71" x="26" y="183.0151">Start() : void</text><text fill="#000000" font-family="sans-serif" font-size="11" lengthAdjust="spacingAndGlyphs" textLength="112" x="26" y="195.8198">FixedUpdate() : void</text><ellipse cx="17" cy="205.4141" fill="#84BE84" rx="3" ry="3" style="stroke: #038048; stroke-width: 1.0;"/><text fill="#000000" font-family="sans-serif" font-size="11" lengthAdjust="spacingAndGlyphs" textLength="109" x="26" y="208.6245">setDegrees() : void</text><text fill="#000000" font-family="sans-serif" font-size="11" lengthAdjust="spacingAndGlyphs" textLength="210" x="26" y="221.4292">OnMove(inputValue:InputValue) : void</text><text fill="#000000" font-family="sans-serif" font-size="11" lengthAdjust="spacingAndGlyphs" textLength="111" x="26" y="234.2339">OnCamera1() : void</text><text fill="#000000" font-family="sans-serif" font-size="11" lengthAdjust="spacingAndGlyphs" textLength="111" x="26" y="247.0386">OnCamera2() : void</text><text fill="#000000" font-family="sans-serif" font-size="11" lengthAdjust="spacingAndGlyphs" textLength="111" x="26" y="259.8433">OnCamera3() : void</text><text fill="#000000" font-family="sans-serif" font-size="11" lengthAdjust="spacingAndGlyphs" textLength="111" x="26" y="272.6479">OnCamera4() : void</text><!--MD5=[83b3cf3d23d77c6f1e1b5291a241bc2a]
class MonoBehaviour--><rect fill="#FEFECE" filter="url(#f1ivdu2bp9ib1z)" height="48" id="MonoBehaviour" style="stroke: #A80036; stroke-width: 1.5;" width="128" x="60" y="8"/><ellipse cx="75" cy="24" fill="#ADD1B2" rx="11" ry="11" style="stroke: #A80036; stroke-width: 1.0;"/><path d="M77.9688,29.6406 Q77.3906,29.9375 76.75,30.0781 Q76.1094,30.2344 75.4063,30.2344 Q72.9063,30.2344 71.5781,28.5938 Q70.2656,26.9375 70.2656,23.8125 Q70.2656,20.6875 71.5781,19.0313 Q72.9063,17.375 75.4063,17.375 Q76.1094,17.375 76.75,17.5313 Q77.4063,17.6875 77.9688,17.9844 L77.9688,20.7031 Q77.3438,20.125 76.75,19.8594 Q76.1563,19.5781 75.5313,19.5781 Q74.1875,19.5781 73.5,20.6563 Q72.8125,21.7188 72.8125,23.8125 Q72.8125,25.9063 73.5,26.9844 Q74.1875,28.0469 75.5313,28.0469 Q76.1563,28.0469 76.75,27.7813 Q77.3438,27.5 77.9688,26.9219 L77.9688,29.6406 Z "/><text fill="#000000" font-family="sans-serif" font-size="12" lengthAdjust="spacingAndGlyphs" textLength="96" x="89" y="28.1543">MonoBehaviour</text><line style="stroke: #A80036; stroke-width: 1.5;" x1="61" x2="187" y1="40" y2="40"/><line style="stroke: #A80036; stroke-width: 1.5;" x1="61" x2="187" y1="48" y2="48"/><!--MD5=[b569287617691f3b4c9356709ca02041]
reverse link MonoBehaviour to PlayerControl--><path d="M124,76.19 C124,88.45 124,102.21 124,115.93 " fill="none" id="MonoBehaviour&lt;-PlayerControl" style="stroke: #A80036; stroke-width: 1.0;"/><polygon fill="none" points="117,76.08,124,56.08,131,76.08,117,76.08" style="stroke: #A80036; stroke-width: 1.0;"/><!--MD5=[cf35a832aa8de05f075f874627492688]
@startuml
class PlayerControl {
    + maxVelocityChange : float = 10f
    Start() : void
    FixedUpdate() : void
    + setDegrees() : void
    OnMove(inputValue:InputValue) : void
    OnCamera1() : void
    OnCamera2() : void
    OnCamera3() : void
    OnCamera4() : void
}
MonoBehaviour <|- - PlayerControl
@enduml

PlantUML version 1.2020.02(Sun Mar 01 10:22:07 GMT 2020)
(GPL source distribution)
Java Runtime: OpenJDK Runtime Environment
JVM: OpenJDK 64-Bit Server VM
Java Version: 11.0.9+11-Ubuntu-0ubuntu1
Operating System: Linux
Default Encoding: ANSI_X3.4-1968
Language: en
Country: US
--></g></svg>