<?xml version="1.0" encoding="UTF-8" standalone="no"?><svg xmlns="http://www.w3.org/2000/svg" xmlns:xlink="http://www.w3.org/1999/xlink" contentScriptType="application/ecmascript" contentStyleType="text/css" height="354px" preserveAspectRatio="none" style="width:295px;height:354px;" version="1.1" viewBox="0 0 295 354" width="295px" zoomAndPan="magnify"><defs><filter height="300%" id="f1d2m15bkr4bdf" width="300%" x="-1" y="-1"><feGaussianBlur result="blurOut" stdDeviation="2.0"/><feColorMatrix in="blurOut" result="blurOut2" type="matrix" values="0 0 0 0 0 0 0 0 0 0 0 0 0 0 0 0 0 0 .4 0"/><feOffset dx="4.0" dy="4.0" in="blurOut2" result="blurOut3"/><feBlend in="SourceGraphic" in2="blurOut3" mode="normal"/></filter></defs><g><!--MD5=[22de6a7d2b8ae3a1cebf29b123f42e22]
class PlayerControl--><rect fill="#FEFECE" filter="url(#f1d2m15bkr4bdf)" height="227.2656" id="PlayerControl" style="stroke: #A80036; stroke-width: 1.5;" width="278" x="6" y="116"/><ellipse cx="99.25" cy="132" fill="#ADD1B2" rx="11" ry="11" style="stroke: #A80036; stroke-width: 1.0;"/><path d="M102.2188,137.6406 Q101.6406,137.9375 101,138.0781 Q100.3594,138.2344 99.6563,138.2344 Q97.1563,138.2344 95.8281,136.5938 Q94.5156,134.9375 94.5156,131.8125 Q94.5156,128.6875 95.8281,127.0313 Q97.1563,125.375 99.6563,125.375 Q100.3594,125.375 101,125.5313 Q101.6563,125.6875 102.2188,125.9844 L102.2188,128.7031 Q101.5938,128.125 101,127.8594 Q100.4063,127.5781 99.7813,127.5781 Q98.4375,127.5781 97.75,128.6563 Q97.0625,129.7188 97.0625,131.8125 Q97.0625,133.9063 97.75,134.9844 Q98.4375,136.0469 99.7813,136.0469 Q100.4063,136.0469 101,135.7813 Q101.5938,135.5 102.2188,134.9219 L102.2188,137.6406 Z "/><text fill="#000000" font-family="sans-serif" font-size="12" lengthAdjust="spacingAndGlyphs" textLength="83" x="119.75" y="136.1543">PlayerControl</text><line style="stroke: #A80036; stroke-width: 1.5;" x1="7" x2="283" y1="148" y2="148"/><ellipse cx="17" cy="159" fill="none" rx="3" ry="3" style="stroke: #038048; stroke-width: 1.0;"/><text fill="#000000" font-family="sans-serif" font-size="11" lengthAdjust="spacingAndGlyphs" textLength="182" x="26" y="162.2104">maxVelocityChange : float = 10f</text><line style="stroke: #A80036; stroke-width: 1.5;" x1="7" x2="283" y1="168.8047" y2="168.8047"/><text fill="#000000" font-family="sans-serif" font-size="11" lengthAdjust="spacingAndGlyphs" textLength="71" x="26" y="183.0151">Start() : void</text><text fill="#000000" font-family="sans-serif" font-size="11" lengthAdjust="spacingAndGlyphs" textLength="112" x="26" y="195.8198">FixedUpdate() : void</text><ellipse cx="17" cy="205.4141" fill="#84BE84" rx="3" ry="3" style="stroke: #038048; stroke-width: 1.0;"/><text fill="#000000" font-family="sans-serif" font-size="11" lengthAdjust="spacingAndGlyphs" textLength="109" x="26" y="208.6245">setDegrees() : void</text><text fill="#000000" font-family="sans-serif" font-size="11" lengthAdjust="spacingAndGlyphs" textLength="210" x="26" y="221.4292">OnMove(inputValue:InputValue) : void</text><text fill="#000000" font-family="sans-serif" font-size="11" lengthAdjust="spacingAndGlyphs" textLength="111" x="26" y="234.2339">OnCamera1() : void</text><text fill="#000000" font-family="sans-serif" font-size="11" lengthAdjust="spacingAndGlyphs" textLength="111" x="26" y="247.0386">OnCamera2() : void</text><text fill="#000000" font-family="sans-serif" font-size="11" lengthAdjust="spacingAndGlyphs" textLength="111" x="26" y="259.8433">OnCamera3() : void</text><text fill="#000000" font-family="sans-serif" font-size="11" lengthAdjust="spacingAndGlyphs" textLength="111" x="26" y="272.6479">OnCamera4() : void</text><text fill="#000000" font-family="sans-serif" font-size="11" lengthAdjust="spacingAndGlyphs" textLength="111" x="26" y="285.4526">OnCamera5() : void</text><text fill="#000000" font-family="sans-serif" font-size="11" lengthAdjust="spacingAndGlyphs" textLength="111" x="26" y="298.2573">OnCamera6() : void</text><ellipse cx="17" cy="307.8516" fill="#84BE84" rx="3" ry="3" style="stroke: #038048; stroke-width: 1.0;"/><text fill="#000000" font-family="sans-serif" font-size="11" lengthAdjust="spacingAndGlyphs" textLength="227" x="26" y="311.062">OnWalkLeft(inputValue:InputValue) : void</text><ellipse cx="17" cy="320.6563" fill="#84BE84" rx="3" ry="3" style="stroke: #038048; stroke-width: 1.0;"/><text fill="#000000" font-family="sans-serif" font-size="11" lengthAdjust="spacingAndGlyphs" textLength="252" x="26" y="323.8667">OnWalkForward(inputValue:InputValue) : void</text><ellipse cx="17" cy="333.4609" fill="#84BE84" rx="3" ry="3" style="stroke: #038048; stroke-width: 1.0;"/><text fill="#000000" font-family="sans-serif" font-size="11" lengthAdjust="spacingAndGlyphs" textLength="234" x="26" y="336.6714">OnWalkRight(inputValue:InputValue) : void</text><!--MD5=[83b3cf3d23d77c6f1e1b5291a241bc2a]
class MonoBehaviour--><rect fill="#FEFECE" filter="url(#f1d2m15bkr4bdf)" height="48" id="MonoBehaviour" style="stroke: #A80036; stroke-width: 1.5;" width="128" x="81" y="8"/><ellipse cx="96" cy="24" fill="#ADD1B2" rx="11" ry="11" style="stroke: #A80036; stroke-width: 1.0;"/><path d="M98.9688,29.6406 Q98.3906,29.9375 97.75,30.0781 Q97.1094,30.2344 96.4063,30.2344 Q93.9063,30.2344 92.5781,28.5938 Q91.2656,26.9375 91.2656,23.8125 Q91.2656,20.6875 92.5781,19.0313 Q93.9063,17.375 96.4063,17.375 Q97.1094,17.375 97.75,17.5313 Q98.4063,17.6875 98.9688,17.9844 L98.9688,20.7031 Q98.3438,20.125 97.75,19.8594 Q97.1563,19.5781 96.5313,19.5781 Q95.1875,19.5781 94.5,20.6563 Q93.8125,21.7188 93.8125,23.8125 Q93.8125,25.9063 94.5,26.9844 Q95.1875,28.0469 96.5313,28.0469 Q97.1563,28.0469 97.75,27.7813 Q98.3438,27.5 98.9688,26.9219 L98.9688,29.6406 Z "/><text fill="#000000" font-family="sans-serif" font-size="12" lengthAdjust="spacingAndGlyphs" textLength="96" x="110" y="28.1543">MonoBehaviour</text><line style="stroke: #A80036; stroke-width: 1.5;" x1="82" x2="208" y1="40" y2="40"/><line style="stroke: #A80036; stroke-width: 1.5;" x1="82" x2="208" y1="48" y2="48"/><!--MD5=[b569287617691f3b4c9356709ca02041]
reverse link MonoBehaviour to PlayerControl--><path d="M145,76.38 C145,88.38 145,101.97 145,115.98 " fill="none" id="MonoBehaviour&lt;-PlayerControl" style="stroke: #A80036; stroke-width: 1.0;"/><polygon fill="none" points="138,76.19,145,56.19,152,76.19,138,76.19" style="stroke: #A80036; stroke-width: 1.0;"/><!--MD5=[ed849113b3d6cf9eb7518204c74ed93d]
@startuml
class PlayerControl {
    + maxVelocityChange : float = 10f
    Start() : void
    FixedUpdate() : void
    + setDegrees() : void
    OnMove(inputValue:InputValue) : void
    OnCamera1() : void
    OnCamera2() : void
    OnCamera3() : void
    OnCamera4() : void
    OnCamera5() : void
    OnCamera6() : void
    + OnWalkLeft(inputValue:InputValue) : void
    + OnWalkForward(inputValue:InputValue) : void
    + OnWalkRight(inputValue:InputValue) : void
}
MonoBehaviour <|- - PlayerControl
@enduml

PlantUML version 1.2020.02(Sun Mar 01 10:22:07 GMT 2020)
(GPL source distribution)
Java Runtime: OpenJDK Runtime Environment
JVM: OpenJDK 64-Bit Server VM
Java Version: 11.0.9+11-Ubuntu-0ubuntu1
Operating System: Linux
Default Encoding: ANSI_X3.4-1968
Language: en
Country: US
--></g></svg>