<?xml version="1.0" encoding="UTF-8" standalone="no"?><svg xmlns="http://www.w3.org/2000/svg" xmlns:xlink="http://www.w3.org/1999/xlink" contentScriptType="application/ecmascript" contentStyleType="text/css" height="200px" preserveAspectRatio="none" style="width:362px;height:200px;" version="1.1" viewBox="0 0 362 200" width="362px" zoomAndPan="magnify"><defs><filter height="300%" id="fk5o6io39wsnc" width="300%" x="-1" y="-1"><feGaussianBlur result="blurOut" stdDeviation="2.0"/><feColorMatrix in="blurOut" result="blurOut2" type="matrix" values="0 0 0 0 0 0 0 0 0 0 0 0 0 0 0 0 0 0 .4 0"/><feOffset dx="4.0" dy="4.0" in="blurOut2" result="blurOut3"/><feBlend in="SourceGraphic" in2="blurOut3" mode="normal"/></filter></defs><g><!--MD5=[3935cbc3b44446c0457925e337477fcd]
class SceneSwitching--><rect fill="#FEFECE" filter="url(#fk5o6io39wsnc)" height="73.6094" id="SceneSwitching" style="stroke: #A80036; stroke-width: 1.5;" width="345" x="6" y="116"/><ellipse cx="125.25" cy="132" fill="#ADD1B2" rx="11" ry="11" style="stroke: #A80036; stroke-width: 1.0;"/><path d="M128.2188,137.6406 Q127.6406,137.9375 127,138.0781 Q126.3594,138.2344 125.6563,138.2344 Q123.1563,138.2344 121.8281,136.5938 Q120.5156,134.9375 120.5156,131.8125 Q120.5156,128.6875 121.8281,127.0313 Q123.1563,125.375 125.6563,125.375 Q126.3594,125.375 127,125.5313 Q127.6563,125.6875 128.2188,125.9844 L128.2188,128.7031 Q127.5938,128.125 127,127.8594 Q126.4063,127.5781 125.7813,127.5781 Q124.4375,127.5781 123.75,128.6563 Q123.0625,129.7188 123.0625,131.8125 Q123.0625,133.9063 123.75,134.9844 Q124.4375,136.0469 125.7813,136.0469 Q126.4063,136.0469 127,135.7813 Q127.5938,135.5 128.2188,134.9219 L128.2188,137.6406 Z "/><text fill="#000000" font-family="sans-serif" font-size="12" lengthAdjust="spacingAndGlyphs" textLength="98" x="145.75" y="136.1543">SceneSwitching</text><line style="stroke: #A80036; stroke-width: 1.5;" x1="7" x2="350" y1="148" y2="148"/><line style="stroke: #A80036; stroke-width: 1.5;" x1="7" x2="350" y1="156" y2="156"/><ellipse cx="17" cy="167" fill="#84BE84" rx="3" ry="3" style="stroke: #038048; stroke-width: 1.0;"/><text fill="#000000" font-family="sans-serif" font-size="11" lengthAdjust="spacingAndGlyphs" textLength="130" x="26" y="170.2104">LoadNextScene() : void</text><text fill="#000000" font-family="sans-serif" font-size="11" lengthAdjust="spacingAndGlyphs" textLength="319" x="26" y="183.0151">LoadNextSceneAfterSeconds(seconds:int) : IEnumerator</text><!--MD5=[83b3cf3d23d77c6f1e1b5291a241bc2a]
class MonoBehaviour--><rect fill="#FEFECE" filter="url(#fk5o6io39wsnc)" height="48" id="MonoBehaviour" style="stroke: #A80036; stroke-width: 1.5;" width="128" x="114.5" y="8"/><ellipse cx="129.5" cy="24" fill="#ADD1B2" rx="11" ry="11" style="stroke: #A80036; stroke-width: 1.0;"/><path d="M132.4688,29.6406 Q131.8906,29.9375 131.25,30.0781 Q130.6094,30.2344 129.9063,30.2344 Q127.4063,30.2344 126.0781,28.5938 Q124.7656,26.9375 124.7656,23.8125 Q124.7656,20.6875 126.0781,19.0313 Q127.4063,17.375 129.9063,17.375 Q130.6094,17.375 131.25,17.5313 Q131.9063,17.6875 132.4688,17.9844 L132.4688,20.7031 Q131.8438,20.125 131.25,19.8594 Q130.6563,19.5781 130.0313,19.5781 Q128.6875,19.5781 128,20.6563 Q127.3125,21.7188 127.3125,23.8125 Q127.3125,25.9063 128,26.9844 Q128.6875,28.0469 130.0313,28.0469 Q130.6563,28.0469 131.25,27.7813 Q131.8438,27.5 132.4688,26.9219 L132.4688,29.6406 Z "/><text fill="#000000" font-family="sans-serif" font-size="12" lengthAdjust="spacingAndGlyphs" textLength="96" x="143.5" y="28.1543">MonoBehaviour</text><line style="stroke: #A80036; stroke-width: 1.5;" x1="115.5" x2="241.5" y1="40" y2="40"/><line style="stroke: #A80036; stroke-width: 1.5;" x1="115.5" x2="241.5" y1="48" y2="48"/><!--MD5=[871b43a04ea39df01fe9a42d40e84e78]
reverse link MonoBehaviour to SceneSwitching--><path d="M178.5,76.43 C178.5,89.33 178.5,103.32 178.5,115.71 " fill="none" id="MonoBehaviour&lt;-SceneSwitching" style="stroke: #A80036; stroke-width: 1.0;"/><polygon fill="none" points="171.5,76.23,178.5,56.23,185.5,76.23,171.5,76.23" style="stroke: #A80036; stroke-width: 1.0;"/><!--MD5=[8b5c005a8e3d9192da16b290b9df81db]
@startuml
class SceneSwitching {
    + LoadNextScene() : void
    LoadNextSceneAfterSeconds(seconds:int) : IEnumerator
}
MonoBehaviour <|- - SceneSwitching
@enduml

PlantUML version 1.2020.02(Sun Mar 01 10:22:07 GMT 2020)
(GPL source distribution)
Java Runtime: OpenJDK Runtime Environment
JVM: OpenJDK 64-Bit Server VM
Java Version: 11.0.9+11-Ubuntu-0ubuntu1
Operating System: Linux
Default Encoding: ANSI_X3.4-1968
Language: en
Country: US
--></g></svg>