<?xml version="1.0" encoding="UTF-8" standalone="no"?><svg xmlns="http://www.w3.org/2000/svg" xmlns:xlink="http://www.w3.org/1999/xlink" contentScriptType="application/ecmascript" contentStyleType="text/css" height="213px" preserveAspectRatio="none" style="width:162px;height:213px;" version="1.1" viewBox="0 0 162 213" width="162px" zoomAndPan="magnify"><defs><filter height="300%" id="fl6c6ud74z9gb" width="300%" x="-1" y="-1"><feGaussianBlur result="blurOut" stdDeviation="2.0"/><feColorMatrix in="blurOut" result="blurOut2" type="matrix" values="0 0 0 0 0 0 0 0 0 0 0 0 0 0 0 0 0 0 .4 0"/><feOffset dx="4.0" dy="4.0" in="blurOut2" result="blurOut3"/><feBlend in="SourceGraphic" in2="blurOut3" mode="normal"/></filter></defs><g><!--MD5=[1309937ea5fe2fbbcecca52948766994]
class ProgressionEnum--><rect fill="#FEFECE" filter="url(#fl6c6ud74z9gb)" height="48" id="ProgressionEnum" style="stroke: #A80036; stroke-width: 1.5;" width="142" x="7.5" y="8"/><ellipse cx="22.5" cy="24" fill="#ADD1B2" rx="11" ry="11" style="stroke: #A80036; stroke-width: 1.0;"/><path d="M25.4688,29.6406 Q24.8906,29.9375 24.25,30.0781 Q23.6094,30.2344 22.9063,30.2344 Q20.4063,30.2344 19.0781,28.5938 Q17.7656,26.9375 17.7656,23.8125 Q17.7656,20.6875 19.0781,19.0313 Q20.4063,17.375 22.9063,17.375 Q23.6094,17.375 24.25,17.5313 Q24.9063,17.6875 25.4688,17.9844 L25.4688,20.7031 Q24.8438,20.125 24.25,19.8594 Q23.6563,19.5781 23.0313,19.5781 Q21.6875,19.5781 21,20.6563 Q20.3125,21.7188 20.3125,23.8125 Q20.3125,25.9063 21,26.9844 Q21.6875,28.0469 23.0313,28.0469 Q23.6563,28.0469 24.25,27.7813 Q24.8438,27.5 25.4688,26.9219 L25.4688,29.6406 Z "/><text fill="#000000" font-family="sans-serif" font-size="12" lengthAdjust="spacingAndGlyphs" textLength="110" x="36.5" y="28.1543">ProgressionEnum</text><line style="stroke: #A80036; stroke-width: 1.5;" x1="8.5" x2="148.5" y1="40" y2="40"/><line style="stroke: #A80036; stroke-width: 1.5;" x1="8.5" x2="148.5" y1="48" y2="48"/><!--MD5=[4de1964b7b68dd82ba1b4c35a637f3da]
class gameProgression--><rect fill="#FEFECE" filter="url(#fl6c6ud74z9gb)" height="86.4141" id="gameProgression" style="stroke: #A80036; stroke-width: 1.5;" width="145" x="6" y="116"/><ellipse cx="22.35" cy="132" fill="#EB937F" rx="11" ry="11" style="stroke: #A80036; stroke-width: 1.0;"/><path d="M26.4594,138 L18.7406,138 L18.7406,125.6094 L26.4594,125.6094 L26.4594,127.7656 L21.1938,127.7656 L21.1938,130.4375 L25.9594,130.4375 L25.9594,132.5938 L21.1938,132.5938 L21.1938,135.8438 L26.4594,135.8438 L26.4594,138 Z "/><text fill="#000000" font-family="sans-serif" font-size="12" lengthAdjust="spacingAndGlyphs" textLength="110" x="36.65" y="136.1543">gameProgression</text><line style="stroke: #A80036; stroke-width: 1.5;" x1="7" x2="150" y1="148" y2="148"/><text fill="#000000" font-family="sans-serif" font-size="11" lengthAdjust="spacingAndGlyphs" textLength="31" x="12" y="162.2104">start,</text><text fill="#000000" font-family="sans-serif" font-size="11" lengthAdjust="spacingAndGlyphs" textLength="133" x="12" y="175.0151">talkToDetectiveInOffice,</text><text fill="#000000" font-family="sans-serif" font-size="11" lengthAdjust="spacingAndGlyphs" textLength="93" x="12" y="187.8198">toFriendsHouse,</text><line style="stroke: #A80036; stroke-width: 1.5;" x1="7" x2="150" y1="194.4141" y2="194.4141"/><!--MD5=[a486f3261d7febc1dd9273cf693f1f32]
reverse link ProgressionEnum to gameProgression--><path d="M78.5,71.63 C78.5,85.67 78.5,101.61 78.5,115.94 " fill="none" id="ProgressionEnum&lt;-gameProgression" style="stroke: #A80036; stroke-width: 1.0;"/><ellipse cx="78.5" cy="64.22" fill="#FFFFFF" rx="8" ry="8" style="stroke: #A80036; stroke-width: 1.0;"/><line style="stroke: #A80036; stroke-width: 1.0;" x1="78.5" x2="78.5" y1="72.22" y2="56.22"/><line style="stroke: #A80036; stroke-width: 1.0;" x1="70.5" x2="86.5" y1="64.22" y2="64.22"/><!--MD5=[a6701741bfa8ba7e4daffaae88ea7eea]
@startuml
class ProgressionEnum {
}
enum gameProgression {
    start,
    talkToDetectiveInOffice,
    toFriendsHouse,
}
ProgressionEnum +- - gameProgression
@enduml

PlantUML version 1.2020.02(Sun Mar 01 10:22:07 GMT 2020)
(GPL source distribution)
Java Runtime: OpenJDK Runtime Environment
JVM: OpenJDK 64-Bit Server VM
Java Version: 11.0.9+11-Ubuntu-0ubuntu1
Operating System: Linux
Default Encoding: ANSI_X3.4-1968
Language: en
Country: US
--></g></svg>