<?xml version="1.0" encoding="UTF-8" standalone="no"?><svg xmlns="http://www.w3.org/2000/svg" xmlns:xlink="http://www.w3.org/1999/xlink" contentScriptType="application/ecmascript" contentStyleType="text/css" height="200px" preserveAspectRatio="none" style="width:418px;height:200px;" version="1.1" viewBox="0 0 418 200" width="418px" zoomAndPan="magnify"><defs><filter height="300%" id="fj9b04ffhk0ta" width="300%" x="-1" y="-1"><feGaussianBlur result="blurOut" stdDeviation="2.0"/><feColorMatrix in="blurOut" result="blurOut2" type="matrix" values="0 0 0 0 0 0 0 0 0 0 0 0 0 0 0 0 0 0 .4 0"/><feOffset dx="4.0" dy="4.0" in="blurOut2" result="blurOut3"/><feBlend in="SourceGraphic" in2="blurOut3" mode="normal"/></filter></defs><g><!--MD5=[aaa379bd266866bb51e2acf276d18bb1]
class SerliazableDictionary`2--><rect fill="#FEFECE" filter="url(#fj9b04ffhk0ta)" height="73.6094" id="SerliazableDictionary`2" style="stroke: #A80036; stroke-width: 1.5;" width="255" x="64.42" y="116"/><ellipse cx="79.42" cy="132" fill="#ADD1B2" rx="11" ry="11" style="stroke: #A80036; stroke-width: 1.0;"/><path d="M82.3888,137.6406 Q81.8106,137.9375 81.17,138.0781 Q80.5294,138.2344 79.8263,138.2344 Q77.3263,138.2344 75.9981,136.5938 Q74.6856,134.9375 74.6856,131.8125 Q74.6856,128.6875 75.9981,127.0313 Q77.3263,125.375 79.8263,125.375 Q80.5294,125.375 81.17,125.5313 Q81.8263,125.6875 82.3888,125.9844 L82.3888,128.7031 Q81.7638,128.125 81.17,127.8594 Q80.5763,127.5781 79.9513,127.5781 Q78.6075,127.5781 77.92,128.6563 Q77.2325,129.7188 77.2325,131.8125 Q77.2325,133.9063 77.92,134.9844 Q78.6075,136.0469 79.9513,136.0469 Q80.5763,136.0469 81.17,135.7813 Q81.7638,135.5 82.3888,134.9219 L82.3888,137.6406 Z "/><text fill="#000000" font-family="sans-serif" font-size="12" lengthAdjust="spacingAndGlyphs" textLength="143" x="93.42" y="136.1543">SerliazableDictionary`2</text><rect fill="#FFFFFF" height="15.9688" style="stroke: #000000; stroke-width: 1.0; stroke-dasharray: 2.0,2.0;" width="78" x="244.42" y="113"/><text fill="#000000" font-family="sans-serif" font-size="12" font-style="italic" lengthAdjust="spacingAndGlyphs" textLength="76" x="245.42" y="125.1387">TKey,TValue</text><line style="stroke: #A80036; stroke-width: 1.5;" x1="65.42" x2="318.42" y1="148" y2="148"/><line style="stroke: #A80036; stroke-width: 1.5;" x1="65.42" x2="318.42" y1="156" y2="156"/><ellipse cx="75.42" cy="167" fill="#84BE84" rx="3" ry="3" style="stroke: #038048; stroke-width: 1.0;"/><text fill="#000000" font-family="sans-serif" font-size="11" lengthAdjust="spacingAndGlyphs" textLength="145" x="84.42" y="170.2104">OnBeforeSerialize() : void</text><ellipse cx="75.42" cy="179.8047" fill="#84BE84" rx="3" ry="3" style="stroke: #038048; stroke-width: 1.0;"/><text fill="#000000" font-family="sans-serif" font-size="11" lengthAdjust="spacingAndGlyphs" textLength="148" x="84.42" y="183.0151">OnAfterDeserialize() : void</text><!--MD5=[2e1ff885372daab8d802f213ced6c836]
class Dictionary`2--><rect fill="#FEFECE" filter="url(#fj9b04ffhk0ta)" height="48" id="Dictionary`2" style="stroke: #A80036; stroke-width: 1.5;" width="146" x="10.92" y="8"/><ellipse cx="25.92" cy="24" fill="#ADD1B2" rx="11" ry="11" style="stroke: #A80036; stroke-width: 1.0;"/><path d="M28.8888,29.6406 Q28.3106,29.9375 27.67,30.0781 Q27.0294,30.2344 26.3263,30.2344 Q23.8263,30.2344 22.4981,28.5938 Q21.1856,26.9375 21.1856,23.8125 Q21.1856,20.6875 22.4981,19.0313 Q23.8263,17.375 26.3263,17.375 Q27.0294,17.375 27.67,17.5313 Q28.3263,17.6875 28.8888,17.9844 L28.8888,20.7031 Q28.2638,20.125 27.67,19.8594 Q27.0763,19.5781 26.4513,19.5781 Q25.1075,19.5781 24.42,20.6563 Q23.7325,21.7188 23.7325,23.8125 Q23.7325,25.9063 24.42,26.9844 Q25.1075,28.0469 26.4513,28.0469 Q27.0763,28.0469 27.67,27.7813 Q28.2638,27.5 28.8888,26.9219 L28.8888,29.6406 Z "/><text fill="#000000" font-family="sans-serif" font-size="12" lengthAdjust="spacingAndGlyphs" textLength="76" x="39.92" y="28.1543">Dictionary`2</text><rect fill="#FFFFFF" height="15.9688" style="stroke: #000000; stroke-width: 1.0; stroke-dasharray: 2.0,2.0;" width="36" x="123.92" y="5"/><text fill="#000000" font-family="sans-serif" font-size="12" font-style="italic" lengthAdjust="spacingAndGlyphs" textLength="34" x="124.92" y="17.1387">T1,T2</text><line style="stroke: #A80036; stroke-width: 1.5;" x1="11.92" x2="155.92" y1="40" y2="40"/><line style="stroke: #A80036; stroke-width: 1.5;" x1="11.92" x2="155.92" y1="48" y2="48"/><!--MD5=[0dfbb11c972259f3733cbabb03bd6b0c]
class ISerializationCallbackReceiver--><rect fill="#FEFECE" filter="url(#fj9b04ffhk0ta)" height="48" id="ISerializationCallbackReceiver" style="stroke: #A80036; stroke-width: 1.5;" width="215" x="192.42" y="8"/><ellipse cx="207.42" cy="24" fill="#ADD1B2" rx="11" ry="11" style="stroke: #A80036; stroke-width: 1.0;"/><path d="M210.3888,29.6406 Q209.8106,29.9375 209.17,30.0781 Q208.5294,30.2344 207.8263,30.2344 Q205.3263,30.2344 203.9981,28.5938 Q202.6856,26.9375 202.6856,23.8125 Q202.6856,20.6875 203.9981,19.0313 Q205.3263,17.375 207.8263,17.375 Q208.5294,17.375 209.17,17.5313 Q209.8263,17.6875 210.3888,17.9844 L210.3888,20.7031 Q209.7638,20.125 209.17,19.8594 Q208.5763,19.5781 207.9513,19.5781 Q206.6075,19.5781 205.92,20.6563 Q205.2325,21.7188 205.2325,23.8125 Q205.2325,25.9063 205.92,26.9844 Q206.6075,28.0469 207.9513,28.0469 Q208.5763,28.0469 209.17,27.7813 Q209.7638,27.5 210.3888,26.9219 L210.3888,29.6406 Z "/><text fill="#000000" font-family="sans-serif" font-size="12" lengthAdjust="spacingAndGlyphs" textLength="183" x="221.42" y="28.1543">ISerializationCallbackReceiver</text><line style="stroke: #A80036; stroke-width: 1.5;" x1="193.42" x2="406.42" y1="40" y2="40"/><line style="stroke: #A80036; stroke-width: 1.5;" x1="193.42" x2="406.42" y1="48" y2="48"/><!--MD5=[544c32e44621694cb91bc9095da849ff]
reverse link Dictionary`2 to SerliazableDictionary`2--><path d="M118.69,71.31 C131.61,85.55 146.23,101.66 158.99,115.71 " fill="none" id="Dictionary`2&lt;-SerliazableDictionary`2" style="stroke: #A80036; stroke-width: 1.0;"/><polygon fill="none" points="113.26,75.74,105,56.23,123.62,66.33,113.26,75.74" style="stroke: #A80036; stroke-width: 1.0;"/><text fill="#000000" font-family="sans-serif" font-size="13" lengthAdjust="spacingAndGlyphs" textLength="99" x="-0.9274" y="76.0473">&lt;TKey,TValue&gt;</text><!--MD5=[f587d6b06d20e5c461f22f611a765834]
reverse link ISerializationCallbackReceiver to SerliazableDictionary`2--><path d="M265.15,71.31 C252.23,85.55 237.61,101.66 224.85,115.71 " fill="none" id="ISerializationCallbackReceiver&lt;-SerliazableDictionary`2" style="stroke: #A80036; stroke-width: 1.0;"/><polygon fill="none" points="260.22,66.33,278.84,56.23,270.58,75.74,260.22,66.33" style="stroke: #A80036; stroke-width: 1.0;"/><!--MD5=[a8400cd24817c9706dc08cd62165ae65]
@startuml
class "SerliazableDictionary`2"<TKey,TValue> {
    + OnBeforeSerialize() : void
    + OnAfterDeserialize() : void
}
class "Dictionary`2"<T1,T2> {
}
"Dictionary`2" "<TKey,TValue>" <|- - "SerliazableDictionary`2"
ISerializationCallbackReceiver <|- - "SerliazableDictionary`2"
@enduml

PlantUML version 1.2020.02(Sun Mar 01 10:22:07 GMT 2020)
(GPL source distribution)
Java Runtime: OpenJDK Runtime Environment
JVM: OpenJDK 64-Bit Server VM
Java Version: 11.0.9+11-Ubuntu-0ubuntu1
Operating System: Linux
Default Encoding: ANSI_X3.4-1968
Language: en
Country: US
--></g></svg>