<?xml version="1.0" encoding="UTF-8" standalone="no"?><svg xmlns="http://www.w3.org/2000/svg" xmlns:xlink="http://www.w3.org/1999/xlink" contentScriptType="application/ecmascript" contentStyleType="text/css" height="188px" preserveAspectRatio="none" style="width:479px;height:188px;" version="1.1" viewBox="0 0 479 188" width="479px" zoomAndPan="magnify"><defs><filter height="300%" id="fhd644fszqlj8" width="300%" x="-1" y="-1"><feGaussianBlur result="blurOut" stdDeviation="2.0"/><feColorMatrix in="blurOut" result="blurOut2" type="matrix" values="0 0 0 0 0 0 0 0 0 0 0 0 0 0 0 0 0 0 .4 0"/><feOffset dx="4.0" dy="4.0" in="blurOut2" result="blurOut3"/><feBlend in="SourceGraphic" in2="blurOut3" mode="normal"/></filter></defs><g><!--MD5=[3a1df58f5ca7c799726477b091835e69]
class CommentBlockData--><rect fill="#FEFECE" filter="url(#fhd644fszqlj8)" height="60.8047" id="CommentBlockData" style="stroke: #A80036; stroke-width: 1.5;" width="211" x="6" y="8"/><ellipse cx="46.65" cy="24" fill="#ADD1B2" rx="11" ry="11" style="stroke: #A80036; stroke-width: 1.0;"/><path d="M49.6188,29.6406 Q49.0406,29.9375 48.4,30.0781 Q47.7594,30.2344 47.0563,30.2344 Q44.5563,30.2344 43.2281,28.5938 Q41.9156,26.9375 41.9156,23.8125 Q41.9156,20.6875 43.2281,19.0313 Q44.5563,17.375 47.0563,17.375 Q47.7594,17.375 48.4,17.5313 Q49.0563,17.6875 49.6188,17.9844 L49.6188,20.7031 Q48.9938,20.125 48.4,19.8594 Q47.8063,19.5781 47.1813,19.5781 Q45.8375,19.5781 45.15,20.6563 Q44.4625,21.7188 44.4625,23.8125 Q44.4625,25.9063 45.15,26.9844 Q45.8375,28.0469 47.1813,28.0469 Q47.8063,28.0469 48.4,27.7813 Q48.9938,27.5 49.6188,26.9219 L49.6188,29.6406 Z "/><text fill="#000000" font-family="sans-serif" font-size="12" lengthAdjust="spacingAndGlyphs" textLength="122" x="66.35" y="28.1543">CommentBlockData</text><line style="stroke: #A80036; stroke-width: 1.5;" x1="7" x2="216" y1="40" y2="40"/><ellipse cx="17" cy="51" fill="none" rx="3" ry="3" style="stroke: #038048; stroke-width: 1.0;"/><text fill="#000000" font-family="sans-serif" font-size="11" lengthAdjust="spacingAndGlyphs" textLength="185" x="26" y="54.2104">Title : string = "Comment Block"</text><line style="stroke: #A80036; stroke-width: 1.5;" x1="7" x2="216" y1="60.8047" y2="60.8047"/><!--MD5=[e644022de7dea015dd09463c37421447]
class List`1--><rect fill="#FEFECE" filter="url(#fhd644fszqlj8)" height="48" id="List`1" style="stroke: #A80036; stroke-width: 1.5;" width="78" x="252.5" y="14.5"/><ellipse cx="267.5" cy="30.5" fill="#ADD1B2" rx="11" ry="11" style="stroke: #A80036; stroke-width: 1.0;"/><path d="M270.4688,36.1406 Q269.8906,36.4375 269.25,36.5781 Q268.6094,36.7344 267.9063,36.7344 Q265.4063,36.7344 264.0781,35.0938 Q262.7656,33.4375 262.7656,30.3125 Q262.7656,27.1875 264.0781,25.5313 Q265.4063,23.875 267.9063,23.875 Q268.6094,23.875 269.25,24.0313 Q269.9063,24.1875 270.4688,24.4844 L270.4688,27.2031 Q269.8438,26.625 269.25,26.3594 Q268.6563,26.0781 268.0313,26.0781 Q266.6875,26.0781 266,27.1563 Q265.3125,28.2188 265.3125,30.3125 Q265.3125,32.4063 266,33.4844 Q266.6875,34.5469 268.0313,34.5469 Q268.6563,34.5469 269.25,34.2813 Q269.8438,34 270.4688,33.4219 L270.4688,36.1406 Z "/><text fill="#000000" font-family="sans-serif" font-size="12" lengthAdjust="spacingAndGlyphs" textLength="35" x="281.5" y="34.6543">List`1</text><rect fill="#FFFFFF" height="15.9688" style="stroke: #000000; stroke-width: 1.0; stroke-dasharray: 2.0,2.0;" width="9" x="324.5" y="11.5"/><text fill="#000000" font-family="sans-serif" font-size="12" font-style="italic" lengthAdjust="spacingAndGlyphs" textLength="7" x="325.5" y="23.6387">T</text><line style="stroke: #A80036; stroke-width: 1.5;" x1="253.5" x2="329.5" y1="46.5" y2="46.5"/><line style="stroke: #A80036; stroke-width: 1.5;" x1="253.5" x2="329.5" y1="54.5" y2="54.5"/><!--MD5=[3f551f1273bbfa514d2f681c1c48b5c1]
class Vector2--><rect fill="#FEFECE" filter="url(#fhd644fszqlj8)" height="48" id="Vector2" style="stroke: #A80036; stroke-width: 1.5;" width="81" x="71" y="129"/><ellipse cx="86" cy="145" fill="#ADD1B2" rx="11" ry="11" style="stroke: #A80036; stroke-width: 1.0;"/><path d="M88.9688,150.6406 Q88.3906,150.9375 87.75,151.0781 Q87.1094,151.2344 86.4063,151.2344 Q83.9063,151.2344 82.5781,149.5938 Q81.2656,147.9375 81.2656,144.8125 Q81.2656,141.6875 82.5781,140.0313 Q83.9063,138.375 86.4063,138.375 Q87.1094,138.375 87.75,138.5313 Q88.4063,138.6875 88.9688,138.9844 L88.9688,141.7031 Q88.3438,141.125 87.75,140.8594 Q87.1563,140.5781 86.5313,140.5781 Q85.1875,140.5781 84.5,141.6563 Q83.8125,142.7188 83.8125,144.8125 Q83.8125,146.9063 84.5,147.9844 Q85.1875,149.0469 86.5313,149.0469 Q87.1563,149.0469 87.75,148.7813 Q88.3438,148.5 88.9688,147.9219 L88.9688,150.6406 Z "/><text fill="#000000" font-family="sans-serif" font-size="12" lengthAdjust="spacingAndGlyphs" textLength="49" x="100" y="149.1543">Vector2</text><line style="stroke: #A80036; stroke-width: 1.5;" x1="72" x2="151" y1="161" y2="161"/><line style="stroke: #A80036; stroke-width: 1.5;" x1="72" x2="151" y1="169" y2="169"/><!--MD5=[d88c1043145b80092a1775bd3643a73a]
link CommentBlockData to List`1--><path d="M229.32,38.5 C229.32,38.5 236.4,38.5 239.37,38.5 " fill="none" id="CommentBlockData-List`1" style="stroke: #A80036; stroke-width: 1.0;"/><polygon fill="#A80036" points="252.38,38.5,243.38,34.5,247.38,38.5,243.38,42.5,252.38,38.5" style="stroke: #A80036; stroke-width: 1.0;"/><line style="stroke: #A80036; stroke-width: 1.0;" x1="247.38" x2="239.38" y1="38.5" y2="38.5"/><polygon fill="#FFFFFF" points="217.32,38.5,223.32,42.5,229.32,38.5,223.32,34.5,217.32,38.5" style="stroke: #A80036; stroke-width: 1.0;"/><text fill="#000000" font-family="sans-serif" font-size="13" lengthAdjust="spacingAndGlyphs" textLength="130" x="337.784" y="11.036">ChildNodes&lt;string&gt;</text><!--MD5=[f5d1d9080ed6d1cbcb24134428a1dd29]
link CommentBlockData to Vector2--><path d="M111.5,69.06 C111.5,85.93 111.5,106.98 111.5,123.65 " fill="none" id="CommentBlockData-&gt;Vector2" style="stroke: #A80036; stroke-width: 1.0;"/><polygon fill="#A80036" points="111.5,128.67,115.5,119.67,111.5,123.67,107.5,119.67,111.5,128.67" style="stroke: #A80036; stroke-width: 1.0;"/><text fill="#000000" font-family="sans-serif" font-size="13" lengthAdjust="spacingAndGlyphs" textLength="50" x="55.4063" y="117.9945">Position</text><!--MD5=[bb7358fddffaa88589baba305dfe6da5]
@startuml
class CommentBlockData {
    + Title : string = "Comment Block"
}
class "List`1"<T> {
}
CommentBlockData o-> "ChildNodes<string>" "List`1"
CommentBlockData - -> "Position" Vector2
@enduml

PlantUML version 1.2020.02(Sun Mar 01 10:22:07 GMT 2020)
(GPL source distribution)
Java Runtime: OpenJDK Runtime Environment
JVM: OpenJDK 64-Bit Server VM
Java Version: 11.0.9+11-Ubuntu-0ubuntu1
Operating System: Linux
Default Encoding: ANSI_X3.4-1968
Language: en
Country: US
--></g></svg>