<?xml version="1.0" encoding="UTF-8" standalone="no"?><svg xmlns="http://www.w3.org/2000/svg" xmlns:xlink="http://www.w3.org/1999/xlink" contentScriptType="application/ecmascript" contentStyleType="text/css" height="265px" preserveAspectRatio="none" style="width:508px;height:265px;" version="1.1" viewBox="0 0 508 265" width="508px" zoomAndPan="magnify"><defs><filter height="300%" id="f11w379v5idr4c" width="300%" x="-1" y="-1"><feGaussianBlur result="blurOut" stdDeviation="2.0"/><feColorMatrix in="blurOut" result="blurOut2" type="matrix" values="0 0 0 0 0 0 0 0 0 0 0 0 0 0 0 0 0 0 .4 0"/><feOffset dx="4.0" dy="4.0" in="blurOut2" result="blurOut3"/><feBlend in="SourceGraphic" in2="blurOut3" mode="normal"/></filter></defs><g><!--MD5=[899ca10f3eeacf83c6bcd467fee6f311]
class DialogueNodeData--><rect fill="#FEFECE" filter="url(#f11w379v5idr4c)" height="137.6328" id="DialogueNodeData" style="stroke: #A80036; stroke-width: 1.5;" width="198" x="6" y="8"/><ellipse cx="42.6" cy="24" fill="#ADD1B2" rx="11" ry="11" style="stroke: #A80036; stroke-width: 1.0;"/><path d="M45.5688,29.6406 Q44.9906,29.9375 44.35,30.0781 Q43.7094,30.2344 43.0063,30.2344 Q40.5063,30.2344 39.1781,28.5938 Q37.8656,26.9375 37.8656,23.8125 Q37.8656,20.6875 39.1781,19.0313 Q40.5063,17.375 43.0063,17.375 Q43.7094,17.375 44.35,17.5313 Q45.0063,17.6875 45.5688,17.9844 L45.5688,20.7031 Q44.9438,20.125 44.35,19.8594 Q43.7563,19.5781 43.1313,19.5781 Q41.7875,19.5781 41.1,20.6563 Q40.4125,21.7188 40.4125,23.8125 Q40.4125,25.9063 41.1,26.9844 Q41.7875,28.0469 43.1313,28.0469 Q43.7563,28.0469 44.35,27.7813 Q44.9438,27.5 45.5688,26.9219 L45.5688,29.6406 Z "/><text fill="#000000" font-family="sans-serif" font-size="12" lengthAdjust="spacingAndGlyphs" textLength="118" x="61.4" y="28.1543">DialogueNodeData</text><line style="stroke: #A80036; stroke-width: 1.5;" x1="7" x2="203" y1="40" y2="40"/><ellipse cx="17" cy="51" fill="none" rx="3" ry="3" style="stroke: #038048; stroke-width: 1.0;"/><text fill="#000000" font-family="sans-serif" font-size="11" lengthAdjust="spacingAndGlyphs" textLength="99" x="26" y="54.2104">nodeGuid : string</text><ellipse cx="17" cy="63.8047" fill="none" rx="3" ry="3" style="stroke: #038048; stroke-width: 1.0;"/><text fill="#000000" font-family="sans-serif" font-size="11" lengthAdjust="spacingAndGlyphs" textLength="117" x="26" y="67.0151">dialogueText : string</text><ellipse cx="17" cy="76.6094" fill="none" rx="3" ry="3" style="stroke: #038048; stroke-width: 1.0;"/><text fill="#000000" font-family="sans-serif" font-size="11" lengthAdjust="spacingAndGlyphs" textLength="125" x="26" y="79.8198">SpeakerName : string</text><ellipse cx="17" cy="89.4141" fill="none" rx="3" ry="3" style="stroke: #038048; stroke-width: 1.0;"/><text fill="#000000" font-family="sans-serif" font-size="11" lengthAdjust="spacingAndGlyphs" textLength="172" x="26" y="92.6245">SpeakerNameLocation : string</text><ellipse cx="17" cy="102.2188" fill="none" rx="3" ry="3" style="stroke: #038048; stroke-width: 1.0;"/><text fill="#000000" font-family="sans-serif" font-size="11" lengthAdjust="spacingAndGlyphs" textLength="147" x="26" y="105.4292">SpeakerSpriteLeft : string</text><ellipse cx="17" cy="115.0234" fill="none" rx="3" ry="3" style="stroke: #038048; stroke-width: 1.0;"/><text fill="#000000" font-family="sans-serif" font-size="11" lengthAdjust="spacingAndGlyphs" textLength="154" x="26" y="118.2339">SpeakerSpriteRight : string</text><ellipse cx="17" cy="127.8281" fill="none" rx="3" ry="3" style="stroke: #038048; stroke-width: 1.0;"/><text fill="#000000" font-family="sans-serif" font-size="11" lengthAdjust="spacingAndGlyphs" textLength="161" x="26" y="131.0386">canSkipFromThisPoint : bool</text><line style="stroke: #A80036; stroke-width: 1.5;" x1="7" x2="203" y1="137.6328" y2="137.6328"/><!--MD5=[e644022de7dea015dd09463c37421447]
class List`1--><rect fill="#FEFECE" filter="url(#f11w379v5idr4c)" height="48" id="List`1" style="stroke: #A80036; stroke-width: 1.5;" width="78" x="239" y="53"/><ellipse cx="254" cy="69" fill="#ADD1B2" rx="11" ry="11" style="stroke: #A80036; stroke-width: 1.0;"/><path d="M256.9688,74.6406 Q256.3906,74.9375 255.75,75.0781 Q255.1094,75.2344 254.4063,75.2344 Q251.9063,75.2344 250.5781,73.5938 Q249.2656,71.9375 249.2656,68.8125 Q249.2656,65.6875 250.5781,64.0313 Q251.9063,62.375 254.4063,62.375 Q255.1094,62.375 255.75,62.5313 Q256.4063,62.6875 256.9688,62.9844 L256.9688,65.7031 Q256.3438,65.125 255.75,64.8594 Q255.1563,64.5781 254.5313,64.5781 Q253.1875,64.5781 252.5,65.6563 Q251.8125,66.7188 251.8125,68.8125 Q251.8125,70.9063 252.5,71.9844 Q253.1875,73.0469 254.5313,73.0469 Q255.1563,73.0469 255.75,72.7813 Q256.3438,72.5 256.9688,71.9219 L256.9688,74.6406 Z "/><text fill="#000000" font-family="sans-serif" font-size="12" lengthAdjust="spacingAndGlyphs" textLength="35" x="268" y="73.1543">List`1</text><rect fill="#FFFFFF" height="15.9688" style="stroke: #000000; stroke-width: 1.0; stroke-dasharray: 2.0,2.0;" width="9" x="311" y="50"/><text fill="#000000" font-family="sans-serif" font-size="12" font-style="italic" lengthAdjust="spacingAndGlyphs" textLength="7" x="312" y="62.1387">T</text><line style="stroke: #A80036; stroke-width: 1.5;" x1="240" x2="316" y1="85" y2="85"/><line style="stroke: #A80036; stroke-width: 1.5;" x1="240" x2="316" y1="93" y2="93"/><!--MD5=[3f551f1273bbfa514d2f681c1c48b5c1]
class Vector2--><rect fill="#FEFECE" filter="url(#f11w379v5idr4c)" height="48" id="Vector2" style="stroke: #A80036; stroke-width: 1.5;" width="81" x="64.5" y="206"/><ellipse cx="79.5" cy="222" fill="#ADD1B2" rx="11" ry="11" style="stroke: #A80036; stroke-width: 1.0;"/><path d="M82.4688,227.6406 Q81.8906,227.9375 81.25,228.0781 Q80.6094,228.2344 79.9063,228.2344 Q77.4063,228.2344 76.0781,226.5938 Q74.7656,224.9375 74.7656,221.8125 Q74.7656,218.6875 76.0781,217.0313 Q77.4063,215.375 79.9063,215.375 Q80.6094,215.375 81.25,215.5313 Q81.9063,215.6875 82.4688,215.9844 L82.4688,218.7031 Q81.8438,218.125 81.25,217.8594 Q80.6563,217.5781 80.0313,217.5781 Q78.6875,217.5781 78,218.6563 Q77.3125,219.7188 77.3125,221.8125 Q77.3125,223.9063 78,224.9844 Q78.6875,226.0469 80.0313,226.0469 Q80.6563,226.0469 81.25,225.7813 Q81.8438,225.5 82.4688,224.9219 L82.4688,227.6406 Z "/><text fill="#000000" font-family="sans-serif" font-size="12" lengthAdjust="spacingAndGlyphs" textLength="49" x="93.5" y="226.1543">Vector2</text><line style="stroke: #A80036; stroke-width: 1.5;" x1="65.5" x2="144.5" y1="238" y2="238"/><line style="stroke: #A80036; stroke-width: 1.5;" x1="65.5" x2="144.5" y1="246" y2="246"/><!--MD5=[a1bd3b8fa50f2e75004d8d402e8bc2d0]
link DialogueNodeData to Vector2--><path d="M105,146.43 C105,165.64 105,185.47 105,200.87 " fill="none" id="DialogueNodeData-&gt;Vector2" style="stroke: #A80036; stroke-width: 1.0;"/><polygon fill="#A80036" points="105,205.92,109,196.92,105,200.92,101,196.92,105,205.92" style="stroke: #A80036; stroke-width: 1.0;"/><text fill="#000000" font-family="sans-serif" font-size="13" lengthAdjust="spacingAndGlyphs" textLength="50" x="48.5938" y="194.9115">position</text><!--MD5=[e5528e7415673a1ed4d84feaddd6d741]
link DialogueNodeData to List`1--><path d="M215.6141,124.6511 C215.6141,124.6511 235.02,116.23 244.21,109.53 " fill="none" id="DialogueNodeData-List`1" style="stroke: #A80036; stroke-width: 1.0;"/><polygon fill="#A80036" points="254.59,101.22,245.0634,103.7188,250.6857,104.3435,250.061,109.9657,254.59,101.22" style="stroke: #A80036; stroke-width: 1.0;"/><line style="stroke: #A80036; stroke-width: 1.0;" x1="250.6857" x2="244.44" y1="104.3435" y2="109.35"/><polygon fill="#FFFFFF" points="204,127.67,210.8133,130.0319,215.6141,124.6511,208.8007,122.2892,204,127.67" style="stroke: #A80036; stroke-width: 1.0;"/><text fill="#000000" font-family="sans-serif" font-size="13" lengthAdjust="spacingAndGlyphs" textLength="221" x="275.8182" y="121.0348">ItemPortCombis&lt;ItemPortCombi&gt;</text><!--MD5=[e5528e7415673a1ed4d84feaddd6d741]
link DialogueNodeData to List`1--><path d="M215.6141,29.3489 C215.6141,29.3489 235.02,37.77 244.21,44.47 " fill="none" id="DialogueNodeData-List`1-1" style="stroke: #A80036; stroke-width: 1.0;"/><polygon fill="#A80036" points="254.59,52.78,250.061,44.0343,250.6857,49.6565,245.0634,50.2812,254.59,52.78" style="stroke: #A80036; stroke-width: 1.0;"/><line style="stroke: #A80036; stroke-width: 1.0;" x1="250.6857" x2="244.44" y1="49.6565" y2="44.65"/><polygon fill="#FFFFFF" points="204,26.33,208.8007,31.7108,215.6141,29.3489,210.8133,23.9681,204,26.33" style="stroke: #A80036; stroke-width: 1.0;"/><text fill="#000000" font-family="sans-serif" font-size="13" lengthAdjust="spacingAndGlyphs" textLength="118" x="263.2651" y="42.1313">SkipPorts&lt;string&gt;</text><!--MD5=[eb84662ec6facd948c5ba67dd06cba35]
@startuml
class DialogueNodeData {
    + nodeGuid : string
    + dialogueText : string
    + SpeakerName : string
    + SpeakerNameLocation : string
    + SpeakerSpriteLeft : string
    + SpeakerSpriteRight : string
    + canSkipFromThisPoint : bool
}
class "List`1"<T> {
}
DialogueNodeData - -> "position" Vector2
DialogueNodeData o-> "ItemPortCombis<ItemPortCombi>" "List`1"
DialogueNodeData o-> "SkipPorts<string>" "List`1"
@enduml

PlantUML version 1.2020.02(Sun Mar 01 10:22:07 GMT 2020)
(GPL source distribution)
Java Runtime: OpenJDK Runtime Environment
JVM: OpenJDK 64-Bit Server VM
Java Version: 11.0.9+11-Ubuntu-0ubuntu1
Operating System: Linux
Default Encoding: ANSI_X3.4-1968
Language: en
Country: US
--></g></svg>