<?xml version="1.0" encoding="UTF-8" standalone="no"?><svg xmlns="http://www.w3.org/2000/svg" xmlns:xlink="http://www.w3.org/1999/xlink" contentScriptType="application/ecmascript" contentStyleType="text/css" height="197px" preserveAspectRatio="none" style="width:645px;height:197px;" version="1.1" viewBox="0 0 645 197" width="645px" zoomAndPan="magnify"><defs><filter height="300%" id="f11x2hxp9scnrx" width="300%" x="-1" y="-1"><feGaussianBlur result="blurOut" stdDeviation="2.0"/><feColorMatrix in="blurOut" result="blurOut2" type="matrix" values="0 0 0 0 0 0 0 0 0 0 0 0 0 0 0 0 0 0 .4 0"/><feOffset dx="4.0" dy="4.0" in="blurOut2" result="blurOut3"/><feBlend in="SourceGraphic" in2="blurOut3" mode="normal"/></filter></defs><g><!--MD5=[3888aca562e08728a6bbef80bc4508cb]
class DialogueContainer--><rect fill="#FEFECE" filter="url(#f11x2hxp9scnrx)" height="48" id="DialogueContainer" style="stroke: #A80036; stroke-width: 1.5;" width="148" x="87.16" y="115.99"/><ellipse cx="102.16" cy="131.99" fill="#ADD1B2" rx="11" ry="11" style="stroke: #A80036; stroke-width: 1.0;"/><path d="M105.1288,137.6306 Q104.5506,137.9275 103.91,138.0681 Q103.2694,138.2244 102.5663,138.2244 Q100.0663,138.2244 98.7381,136.5838 Q97.4256,134.9275 97.4256,131.8025 Q97.4256,128.6775 98.7381,127.0213 Q100.0663,125.365 102.5663,125.365 Q103.2694,125.365 103.91,125.5213 Q104.5663,125.6775 105.1288,125.9744 L105.1288,128.6931 Q104.5038,128.115 103.91,127.8494 Q103.3163,127.5681 102.6913,127.5681 Q101.3475,127.5681 100.66,128.6463 Q99.9725,129.7088 99.9725,131.8025 Q99.9725,133.8963 100.66,134.9744 Q101.3475,136.0369 102.6913,136.0369 Q103.3163,136.0369 103.91,135.7713 Q104.5038,135.49 105.1288,134.9119 L105.1288,137.6306 Z "/><text fill="#000000" font-family="sans-serif" font-size="12" lengthAdjust="spacingAndGlyphs" textLength="116" x="116.16" y="136.1443">DialogueContainer</text><line style="stroke: #A80036; stroke-width: 1.5;" x1="88.16" x2="234.16" y1="147.99" y2="147.99"/><line style="stroke: #A80036; stroke-width: 1.5;" x1="88.16" x2="234.16" y1="155.99" y2="155.99"/><!--MD5=[e644022de7dea015dd09463c37421447]
class List`1--><rect fill="#FEFECE" filter="url(#f11x2hxp9scnrx)" height="48" id="List`1" style="stroke: #A80036; stroke-width: 1.5;" width="78" x="270.16" y="115.99"/><ellipse cx="285.16" cy="131.99" fill="#ADD1B2" rx="11" ry="11" style="stroke: #A80036; stroke-width: 1.0;"/><path d="M288.1287,137.6306 Q287.5506,137.9275 286.91,138.0681 Q286.2694,138.2244 285.5662,138.2244 Q283.0662,138.2244 281.7381,136.5838 Q280.4256,134.9275 280.4256,131.8025 Q280.4256,128.6775 281.7381,127.0213 Q283.0662,125.365 285.5662,125.365 Q286.2694,125.365 286.91,125.5213 Q287.5662,125.6775 288.1287,125.9744 L288.1287,128.6931 Q287.5037,128.115 286.91,127.8494 Q286.3162,127.5681 285.6912,127.5681 Q284.3475,127.5681 283.66,128.6463 Q282.9725,129.7088 282.9725,131.8025 Q282.9725,133.8963 283.66,134.9744 Q284.3475,136.0369 285.6912,136.0369 Q286.3162,136.0369 286.91,135.7713 Q287.5037,135.49 288.1287,134.9119 L288.1287,137.6306 Z "/><text fill="#000000" font-family="sans-serif" font-size="12" lengthAdjust="spacingAndGlyphs" textLength="35" x="299.16" y="136.1443">List`1</text><rect fill="#FFFFFF" height="15.9688" style="stroke: #000000; stroke-width: 1.0; stroke-dasharray: 2.0,2.0;" width="9" x="342.16" y="112.99"/><text fill="#000000" font-family="sans-serif" font-size="12" font-style="italic" lengthAdjust="spacingAndGlyphs" textLength="7" x="343.16" y="125.1287">T</text><line style="stroke: #A80036; stroke-width: 1.5;" x1="271.16" x2="347.16" y1="147.99" y2="147.99"/><line style="stroke: #A80036; stroke-width: 1.5;" x1="271.16" x2="347.16" y1="155.99" y2="155.99"/><!--MD5=[44895057fba17b10f3053a7baa21df04]
class ScriptableObject--><rect fill="#FEFECE" filter="url(#f11x2hxp9scnrx)" height="48" id="ScriptableObject" style="stroke: #A80036; stroke-width: 1.5;" width="135" x="93.66" y="7.99"/><ellipse cx="108.66" cy="23.99" fill="#ADD1B2" rx="11" ry="11" style="stroke: #A80036; stroke-width: 1.0;"/><path d="M111.6288,29.6306 Q111.0506,29.9275 110.41,30.0681 Q109.7694,30.2244 109.0663,30.2244 Q106.5663,30.2244 105.2381,28.5838 Q103.9256,26.9275 103.9256,23.8025 Q103.9256,20.6775 105.2381,19.0213 Q106.5663,17.365 109.0663,17.365 Q109.7694,17.365 110.41,17.5213 Q111.0663,17.6775 111.6288,17.9744 L111.6288,20.6931 Q111.0038,20.115 110.41,19.8494 Q109.8163,19.5681 109.1913,19.5681 Q107.8475,19.5681 107.16,20.6463 Q106.4725,21.7088 106.4725,23.8025 Q106.4725,25.8963 107.16,26.9744 Q107.8475,28.0369 109.1913,28.0369 Q109.8163,28.0369 110.41,27.7713 Q111.0038,27.49 111.6288,26.9119 L111.6288,29.6306 Z "/><text fill="#000000" font-family="sans-serif" font-size="12" lengthAdjust="spacingAndGlyphs" textLength="103" x="122.66" y="28.1443">ScriptableObject</text><line style="stroke: #A80036; stroke-width: 1.5;" x1="94.66" x2="227.66" y1="39.99" y2="39.99"/><line style="stroke: #A80036; stroke-width: 1.5;" x1="94.66" x2="227.66" y1="47.99" y2="47.99"/><!--MD5=[5870b72d59afe09af70655d2437675d8]
reverse link ScriptableObject to DialogueContainer--><path d="M161.16,76.01 C161.16,89.57 161.16,104.03 161.16,115.67 " fill="none" id="ScriptableObject&lt;-DialogueContainer" style="stroke: #A80036; stroke-width: 1.0;"/><polygon fill="none" points="154.16,75.99,161.16,55.99,168.16,75.99,154.16,75.99" style="stroke: #A80036; stroke-width: 1.0;"/><!--MD5=[a2f94701f782088fea37103aad166082]
link DialogueContainer to List`1--><path d="M247.4378,157.4493 C247.4378,157.4493 254.23,156.82 257.01,156.42 " fill="none" id="DialogueContainer-List`1" style="stroke: #A80036; stroke-width: 1.0;"/><polygon fill="#A80036" points="270,154,260.421,151.7103,265.084,154.9128,261.8815,159.5758,270,154" style="stroke: #A80036; stroke-width: 1.0;"/><line style="stroke: #A80036; stroke-width: 1.0;" x1="265.084" x2="257.22" y1="154.9128" y2="156.38"/><polygon fill="#FFFFFF" points="235.45,157.99,241.6241,161.7156,247.4378,157.4493,241.2637,153.7237,235.45,157.99" style="stroke: #A80036; stroke-width: 1.0;"/><text fill="#000000" font-family="sans-serif" font-size="13" lengthAdjust="spacingAndGlyphs" textLength="178" x="311.118" y="183.8674">NodeLinks&lt;NodeLinkData&gt;</text><!--MD5=[a2f94701f782088fea37103aad166082]
link DialogueContainer to List`1--><path d="M247.4486,145.8054 C247.4486,145.8054 254.23,145.6 257.01,145.47 " fill="none" id="DialogueContainer-List`1-1" style="stroke: #A80036; stroke-width: 1.0;"/><polygon fill="#A80036" points="270,144.66,260.7673,141.2311,265.0098,144.9729,261.268,149.2154,270,144.66" style="stroke: #A80036; stroke-width: 1.0;"/><line style="stroke: #A80036; stroke-width: 1.0;" x1="265.0098" x2="257.025" y1="144.9729" y2="145.465"/><polygon fill="#FFFFFF" points="235.45,145.99,241.5108,149.8972,247.4486,145.8054,241.3878,141.8982,235.45,145.99" style="stroke: #A80036; stroke-width: 1.0;"/><text fill="#000000" font-family="sans-serif" font-size="13" lengthAdjust="spacingAndGlyphs" textLength="264" x="355.877" y="139.1706">DialogueNodeData&lt;DialogueNodeData&gt;</text><!--MD5=[a2f94701f782088fea37103aad166082]
link DialogueContainer to List`1--><path d="M247.4486,134.1746 C247.4486,134.1746 254.23,134.38 257.01,134.51 " fill="none" id="DialogueContainer-List`1-2" style="stroke: #A80036; stroke-width: 1.0;"/><polygon fill="#A80036" points="270,135.32,261.268,130.7646,265.0098,135.0071,260.7673,138.7489,270,135.32" style="stroke: #A80036; stroke-width: 1.0;"/><line style="stroke: #A80036; stroke-width: 1.0;" x1="265.0098" x2="257.025" y1="135.0071" y2="134.515"/><polygon fill="#FFFFFF" points="235.45,133.99,241.3878,138.0818,247.4486,134.1746,241.5108,130.0828,235.45,133.99" style="stroke: #A80036; stroke-width: 1.0;"/><text fill="#000000" font-family="sans-serif" font-size="13" lengthAdjust="spacingAndGlyphs" textLength="249" x="-14.235" y="105.1538">ExposedProperties&lt;ExposedProperty&gt;</text><!--MD5=[a2f94701f782088fea37103aad166082]
link DialogueContainer to List`1--><path d="M247.4378,122.5301 C247.4378,122.5301 254.23,123.16 257.01,123.56 " fill="none" id="DialogueContainer-List`1-3" style="stroke: #A80036; stroke-width: 1.0;"/><polygon fill="#A80036" points="270,125.98,261.8815,120.4042,265.084,125.0672,260.421,128.2697,270,125.98" style="stroke: #A80036; stroke-width: 1.0;"/><line style="stroke: #A80036; stroke-width: 1.0;" x1="265.084" x2="257.22" y1="125.0672" y2="123.6"/><polygon fill="#FFFFFF" points="235.45,121.99,241.2639,126.256,247.4378,122.5301,241.624,118.2641,235.45,121.99" style="stroke: #A80036; stroke-width: 1.0;"/><text fill="#000000" font-family="sans-serif" font-size="13" lengthAdjust="spacingAndGlyphs" textLength="280" x="353.193" y="105.3559">CommentBlockData&lt;CommentBlockData&gt;</text><!--MD5=[8e56bd601e8b89f0cfcfdc38cc3b83b7]
@startuml
class DialogueContainer {
}
class "List`1"<T> {
}
ScriptableObject <|- - DialogueContainer
DialogueContainer o-> "NodeLinks<NodeLinkData>" "List`1"
DialogueContainer o-> "DialogueNodeData<DialogueNodeData>" "List`1"
DialogueContainer o-> "ExposedProperties<ExposedProperty>" "List`1"
DialogueContainer o-> "CommentBlockData<CommentBlockData>" "List`1"
@enduml

PlantUML version 1.2020.02(Sun Mar 01 10:22:07 GMT 2020)
(GPL source distribution)
Java Runtime: OpenJDK Runtime Environment
JVM: OpenJDK 64-Bit Server VM
Java Version: 11.0.9+11-Ubuntu-0ubuntu1
Operating System: Linux
Default Encoding: ANSI_X3.4-1968
Language: en
Country: US
--></g></svg>