<?xml version="1.0" encoding="UTF-8" standalone="no"?><svg xmlns="http://www.w3.org/2000/svg" xmlns:xlink="http://www.w3.org/1999/xlink" contentScriptType="application/ecmascript" contentStyleType="text/css" height="252px" preserveAspectRatio="none" style="width:197px;height:252px;" version="1.1" viewBox="0 0 197 252" width="197px" zoomAndPan="magnify"><defs><filter height="300%" id="f1arqm96sjtzpo" width="300%" x="-1" y="-1"><feGaussianBlur result="blurOut" stdDeviation="2.0"/><feColorMatrix in="blurOut" result="blurOut2" type="matrix" values="0 0 0 0 0 0 0 0 0 0 0 0 0 0 0 0 0 0 .4 0"/><feOffset dx="4.0" dy="4.0" in="blurOut2" result="blurOut3"/><feBlend in="SourceGraphic" in2="blurOut3" mode="normal"/></filter></defs><g><!--MD5=[899ca10f3eeacf83c6bcd467fee6f311]
class DialogueNodeData--><rect fill="#FEFECE" filter="url(#f1arqm96sjtzpo)" height="124.8281" id="DialogueNodeData" style="stroke: #A80036; stroke-width: 1.5;" width="180" x="6" y="8"/><ellipse cx="34.5" cy="24" fill="#ADD1B2" rx="11" ry="11" style="stroke: #A80036; stroke-width: 1.0;"/><path d="M37.4688,29.6406 Q36.8906,29.9375 36.25,30.0781 Q35.6094,30.2344 34.9063,30.2344 Q32.4063,30.2344 31.0781,28.5938 Q29.7656,26.9375 29.7656,23.8125 Q29.7656,20.6875 31.0781,19.0313 Q32.4063,17.375 34.9063,17.375 Q35.6094,17.375 36.25,17.5313 Q36.9063,17.6875 37.4688,17.9844 L37.4688,20.7031 Q36.8438,20.125 36.25,19.8594 Q35.6563,19.5781 35.0313,19.5781 Q33.6875,19.5781 33,20.6563 Q32.3125,21.7188 32.3125,23.8125 Q32.3125,25.9063 33,26.9844 Q33.6875,28.0469 35.0313,28.0469 Q35.6563,28.0469 36.25,27.7813 Q36.8438,27.5 37.4688,26.9219 L37.4688,29.6406 Z "/><text fill="#000000" font-family="sans-serif" font-size="12" lengthAdjust="spacingAndGlyphs" textLength="118" x="51.5" y="28.1543">DialogueNodeData</text><line style="stroke: #A80036; stroke-width: 1.5;" x1="7" x2="185" y1="40" y2="40"/><ellipse cx="17" cy="51" fill="none" rx="3" ry="3" style="stroke: #038048; stroke-width: 1.0;"/><text fill="#000000" font-family="sans-serif" font-size="11" lengthAdjust="spacingAndGlyphs" textLength="99" x="26" y="54.2104">nodeGuid : string</text><ellipse cx="17" cy="63.8047" fill="none" rx="3" ry="3" style="stroke: #038048; stroke-width: 1.0;"/><text fill="#000000" font-family="sans-serif" font-size="11" lengthAdjust="spacingAndGlyphs" textLength="117" x="26" y="67.0151">dialogueText : string</text><ellipse cx="17" cy="76.6094" fill="none" rx="3" ry="3" style="stroke: #038048; stroke-width: 1.0;"/><text fill="#000000" font-family="sans-serif" font-size="11" lengthAdjust="spacingAndGlyphs" textLength="125" x="26" y="79.8198">SpeakerName : string</text><ellipse cx="17" cy="89.4141" fill="none" rx="3" ry="3" style="stroke: #038048; stroke-width: 1.0;"/><text fill="#000000" font-family="sans-serif" font-size="11" lengthAdjust="spacingAndGlyphs" textLength="147" x="26" y="92.6245">SpeakerSpriteLeft : string</text><ellipse cx="17" cy="102.2188" fill="none" rx="3" ry="3" style="stroke: #038048; stroke-width: 1.0;"/><text fill="#000000" font-family="sans-serif" font-size="11" lengthAdjust="spacingAndGlyphs" textLength="154" x="26" y="105.4292">SpeakerSpriteRight : string</text><ellipse cx="17" cy="115.0234" fill="none" rx="3" ry="3" style="stroke: #038048; stroke-width: 1.0;"/><text fill="#000000" font-family="sans-serif" font-size="11" lengthAdjust="spacingAndGlyphs" textLength="80" x="26" y="118.2339">ItemId : string</text><line style="stroke: #A80036; stroke-width: 1.5;" x1="7" x2="185" y1="124.8281" y2="124.8281"/><!--MD5=[3f551f1273bbfa514d2f681c1c48b5c1]
class Vector2--><rect fill="#FEFECE" filter="url(#f1arqm96sjtzpo)" height="48" id="Vector2" style="stroke: #A80036; stroke-width: 1.5;" width="81" x="55.5" y="193"/><ellipse cx="70.5" cy="209" fill="#ADD1B2" rx="11" ry="11" style="stroke: #A80036; stroke-width: 1.0;"/><path d="M73.4688,214.6406 Q72.8906,214.9375 72.25,215.0781 Q71.6094,215.2344 70.9063,215.2344 Q68.4063,215.2344 67.0781,213.5938 Q65.7656,211.9375 65.7656,208.8125 Q65.7656,205.6875 67.0781,204.0313 Q68.4063,202.375 70.9063,202.375 Q71.6094,202.375 72.25,202.5313 Q72.9063,202.6875 73.4688,202.9844 L73.4688,205.7031 Q72.8438,205.125 72.25,204.8594 Q71.6563,204.5781 71.0313,204.5781 Q69.6875,204.5781 69,205.6563 Q68.3125,206.7188 68.3125,208.8125 Q68.3125,210.9063 69,211.9844 Q69.6875,213.0469 71.0313,213.0469 Q71.6563,213.0469 72.25,212.7813 Q72.8438,212.5 73.4688,211.9219 L73.4688,214.6406 Z "/><text fill="#000000" font-family="sans-serif" font-size="12" lengthAdjust="spacingAndGlyphs" textLength="49" x="84.5" y="213.1543">Vector2</text><line style="stroke: #A80036; stroke-width: 1.5;" x1="56.5" x2="135.5" y1="225" y2="225"/><line style="stroke: #A80036; stroke-width: 1.5;" x1="56.5" x2="135.5" y1="233" y2="233"/><!--MD5=[a1bd3b8fa50f2e75004d8d402e8bc2d0]
link DialogueNodeData to Vector2--><path d="M96,133.2 C96,152.22 96,172.24 96,187.83 " fill="none" id="DialogueNodeData-&gt;Vector2" style="stroke: #A80036; stroke-width: 1.0;"/><polygon fill="#A80036" points="96,192.94,100,183.94,96,187.94,92,183.94,96,192.94" style="stroke: #A80036; stroke-width: 1.0;"/><text fill="#000000" font-family="sans-serif" font-size="13" lengthAdjust="spacingAndGlyphs" textLength="50" x="39.5938" y="181.9367">position</text><!--MD5=[fec67bf85418cd9e830c7865f3195f32]
@startuml
class DialogueNodeData {
    + nodeGuid : string
    + dialogueText : string
    + SpeakerName : string
    + SpeakerSpriteLeft : string
    + SpeakerSpriteRight : string
    + ItemId : string
}
DialogueNodeData - -> "position" Vector2
@enduml

PlantUML version 1.2020.02(Sun Mar 01 10:22:07 GMT 2020)
(GPL source distribution)
Java Runtime: OpenJDK Runtime Environment
JVM: OpenJDK 64-Bit Server VM
Java Version: 11.0.9+11-Ubuntu-0ubuntu1
Operating System: Linux
Default Encoding: ANSI_X3.4-1968
Language: en
Country: US
--></g></svg>