<?xml version="1.0" encoding="UTF-8" standalone="no"?><svg xmlns="http://www.w3.org/2000/svg" xmlns:xlink="http://www.w3.org/1999/xlink" contentScriptType="application/ecmascript" contentStyleType="text/css" height="265px" preserveAspectRatio="none" style="width:401px;height:265px;" version="1.1" viewBox="0 0 401 265" width="401px" zoomAndPan="magnify"><defs><filter height="300%" id="f1b4kdixr948wh" width="300%" x="-1" y="-1"><feGaussianBlur result="blurOut" stdDeviation="2.0"/><feColorMatrix in="blurOut" result="blurOut2" type="matrix" values="0 0 0 0 0 0 0 0 0 0 0 0 0 0 0 0 0 0 .4 0"/><feOffset dx="4.0" dy="4.0" in="blurOut2" result="blurOut3"/><feBlend in="SourceGraphic" in2="blurOut3" mode="normal"/></filter></defs><g><!--MD5=[899ca10f3eeacf83c6bcd467fee6f311]
class DialogueNodeData--><rect fill="#FEFECE" filter="url(#f1b4kdixr948wh)" height="137.6328" id="DialogueNodeData" style="stroke: #A80036; stroke-width: 1.5;" width="201" x="189.79" y="8"/><ellipse cx="227.74" cy="24" fill="#ADD1B2" rx="11" ry="11" style="stroke: #A80036; stroke-width: 1.0;"/><path d="M230.7087,29.6406 Q230.1306,29.9375 229.49,30.0781 Q228.8494,30.2344 228.1462,30.2344 Q225.6462,30.2344 224.3181,28.5938 Q223.0056,26.9375 223.0056,23.8125 Q223.0056,20.6875 224.3181,19.0313 Q225.6462,17.375 228.1462,17.375 Q228.8494,17.375 229.49,17.5313 Q230.1462,17.6875 230.7087,17.9844 L230.7087,20.7031 Q230.0837,20.125 229.49,19.8594 Q228.8962,19.5781 228.2712,19.5781 Q226.9275,19.5781 226.24,20.6563 Q225.5525,21.7188 225.5525,23.8125 Q225.5525,25.9063 226.24,26.9844 Q226.9275,28.0469 228.2712,28.0469 Q228.8962,28.0469 229.49,27.7813 Q230.0837,27.5 230.7087,26.9219 L230.7087,29.6406 Z "/><text fill="#000000" font-family="sans-serif" font-size="12" lengthAdjust="spacingAndGlyphs" textLength="118" x="246.84" y="28.1543">DialogueNodeData</text><line style="stroke: #A80036; stroke-width: 1.5;" x1="190.79" x2="389.79" y1="40" y2="40"/><ellipse cx="200.79" cy="51" fill="none" rx="3" ry="3" style="stroke: #038048; stroke-width: 1.0;"/><text fill="#000000" font-family="sans-serif" font-size="11" lengthAdjust="spacingAndGlyphs" textLength="99" x="209.79" y="54.2104">nodeGuid : string</text><ellipse cx="200.79" cy="63.8047" fill="none" rx="3" ry="3" style="stroke: #038048; stroke-width: 1.0;"/><text fill="#000000" font-family="sans-serif" font-size="11" lengthAdjust="spacingAndGlyphs" textLength="117" x="209.79" y="67.0151">dialogueText : string</text><ellipse cx="200.79" cy="76.6094" fill="none" rx="3" ry="3" style="stroke: #038048; stroke-width: 1.0;"/><text fill="#000000" font-family="sans-serif" font-size="11" lengthAdjust="spacingAndGlyphs" textLength="125" x="209.79" y="79.8198">SpeakerName : string</text><ellipse cx="200.79" cy="89.4141" fill="none" rx="3" ry="3" style="stroke: #038048; stroke-width: 1.0;"/><text fill="#000000" font-family="sans-serif" font-size="11" lengthAdjust="spacingAndGlyphs" textLength="172" x="209.79" y="92.6245">SpeakerNameLocation : string</text><ellipse cx="200.79" cy="102.2188" fill="none" rx="3" ry="3" style="stroke: #038048; stroke-width: 1.0;"/><text fill="#000000" font-family="sans-serif" font-size="11" lengthAdjust="spacingAndGlyphs" textLength="147" x="209.79" y="105.4292">SpeakerSpriteLeft : string</text><ellipse cx="200.79" cy="115.0234" fill="none" rx="3" ry="3" style="stroke: #038048; stroke-width: 1.0;"/><text fill="#000000" font-family="sans-serif" font-size="11" lengthAdjust="spacingAndGlyphs" textLength="154" x="209.79" y="118.2339">SpeakerSpriteRight : string</text><ellipse cx="200.79" cy="127.8281" fill="none" rx="3" ry="3" style="stroke: #038048; stroke-width: 1.0;"/><text fill="#000000" font-family="sans-serif" font-size="11" lengthAdjust="spacingAndGlyphs" textLength="175" x="209.79" y="131.0386">alreadyHadConversation : bool</text><line style="stroke: #A80036; stroke-width: 1.5;" x1="190.79" x2="389.79" y1="137.6328" y2="137.6328"/><!--MD5=[e644022de7dea015dd09463c37421447]
class List`1--><rect fill="#FEFECE" filter="url(#f1b4kdixr948wh)" height="48" id="List`1" style="stroke: #A80036; stroke-width: 1.5;" width="78" x="194.29" y="206"/><ellipse cx="209.29" cy="222" fill="#ADD1B2" rx="11" ry="11" style="stroke: #A80036; stroke-width: 1.0;"/><path d="M212.2588,227.6406 Q211.6806,227.9375 211.04,228.0781 Q210.3994,228.2344 209.6963,228.2344 Q207.1963,228.2344 205.8681,226.5938 Q204.5556,224.9375 204.5556,221.8125 Q204.5556,218.6875 205.8681,217.0313 Q207.1963,215.375 209.6963,215.375 Q210.3994,215.375 211.04,215.5313 Q211.6963,215.6875 212.2588,215.9844 L212.2588,218.7031 Q211.6338,218.125 211.04,217.8594 Q210.4463,217.5781 209.8213,217.5781 Q208.4775,217.5781 207.79,218.6563 Q207.1025,219.7188 207.1025,221.8125 Q207.1025,223.9063 207.79,224.9844 Q208.4775,226.0469 209.8213,226.0469 Q210.4463,226.0469 211.04,225.7813 Q211.6338,225.5 212.2588,224.9219 L212.2588,227.6406 Z "/><text fill="#000000" font-family="sans-serif" font-size="12" lengthAdjust="spacingAndGlyphs" textLength="35" x="223.29" y="226.1543">List`1</text><rect fill="#FFFFFF" height="15.9688" style="stroke: #000000; stroke-width: 1.0; stroke-dasharray: 2.0,2.0;" width="9" x="266.29" y="203"/><text fill="#000000" font-family="sans-serif" font-size="12" font-style="italic" lengthAdjust="spacingAndGlyphs" textLength="7" x="267.29" y="215.1387">T</text><line style="stroke: #A80036; stroke-width: 1.5;" x1="195.29" x2="271.29" y1="238" y2="238"/><line style="stroke: #A80036; stroke-width: 1.5;" x1="195.29" x2="271.29" y1="246" y2="246"/><!--MD5=[3f551f1273bbfa514d2f681c1c48b5c1]
class Vector2--><rect fill="#FEFECE" filter="url(#f1b4kdixr948wh)" height="48" id="Vector2" style="stroke: #A80036; stroke-width: 1.5;" width="81" x="307.79" y="206"/><ellipse cx="322.79" cy="222" fill="#ADD1B2" rx="11" ry="11" style="stroke: #A80036; stroke-width: 1.0;"/><path d="M325.7588,227.6406 Q325.1806,227.9375 324.54,228.0781 Q323.8994,228.2344 323.1963,228.2344 Q320.6963,228.2344 319.3681,226.5938 Q318.0556,224.9375 318.0556,221.8125 Q318.0556,218.6875 319.3681,217.0313 Q320.6963,215.375 323.1963,215.375 Q323.8994,215.375 324.54,215.5313 Q325.1963,215.6875 325.7588,215.9844 L325.7588,218.7031 Q325.1338,218.125 324.54,217.8594 Q323.9463,217.5781 323.3213,217.5781 Q321.9775,217.5781 321.29,218.6563 Q320.6025,219.7188 320.6025,221.8125 Q320.6025,223.9063 321.29,224.9844 Q321.9775,226.0469 323.3213,226.0469 Q323.9463,226.0469 324.54,225.7813 Q325.1338,225.5 325.7588,224.9219 L325.7588,227.6406 Z "/><text fill="#000000" font-family="sans-serif" font-size="12" lengthAdjust="spacingAndGlyphs" textLength="49" x="336.79" y="226.1543">Vector2</text><line style="stroke: #A80036; stroke-width: 1.5;" x1="308.79" x2="387.79" y1="238" y2="238"/><line style="stroke: #A80036; stroke-width: 1.5;" x1="308.79" x2="387.79" y1="246" y2="246"/><!--MD5=[a1bd3b8fa50f2e75004d8d402e8bc2d0]
link DialogueNodeData to Vector2--><path d="M316.57,146.43 C323.95,165.64 331.57,185.47 337.49,200.87 " fill="none" id="DialogueNodeData-&gt;Vector2" style="stroke: #A80036; stroke-width: 1.0;"/><polygon fill="#A80036" points="339.42,205.92,339.9427,196.085,337.6347,201.2496,332.4701,198.9415,339.42,205.92" style="stroke: #A80036; stroke-width: 1.0;"/><text fill="#000000" font-family="sans-serif" font-size="13" lengthAdjust="spacingAndGlyphs" textLength="50" x="280.7408" y="194.9115">position</text><!--MD5=[e5528e7415673a1ed4d84feaddd6d741]
link DialogueNodeData to List`1--><path d="M264.46,146.43 C257.21,165.64 249.72,185.47 243.91,200.87 " fill="none" id="DialogueNodeData-&gt;List`1" style="stroke: #A80036; stroke-width: 1.0;"/><polygon fill="#A80036" points="242,205.92,248.9125,198.9045,243.7603,201.2401,241.4247,196.088,242,205.92" style="stroke: #A80036; stroke-width: 1.0;"/><text fill="#000000" font-family="sans-serif" font-size="13" lengthAdjust="spacingAndGlyphs" textLength="221" x="-5.0837" y="194.9115">ItemPortCombis&lt;ItemPortCombi&gt;</text><!--MD5=[72a78676449b1436df5ecdf36b79f9e2]
@startuml
class DialogueNodeData {
    + nodeGuid : string
    + dialogueText : string
    + SpeakerName : string
    + SpeakerNameLocation : string
    + SpeakerSpriteLeft : string
    + SpeakerSpriteRight : string
    + alreadyHadConversation : bool
}
class "List`1"<T> {
}
DialogueNodeData - -> "position" Vector2
DialogueNodeData - -> "ItemPortCombis<ItemPortCombi>" "List`1"
@enduml

PlantUML version 1.2020.02(Sun Mar 01 10:22:07 GMT 2020)
(GPL source distribution)
Java Runtime: OpenJDK Runtime Environment
JVM: OpenJDK 64-Bit Server VM
Java Version: 11.0.9+11-Ubuntu-0ubuntu1
Operating System: Linux
Default Encoding: ANSI_X3.4-1968
Language: en
Country: US
--></g></svg>