<?xml version="1.0" encoding="UTF-8" standalone="no"?><svg xmlns="http://www.w3.org/2000/svg" xmlns:xlink="http://www.w3.org/1999/xlink" contentScriptType="application/ecmascript" contentStyleType="text/css" height="204px" preserveAspectRatio="none" style="width:658px;height:204px;" version="1.1" viewBox="0 0 658 204" width="658px" zoomAndPan="magnify"><defs><filter height="300%" id="f1my72qarpro9l" width="300%" x="-1" y="-1"><feGaussianBlur result="blurOut" stdDeviation="2.0"/><feColorMatrix in="blurOut" result="blurOut2" type="matrix" values="0 0 0 0 0 0 0 0 0 0 0 0 0 0 0 0 0 0 .4 0"/><feOffset dx="4.0" dy="4.0" in="blurOut2" result="blurOut3"/><feBlend in="SourceGraphic" in2="blurOut3" mode="normal"/></filter></defs><g><!--MD5=[3888aca562e08728a6bbef80bc4508cb]
class DialogueContainer--><rect fill="#FEFECE" filter="url(#f1my72qarpro9l)" height="60.8047" id="DialogueContainer" style="stroke: #A80036; stroke-width: 1.5;" width="246" x="6" y="116"/><ellipse cx="66.75" cy="132" fill="#ADD1B2" rx="11" ry="11" style="stroke: #A80036; stroke-width: 1.0;"/><path d="M69.7188,137.6406 Q69.1406,137.9375 68.5,138.0781 Q67.8594,138.2344 67.1563,138.2344 Q64.6563,138.2344 63.3281,136.5938 Q62.0156,134.9375 62.0156,131.8125 Q62.0156,128.6875 63.3281,127.0313 Q64.6563,125.375 67.1563,125.375 Q67.8594,125.375 68.5,125.5313 Q69.1563,125.6875 69.7188,125.9844 L69.7188,128.7031 Q69.0938,128.125 68.5,127.8594 Q67.9063,127.5781 67.2813,127.5781 Q65.9375,127.5781 65.25,128.6563 Q64.5625,129.7188 64.5625,131.8125 Q64.5625,133.9063 65.25,134.9844 Q65.9375,136.0469 67.2813,136.0469 Q67.9063,136.0469 68.5,135.7813 Q69.0938,135.5 69.7188,134.9219 L69.7188,137.6406 Z "/><text fill="#000000" font-family="sans-serif" font-size="12" lengthAdjust="spacingAndGlyphs" textLength="116" x="87.25" y="136.1543">DialogueContainer</text><line style="stroke: #A80036; stroke-width: 1.5;" x1="7" x2="251" y1="148" y2="148"/><ellipse cx="17" cy="159" fill="none" rx="3" ry="3" style="stroke: #038048; stroke-width: 1.0;"/><text fill="#000000" font-family="sans-serif" font-size="11" lengthAdjust="spacingAndGlyphs" textLength="220" x="26" y="162.2104">alreadyHadConversation : bool = false</text><line style="stroke: #A80036; stroke-width: 1.5;" x1="7" x2="251" y1="168.8047" y2="168.8047"/><!--MD5=[e644022de7dea015dd09463c37421447]
class List`1--><rect fill="#FEFECE" filter="url(#f1my72qarpro9l)" height="48" id="List`1" style="stroke: #A80036; stroke-width: 1.5;" width="78" x="287" y="122.5"/><ellipse cx="302" cy="138.5" fill="#ADD1B2" rx="11" ry="11" style="stroke: #A80036; stroke-width: 1.0;"/><path d="M304.9688,144.1406 Q304.3906,144.4375 303.75,144.5781 Q303.1094,144.7344 302.4063,144.7344 Q299.9063,144.7344 298.5781,143.0938 Q297.2656,141.4375 297.2656,138.3125 Q297.2656,135.1875 298.5781,133.5313 Q299.9063,131.875 302.4063,131.875 Q303.1094,131.875 303.75,132.0313 Q304.4063,132.1875 304.9688,132.4844 L304.9688,135.2031 Q304.3438,134.625 303.75,134.3594 Q303.1563,134.0781 302.5313,134.0781 Q301.1875,134.0781 300.5,135.1563 Q299.8125,136.2188 299.8125,138.3125 Q299.8125,140.4063 300.5,141.4844 Q301.1875,142.5469 302.5313,142.5469 Q303.1563,142.5469 303.75,142.2813 Q304.3438,142 304.9688,141.4219 L304.9688,144.1406 Z "/><text fill="#000000" font-family="sans-serif" font-size="12" lengthAdjust="spacingAndGlyphs" textLength="35" x="316" y="142.6543">List`1</text><rect fill="#FFFFFF" height="15.9688" style="stroke: #000000; stroke-width: 1.0; stroke-dasharray: 2.0,2.0;" width="9" x="359" y="119.5"/><text fill="#000000" font-family="sans-serif" font-size="12" font-style="italic" lengthAdjust="spacingAndGlyphs" textLength="7" x="360" y="131.6387">T</text><line style="stroke: #A80036; stroke-width: 1.5;" x1="288" x2="364" y1="154.5" y2="154.5"/><line style="stroke: #A80036; stroke-width: 1.5;" x1="288" x2="364" y1="162.5" y2="162.5"/><!--MD5=[44895057fba17b10f3053a7baa21df04]
class ScriptableObject--><rect fill="#FEFECE" filter="url(#f1my72qarpro9l)" height="48" id="ScriptableObject" style="stroke: #A80036; stroke-width: 1.5;" width="135" x="61.5" y="8"/><ellipse cx="76.5" cy="24" fill="#ADD1B2" rx="11" ry="11" style="stroke: #A80036; stroke-width: 1.0;"/><path d="M79.4688,29.6406 Q78.8906,29.9375 78.25,30.0781 Q77.6094,30.2344 76.9063,30.2344 Q74.4063,30.2344 73.0781,28.5938 Q71.7656,26.9375 71.7656,23.8125 Q71.7656,20.6875 73.0781,19.0313 Q74.4063,17.375 76.9063,17.375 Q77.6094,17.375 78.25,17.5313 Q78.9063,17.6875 79.4688,17.9844 L79.4688,20.7031 Q78.8438,20.125 78.25,19.8594 Q77.6563,19.5781 77.0313,19.5781 Q75.6875,19.5781 75,20.6563 Q74.3125,21.7188 74.3125,23.8125 Q74.3125,25.9063 75,26.9844 Q75.6875,28.0469 77.0313,28.0469 Q77.6563,28.0469 78.25,27.7813 Q78.8438,27.5 79.4688,26.9219 L79.4688,29.6406 Z "/><text fill="#000000" font-family="sans-serif" font-size="12" lengthAdjust="spacingAndGlyphs" textLength="103" x="90.5" y="28.1543">ScriptableObject</text><line style="stroke: #A80036; stroke-width: 1.5;" x1="62.5" x2="195.5" y1="40" y2="40"/><line style="stroke: #A80036; stroke-width: 1.5;" x1="62.5" x2="195.5" y1="48" y2="48"/><!--MD5=[5870b72d59afe09af70655d2437675d8]
reverse link ScriptableObject to DialogueContainer--><path d="M129,76.11 C129,89.31 129,103.54 129,115.65 " fill="none" id="ScriptableObject&lt;-DialogueContainer" style="stroke: #A80036; stroke-width: 1.0;"/><polygon fill="none" points="122,76.04,129,56.04,136,76.04,122,76.04" style="stroke: #A80036; stroke-width: 1.0;"/><!--MD5=[a2f94701f782088fea37103aad166082]
link DialogueContainer to List`1--><path d="M263.993,166.2086 C263.993,166.2086 270.97,164.94 273.9,164.3 " fill="none" id="DialogueContainer-List`1" style="stroke: #A80036; stroke-width: 1.0;"/><polygon fill="#A80036" points="286.75,161.1,277.0499,159.3945,281.8983,162.3088,278.984,167.1572,286.75,161.1" style="stroke: #A80036; stroke-width: 1.0;"/><line style="stroke: #A80036; stroke-width: 1.0;" x1="281.8983" x2="274.14" y1="162.3088" y2="164.235"/><polygon fill="#FFFFFF" points="252.12,167.95,258.6369,171.037,263.993,166.2086,257.476,163.1217,252.12,167.95" style="stroke: #A80036; stroke-width: 1.0;"/><text fill="#000000" font-family="sans-serif" font-size="13" lengthAdjust="spacingAndGlyphs" textLength="178" x="325.9281" y="190.6229">NodeLinks&lt;NodeLinkData&gt;</text><!--MD5=[a2f94701f782088fea37103aad166082]
link DialogueContainer to List`1--><path d="M264.106,153.0698 C264.106,153.0698 270.75,152.66 273.57,152.46 " fill="none" id="DialogueContainer-List`1-1" style="stroke: #A80036; stroke-width: 1.0;"/><polygon fill="#A80036" points="286.75,151.37,277.451,148.1253,281.767,151.782,278.1102,156.0981,286.75,151.37" style="stroke: #A80036; stroke-width: 1.0;"/><line style="stroke: #A80036; stroke-width: 1.0;" x1="281.767" x2="273.795" y1="151.782" y2="152.435"/><polygon fill="#FFFFFF" points="252.12,153.65,258.3064,157.3552,264.106,153.0698,257.9196,149.3646,252.12,153.65" style="stroke: #A80036; stroke-width: 1.0;"/><text fill="#000000" font-family="sans-serif" font-size="13" lengthAdjust="spacingAndGlyphs" textLength="264" x="372.5438" y="146.0656">DialogueNodeData&lt;DialogueNodeData&gt;</text><!--MD5=[a2f94701f782088fea37103aad166082]
link DialogueContainer to List`1--><path d="M264.106,139.9302 C264.106,139.9302 270.75,140.34 273.57,140.54 " fill="none" id="DialogueContainer-List`1-2" style="stroke: #A80036; stroke-width: 1.0;"/><polygon fill="#A80036" points="286.75,141.63,278.1102,136.9019,281.767,141.218,277.451,144.8747,286.75,141.63" style="stroke: #A80036; stroke-width: 1.0;"/><line style="stroke: #A80036; stroke-width: 1.0;" x1="281.767" x2="273.795" y1="141.218" y2="140.565"/><polygon fill="#FFFFFF" points="252.12,139.35,257.9196,143.6354,264.106,139.9302,258.3064,135.6448,252.12,139.35" style="stroke: #A80036; stroke-width: 1.0;"/><text fill="#000000" font-family="sans-serif" font-size="13" lengthAdjust="spacingAndGlyphs" textLength="249" x="374.1313" y="126.0857">ExposedProperties&lt;ExposedProperty&gt;</text><!--MD5=[a2f94701f782088fea37103aad166082]
link DialogueContainer to List`1--><path d="M263.993,126.7914 C263.993,126.7914 270.97,128.06 273.9,128.7 " fill="none" id="DialogueContainer-List`1-3" style="stroke: #A80036; stroke-width: 1.0;"/><polygon fill="#A80036" points="286.75,131.9,278.984,125.8428,281.8983,130.6912,277.0499,133.6055,286.75,131.9" style="stroke: #A80036; stroke-width: 1.0;"/><line style="stroke: #A80036; stroke-width: 1.0;" x1="281.8983" x2="274.14" y1="130.6912" y2="128.765"/><polygon fill="#FFFFFF" points="252.12,125.05,257.476,129.8783,263.993,126.7914,258.6369,121.963,252.12,125.05" style="stroke: #A80036; stroke-width: 1.0;"/><text fill="#000000" font-family="sans-serif" font-size="13" lengthAdjust="spacingAndGlyphs" textLength="280" x="366.0906" y="111.6154">CommentBlockData&lt;CommentBlockData&gt;</text><!--MD5=[fc13d57f63ee9b1dc9f0c65e3f74295a]
@startuml
class DialogueContainer {
    + alreadyHadConversation : bool = false
}
class "List`1"<T> {
}
ScriptableObject <|- - DialogueContainer
DialogueContainer o-> "NodeLinks<NodeLinkData>" "List`1"
DialogueContainer o-> "DialogueNodeData<DialogueNodeData>" "List`1"
DialogueContainer o-> "ExposedProperties<ExposedProperty>" "List`1"
DialogueContainer o-> "CommentBlockData<CommentBlockData>" "List`1"
@enduml

PlantUML version 1.2020.02(Sun Mar 01 10:22:07 GMT 2020)
(GPL source distribution)
Java Runtime: OpenJDK Runtime Environment
JVM: OpenJDK 64-Bit Server VM
Java Version: 11.0.9+11-Ubuntu-0ubuntu1
Operating System: Linux
Default Encoding: ANSI_X3.4-1968
Language: en
Country: US
--></g></svg>