<?xml version="1.0" encoding="UTF-8" standalone="no"?><svg xmlns="http://www.w3.org/2000/svg" xmlns:xlink="http://www.w3.org/1999/xlink" contentScriptType="application/ecmascript" contentStyleType="text/css" height="239px" preserveAspectRatio="none" style="width:398px;height:239px;" version="1.1" viewBox="0 0 398 239" width="398px" zoomAndPan="magnify"><defs><filter height="300%" id="fdbor9721lddb" width="300%" x="-1" y="-1"><feGaussianBlur result="blurOut" stdDeviation="2.0"/><feColorMatrix in="blurOut" result="blurOut2" type="matrix" values="0 0 0 0 0 0 0 0 0 0 0 0 0 0 0 0 0 0 .4 0"/><feOffset dx="4.0" dy="4.0" in="blurOut2" result="blurOut3"/><feBlend in="SourceGraphic" in2="blurOut3" mode="normal"/></filter></defs><g><!--MD5=[899ca10f3eeacf83c6bcd467fee6f311]
class DialogueNodeData--><rect fill="#FEFECE" filter="url(#fdbor9721lddb)" height="112.0234" id="DialogueNodeData" style="stroke: #A80036; stroke-width: 1.5;" width="180" x="199.37" y="8"/><ellipse cx="227.87" cy="24" fill="#ADD1B2" rx="11" ry="11" style="stroke: #A80036; stroke-width: 1.0;"/><path d="M230.8388,29.6406 Q230.2606,29.9375 229.62,30.0781 Q228.9794,30.2344 228.2763,30.2344 Q225.7763,30.2344 224.4481,28.5938 Q223.1356,26.9375 223.1356,23.8125 Q223.1356,20.6875 224.4481,19.0313 Q225.7763,17.375 228.2763,17.375 Q228.9794,17.375 229.62,17.5313 Q230.2763,17.6875 230.8388,17.9844 L230.8388,20.7031 Q230.2138,20.125 229.62,19.8594 Q229.0263,19.5781 228.4013,19.5781 Q227.0575,19.5781 226.37,20.6563 Q225.6825,21.7188 225.6825,23.8125 Q225.6825,25.9063 226.37,26.9844 Q227.0575,28.0469 228.4013,28.0469 Q229.0263,28.0469 229.62,27.7813 Q230.2138,27.5 230.8388,26.9219 L230.8388,29.6406 Z "/><text fill="#000000" font-family="sans-serif" font-size="12" lengthAdjust="spacingAndGlyphs" textLength="118" x="244.87" y="28.1543">DialogueNodeData</text><line style="stroke: #A80036; stroke-width: 1.5;" x1="200.37" x2="378.37" y1="40" y2="40"/><ellipse cx="210.37" cy="51" fill="none" rx="3" ry="3" style="stroke: #038048; stroke-width: 1.0;"/><text fill="#000000" font-family="sans-serif" font-size="11" lengthAdjust="spacingAndGlyphs" textLength="99" x="219.37" y="54.2104">nodeGuid : string</text><ellipse cx="210.37" cy="63.8047" fill="none" rx="3" ry="3" style="stroke: #038048; stroke-width: 1.0;"/><text fill="#000000" font-family="sans-serif" font-size="11" lengthAdjust="spacingAndGlyphs" textLength="117" x="219.37" y="67.0151">dialogueText : string</text><ellipse cx="210.37" cy="76.6094" fill="none" rx="3" ry="3" style="stroke: #038048; stroke-width: 1.0;"/><text fill="#000000" font-family="sans-serif" font-size="11" lengthAdjust="spacingAndGlyphs" textLength="125" x="219.37" y="79.8198">SpeakerName : string</text><ellipse cx="210.37" cy="89.4141" fill="none" rx="3" ry="3" style="stroke: #038048; stroke-width: 1.0;"/><text fill="#000000" font-family="sans-serif" font-size="11" lengthAdjust="spacingAndGlyphs" textLength="147" x="219.37" y="92.6245">SpeakerSpriteLeft : string</text><ellipse cx="210.37" cy="102.2188" fill="none" rx="3" ry="3" style="stroke: #038048; stroke-width: 1.0;"/><text fill="#000000" font-family="sans-serif" font-size="11" lengthAdjust="spacingAndGlyphs" textLength="154" x="219.37" y="105.4292">SpeakerSpriteRight : string</text><line style="stroke: #A80036; stroke-width: 1.5;" x1="200.37" x2="378.37" y1="112.0234" y2="112.0234"/><!--MD5=[e644022de7dea015dd09463c37421447]
class List`1--><rect fill="#FEFECE" filter="url(#fdbor9721lddb)" height="48" id="List`1" style="stroke: #A80036; stroke-width: 1.5;" width="78" x="193.37" y="180"/><ellipse cx="208.37" cy="196" fill="#ADD1B2" rx="11" ry="11" style="stroke: #A80036; stroke-width: 1.0;"/><path d="M211.3388,201.6406 Q210.7606,201.9375 210.12,202.0781 Q209.4794,202.2344 208.7763,202.2344 Q206.2763,202.2344 204.9481,200.5938 Q203.6356,198.9375 203.6356,195.8125 Q203.6356,192.6875 204.9481,191.0313 Q206.2763,189.375 208.7763,189.375 Q209.4794,189.375 210.12,189.5313 Q210.7763,189.6875 211.3388,189.9844 L211.3388,192.7031 Q210.7138,192.125 210.12,191.8594 Q209.5263,191.5781 208.9013,191.5781 Q207.5575,191.5781 206.87,192.6563 Q206.1825,193.7188 206.1825,195.8125 Q206.1825,197.9063 206.87,198.9844 Q207.5575,200.0469 208.9013,200.0469 Q209.5263,200.0469 210.12,199.7813 Q210.7138,199.5 211.3388,198.9219 L211.3388,201.6406 Z "/><text fill="#000000" font-family="sans-serif" font-size="12" lengthAdjust="spacingAndGlyphs" textLength="35" x="222.37" y="200.1543">List`1</text><rect fill="#FFFFFF" height="15.9688" style="stroke: #000000; stroke-width: 1.0; stroke-dasharray: 2.0,2.0;" width="9" x="265.37" y="177"/><text fill="#000000" font-family="sans-serif" font-size="12" font-style="italic" lengthAdjust="spacingAndGlyphs" textLength="7" x="266.37" y="189.1387">T</text><line style="stroke: #A80036; stroke-width: 1.5;" x1="194.37" x2="270.37" y1="212" y2="212"/><line style="stroke: #A80036; stroke-width: 1.5;" x1="194.37" x2="270.37" y1="220" y2="220"/><!--MD5=[3f551f1273bbfa514d2f681c1c48b5c1]
class Vector2--><rect fill="#FEFECE" filter="url(#fdbor9721lddb)" height="48" id="Vector2" style="stroke: #A80036; stroke-width: 1.5;" width="81" x="306.87" y="180"/><ellipse cx="321.87" cy="196" fill="#ADD1B2" rx="11" ry="11" style="stroke: #A80036; stroke-width: 1.0;"/><path d="M324.8388,201.6406 Q324.2606,201.9375 323.62,202.0781 Q322.9794,202.2344 322.2763,202.2344 Q319.7763,202.2344 318.4481,200.5938 Q317.1356,198.9375 317.1356,195.8125 Q317.1356,192.6875 318.4481,191.0313 Q319.7763,189.375 322.2763,189.375 Q322.9794,189.375 323.62,189.5313 Q324.2763,189.6875 324.8388,189.9844 L324.8388,192.7031 Q324.2138,192.125 323.62,191.8594 Q323.0263,191.5781 322.4013,191.5781 Q321.0575,191.5781 320.37,192.6563 Q319.6825,193.7188 319.6825,195.8125 Q319.6825,197.9063 320.37,198.9844 Q321.0575,200.0469 322.4013,200.0469 Q323.0263,200.0469 323.62,199.7813 Q324.2138,199.5 324.8388,198.9219 L324.8388,201.6406 Z "/><text fill="#000000" font-family="sans-serif" font-size="12" lengthAdjust="spacingAndGlyphs" textLength="49" x="335.87" y="200.1543">Vector2</text><line style="stroke: #A80036; stroke-width: 1.5;" x1="307.87" x2="386.87" y1="212" y2="212"/><line style="stroke: #A80036; stroke-width: 1.5;" x1="307.87" x2="386.87" y1="220" y2="220"/><!--MD5=[a1bd3b8fa50f2e75004d8d402e8bc2d0]
link DialogueNodeData to Vector2--><path d="M312.63,120.33 C320.51,139.09 328.99,159.25 335.59,174.96 " fill="none" id="DialogueNodeData-&gt;Vector2" style="stroke: #A80036; stroke-width: 1.0;"/><polygon fill="#A80036" points="337.58,179.69,337.7891,169.8434,335.6468,175.0789,330.4113,172.9365,337.58,179.69" style="stroke: #A80036; stroke-width: 1.0;"/><text fill="#000000" font-family="sans-serif" font-size="13" lengthAdjust="spacingAndGlyphs" textLength="50" x="279.0999" y="169.0194">position</text><!--MD5=[e5528e7415673a1ed4d84feaddd6d741]
link DialogueNodeData to List`1--><path d="M266.52,120.33 C258.77,139.09 250.44,159.25 243.95,174.96 " fill="none" id="DialogueNodeData-&gt;List`1" style="stroke: #A80036; stroke-width: 1.0;"/><polygon fill="#A80036" points="242,179.69,249.136,172.902,243.9109,175.0696,241.7433,169.8445,242,179.69" style="stroke: #A80036; stroke-width: 1.0;"/><text fill="#000000" font-family="sans-serif" font-size="13" lengthAdjust="spacingAndGlyphs" textLength="221" x="-3.5871" y="169.0194">ItemPortCombis&lt;ItemPortCombi&gt;</text><!--MD5=[a9171bc21f9e6f0b169f2437f4fc8981]
@startuml
class DialogueNodeData {
    + nodeGuid : string
    + dialogueText : string
    + SpeakerName : string
    + SpeakerSpriteLeft : string
    + SpeakerSpriteRight : string
}
class "List`1"<T> {
}
DialogueNodeData - -> "position" Vector2
DialogueNodeData - -> "ItemPortCombis<ItemPortCombi>" "List`1"
@enduml

PlantUML version 1.2020.02(Sun Mar 01 10:22:07 GMT 2020)
(GPL source distribution)
Java Runtime: OpenJDK Runtime Environment
JVM: OpenJDK 64-Bit Server VM
Java Version: 11.0.9+11-Ubuntu-0ubuntu1
Operating System: Linux
Default Encoding: ANSI_X3.4-1968
Language: en
Country: US
--></g></svg>