<?xml version="1.0" encoding="UTF-8" standalone="no"?><svg xmlns="http://www.w3.org/2000/svg" xmlns:xlink="http://www.w3.org/1999/xlink" contentScriptType="application/ecmascript" contentStyleType="text/css" height="117px" preserveAspectRatio="none" style="width:313px;height:117px;" version="1.1" viewBox="0 0 313 117" width="313px" zoomAndPan="magnify"><defs><filter height="300%" id="f7nqa6lnn1jhk" width="300%" x="-1" y="-1"><feGaussianBlur result="blurOut" stdDeviation="2.0"/><feColorMatrix in="blurOut" result="blurOut2" type="matrix" values="0 0 0 0 0 0 0 0 0 0 0 0 0 0 0 0 0 0 .4 0"/><feOffset dx="4.0" dy="4.0" in="blurOut2" result="blurOut3"/><feBlend in="SourceGraphic" in2="blurOut3" mode="normal"/></filter></defs><g><!--MD5=[f68f33e92e8b3e338817458aaaced888]
class ExposedProperty--><rect fill="#FEFECE" filter="url(#f7nqa6lnn1jhk)" height="99.2188" id="ExposedProperty" style="stroke: #A80036; stroke-width: 1.5;" width="295" x="7" y="7"/><ellipse cx="97.25" cy="23" fill="#ADD1B2" rx="11" ry="11" style="stroke: #A80036; stroke-width: 1.0;"/><path d="M100.2188,28.6406 Q99.6406,28.9375 99,29.0781 Q98.3594,29.2344 97.6563,29.2344 Q95.1563,29.2344 93.8281,27.5938 Q92.5156,25.9375 92.5156,22.8125 Q92.5156,19.6875 93.8281,18.0313 Q95.1563,16.375 97.6563,16.375 Q98.3594,16.375 99,16.5313 Q99.6563,16.6875 100.2188,16.9844 L100.2188,19.7031 Q99.5938,19.125 99,18.8594 Q98.4063,18.5781 97.7813,18.5781 Q96.4375,18.5781 95.75,19.6563 Q95.0625,20.7188 95.0625,22.8125 Q95.0625,24.9063 95.75,25.9844 Q96.4375,27.0469 97.7813,27.0469 Q98.4063,27.0469 99,26.7813 Q99.5938,26.5 100.2188,25.9219 L100.2188,28.6406 Z "/><text fill="#000000" font-family="sans-serif" font-size="12" lengthAdjust="spacingAndGlyphs" textLength="106" x="117.75" y="27.1543">ExposedProperty</text><line style="stroke: #A80036; stroke-width: 1.5;" x1="8" x2="301" y1="39" y2="39"/><ellipse cx="18" cy="50" fill="none" rx="3" ry="3" style="stroke: #038048; stroke-width: 1.0;"/><text fill="#000000" font-family="sans-serif" font-size="11" lengthAdjust="spacingAndGlyphs" textLength="215" x="27" y="53.2104">PropertyName : string = "New String"</text><ellipse cx="18" cy="62.8047" fill="none" rx="3" ry="3" style="stroke: #038048; stroke-width: 1.0;"/><text fill="#000000" font-family="sans-serif" font-size="11" lengthAdjust="spacingAndGlyphs" textLength="210" x="27" y="66.0151">PropertyValue : string = "New Value"</text><line style="stroke: #A80036; stroke-width: 1.5;" x1="8" x2="301" y1="72.6094" y2="72.6094"/><ellipse cx="18" cy="83.6094" fill="#84BE84" rx="3" ry="3" style="stroke: #038048; stroke-width: 1.0;"/><text fill="#000000" font-family="sans-serif" font-size="11" lengthAdjust="spacingAndGlyphs" text-decoration="underline" textLength="202" x="27" y="86.8198">CreateInstance() : ExposedProperty</text><ellipse cx="18" cy="96.4141" fill="#84BE84" rx="3" ry="3" style="stroke: #038048; stroke-width: 1.0;"/><text fill="#000000" font-family="sans-serif" font-size="11" lengthAdjust="spacingAndGlyphs" text-decoration="underline" textLength="269" x="27" y="99.6245">CreateInstancePlaceHolder() : ExposedProperty</text><!--MD5=[b2ad0808126b32a667f1c9b9bb19e192]
@startuml
class ExposedProperty {
    + {static} CreateInstance() : ExposedProperty
    + {static} CreateInstancePlaceHolder() : ExposedProperty
    + PropertyName : string = "New String"
    + PropertyValue : string = "New Value"
}
@enduml

PlantUML version 1.2020.02(Sun Mar 01 10:22:07 GMT 2020)
(GPL source distribution)
Java Runtime: OpenJDK Runtime Environment
JVM: OpenJDK 64-Bit Server VM
Java Version: 11.0.9+11-Ubuntu-0ubuntu1
Operating System: Linux
Default Encoding: ANSI_X3.4-1968
Language: en
Country: US
--></g></svg>