<?xml version="1.0" encoding="UTF-8" standalone="no"?><svg xmlns="http://www.w3.org/2000/svg" xmlns:xlink="http://www.w3.org/1999/xlink" contentScriptType="application/ecmascript" contentStyleType="text/css" height="104px" preserveAspectRatio="none" style="width:413px;height:104px;" version="1.1" viewBox="0 0 413 104" width="413px" zoomAndPan="magnify"><defs><filter height="300%" id="f18qle951osxrd" width="300%" x="-1" y="-1"><feGaussianBlur result="blurOut" stdDeviation="2.0"/><feColorMatrix in="blurOut" result="blurOut2" type="matrix" values="0 0 0 0 0 0 0 0 0 0 0 0 0 0 0 0 0 0 .4 0"/><feOffset dx="4.0" dy="4.0" in="blurOut2" result="blurOut3"/><feBlend in="SourceGraphic" in2="blurOut3" mode="normal"/></filter></defs><g><!--MD5=[adbe598de04efa284bbbda47cf75017c]
class ItemPortCombi--><rect fill="#FEFECE" filter="url(#f18qle951osxrd)" height="86.4141" id="ItemPortCombi" style="stroke: #A80036; stroke-width: 1.5;" width="395" x="7" y="7"/><ellipse cx="154.75" cy="23" fill="#ADD1B2" rx="11" ry="11" style="stroke: #A80036; stroke-width: 1.0;"/><path d="M157.7188,28.6406 Q157.1406,28.9375 156.5,29.0781 Q155.8594,29.2344 155.1563,29.2344 Q152.6563,29.2344 151.3281,27.5938 Q150.0156,25.9375 150.0156,22.8125 Q150.0156,19.6875 151.3281,18.0313 Q152.6563,16.375 155.1563,16.375 Q155.8594,16.375 156.5,16.5313 Q157.1563,16.6875 157.7188,16.9844 L157.7188,19.7031 Q157.0938,19.125 156.5,18.8594 Q155.9063,18.5781 155.2813,18.5781 Q153.9375,18.5781 153.25,19.6563 Q152.5625,20.7188 152.5625,22.8125 Q152.5625,24.9063 153.25,25.9844 Q153.9375,27.0469 155.2813,27.0469 Q155.9063,27.0469 156.5,26.7813 Q157.0938,26.5 157.7188,25.9219 L157.7188,28.6406 Z "/><text fill="#000000" font-family="sans-serif" font-size="12" lengthAdjust="spacingAndGlyphs" textLength="91" x="175.25" y="27.1543">ItemPortCombi</text><line style="stroke: #A80036; stroke-width: 1.5;" x1="8" x2="401" y1="39" y2="39"/><ellipse cx="18" cy="50" fill="none" rx="3" ry="3" style="stroke: #038048; stroke-width: 1.0;"/><text fill="#000000" font-family="sans-serif" font-size="11" lengthAdjust="spacingAndGlyphs" textLength="100" x="27" y="53.2104">portname : string</text><ellipse cx="18" cy="62.8047" fill="none" rx="3" ry="3" style="stroke: #038048; stroke-width: 1.0;"/><text fill="#000000" font-family="sans-serif" font-size="11" lengthAdjust="spacingAndGlyphs" textLength="103" x="27" y="66.0151">itemName : string</text><line style="stroke: #A80036; stroke-width: 1.5;" x1="8" x2="401" y1="72.6094" y2="72.6094"/><ellipse cx="18" cy="83.6094" fill="#84BE84" rx="3" ry="3" style="stroke: #038048; stroke-width: 1.0;"/><text fill="#000000" font-family="sans-serif" font-size="11" lengthAdjust="spacingAndGlyphs" textLength="369" x="27" y="86.8198">ItemPortCombi(generatedPortPortName:string, itemName:string)</text><!--MD5=[6cd2e489b82fb38f59db970f3e800ae1]
@startuml
class ItemPortCombi {
    + portname : string
    + itemName : string
    + ItemPortCombi(generatedPortPortName:string, itemName:string)
}
@enduml

PlantUML version 1.2020.02(Sun Mar 01 10:22:07 GMT 2020)
(GPL source distribution)
Java Runtime: OpenJDK Runtime Environment
JVM: OpenJDK 64-Bit Server VM
Java Version: 11.0.9+11-Ubuntu-0ubuntu1
Operating System: Linux
Default Encoding: ANSI_X3.4-1968
Language: en
Country: US
--></g></svg>