<?xml version="1.0" encoding="UTF-8" standalone="no"?><svg xmlns="http://www.w3.org/2000/svg" xmlns:xlink="http://www.w3.org/1999/xlink" contentScriptType="application/ecmascript" contentStyleType="text/css" height="117px" preserveAspectRatio="none" style="width:183px;height:117px;" version="1.1" viewBox="0 0 183 117" width="183px" zoomAndPan="magnify"><defs><filter height="300%" id="f1mkafzom8g8b" width="300%" x="-1" y="-1"><feGaussianBlur result="blurOut" stdDeviation="2.0"/><feColorMatrix in="blurOut" result="blurOut2" type="matrix" values="0 0 0 0 0 0 0 0 0 0 0 0 0 0 0 0 0 0 .4 0"/><feOffset dx="4.0" dy="4.0" in="blurOut2" result="blurOut3"/><feBlend in="SourceGraphic" in2="blurOut3" mode="normal"/></filter></defs><g><!--MD5=[f72cca32c04c742ff61695010ce25613]
class NodeLinkData--><rect fill="#FEFECE" filter="url(#f1mkafzom8g8b)" height="99.2188" id="NodeLinkData" style="stroke: #A80036; stroke-width: 1.5;" width="165" x="7" y="7"/><ellipse cx="42.7" cy="23" fill="#ADD1B2" rx="11" ry="11" style="stroke: #A80036; stroke-width: 1.0;"/><path d="M45.6688,28.6406 Q45.0906,28.9375 44.45,29.0781 Q43.8094,29.2344 43.1063,29.2344 Q40.6063,29.2344 39.2781,27.5938 Q37.9656,25.9375 37.9656,22.8125 Q37.9656,19.6875 39.2781,18.0313 Q40.6063,16.375 43.1063,16.375 Q43.8094,16.375 44.45,16.5313 Q45.1063,16.6875 45.6688,16.9844 L45.6688,19.7031 Q45.0438,19.125 44.45,18.8594 Q43.8563,18.5781 43.2313,18.5781 Q41.8875,18.5781 41.2,19.6563 Q40.5125,20.7188 40.5125,22.8125 Q40.5125,24.9063 41.2,25.9844 Q41.8875,27.0469 43.2313,27.0469 Q43.8563,27.0469 44.45,26.7813 Q45.0438,26.5 45.6688,25.9219 L45.6688,28.6406 Z "/><text fill="#000000" font-family="sans-serif" font-size="12" lengthAdjust="spacingAndGlyphs" textLength="87" x="61.3" y="27.1543">NodeLinkData</text><line style="stroke: #A80036; stroke-width: 1.5;" x1="8" x2="171" y1="39" y2="39"/><ellipse cx="18" cy="50" fill="none" rx="3" ry="3" style="stroke: #038048; stroke-width: 1.0;"/><text fill="#000000" font-family="sans-serif" font-size="11" lengthAdjust="spacingAndGlyphs" textLength="131" x="27" y="53.2104">BaseNodeGUID : string</text><ellipse cx="18" cy="62.8047" fill="none" rx="3" ry="3" style="stroke: #038048; stroke-width: 1.0;"/><text fill="#000000" font-family="sans-serif" font-size="11" lengthAdjust="spacingAndGlyphs" textLength="101" x="27" y="66.0151">PortName : string</text><ellipse cx="18" cy="75.6094" fill="none" rx="3" ry="3" style="stroke: #038048; stroke-width: 1.0;"/><text fill="#000000" font-family="sans-serif" font-size="11" lengthAdjust="spacingAndGlyphs" textLength="139" x="27" y="78.8198">TargetNodeGUID : string</text><ellipse cx="18" cy="88.4141" fill="none" rx="3" ry="3" style="stroke: #038048; stroke-width: 1.0;"/><text fill="#000000" font-family="sans-serif" font-size="11" lengthAdjust="spacingAndGlyphs" textLength="130" x="27" y="91.6245">ItemIdRequired : string</text><line style="stroke: #A80036; stroke-width: 1.5;" x1="8" x2="171" y1="98.2188" y2="98.2188"/><!--MD5=[f9e53bfa0d7ff1c893c85b4945435fb3]
@startuml
class NodeLinkData {
    + BaseNodeGUID : string
    + PortName : string
    + TargetNodeGUID : string
    + ItemIdRequired : string
}
@enduml

PlantUML version 1.2020.02(Sun Mar 01 10:22:07 GMT 2020)
(GPL source distribution)
Java Runtime: OpenJDK Runtime Environment
JVM: OpenJDK 64-Bit Server VM
Java Version: 11.0.9+11-Ubuntu-0ubuntu1
Operating System: Linux
Default Encoding: ANSI_X3.4-1968
Language: en
Country: US
--></g></svg>