<?xml version="1.0" encoding="UTF-8" standalone="no"?><svg xmlns="http://www.w3.org/2000/svg" xmlns:xlink="http://www.w3.org/1999/xlink" contentScriptType="application/ecmascript" contentStyleType="text/css" height="188px" preserveAspectRatio="none" style="width:609px;height:188px;" version="1.1" viewBox="0 0 609 188" width="609px" zoomAndPan="magnify"><defs><filter height="300%" id="fvqgwzz1ee551" width="300%" x="-1" y="-1"><feGaussianBlur result="blurOut" stdDeviation="2.0"/><feColorMatrix in="blurOut" result="blurOut2" type="matrix" values="0 0 0 0 0 0 0 0 0 0 0 0 0 0 0 0 0 0 .4 0"/><feOffset dx="4.0" dy="4.0" in="blurOut2" result="blurOut3"/><feBlend in="SourceGraphic" in2="blurOut3" mode="normal"/></filter></defs><g><!--MD5=[31796a549d5a5eebfa62628789de4c0a]
class GameData--><rect fill="#FEFECE" filter="url(#fvqgwzz1ee551)" height="60.8047" id="GameData" style="stroke: #A80036; stroke-width: 1.5;" width="202" x="70.15" y="8"/><ellipse cx="133.9" cy="24" fill="#ADD1B2" rx="11" ry="11" style="stroke: #A80036; stroke-width: 1.0;"/><path d="M136.8688,29.6406 Q136.2906,29.9375 135.65,30.0781 Q135.0094,30.2344 134.3063,30.2344 Q131.8063,30.2344 130.4781,28.5938 Q129.1656,26.9375 129.1656,23.8125 Q129.1656,20.6875 130.4781,19.0313 Q131.8063,17.375 134.3063,17.375 Q135.0094,17.375 135.65,17.5313 Q136.3063,17.6875 136.8688,17.9844 L136.8688,20.7031 Q136.2438,20.125 135.65,19.8594 Q135.0563,19.5781 134.4313,19.5781 Q133.0875,19.5781 132.4,20.6563 Q131.7125,21.7188 131.7125,23.8125 Q131.7125,25.9063 132.4,26.9844 Q133.0875,28.0469 134.4313,28.0469 Q135.0563,28.0469 135.65,27.7813 Q136.2438,27.5 136.8688,26.9219 L136.8688,29.6406 Z "/><text fill="#000000" font-family="sans-serif" font-size="12" lengthAdjust="spacingAndGlyphs" textLength="66" x="154.4" y="28.1543">GameData</text><line style="stroke: #A80036; stroke-width: 1.5;" x1="71.15" x2="271.15" y1="40" y2="40"/><line style="stroke: #A80036; stroke-width: 1.5;" x1="71.15" x2="271.15" y1="48" y2="48"/><ellipse cx="81.15" cy="59" fill="#84BE84" rx="3" ry="3" style="stroke: #038048; stroke-width: 1.0;"/><text fill="#000000" font-family="sans-serif" font-size="11" lengthAdjust="spacingAndGlyphs" textLength="176" x="90.15" y="62.2104">GameData(inventory:Inventory)</text><!--MD5=[e644022de7dea015dd09463c37421447]
class List`1--><rect fill="#FEFECE" filter="url(#fvqgwzz1ee551)" height="48" id="List`1" style="stroke: #A80036; stroke-width: 1.5;" width="78" x="307.15" y="14.5"/><ellipse cx="322.15" cy="30.5" fill="#ADD1B2" rx="11" ry="11" style="stroke: #A80036; stroke-width: 1.0;"/><path d="M325.1188,36.1406 Q324.5406,36.4375 323.9,36.5781 Q323.2594,36.7344 322.5563,36.7344 Q320.0563,36.7344 318.7281,35.0938 Q317.4156,33.4375 317.4156,30.3125 Q317.4156,27.1875 318.7281,25.5313 Q320.0563,23.875 322.5563,23.875 Q323.2594,23.875 323.9,24.0313 Q324.5563,24.1875 325.1188,24.4844 L325.1188,27.2031 Q324.4938,26.625 323.9,26.3594 Q323.3063,26.0781 322.6813,26.0781 Q321.3375,26.0781 320.65,27.1563 Q319.9625,28.2188 319.9625,30.3125 Q319.9625,32.4063 320.65,33.4844 Q321.3375,34.5469 322.6813,34.5469 Q323.3063,34.5469 323.9,34.2813 Q324.4938,34 325.1188,33.4219 L325.1188,36.1406 Z "/><text fill="#000000" font-family="sans-serif" font-size="12" lengthAdjust="spacingAndGlyphs" textLength="35" x="336.15" y="34.6543">List`1</text><rect fill="#FFFFFF" height="15.9688" style="stroke: #000000; stroke-width: 1.0; stroke-dasharray: 2.0,2.0;" width="9" x="379.15" y="11.5"/><text fill="#000000" font-family="sans-serif" font-size="12" font-style="italic" lengthAdjust="spacingAndGlyphs" textLength="7" x="380.15" y="23.6387">T</text><line style="stroke: #A80036; stroke-width: 1.5;" x1="308.15" x2="384.15" y1="46.5" y2="46.5"/><line style="stroke: #A80036; stroke-width: 1.5;" x1="308.15" x2="384.15" y1="54.5" y2="54.5"/><!--MD5=[ee084734eb3a5ffad99a0de9980f769b]
class Inventory--><rect fill="#FEFECE" filter="url(#fvqgwzz1ee551)" height="48" id="Inventory" style="stroke: #A80036; stroke-width: 1.5;" width="89" x="11.65" y="129"/><ellipse cx="26.65" cy="145" fill="#ADD1B2" rx="11" ry="11" style="stroke: #A80036; stroke-width: 1.0;"/><path d="M29.6188,150.6406 Q29.0406,150.9375 28.4,151.0781 Q27.7594,151.2344 27.0563,151.2344 Q24.5563,151.2344 23.2281,149.5938 Q21.9156,147.9375 21.9156,144.8125 Q21.9156,141.6875 23.2281,140.0313 Q24.5563,138.375 27.0563,138.375 Q27.7594,138.375 28.4,138.5313 Q29.0563,138.6875 29.6188,138.9844 L29.6188,141.7031 Q28.9938,141.125 28.4,140.8594 Q27.8063,140.5781 27.1813,140.5781 Q25.8375,140.5781 25.15,141.6563 Q24.4625,142.7188 24.4625,144.8125 Q24.4625,146.9063 25.15,147.9844 Q25.8375,149.0469 27.1813,149.0469 Q27.8063,149.0469 28.4,148.7813 Q28.9938,148.5 29.6188,147.9219 L29.6188,150.6406 Z "/><text fill="#000000" font-family="sans-serif" font-size="12" lengthAdjust="spacingAndGlyphs" textLength="57" x="40.65" y="149.1543">Inventory</text><line style="stroke: #A80036; stroke-width: 1.5;" x1="12.65" x2="99.65" y1="161" y2="161"/><line style="stroke: #A80036; stroke-width: 1.5;" x1="12.65" x2="99.65" y1="169" y2="169"/><!--MD5=[e4faacc5b8aef66b11ab0c816bbbc7f8]
class Scene--><rect fill="#FEFECE" filter="url(#fvqgwzz1ee551)" height="48" id="Scene" style="stroke: #A80036; stroke-width: 1.5;" width="71" x="135.65" y="129"/><ellipse cx="150.65" cy="145" fill="#ADD1B2" rx="11" ry="11" style="stroke: #A80036; stroke-width: 1.0;"/><path d="M153.6188,150.6406 Q153.0406,150.9375 152.4,151.0781 Q151.7594,151.2344 151.0563,151.2344 Q148.5563,151.2344 147.2281,149.5938 Q145.9156,147.9375 145.9156,144.8125 Q145.9156,141.6875 147.2281,140.0313 Q148.5563,138.375 151.0563,138.375 Q151.7594,138.375 152.4,138.5313 Q153.0563,138.6875 153.6188,138.9844 L153.6188,141.7031 Q152.9938,141.125 152.4,140.8594 Q151.8063,140.5781 151.1813,140.5781 Q149.8375,140.5781 149.15,141.6563 Q148.4625,142.7188 148.4625,144.8125 Q148.4625,146.9063 149.15,147.9844 Q149.8375,149.0469 151.1813,149.0469 Q151.8063,149.0469 152.4,148.7813 Q152.9938,148.5 153.6188,147.9219 L153.6188,150.6406 Z "/><text fill="#000000" font-family="sans-serif" font-size="12" lengthAdjust="spacingAndGlyphs" textLength="39" x="164.65" y="149.1543">Scene</text><line style="stroke: #A80036; stroke-width: 1.5;" x1="136.65" x2="205.65" y1="161" y2="161"/><line style="stroke: #A80036; stroke-width: 1.5;" x1="136.65" x2="205.65" y1="169" y2="169"/><!--MD5=[65d619c042c23702cef2ca07d67b1cf6]
class Vector3--><rect fill="#FEFECE" filter="url(#fvqgwzz1ee551)" height="48" id="Vector3" style="stroke: #A80036; stroke-width: 1.5;" width="81" x="241.65" y="129"/><ellipse cx="256.65" cy="145" fill="#ADD1B2" rx="11" ry="11" style="stroke: #A80036; stroke-width: 1.0;"/><path d="M259.6188,150.6406 Q259.0406,150.9375 258.4,151.0781 Q257.7594,151.2344 257.0563,151.2344 Q254.5562,151.2344 253.2281,149.5938 Q251.9156,147.9375 251.9156,144.8125 Q251.9156,141.6875 253.2281,140.0313 Q254.5562,138.375 257.0563,138.375 Q257.7594,138.375 258.4,138.5313 Q259.0563,138.6875 259.6188,138.9844 L259.6188,141.7031 Q258.9938,141.125 258.4,140.8594 Q257.8063,140.5781 257.1813,140.5781 Q255.8375,140.5781 255.15,141.6563 Q254.4625,142.7188 254.4625,144.8125 Q254.4625,146.9063 255.15,147.9844 Q255.8375,149.0469 257.1813,149.0469 Q257.8063,149.0469 258.4,148.7813 Q258.9938,148.5 259.6188,147.9219 L259.6188,150.6406 Z "/><text fill="#000000" font-family="sans-serif" font-size="12" lengthAdjust="spacingAndGlyphs" textLength="49" x="270.65" y="149.1543">Vector3</text><line style="stroke: #A80036; stroke-width: 1.5;" x1="242.65" x2="321.65" y1="161" y2="161"/><line style="stroke: #A80036; stroke-width: 1.5;" x1="242.65" x2="321.65" y1="169" y2="169"/><!--MD5=[8163fec67d9db725879d3432b97ffad1]
link GameData to List`1--><path d="M272.32,60.82 C282.24,60.01 292.15,58.32 302.06,55.74 " fill="none" id="GameData-&gt;List`1" style="stroke: #A80036; stroke-width: 1.0;"/><polygon fill="#A80036" points="306.93,54.41,297.1913,52.9409,302.1092,55.7364,299.3136,60.6543,306.93,54.41" style="stroke: #A80036; stroke-width: 1.0;"/><text fill="#000000" font-family="sans-serif" font-size="13" lengthAdjust="spacingAndGlyphs" textLength="118" x="320.5287" y="82.6169">items&lt;ItemData&gt;</text><!--MD5=[8163fec67d9db725879d3432b97ffad1]
link GameData to List`1--><path d="M272.32,38.5 C282.15,38.5 291.97,38.5 301.79,38.5 " fill="none" id="GameData-&gt;List`1-1" style="stroke: #A80036; stroke-width: 1.0;"/><polygon fill="#A80036" points="306.93,38.5,297.93,34.5,301.93,38.5,297.93,42.5,306.93,38.5" style="stroke: #A80036; stroke-width: 1.0;"/><text fill="#000000" font-family="sans-serif" font-size="13" lengthAdjust="spacingAndGlyphs" textLength="204" x="393.2525" y="25.3457">dialogues&lt;DialogueNodeData&gt;</text><!--MD5=[8163fec67d9db725879d3432b97ffad1]
link GameData to List`1--><path d="M284.2337,17.6165 C284.2337,17.6165 291.16,18.76 294.09,19.38 " fill="none" id="GameData-List`1" style="stroke: #A80036; stroke-width: 1.0;"/><polygon fill="#A80036" points="306.93,22.59,299.1705,16.5245,302.0796,21.376,297.2281,24.2852,306.93,22.59" style="stroke: #A80036; stroke-width: 1.0;"/><line style="stroke: #A80036; stroke-width: 1.0;" x1="302.0796" x2="294.315" y1="21.376" y2="19.435"/><polygon fill="#FFFFFF" points="272.32,16.18,277.798,20.8695,284.2337,17.6165,278.7557,12.927,272.32,16.18" style="stroke: #A80036; stroke-width: 1.0;"/><text fill="#000000" font-family="sans-serif" font-size="13" lengthAdjust="spacingAndGlyphs" textLength="222" x="356.2787" y="3.6082">alreadyHadConversations&lt;string&gt;</text><!--MD5=[c7a3f2d5ae9e09278b02cf98a2cf1d95]
link GameData to Inventory--><path d="M140.94,69.06 C123.24,86.37 101.06,108.07 83.82,124.93 " fill="none" id="GameData-&gt;Inventory" style="stroke: #A80036; stroke-width: 1.0;"/><polygon fill="#A80036" points="80,128.67,89.2276,125.2275,83.5711,125.1704,83.6282,119.5138,80,128.67" style="stroke: #A80036; stroke-width: 1.0;"/><text fill="#000000" font-family="sans-serif" font-size="13" lengthAdjust="spacingAndGlyphs" textLength="59" x="19.6228" y="117.9945">Inventory</text><!--MD5=[7a6ef7a60c9182865cec54cd7c52cfe7]
link GameData to Scene--><path d="M171.15,69.06 C171.15,85.93 171.15,106.98 171.15,123.65 " fill="none" id="GameData-&gt;Scene" style="stroke: #A80036; stroke-width: 1.0;"/><polygon fill="#A80036" points="171.15,128.67,175.15,119.67,171.15,123.67,167.15,119.67,171.15,128.67" style="stroke: #A80036; stroke-width: 1.0;"/><text fill="#000000" font-family="sans-serif" font-size="13" lengthAdjust="spacingAndGlyphs" textLength="40" x="126.275" y="117.9945">Scene</text><!--MD5=[cca90d637880642b1c3f87873b0d7c92]
link GameData to Vector3--><path d="M200.31,69.06 C217.39,86.37 238.8,108.07 255.44,124.93 " fill="none" id="GameData-&gt;Vector3" style="stroke: #A80036; stroke-width: 1.0;"/><polygon fill="#A80036" points="259.13,128.67,255.6502,119.4564,255.616,125.1131,249.9592,125.0788,259.13,128.67" style="stroke: #A80036; stroke-width: 1.0;"/><text fill="#000000" font-family="sans-serif" font-size="13" lengthAdjust="spacingAndGlyphs" textLength="93" x="264.8533" y="117.9945">playerLocation</text><!--MD5=[3c80a25aa650f99461fc9b9ebb7ae3a2]
@startuml
class GameData {
    + GameData(inventory:Inventory)
}
class "List`1"<T> {
}
GameData - -> "items<ItemData>" "List`1"
GameData - -> "Inventory" Inventory
GameData - -> "Scene" Scene
GameData - -> "playerLocation" Vector3
GameData - -> "dialogues<DialogueNodeData>" "List`1"
GameData o-> "alreadyHadConversations<string>" "List`1"
@enduml

PlantUML version 1.2020.02(Sun Mar 01 10:22:07 GMT 2020)
(GPL source distribution)
Java Runtime: OpenJDK Runtime Environment
JVM: OpenJDK 64-Bit Server VM
Java Version: 11.0.9+11-Ubuntu-0ubuntu1
Operating System: Linux
Default Encoding: ANSI_X3.4-1968
Language: en
Country: US
--></g></svg>