<?xml version="1.0" encoding="UTF-8" standalone="no"?><svg xmlns="http://www.w3.org/2000/svg" xmlns:xlink="http://www.w3.org/1999/xlink" contentScriptType="application/ecmascript" contentStyleType="text/css" height="201px" preserveAspectRatio="none" style="width:513px;height:201px;" version="1.1" viewBox="0 0 513 201" width="513px" zoomAndPan="magnify"><defs><filter height="300%" id="f14y2vt1l5pk0r" width="300%" x="-1" y="-1"><feGaussianBlur result="blurOut" stdDeviation="2.0"/><feColorMatrix in="blurOut" result="blurOut2" type="matrix" values="0 0 0 0 0 0 0 0 0 0 0 0 0 0 0 0 0 0 .4 0"/><feOffset dx="4.0" dy="4.0" in="blurOut2" result="blurOut3"/><feBlend in="SourceGraphic" in2="blurOut3" mode="normal"/></filter></defs><g><!--MD5=[31796a549d5a5eebfa62628789de4c0a]
class GameData--><rect fill="#FEFECE" filter="url(#f14y2vt1l5pk0r)" height="73.6094" id="GameData" style="stroke: #A80036; stroke-width: 1.5;" width="196" x="16" y="8"/><ellipse cx="76.75" cy="24" fill="#ADD1B2" rx="11" ry="11" style="stroke: #A80036; stroke-width: 1.0;"/><path d="M79.7188,29.6406 Q79.1406,29.9375 78.5,30.0781 Q77.8594,30.2344 77.1563,30.2344 Q74.6563,30.2344 73.3281,28.5938 Q72.0156,26.9375 72.0156,23.8125 Q72.0156,20.6875 73.3281,19.0313 Q74.6563,17.375 77.1563,17.375 Q77.8594,17.375 78.5,17.5313 Q79.1563,17.6875 79.7188,17.9844 L79.7188,20.7031 Q79.0938,20.125 78.5,19.8594 Q77.9063,19.5781 77.2813,19.5781 Q75.9375,19.5781 75.25,20.6563 Q74.5625,21.7188 74.5625,23.8125 Q74.5625,25.9063 75.25,26.9844 Q75.9375,28.0469 77.2813,28.0469 Q77.9063,28.0469 78.5,27.7813 Q79.0938,27.5 79.7188,26.9219 L79.7188,29.6406 Z "/><text fill="#000000" font-family="sans-serif" font-size="12" lengthAdjust="spacingAndGlyphs" textLength="66" x="97.25" y="28.1543">GameData</text><line style="stroke: #A80036; stroke-width: 1.5;" x1="17" x2="211" y1="40" y2="40"/><ellipse cx="27" cy="51" fill="none" rx="3" ry="3" style="stroke: #038048; stroke-width: 1.0;"/><text fill="#000000" font-family="sans-serif" font-size="11" lengthAdjust="spacingAndGlyphs" textLength="112" x="36" y="54.2104">sceneName : string</text><line style="stroke: #A80036; stroke-width: 1.5;" x1="17" x2="211" y1="60.8047" y2="60.8047"/><ellipse cx="27" cy="71.8047" fill="#84BE84" rx="3" ry="3" style="stroke: #038048; stroke-width: 1.0;"/><text fill="#000000" font-family="sans-serif" font-size="11" lengthAdjust="spacingAndGlyphs" textLength="170" x="36" y="75.0151">GameData(leaveEmpty:string)</text><!--MD5=[e644022de7dea015dd09463c37421447]
class List`1--><rect fill="#FEFECE" filter="url(#f14y2vt1l5pk0r)" height="48" id="List`1" style="stroke: #A80036; stroke-width: 1.5;" width="78" x="247" y="21"/><ellipse cx="262" cy="37" fill="#ADD1B2" rx="11" ry="11" style="stroke: #A80036; stroke-width: 1.0;"/><path d="M264.9688,42.6406 Q264.3906,42.9375 263.75,43.0781 Q263.1094,43.2344 262.4063,43.2344 Q259.9063,43.2344 258.5781,41.5938 Q257.2656,39.9375 257.2656,36.8125 Q257.2656,33.6875 258.5781,32.0313 Q259.9063,30.375 262.4063,30.375 Q263.1094,30.375 263.75,30.5313 Q264.4063,30.6875 264.9688,30.9844 L264.9688,33.7031 Q264.3438,33.125 263.75,32.8594 Q263.1563,32.5781 262.5313,32.5781 Q261.1875,32.5781 260.5,33.6563 Q259.8125,34.7188 259.8125,36.8125 Q259.8125,38.9063 260.5,39.9844 Q261.1875,41.0469 262.5313,41.0469 Q263.1563,41.0469 263.75,40.7813 Q264.3438,40.5 264.9688,39.9219 L264.9688,42.6406 Z "/><text fill="#000000" font-family="sans-serif" font-size="12" lengthAdjust="spacingAndGlyphs" textLength="35" x="276" y="41.1543">List`1</text><rect fill="#FFFFFF" height="15.9688" style="stroke: #000000; stroke-width: 1.0; stroke-dasharray: 2.0,2.0;" width="9" x="319" y="18"/><text fill="#000000" font-family="sans-serif" font-size="12" font-style="italic" lengthAdjust="spacingAndGlyphs" textLength="7" x="320" y="30.1387">T</text><line style="stroke: #A80036; stroke-width: 1.5;" x1="248" x2="324" y1="53" y2="53"/><line style="stroke: #A80036; stroke-width: 1.5;" x1="248" x2="324" y1="61" y2="61"/><!--MD5=[65d619c042c23702cef2ca07d67b1cf6]
class Vector3--><rect fill="#FEFECE" filter="url(#f14y2vt1l5pk0r)" height="48" id="Vector3" style="stroke: #A80036; stroke-width: 1.5;" width="81" x="73.5" y="142"/><ellipse cx="88.5" cy="158" fill="#ADD1B2" rx="11" ry="11" style="stroke: #A80036; stroke-width: 1.0;"/><path d="M91.4688,163.6406 Q90.8906,163.9375 90.25,164.0781 Q89.6094,164.2344 88.9063,164.2344 Q86.4063,164.2344 85.0781,162.5938 Q83.7656,160.9375 83.7656,157.8125 Q83.7656,154.6875 85.0781,153.0313 Q86.4063,151.375 88.9063,151.375 Q89.6094,151.375 90.25,151.5313 Q90.9063,151.6875 91.4688,151.9844 L91.4688,154.7031 Q90.8438,154.125 90.25,153.8594 Q89.6563,153.5781 89.0313,153.5781 Q87.6875,153.5781 87,154.6563 Q86.3125,155.7188 86.3125,157.8125 Q86.3125,159.9063 87,160.9844 Q87.6875,162.0469 89.0313,162.0469 Q89.6563,162.0469 90.25,161.7813 Q90.8438,161.5 91.4688,160.9219 L91.4688,163.6406 Z "/><text fill="#000000" font-family="sans-serif" font-size="12" lengthAdjust="spacingAndGlyphs" textLength="49" x="102.5" y="162.1543">Vector3</text><line style="stroke: #A80036; stroke-width: 1.5;" x1="74.5" x2="153.5" y1="174" y2="174"/><line style="stroke: #A80036; stroke-width: 1.5;" x1="74.5" x2="153.5" y1="182" y2="182"/><!--MD5=[8163fec67d9db725879d3432b97ffad1]
link GameData to List`1--><path d="M223.9744,70.538 C223.9744,70.538 231.17,69.14 234.22,68.36 " fill="none" id="GameData-List`1" style="stroke: #A80036; stroke-width: 1.0;"/><polygon fill="#A80036" points="246.74,64.55,236.9667,63.3326,241.955,66.0003,239.2872,70.9886,246.74,64.55" style="stroke: #A80036; stroke-width: 1.0;"/><line style="stroke: #A80036; stroke-width: 1.0;" x1="241.955" x2="234.3" y1="66.0003" y2="68.335"/><polygon fill="#FFFFFF" points="212.09,72.2,218.5862,75.3305,223.9744,70.538,217.4782,67.4076,212.09,72.2" style="stroke: #A80036; stroke-width: 1.0;"/><text fill="#000000" font-family="sans-serif" font-size="13" lengthAdjust="spacingAndGlyphs" textLength="213" x="277.8385" y="89.1582">itemDataSaves&lt;ItemDataSave&gt;</text><!--MD5=[8163fec67d9db725879d3432b97ffad1]
link GameData to List`1--><path d="M223.9744,19.462 C223.9744,19.462 231.17,20.86 234.22,21.64 " fill="none" id="GameData-List`1-1" style="stroke: #A80036; stroke-width: 1.0;"/><polygon fill="#A80036" points="246.74,25.45,239.2872,19.0114,241.955,23.9997,236.9667,26.6674,246.74,25.45" style="stroke: #A80036; stroke-width: 1.0;"/><line style="stroke: #A80036; stroke-width: 1.0;" x1="241.955" x2="234.3" y1="23.9997" y2="21.665"/><polygon fill="#FFFFFF" points="212.09,17.8,217.4782,22.5924,223.9744,19.462,218.5862,14.6695,212.09,17.8" style="stroke: #A80036; stroke-width: 1.0;"/><text fill="#000000" font-family="sans-serif" font-size="13" lengthAdjust="spacingAndGlyphs" textLength="222" x="279.9198" y="10.037">alreadyHadConversations&lt;string&gt;</text><!--MD5=[cca90d637880642b1c3f87873b0d7c92]
link GameData to Vector3--><path d="M114,82.03 C114,99.48 114,120.15 114,136.49 " fill="none" id="GameData-&gt;Vector3" style="stroke: #A80036; stroke-width: 1.0;"/><polygon fill="#A80036" points="114,141.85,118,132.85,114,136.85,110,132.85,114,141.85" style="stroke: #A80036; stroke-width: 1.0;"/><text fill="#000000" font-family="sans-serif" font-size="13" lengthAdjust="spacingAndGlyphs" textLength="93" x="9.0844" y="130.8236">playerLocation</text><!--MD5=[e9666560abd16b94f0d1a9c85ee435e8]
@startuml
class GameData {
    + sceneName : string
    + GameData(leaveEmpty:string)
}
class "List`1"<T> {
}
GameData o-> "itemDataSaves<ItemDataSave>" "List`1"
GameData o-> "alreadyHadConversations<string>" "List`1"
GameData - -> "playerLocation" Vector3
@enduml

PlantUML version 1.2020.02(Sun Mar 01 10:22:07 GMT 2020)
(GPL source distribution)
Java Runtime: OpenJDK Runtime Environment
JVM: OpenJDK 64-Bit Server VM
Java Version: 11.0.9+11-Ubuntu-0ubuntu1
Operating System: Linux
Default Encoding: ANSI_X3.4-1968
Language: en
Country: US
--></g></svg>