<?xml version="1.0" encoding="UTF-8" standalone="no"?><svg xmlns="http://www.w3.org/2000/svg" xmlns:xlink="http://www.w3.org/1999/xlink" contentScriptType="application/ecmascript" contentStyleType="text/css" height="201px" preserveAspectRatio="none" style="width:571px;height:201px;" version="1.1" viewBox="0 0 571 201" width="571px" zoomAndPan="magnify"><defs><filter height="300%" id="f16lbfj1fpcuxj" width="300%" x="-1" y="-1"><feGaussianBlur result="blurOut" stdDeviation="2.0"/><feColorMatrix in="blurOut" result="blurOut2" type="matrix" values="0 0 0 0 0 0 0 0 0 0 0 0 0 0 0 0 0 0 .4 0"/><feOffset dx="4.0" dy="4.0" in="blurOut2" result="blurOut3"/><feBlend in="SourceGraphic" in2="blurOut3" mode="normal"/></filter></defs><g><!--MD5=[31796a549d5a5eebfa62628789de4c0a]
class GameData--><rect fill="#FEFECE" filter="url(#f16lbfj1fpcuxj)" height="73.6094" id="GameData" style="stroke: #A80036; stroke-width: 1.5;" width="196" x="30.33" y="8"/><ellipse cx="91.08" cy="24" fill="#ADD1B2" rx="11" ry="11" style="stroke: #A80036; stroke-width: 1.0;"/><path d="M94.0488,29.6406 Q93.4706,29.9375 92.83,30.0781 Q92.1894,30.2344 91.4863,30.2344 Q88.9863,30.2344 87.6581,28.5938 Q86.3456,26.9375 86.3456,23.8125 Q86.3456,20.6875 87.6581,19.0313 Q88.9863,17.375 91.4863,17.375 Q92.1894,17.375 92.83,17.5313 Q93.4863,17.6875 94.0488,17.9844 L94.0488,20.7031 Q93.4238,20.125 92.83,19.8594 Q92.2363,19.5781 91.6113,19.5781 Q90.2675,19.5781 89.58,20.6563 Q88.8925,21.7188 88.8925,23.8125 Q88.8925,25.9063 89.58,26.9844 Q90.2675,28.0469 91.6113,28.0469 Q92.2363,28.0469 92.83,27.7813 Q93.4238,27.5 94.0488,26.9219 L94.0488,29.6406 Z "/><text fill="#000000" font-family="sans-serif" font-size="12" lengthAdjust="spacingAndGlyphs" textLength="66" x="111.58" y="28.1543">GameData</text><line style="stroke: #A80036; stroke-width: 1.5;" x1="31.33" x2="225.33" y1="40" y2="40"/><ellipse cx="41.33" cy="51" fill="none" rx="3" ry="3" style="stroke: #038048; stroke-width: 1.0;"/><text fill="#000000" font-family="sans-serif" font-size="11" lengthAdjust="spacingAndGlyphs" textLength="112" x="50.33" y="54.2104">sceneName : string</text><line style="stroke: #A80036; stroke-width: 1.5;" x1="31.33" x2="225.33" y1="60.8047" y2="60.8047"/><ellipse cx="41.33" cy="71.8047" fill="#84BE84" rx="3" ry="3" style="stroke: #038048; stroke-width: 1.0;"/><text fill="#000000" font-family="sans-serif" font-size="11" lengthAdjust="spacingAndGlyphs" textLength="170" x="50.33" y="75.0151">GameData(leaveEmpty:string)</text><!--MD5=[e644022de7dea015dd09463c37421447]
class List`1--><rect fill="#FEFECE" filter="url(#f16lbfj1fpcuxj)" height="48" id="List`1" style="stroke: #A80036; stroke-width: 1.5;" width="78" x="261.33" y="21"/><ellipse cx="276.33" cy="37" fill="#ADD1B2" rx="11" ry="11" style="stroke: #A80036; stroke-width: 1.0;"/><path d="M279.2988,42.6406 Q278.7206,42.9375 278.08,43.0781 Q277.4394,43.2344 276.7363,43.2344 Q274.2363,43.2344 272.9081,41.5938 Q271.5956,39.9375 271.5956,36.8125 Q271.5956,33.6875 272.9081,32.0313 Q274.2363,30.375 276.7363,30.375 Q277.4394,30.375 278.08,30.5313 Q278.7363,30.6875 279.2988,30.9844 L279.2988,33.7031 Q278.6738,33.125 278.08,32.8594 Q277.4863,32.5781 276.8613,32.5781 Q275.5175,32.5781 274.83,33.6563 Q274.1425,34.7188 274.1425,36.8125 Q274.1425,38.9063 274.83,39.9844 Q275.5175,41.0469 276.8613,41.0469 Q277.4863,41.0469 278.08,40.7813 Q278.6738,40.5 279.2988,39.9219 L279.2988,42.6406 Z "/><text fill="#000000" font-family="sans-serif" font-size="12" lengthAdjust="spacingAndGlyphs" textLength="35" x="290.33" y="41.1543">List`1</text><rect fill="#FFFFFF" height="15.9688" style="stroke: #000000; stroke-width: 1.0; stroke-dasharray: 2.0,2.0;" width="9" x="333.33" y="18"/><text fill="#000000" font-family="sans-serif" font-size="12" font-style="italic" lengthAdjust="spacingAndGlyphs" textLength="7" x="334.33" y="30.1387">T</text><line style="stroke: #A80036; stroke-width: 1.5;" x1="262.33" x2="338.33" y1="53" y2="53"/><line style="stroke: #A80036; stroke-width: 1.5;" x1="262.33" x2="338.33" y1="61" y2="61"/><!--MD5=[ee084734eb3a5ffad99a0de9980f769b]
class Inventory--><rect fill="#FEFECE" filter="url(#f16lbfj1fpcuxj)" height="48" id="Inventory" style="stroke: #A80036; stroke-width: 1.5;" width="89" x="23.83" y="142"/><ellipse cx="38.83" cy="158" fill="#ADD1B2" rx="11" ry="11" style="stroke: #A80036; stroke-width: 1.0;"/><path d="M41.7988,163.6406 Q41.2206,163.9375 40.58,164.0781 Q39.9394,164.2344 39.2363,164.2344 Q36.7363,164.2344 35.4081,162.5938 Q34.0956,160.9375 34.0956,157.8125 Q34.0956,154.6875 35.4081,153.0313 Q36.7363,151.375 39.2363,151.375 Q39.9394,151.375 40.58,151.5313 Q41.2363,151.6875 41.7988,151.9844 L41.7988,154.7031 Q41.1738,154.125 40.58,153.8594 Q39.9863,153.5781 39.3613,153.5781 Q38.0175,153.5781 37.33,154.6563 Q36.6425,155.7188 36.6425,157.8125 Q36.6425,159.9063 37.33,160.9844 Q38.0175,162.0469 39.3613,162.0469 Q39.9863,162.0469 40.58,161.7813 Q41.1738,161.5 41.7988,160.9219 L41.7988,163.6406 Z "/><text fill="#000000" font-family="sans-serif" font-size="12" lengthAdjust="spacingAndGlyphs" textLength="57" x="52.83" y="162.1543">Inventory</text><line style="stroke: #A80036; stroke-width: 1.5;" x1="24.83" x2="111.83" y1="174" y2="174"/><line style="stroke: #A80036; stroke-width: 1.5;" x1="24.83" x2="111.83" y1="182" y2="182"/><!--MD5=[65d619c042c23702cef2ca07d67b1cf6]
class Vector3--><rect fill="#FEFECE" filter="url(#f16lbfj1fpcuxj)" height="48" id="Vector3" style="stroke: #A80036; stroke-width: 1.5;" width="81" x="147.83" y="142"/><ellipse cx="162.83" cy="158" fill="#ADD1B2" rx="11" ry="11" style="stroke: #A80036; stroke-width: 1.0;"/><path d="M165.7987,163.6406 Q165.2206,163.9375 164.58,164.0781 Q163.9394,164.2344 163.2362,164.2344 Q160.7362,164.2344 159.4081,162.5938 Q158.0956,160.9375 158.0956,157.8125 Q158.0956,154.6875 159.4081,153.0313 Q160.7362,151.375 163.2362,151.375 Q163.9394,151.375 164.58,151.5313 Q165.2362,151.6875 165.7987,151.9844 L165.7987,154.7031 Q165.1737,154.125 164.58,153.8594 Q163.9862,153.5781 163.3612,153.5781 Q162.0175,153.5781 161.33,154.6563 Q160.6425,155.7188 160.6425,157.8125 Q160.6425,159.9063 161.33,160.9844 Q162.0175,162.0469 163.3612,162.0469 Q163.9862,162.0469 164.58,161.7813 Q165.1737,161.5 165.7987,160.9219 L165.7987,163.6406 Z "/><text fill="#000000" font-family="sans-serif" font-size="12" lengthAdjust="spacingAndGlyphs" textLength="49" x="176.83" y="162.1543">Vector3</text><line style="stroke: #A80036; stroke-width: 1.5;" x1="148.83" x2="227.83" y1="174" y2="174"/><line style="stroke: #A80036; stroke-width: 1.5;" x1="148.83" x2="227.83" y1="182" y2="182"/><!--MD5=[8163fec67d9db725879d3432b97ffad1]
link GameData to List`1--><path d="M226.42,72.2 C236.35,71.3 246.27,69.29 256.19,66.17 " fill="none" id="GameData-&gt;List`1" style="stroke: #A80036; stroke-width: 1.0;"/><polygon fill="#A80036" points="261.07,64.55,251.2687,63.5836,256.3237,66.1226,253.7848,71.1776,261.07,64.55" style="stroke: #A80036; stroke-width: 1.0;"/><text fill="#000000" font-family="sans-serif" font-size="13" lengthAdjust="spacingAndGlyphs" textLength="118" x="270.1998" y="89.1582">items&lt;ItemData&gt;</text><!--MD5=[8163fec67d9db725879d3432b97ffad1]
link GameData to List`1--><path d="M238.42,45 C238.42,45 245.25,45 248.04,45 " fill="none" id="GameData-List`1" style="stroke: #A80036; stroke-width: 1.0;"/><polygon fill="#A80036" points="261.07,45,252.07,41,256.07,45,252.07,49,261.07,45" style="stroke: #A80036; stroke-width: 1.0;"/><line style="stroke: #A80036; stroke-width: 1.0;" x1="256.07" x2="248.07" y1="45" y2="45"/><polygon fill="#FFFFFF" points="226.42,45,232.42,49,238.42,45,232.42,41,226.42,45" style="stroke: #A80036; stroke-width: 1.0;"/><text fill="#000000" font-family="sans-serif" font-size="13" lengthAdjust="spacingAndGlyphs" textLength="213" x="346.801" y="32.5891">itemDataSaves&lt;ItemDataSave&gt;</text><!--MD5=[8163fec67d9db725879d3432b97ffad1]
link GameData to List`1--><path d="M238.3044,19.462 C238.3044,19.462 245.5,20.86 248.55,21.64 " fill="none" id="GameData-List`1-1" style="stroke: #A80036; stroke-width: 1.0;"/><polygon fill="#A80036" points="261.07,25.45,253.624,19.0035,256.2865,23.9946,251.2954,26.6571,261.07,25.45" style="stroke: #A80036; stroke-width: 1.0;"/><line style="stroke: #A80036; stroke-width: 1.0;" x1="256.2865" x2="248.625" y1="23.9946" y2="21.665"/><polygon fill="#FFFFFF" points="226.42,17.8,231.8082,22.5924,238.3044,19.462,232.9162,14.6695,226.42,17.8" style="stroke: #A80036; stroke-width: 1.0;"/><text fill="#000000" font-family="sans-serif" font-size="13" lengthAdjust="spacingAndGlyphs" textLength="222" x="294.2497" y="10.037">alreadyHadConversations&lt;string&gt;</text><!--MD5=[c7a3f2d5ae9e09278b02cf98a2cf1d95]
link GameData to Inventory--><path d="M110.16,82.03 C101.21,99.79 90.58,120.87 82.28,137.33 " fill="none" id="GameData-&gt;Inventory" style="stroke: #A80036; stroke-width: 1.0;"/><polygon fill="#A80036" points="80,141.85,87.6186,135.6085,82.2475,137.3836,80.4724,132.0125,80,141.85" style="stroke: #A80036; stroke-width: 1.0;"/><text fill="#000000" font-family="sans-serif" font-size="13" lengthAdjust="spacingAndGlyphs" textLength="59" x="16.4311" y="130.8236">inventory</text><!--MD5=[cca90d637880642b1c3f87873b0d7c92]
link GameData to Vector3--><path d="M146.49,82.03 C155.45,99.79 166.08,120.87 174.38,137.33 " fill="none" id="GameData-&gt;Vector3" style="stroke: #A80036; stroke-width: 1.0;"/><polygon fill="#A80036" points="176.66,141.85,176.2002,132.0119,174.4182,137.3807,169.0494,135.5987,176.66,141.85" style="stroke: #A80036; stroke-width: 1.0;"/><text fill="#000000" font-family="sans-serif" font-size="13" lengthAdjust="spacingAndGlyphs" textLength="93" x="99.5039" y="130.8236">playerLocation</text><!--MD5=[531c3cb3996525470c6636d58ac86758]
@startuml
class GameData {
    + sceneName : string
    + GameData(leaveEmpty:string)
}
class "List`1"<T> {
}
GameData - -> "items<ItemData>" "List`1"
GameData o-> "itemDataSaves<ItemDataSave>" "List`1"
GameData o-> "alreadyHadConversations<string>" "List`1"
GameData - -> "inventory" Inventory
GameData - -> "playerLocation" Vector3
@enduml

PlantUML version 1.2020.02(Sun Mar 01 10:22:07 GMT 2020)
(GPL source distribution)
Java Runtime: OpenJDK Runtime Environment
JVM: OpenJDK 64-Bit Server VM
Java Version: 11.0.9+11-Ubuntu-0ubuntu1
Operating System: Linux
Default Encoding: ANSI_X3.4-1968
Language: en
Country: US
--></g></svg>