<?xml version="1.0" encoding="UTF-8" standalone="no"?><svg xmlns="http://www.w3.org/2000/svg" xmlns:xlink="http://www.w3.org/1999/xlink" contentScriptType="application/ecmascript" contentStyleType="text/css" height="188px" preserveAspectRatio="none" style="width:521px;height:188px;" version="1.1" viewBox="0 0 521 188" width="521px" zoomAndPan="magnify"><defs><filter height="300%" id="f1u269ycp4nnim" width="300%" x="-1" y="-1"><feGaussianBlur result="blurOut" stdDeviation="2.0"/><feColorMatrix in="blurOut" result="blurOut2" type="matrix" values="0 0 0 0 0 0 0 0 0 0 0 0 0 0 0 0 0 0 .4 0"/><feOffset dx="4.0" dy="4.0" in="blurOut2" result="blurOut3"/><feBlend in="SourceGraphic" in2="blurOut3" mode="normal"/></filter></defs><g><!--MD5=[31796a549d5a5eebfa62628789de4c0a]
class GameData--><rect fill="#FEFECE" filter="url(#f1u269ycp4nnim)" height="60.8047" id="GameData" style="stroke: #A80036; stroke-width: 1.5;" width="202" x="177.78" y="8"/><ellipse cx="241.53" cy="24" fill="#ADD1B2" rx="11" ry="11" style="stroke: #A80036; stroke-width: 1.0;"/><path d="M244.4988,29.6406 Q243.9206,29.9375 243.28,30.0781 Q242.6394,30.2344 241.9363,30.2344 Q239.4363,30.2344 238.1081,28.5938 Q236.7956,26.9375 236.7956,23.8125 Q236.7956,20.6875 238.1081,19.0313 Q239.4363,17.375 241.9363,17.375 Q242.6394,17.375 243.28,17.5313 Q243.9363,17.6875 244.4988,17.9844 L244.4988,20.7031 Q243.8738,20.125 243.28,19.8594 Q242.6863,19.5781 242.0613,19.5781 Q240.7175,19.5781 240.03,20.6563 Q239.3425,21.7188 239.3425,23.8125 Q239.3425,25.9063 240.03,26.9844 Q240.7175,28.0469 242.0613,28.0469 Q242.6863,28.0469 243.28,27.7813 Q243.8738,27.5 244.4988,26.9219 L244.4988,29.6406 Z "/><text fill="#000000" font-family="sans-serif" font-size="12" lengthAdjust="spacingAndGlyphs" textLength="66" x="262.03" y="28.1543">GameData</text><line style="stroke: #A80036; stroke-width: 1.5;" x1="178.78" x2="378.78" y1="40" y2="40"/><line style="stroke: #A80036; stroke-width: 1.5;" x1="178.78" x2="378.78" y1="48" y2="48"/><ellipse cx="188.78" cy="59" fill="#84BE84" rx="3" ry="3" style="stroke: #038048; stroke-width: 1.0;"/><text fill="#000000" font-family="sans-serif" font-size="11" lengthAdjust="spacingAndGlyphs" textLength="176" x="197.78" y="62.2104">GameData(inventory:Inventory)</text><!--MD5=[e644022de7dea015dd09463c37421447]
class List`1--><rect fill="#FEFECE" filter="url(#f1u269ycp4nnim)" height="48" id="List`1" style="stroke: #A80036; stroke-width: 1.5;" width="78" x="63.78" y="129"/><ellipse cx="78.78" cy="145" fill="#ADD1B2" rx="11" ry="11" style="stroke: #A80036; stroke-width: 1.0;"/><path d="M81.7488,150.6406 Q81.1706,150.9375 80.53,151.0781 Q79.8894,151.2344 79.1863,151.2344 Q76.6863,151.2344 75.3581,149.5938 Q74.0456,147.9375 74.0456,144.8125 Q74.0456,141.6875 75.3581,140.0313 Q76.6863,138.375 79.1863,138.375 Q79.8894,138.375 80.53,138.5313 Q81.1863,138.6875 81.7488,138.9844 L81.7488,141.7031 Q81.1238,141.125 80.53,140.8594 Q79.9363,140.5781 79.3113,140.5781 Q77.9675,140.5781 77.28,141.6563 Q76.5925,142.7188 76.5925,144.8125 Q76.5925,146.9063 77.28,147.9844 Q77.9675,149.0469 79.3113,149.0469 Q79.9363,149.0469 80.53,148.7813 Q81.1238,148.5 81.7488,147.9219 L81.7488,150.6406 Z "/><text fill="#000000" font-family="sans-serif" font-size="12" lengthAdjust="spacingAndGlyphs" textLength="35" x="92.78" y="149.1543">List`1</text><rect fill="#FFFFFF" height="15.9688" style="stroke: #000000; stroke-width: 1.0; stroke-dasharray: 2.0,2.0;" width="9" x="135.78" y="126"/><text fill="#000000" font-family="sans-serif" font-size="12" font-style="italic" lengthAdjust="spacingAndGlyphs" textLength="7" x="136.78" y="138.1387">T</text><line style="stroke: #A80036; stroke-width: 1.5;" x1="64.78" x2="140.78" y1="161" y2="161"/><line style="stroke: #A80036; stroke-width: 1.5;" x1="64.78" x2="140.78" y1="169" y2="169"/><!--MD5=[ee084734eb3a5ffad99a0de9980f769b]
class Inventory--><rect fill="#FEFECE" filter="url(#f1u269ycp4nnim)" height="48" id="Inventory" style="stroke: #A80036; stroke-width: 1.5;" width="89" x="177.28" y="129"/><ellipse cx="192.28" cy="145" fill="#ADD1B2" rx="11" ry="11" style="stroke: #A80036; stroke-width: 1.0;"/><path d="M195.2488,150.6406 Q194.6706,150.9375 194.03,151.0781 Q193.3894,151.2344 192.6863,151.2344 Q190.1863,151.2344 188.8581,149.5938 Q187.5456,147.9375 187.5456,144.8125 Q187.5456,141.6875 188.8581,140.0313 Q190.1863,138.375 192.6863,138.375 Q193.3894,138.375 194.03,138.5313 Q194.6863,138.6875 195.2488,138.9844 L195.2488,141.7031 Q194.6238,141.125 194.03,140.8594 Q193.4363,140.5781 192.8113,140.5781 Q191.4675,140.5781 190.78,141.6563 Q190.0925,142.7188 190.0925,144.8125 Q190.0925,146.9063 190.78,147.9844 Q191.4675,149.0469 192.8113,149.0469 Q193.4363,149.0469 194.03,148.7813 Q194.6238,148.5 195.2488,147.9219 L195.2488,150.6406 Z "/><text fill="#000000" font-family="sans-serif" font-size="12" lengthAdjust="spacingAndGlyphs" textLength="57" x="206.28" y="149.1543">Inventory</text><line style="stroke: #A80036; stroke-width: 1.5;" x1="178.28" x2="265.28" y1="161" y2="161"/><line style="stroke: #A80036; stroke-width: 1.5;" x1="178.28" x2="265.28" y1="169" y2="169"/><!--MD5=[e4faacc5b8aef66b11ab0c816bbbc7f8]
class Scene--><rect fill="#FEFECE" filter="url(#f1u269ycp4nnim)" height="48" id="Scene" style="stroke: #A80036; stroke-width: 1.5;" width="71" x="301.28" y="129"/><ellipse cx="316.28" cy="145" fill="#ADD1B2" rx="11" ry="11" style="stroke: #A80036; stroke-width: 1.0;"/><path d="M319.2488,150.6406 Q318.6706,150.9375 318.03,151.0781 Q317.3894,151.2344 316.6863,151.2344 Q314.1863,151.2344 312.8581,149.5938 Q311.5456,147.9375 311.5456,144.8125 Q311.5456,141.6875 312.8581,140.0313 Q314.1863,138.375 316.6863,138.375 Q317.3894,138.375 318.03,138.5313 Q318.6863,138.6875 319.2488,138.9844 L319.2488,141.7031 Q318.6238,141.125 318.03,140.8594 Q317.4363,140.5781 316.8113,140.5781 Q315.4675,140.5781 314.78,141.6563 Q314.0925,142.7188 314.0925,144.8125 Q314.0925,146.9063 314.78,147.9844 Q315.4675,149.0469 316.8113,149.0469 Q317.4363,149.0469 318.03,148.7813 Q318.6238,148.5 319.2488,147.9219 L319.2488,150.6406 Z "/><text fill="#000000" font-family="sans-serif" font-size="12" lengthAdjust="spacingAndGlyphs" textLength="39" x="330.28" y="149.1543">Scene</text><line style="stroke: #A80036; stroke-width: 1.5;" x1="302.28" x2="371.28" y1="161" y2="161"/><line style="stroke: #A80036; stroke-width: 1.5;" x1="302.28" x2="371.28" y1="169" y2="169"/><!--MD5=[65d619c042c23702cef2ca07d67b1cf6]
class Vector3--><rect fill="#FEFECE" filter="url(#f1u269ycp4nnim)" height="48" id="Vector3" style="stroke: #A80036; stroke-width: 1.5;" width="81" x="407.28" y="129"/><ellipse cx="422.28" cy="145" fill="#ADD1B2" rx="11" ry="11" style="stroke: #A80036; stroke-width: 1.0;"/><path d="M425.2488,150.6406 Q424.6706,150.9375 424.03,151.0781 Q423.3894,151.2344 422.6863,151.2344 Q420.1863,151.2344 418.8581,149.5938 Q417.5456,147.9375 417.5456,144.8125 Q417.5456,141.6875 418.8581,140.0313 Q420.1863,138.375 422.6863,138.375 Q423.3894,138.375 424.03,138.5313 Q424.6863,138.6875 425.2488,138.9844 L425.2488,141.7031 Q424.6238,141.125 424.03,140.8594 Q423.4363,140.5781 422.8113,140.5781 Q421.4675,140.5781 420.78,141.6563 Q420.0925,142.7188 420.0925,144.8125 Q420.0925,146.9063 420.78,147.9844 Q421.4675,149.0469 422.8113,149.0469 Q423.4363,149.0469 424.03,148.7813 Q424.6238,148.5 425.2488,147.9219 L425.2488,150.6406 Z "/><text fill="#000000" font-family="sans-serif" font-size="12" lengthAdjust="spacingAndGlyphs" textLength="49" x="436.28" y="149.1543">Vector3</text><line style="stroke: #A80036; stroke-width: 1.5;" x1="408.28" x2="487.28" y1="161" y2="161"/><line style="stroke: #A80036; stroke-width: 1.5;" x1="408.28" x2="487.28" y1="169" y2="169"/><!--MD5=[8163fec67d9db725879d3432b97ffad1]
link GameData to List`1--><path d="M232.54,69.06 C204.91,86.72 170.13,108.95 143.53,125.95 " fill="none" id="GameData-&gt;List`1" style="stroke: #A80036; stroke-width: 1.0;"/><polygon fill="#A80036" points="139,128.85,148.7359,127.3629,143.2101,126.1527,144.4203,120.6268,139,128.85" style="stroke: #A80036; stroke-width: 1.0;"/><text fill="#000000" font-family="sans-serif" font-size="13" lengthAdjust="spacingAndGlyphs" textLength="118" x="15.1626" y="117.8236">items&lt;ItemData&gt;</text><!--MD5=[c7a3f2d5ae9e09278b02cf98a2cf1d95]
link GameData to Inventory--><path d="M263.81,69.06 C255.18,86.08 244.41,107.34 235.93,124.08 " fill="none" id="GameData-&gt;Inventory" style="stroke: #A80036; stroke-width: 1.0;"/><polygon fill="#A80036" points="233.6,128.67,241.2346,122.448,235.8589,124.2094,234.0975,118.8337,233.6,128.67" style="stroke: #A80036; stroke-width: 1.0;"/><text fill="#000000" font-family="sans-serif" font-size="13" lengthAdjust="spacingAndGlyphs" textLength="59" x="170.2905" y="117.9945">Inventory</text><!--MD5=[7a6ef7a60c9182865cec54cd7c52cfe7]
link GameData to Scene--><path d="M294.02,69.06 C302.8,86.08 313.76,107.34 322.39,124.08 " fill="none" id="GameData-&gt;Scene" style="stroke: #A80036; stroke-width: 1.0;"/><polygon fill="#A80036" points="324.75,128.67,324.1646,118.8386,322.4513,124.2297,317.0602,122.5164,324.75,128.67" style="stroke: #A80036; stroke-width: 1.0;"/><text fill="#000000" font-family="sans-serif" font-size="13" lengthAdjust="spacingAndGlyphs" textLength="40" x="276.9427" y="117.9945">Scene</text><!--MD5=[cca90d637880642b1c3f87873b0d7c92]
link GameData to Vector3--><path d="M323.19,69.06 C349.72,86.72 383.12,108.95 408.66,125.95 " fill="none" id="GameData-&gt;Vector3" style="stroke: #A80036; stroke-width: 1.0;"/><polygon fill="#A80036" points="413.01,128.85,407.7272,120.5378,408.8454,126.0831,403.3001,127.2013,413.01,128.85" style="stroke: #A80036; stroke-width: 1.0;"/><text fill="#000000" font-family="sans-serif" font-size="13" lengthAdjust="spacingAndGlyphs" textLength="93" x="416.0158" y="117.8236">playerLocation</text><!--MD5=[b3cc4dd95f84a411b3984c36f468603b]
@startuml
class GameData {
    + GameData(inventory:Inventory)
}
class "List`1"<T> {
}
GameData - -> "items<ItemData>" "List`1"
GameData - -> "Inventory" Inventory
GameData - -> "Scene" Scene
GameData - -> "playerLocation" Vector3
@enduml

PlantUML version 1.2020.02(Sun Mar 01 10:22:07 GMT 2020)
(GPL source distribution)
Java Runtime: OpenJDK Runtime Environment
JVM: OpenJDK 64-Bit Server VM
Java Version: 11.0.9+11-Ubuntu-0ubuntu1
Operating System: Linux
Default Encoding: ANSI_X3.4-1968
Language: en
Country: US
--></g></svg>