<?xml version="1.0" encoding="UTF-8" standalone="no"?><svg xmlns="http://www.w3.org/2000/svg" xmlns:xlink="http://www.w3.org/1999/xlink" contentScriptType="application/ecmascript" contentStyleType="text/css" height="296px" preserveAspectRatio="none" style="width:457px;height:296px;" version="1.1" viewBox="0 0 457 296" width="457px" zoomAndPan="magnify"><defs><filter height="300%" id="f1xhwh3vifd9kf" width="300%" x="-1" y="-1"><feGaussianBlur result="blurOut" stdDeviation="2.0"/><feColorMatrix in="blurOut" result="blurOut2" type="matrix" values="0 0 0 0 0 0 0 0 0 0 0 0 0 0 0 0 0 0 .4 0"/><feOffset dx="4.0" dy="4.0" in="blurOut2" result="blurOut3"/><feBlend in="SourceGraphic" in2="blurOut3" mode="normal"/></filter></defs><g><!--MD5=[b6d636d11effba7a822c0a6ce9478d03]
class DialogueListener--><rect fill="#FEFECE" filter="url(#f1xhwh3vifd9kf)" height="60.8047" id="DialogueListener" style="stroke: #A80036; stroke-width: 1.5;" width="327" x="119.12" y="116"/><ellipse cx="225.87" cy="132" fill="#ADD1B2" rx="11" ry="11" style="stroke: #A80036; stroke-width: 1.0;"/><path d="M228.8388,137.6406 Q228.2606,137.9375 227.62,138.0781 Q226.9794,138.2344 226.2763,138.2344 Q223.7763,138.2344 222.4481,136.5938 Q221.1356,134.9375 221.1356,131.8125 Q221.1356,128.6875 222.4481,127.0313 Q223.7763,125.375 226.2763,125.375 Q226.9794,125.375 227.62,125.5313 Q228.2763,125.6875 228.8388,125.9844 L228.8388,128.7031 Q228.2138,128.125 227.62,127.8594 Q227.0263,127.5781 226.4013,127.5781 Q225.0575,127.5781 224.37,128.6563 Q223.6825,129.7188 223.6825,131.8125 Q223.6825,133.9063 224.37,134.9844 Q225.0575,136.0469 226.4013,136.0469 Q227.0263,136.0469 227.62,135.7813 Q228.2138,135.5 228.8388,134.9219 L228.8388,137.6406 Z "/><text fill="#000000" font-family="sans-serif" font-size="12" lengthAdjust="spacingAndGlyphs" textLength="105" x="246.37" y="136.1543">DialogueListener</text><line style="stroke: #A80036; stroke-width: 1.5;" x1="120.12" x2="445.12" y1="148" y2="148"/><line style="stroke: #A80036; stroke-width: 1.5;" x1="120.12" x2="445.12" y1="156" y2="156"/><ellipse cx="130.12" cy="167" fill="#84BE84" rx="3" ry="3" style="stroke: #038048; stroke-width: 1.0;"/><text fill="#000000" font-family="sans-serif" font-size="11" lengthAdjust="spacingAndGlyphs" textLength="301" x="139.12" y="170.2104">OnEventTriggered(dialogue:DialogueContainer) : void</text><!--MD5=[3db59899eb5beb210f00fd86984190c5]
class UnityEvent`1--><rect fill="#FEFECE" filter="url(#f1xhwh3vifd9kf)" height="48" id="UnityEvent`1" style="stroke: #A80036; stroke-width: 1.5;" width="123" x="142.12" y="237"/><ellipse cx="157.12" cy="253" fill="#ADD1B2" rx="11" ry="11" style="stroke: #A80036; stroke-width: 1.0;"/><path d="M160.0888,258.6406 Q159.5106,258.9375 158.87,259.0781 Q158.2294,259.2344 157.5263,259.2344 Q155.0263,259.2344 153.6981,257.5938 Q152.3856,255.9375 152.3856,252.8125 Q152.3856,249.6875 153.6981,248.0313 Q155.0263,246.375 157.5263,246.375 Q158.2294,246.375 158.87,246.5313 Q159.5263,246.6875 160.0888,246.9844 L160.0888,249.7031 Q159.4638,249.125 158.87,248.8594 Q158.2763,248.5781 157.6513,248.5781 Q156.3075,248.5781 155.62,249.6563 Q154.9325,250.7188 154.9325,252.8125 Q154.9325,254.9063 155.62,255.9844 Q156.3075,257.0469 157.6513,257.0469 Q158.2763,257.0469 158.87,256.7813 Q159.4638,256.5 160.0888,255.9219 L160.0888,258.6406 Z "/><text fill="#000000" font-family="sans-serif" font-size="12" lengthAdjust="spacingAndGlyphs" textLength="80" x="171.12" y="257.1543">UnityEvent`1</text><rect fill="#FFFFFF" height="15.9688" style="stroke: #000000; stroke-width: 1.0; stroke-dasharray: 2.0,2.0;" width="9" x="259.12" y="234"/><text fill="#000000" font-family="sans-serif" font-size="12" font-style="italic" lengthAdjust="spacingAndGlyphs" textLength="7" x="260.12" y="246.1387">T</text><line style="stroke: #A80036; stroke-width: 1.5;" x1="143.12" x2="264.12" y1="269" y2="269"/><line style="stroke: #A80036; stroke-width: 1.5;" x1="143.12" x2="264.12" y1="277" y2="277"/><!--MD5=[83b3cf3d23d77c6f1e1b5291a241bc2a]
class MonoBehaviour--><rect fill="#FEFECE" filter="url(#f1xhwh3vifd9kf)" height="48" id="MonoBehaviour" style="stroke: #A80036; stroke-width: 1.5;" width="128" x="218.62" y="8"/><ellipse cx="233.62" cy="24" fill="#ADD1B2" rx="11" ry="11" style="stroke: #A80036; stroke-width: 1.0;"/><path d="M236.5888,29.6406 Q236.0106,29.9375 235.37,30.0781 Q234.7294,30.2344 234.0263,30.2344 Q231.5263,30.2344 230.1981,28.5938 Q228.8856,26.9375 228.8856,23.8125 Q228.8856,20.6875 230.1981,19.0313 Q231.5263,17.375 234.0263,17.375 Q234.7294,17.375 235.37,17.5313 Q236.0263,17.6875 236.5888,17.9844 L236.5888,20.7031 Q235.9638,20.125 235.37,19.8594 Q234.7763,19.5781 234.1513,19.5781 Q232.8075,19.5781 232.12,20.6563 Q231.4325,21.7188 231.4325,23.8125 Q231.4325,25.9063 232.12,26.9844 Q232.8075,28.0469 234.1513,28.0469 Q234.7763,28.0469 235.37,27.7813 Q235.9638,27.5 236.5888,26.9219 L236.5888,29.6406 Z "/><text fill="#000000" font-family="sans-serif" font-size="12" lengthAdjust="spacingAndGlyphs" textLength="96" x="247.62" y="28.1543">MonoBehaviour</text><line style="stroke: #A80036; stroke-width: 1.5;" x1="219.62" x2="345.62" y1="40" y2="40"/><line style="stroke: #A80036; stroke-width: 1.5;" x1="219.62" x2="345.62" y1="48" y2="48"/><!--MD5=[41861e7c79ef4a7c2fdf65a53dee04aa]
class DialogueEvent--><rect fill="#FEFECE" filter="url(#f1xhwh3vifd9kf)" height="48" id="DialogueEvent" style="stroke: #A80036; stroke-width: 1.5;" width="122" x="300.62" y="237"/><ellipse cx="315.62" cy="253" fill="#ADD1B2" rx="11" ry="11" style="stroke: #A80036; stroke-width: 1.0;"/><path d="M318.5888,258.6406 Q318.0106,258.9375 317.37,259.0781 Q316.7294,259.2344 316.0263,259.2344 Q313.5263,259.2344 312.1981,257.5938 Q310.8856,255.9375 310.8856,252.8125 Q310.8856,249.6875 312.1981,248.0313 Q313.5263,246.375 316.0263,246.375 Q316.7294,246.375 317.37,246.5313 Q318.0263,246.6875 318.5888,246.9844 L318.5888,249.7031 Q317.9638,249.125 317.37,248.8594 Q316.7763,248.5781 316.1513,248.5781 Q314.8075,248.5781 314.12,249.6563 Q313.4325,250.7188 313.4325,252.8125 Q313.4325,254.9063 314.12,255.9844 Q314.8075,257.0469 316.1513,257.0469 Q316.7763,257.0469 317.37,256.7813 Q317.9638,256.5 318.5888,255.9219 L318.5888,258.6406 Z "/><text fill="#000000" font-family="sans-serif" font-size="12" lengthAdjust="spacingAndGlyphs" textLength="90" x="329.62" y="257.1543">DialogueEvent</text><line style="stroke: #A80036; stroke-width: 1.5;" x1="301.62" x2="421.62" y1="269" y2="269"/><line style="stroke: #A80036; stroke-width: 1.5;" x1="301.62" x2="421.62" y1="277" y2="277"/><!--MD5=[410e712ee06d4b82f74c822cd7f977f6]
reverse link MonoBehaviour to DialogueListener--><path d="M282.62,76.11 C282.62,89.31 282.62,103.54 282.62,115.65 " fill="none" id="MonoBehaviour&lt;-DialogueListener" style="stroke: #A80036; stroke-width: 1.0;"/><polygon fill="none" points="275.62,76.04,282.62,56.04,289.62,76.04,275.62,76.04" style="stroke: #A80036; stroke-width: 1.0;"/><!--MD5=[454ae04143dc8b051b431d14b97d5090]
link DialogueListener to DialogueEvent--><path d="M303.37,177.06 C315.43,194.22 330.51,215.7 342.31,232.5 " fill="none" id="DialogueListener-&gt;DialogueEvent" style="stroke: #A80036; stroke-width: 1.0;"/><polygon fill="#A80036" points="345.23,236.67,343.3276,227.0066,342.355,232.5792,336.7824,231.6066,345.23,236.67" style="stroke: #A80036; stroke-width: 1.0;"/><text fill="#000000" font-family="sans-serif" font-size="13" lengthAdjust="spacingAndGlyphs" textLength="36" x="300.8474" y="225.9945">Event</text><!--MD5=[fd73eeee61c7090019ce30e30bdf8616]
link DialogueListener to UnityEvent`1--><path d="M261.86,177.06 C249.81,194.22 234.72,215.7 222.92,232.5 " fill="none" id="DialogueListener-&gt;UnityEvent`1" style="stroke: #A80036; stroke-width: 1.0;"/><polygon fill="#A80036" points="220,236.67,228.4393,231.5927,222.8683,232.5745,221.8865,227.0035,220,236.67" style="stroke: #A80036; stroke-width: 1.0;"/><text fill="#000000" font-family="sans-serif" font-size="13" lengthAdjust="spacingAndGlyphs" textLength="199" x="0.7395" y="225.9945">response&lt;DialogueContainer&gt;</text><!--MD5=[01d2a94aa8768b3ed81044fab4170544]
@startuml
class DialogueListener {
    + OnEventTriggered(dialogue:DialogueContainer) : void
}
class "UnityEvent`1"<T> {
}
MonoBehaviour <|- - DialogueListener
DialogueListener - -> "Event" DialogueEvent
DialogueListener - -> "response<DialogueContainer>" "UnityEvent`1"
@enduml

PlantUML version 1.2020.02(Sun Mar 01 10:22:07 GMT 2020)
(GPL source distribution)
Java Runtime: OpenJDK Runtime Environment
JVM: OpenJDK 64-Bit Server VM
Java Version: 11.0.9+11-Ubuntu-0ubuntu1
Operating System: Linux
Default Encoding: ANSI_X3.4-1968
Language: en
Country: US
--></g></svg>