<?xml version="1.0" encoding="UTF-8" standalone="no"?><svg xmlns="http://www.w3.org/2000/svg" xmlns:xlink="http://www.w3.org/1999/xlink" contentScriptType="application/ecmascript" contentStyleType="text/css" height="213px" preserveAspectRatio="none" style="width:502px;height:213px;" version="1.1" viewBox="0 0 502 213" width="502px" zoomAndPan="magnify"><defs><filter height="300%" id="fopo9mt9mgagt" width="300%" x="-1" y="-1"><feGaussianBlur result="blurOut" stdDeviation="2.0"/><feColorMatrix in="blurOut" result="blurOut2" type="matrix" values="0 0 0 0 0 0 0 0 0 0 0 0 0 0 0 0 0 0 .4 0"/><feOffset dx="4.0" dy="4.0" in="blurOut2" result="blurOut3"/><feBlend in="SourceGraphic" in2="blurOut3" mode="normal"/></filter></defs><g><!--MD5=[41861e7c79ef4a7c2fdf65a53dee04aa]
class DialogueEvent--><rect fill="#FEFECE" filter="url(#fopo9mt9mgagt)" height="86.4141" id="DialogueEvent" style="stroke: #A80036; stroke-width: 1.5;" width="302" x="6" y="116"/><ellipse cx="107.75" cy="132" fill="#ADD1B2" rx="11" ry="11" style="stroke: #A80036; stroke-width: 1.0;"/><path d="M110.7188,137.6406 Q110.1406,137.9375 109.5,138.0781 Q108.8594,138.2344 108.1563,138.2344 Q105.6563,138.2344 104.3281,136.5938 Q103.0156,134.9375 103.0156,131.8125 Q103.0156,128.6875 104.3281,127.0313 Q105.6563,125.375 108.1563,125.375 Q108.8594,125.375 109.5,125.5313 Q110.1563,125.6875 110.7188,125.9844 L110.7188,128.7031 Q110.0938,128.125 109.5,127.8594 Q108.9063,127.5781 108.2813,127.5781 Q106.9375,127.5781 106.25,128.6563 Q105.5625,129.7188 105.5625,131.8125 Q105.5625,133.9063 106.25,134.9844 Q106.9375,136.0469 108.2813,136.0469 Q108.9063,136.0469 109.5,135.7813 Q110.0938,135.5 110.7188,134.9219 L110.7188,137.6406 Z "/><text fill="#000000" font-family="sans-serif" font-size="12" lengthAdjust="spacingAndGlyphs" textLength="90" x="128.25" y="136.1543">DialogueEvent</text><line style="stroke: #A80036; stroke-width: 1.5;" x1="7" x2="307" y1="148" y2="148"/><line style="stroke: #A80036; stroke-width: 1.5;" x1="7" x2="307" y1="156" y2="156"/><ellipse cx="17" cy="167" fill="#84BE84" rx="3" ry="3" style="stroke: #038048; stroke-width: 1.0;"/><text fill="#000000" font-family="sans-serif" font-size="11" lengthAdjust="spacingAndGlyphs" textLength="230" x="26" y="170.2104">Raise(dialogue:DialogueContainer) : void</text><ellipse cx="17" cy="179.8047" fill="#84BE84" rx="3" ry="3" style="stroke: #038048; stroke-width: 1.0;"/><text fill="#000000" font-family="sans-serif" font-size="11" lengthAdjust="spacingAndGlyphs" textLength="252" x="26" y="183.0151">AddListener(listener:DialogueListener) : void</text><ellipse cx="17" cy="192.6094" fill="#84BE84" rx="3" ry="3" style="stroke: #038048; stroke-width: 1.0;"/><text fill="#000000" font-family="sans-serif" font-size="11" lengthAdjust="spacingAndGlyphs" textLength="276" x="26" y="195.8198">RemoveListener(listener:DialogueListener) : void</text><!--MD5=[44895057fba17b10f3053a7baa21df04]
class ScriptableObject--><rect fill="#FEFECE" filter="url(#fopo9mt9mgagt)" height="48" id="ScriptableObject" style="stroke: #A80036; stroke-width: 1.5;" width="135" x="89.5" y="8"/><ellipse cx="104.5" cy="24" fill="#ADD1B2" rx="11" ry="11" style="stroke: #A80036; stroke-width: 1.0;"/><path d="M107.4688,29.6406 Q106.8906,29.9375 106.25,30.0781 Q105.6094,30.2344 104.9063,30.2344 Q102.4063,30.2344 101.0781,28.5938 Q99.7656,26.9375 99.7656,23.8125 Q99.7656,20.6875 101.0781,19.0313 Q102.4063,17.375 104.9063,17.375 Q105.6094,17.375 106.25,17.5313 Q106.9063,17.6875 107.4688,17.9844 L107.4688,20.7031 Q106.8438,20.125 106.25,19.8594 Q105.6563,19.5781 105.0313,19.5781 Q103.6875,19.5781 103,20.6563 Q102.3125,21.7188 102.3125,23.8125 Q102.3125,25.9063 103,26.9844 Q103.6875,28.0469 105.0313,28.0469 Q105.6563,28.0469 106.25,27.7813 Q106.8438,27.5 107.4688,26.9219 L107.4688,29.6406 Z "/><text fill="#000000" font-family="sans-serif" font-size="12" lengthAdjust="spacingAndGlyphs" textLength="103" x="118.5" y="28.1543">ScriptableObject</text><line style="stroke: #A80036; stroke-width: 1.5;" x1="90.5" x2="223.5" y1="40" y2="40"/><line style="stroke: #A80036; stroke-width: 1.5;" x1="90.5" x2="223.5" y1="48" y2="48"/><!--MD5=[3888aca562e08728a6bbef80bc4508cb]
class DialogueContainer--><rect fill="#FEFECE" filter="url(#fopo9mt9mgagt)" height="48" id="DialogueContainer" style="stroke: #A80036; stroke-width: 1.5;" width="148" x="343" y="135"/><ellipse cx="358" cy="151" fill="#ADD1B2" rx="11" ry="11" style="stroke: #A80036; stroke-width: 1.0;"/><path d="M360.9688,156.6406 Q360.3906,156.9375 359.75,157.0781 Q359.1094,157.2344 358.4063,157.2344 Q355.9063,157.2344 354.5781,155.5938 Q353.2656,153.9375 353.2656,150.8125 Q353.2656,147.6875 354.5781,146.0313 Q355.9063,144.375 358.4063,144.375 Q359.1094,144.375 359.75,144.5313 Q360.4063,144.6875 360.9688,144.9844 L360.9688,147.7031 Q360.3438,147.125 359.75,146.8594 Q359.1563,146.5781 358.5313,146.5781 Q357.1875,146.5781 356.5,147.6563 Q355.8125,148.7188 355.8125,150.8125 Q355.8125,152.9063 356.5,153.9844 Q357.1875,155.0469 358.5313,155.0469 Q359.1563,155.0469 359.75,154.7813 Q360.3438,154.5 360.9688,153.9219 L360.9688,156.6406 Z "/><text fill="#000000" font-family="sans-serif" font-size="12" lengthAdjust="spacingAndGlyphs" textLength="116" x="372" y="155.1543">DialogueContainer</text><line style="stroke: #A80036; stroke-width: 1.5;" x1="344" x2="490" y1="167" y2="167"/><line style="stroke: #A80036; stroke-width: 1.5;" x1="344" x2="490" y1="175" y2="175"/><!--MD5=[fa775520c6b99bce56430648c8467a9d]
reverse link ScriptableObject to DialogueEvent--><path d="M157,76.27 C157,89.12 157,103.17 157,115.94 " fill="none" id="ScriptableObject&lt;-DialogueEvent" style="stroke: #A80036; stroke-width: 1.0;"/><polygon fill="none" points="150,76.22,157,56.22,164,76.22,150,76.22" style="stroke: #A80036; stroke-width: 1.0;"/><!--MD5=[24f8954373c996774f149b6269253462]
link DialogueEvent to DialogueContainer--><path d="M320.07,159 C320.07,159 326.84,159 329.68,159 " fill="none" id="DialogueEvent-DialogueContainer" style="stroke: #A80036; stroke-width: 1.0;"/><polygon fill="#A80036" points="342.96,159,333.96,155,337.96,159,333.96,163,342.96,159" style="stroke: #A80036; stroke-width: 1.0;"/><line style="stroke: #A80036; stroke-width: 1.0;" x1="337.96" x2="329.96" y1="159" y2="159"/><polygon fill="#FFFFFF" points="308.07,159,314.07,163,320.07,159,314.07,155,308.07,159" style="stroke: #A80036; stroke-width: 1.0;"/><text fill="#000000" font-family="sans-serif" font-size="13" lengthAdjust="spacingAndGlyphs" textLength="118" x="217.5215" y="198.5554">DialogueContainer</text><!--MD5=[49ff90530759f510049e59fbe1c4a506]
@startuml
class DialogueEvent {
    + Raise(dialogue:DialogueContainer) : void
    + AddListener(listener:DialogueListener) : void
    + RemoveListener(listener:DialogueListener) : void
}
ScriptableObject <|- - DialogueEvent
DialogueEvent o-> "DialogueContainer" DialogueContainer
@enduml

PlantUML version 1.2020.02(Sun Mar 01 10:22:07 GMT 2020)
(GPL source distribution)
Java Runtime: OpenJDK Runtime Environment
JVM: OpenJDK 64-Bit Server VM
Java Version: 11.0.9+11-Ubuntu-0ubuntu1
Operating System: Linux
Default Encoding: ANSI_X3.4-1968
Language: en
Country: US
--></g></svg>