<?xml version="1.0" encoding="UTF-8" standalone="no"?><svg xmlns="http://www.w3.org/2000/svg" xmlns:xlink="http://www.w3.org/1999/xlink" contentScriptType="application/ecmascript" contentStyleType="text/css" height="187px" preserveAspectRatio="none" style="width:400px;height:187px;" version="1.1" viewBox="0 0 400 187" width="400px" zoomAndPan="magnify"><defs><filter height="300%" id="f68hv50notydr" width="300%" x="-1" y="-1"><feGaussianBlur result="blurOut" stdDeviation="2.0"/><feColorMatrix in="blurOut" result="blurOut2" type="matrix" values="0 0 0 0 0 0 0 0 0 0 0 0 0 0 0 0 0 0 .4 0"/><feOffset dx="4.0" dy="4.0" in="blurOut2" result="blurOut3"/><feBlend in="SourceGraphic" in2="blurOut3" mode="normal"/></filter></defs><g><!--MD5=[5753e7fe7df5a4dace96ba2fcad51833]
class ListOfSprites--><rect fill="#FEFECE" filter="url(#f68hv50notydr)" height="60.8047" id="ListOfSprites" style="stroke: #A80036; stroke-width: 1.5;" width="383" x="6" y="116"/><ellipse cx="154.25" cy="132" fill="#ADD1B2" rx="11" ry="11" style="stroke: #A80036; stroke-width: 1.0;"/><path d="M157.2188,137.6406 Q156.6406,137.9375 156,138.0781 Q155.3594,138.2344 154.6563,138.2344 Q152.1563,138.2344 150.8281,136.5938 Q149.5156,134.9375 149.5156,131.8125 Q149.5156,128.6875 150.8281,127.0313 Q152.1563,125.375 154.6563,125.375 Q155.3594,125.375 156,125.5313 Q156.6563,125.6875 157.2188,125.9844 L157.2188,128.7031 Q156.5938,128.125 156,127.8594 Q155.4063,127.5781 154.7813,127.5781 Q153.4375,127.5781 152.75,128.6563 Q152.0625,129.7188 152.0625,131.8125 Q152.0625,133.9063 152.75,134.9844 Q153.4375,136.0469 154.7813,136.0469 Q155.4063,136.0469 156,135.7813 Q156.5938,135.5 157.2188,134.9219 L157.2188,137.6406 Z "/><text fill="#000000" font-family="sans-serif" font-size="12" lengthAdjust="spacingAndGlyphs" textLength="78" x="174.75" y="136.1543">ListOfSprites</text><line style="stroke: #A80036; stroke-width: 1.5;" x1="7" x2="388" y1="148" y2="148"/><line style="stroke: #A80036; stroke-width: 1.5;" x1="7" x2="388" y1="156" y2="156"/><ellipse cx="17" cy="167" fill="#84BE84" rx="3" ry="3" style="stroke: #038048; stroke-width: 1.0;"/><text fill="#000000" font-family="sans-serif" font-size="11" lengthAdjust="spacingAndGlyphs" textLength="357" x="26" y="170.2104">CharacterSetter(speakerLeft:string, speakerRight:string) : void</text><!--MD5=[83b3cf3d23d77c6f1e1b5291a241bc2a]
class MonoBehaviour--><rect fill="#FEFECE" filter="url(#f68hv50notydr)" height="48" id="MonoBehaviour" style="stroke: #A80036; stroke-width: 1.5;" width="128" x="133.5" y="8"/><ellipse cx="148.5" cy="24" fill="#ADD1B2" rx="11" ry="11" style="stroke: #A80036; stroke-width: 1.0;"/><path d="M151.4688,29.6406 Q150.8906,29.9375 150.25,30.0781 Q149.6094,30.2344 148.9063,30.2344 Q146.4063,30.2344 145.0781,28.5938 Q143.7656,26.9375 143.7656,23.8125 Q143.7656,20.6875 145.0781,19.0313 Q146.4063,17.375 148.9063,17.375 Q149.6094,17.375 150.25,17.5313 Q150.9063,17.6875 151.4688,17.9844 L151.4688,20.7031 Q150.8438,20.125 150.25,19.8594 Q149.6563,19.5781 149.0313,19.5781 Q147.6875,19.5781 147,20.6563 Q146.3125,21.7188 146.3125,23.8125 Q146.3125,25.9063 147,26.9844 Q147.6875,28.0469 149.0313,28.0469 Q149.6563,28.0469 150.25,27.7813 Q150.8438,27.5 151.4688,26.9219 L151.4688,29.6406 Z "/><text fill="#000000" font-family="sans-serif" font-size="12" lengthAdjust="spacingAndGlyphs" textLength="96" x="162.5" y="28.1543">MonoBehaviour</text><line style="stroke: #A80036; stroke-width: 1.5;" x1="134.5" x2="260.5" y1="40" y2="40"/><line style="stroke: #A80036; stroke-width: 1.5;" x1="134.5" x2="260.5" y1="48" y2="48"/><!--MD5=[c71936c7c8ff86488c3d1d829035806e]
reverse link MonoBehaviour to ListOfSprites--><path d="M197.5,76.11 C197.5,89.31 197.5,103.54 197.5,115.65 " fill="none" id="MonoBehaviour&lt;-ListOfSprites" style="stroke: #A80036; stroke-width: 1.0;"/><polygon fill="none" points="190.5,76.04,197.5,56.04,204.5,76.04,190.5,76.04" style="stroke: #A80036; stroke-width: 1.0;"/><!--MD5=[be1ce889ded6f7089b5c614ce7d26ad6]
@startuml
class ListOfSprites {
    + CharacterSetter(speakerLeft:string, speakerRight:string) : void
}
MonoBehaviour <|- - ListOfSprites
@enduml

PlantUML version 1.2020.02(Sun Mar 01 10:22:07 GMT 2020)
(GPL source distribution)
Java Runtime: OpenJDK Runtime Environment
JVM: OpenJDK 64-Bit Server VM
Java Version: 11.0.9+11-Ubuntu-0ubuntu1
Operating System: Linux
Default Encoding: ANSI_X3.4-1968
Language: en
Country: US
--></g></svg>