<?xml version="1.0" encoding="UTF-8" standalone="no"?><svg xmlns="http://www.w3.org/2000/svg" xmlns:xlink="http://www.w3.org/1999/xlink" contentScriptType="application/ecmascript" contentStyleType="text/css" height="200px" preserveAspectRatio="none" style="width:439px;height:200px;" version="1.1" viewBox="0 0 439 200" width="439px" zoomAndPan="magnify"><defs><filter height="300%" id="f3wx8qj4wydoc" width="300%" x="-1" y="-1"><feGaussianBlur result="blurOut" stdDeviation="2.0"/><feColorMatrix in="blurOut" result="blurOut2" type="matrix" values="0 0 0 0 0 0 0 0 0 0 0 0 0 0 0 0 0 0 .4 0"/><feOffset dx="4.0" dy="4.0" in="blurOut2" result="blurOut3"/><feBlend in="SourceGraphic" in2="blurOut3" mode="normal"/></filter></defs><g><!--MD5=[5753e7fe7df5a4dace96ba2fcad51833]
class ListOfSprites--><rect fill="#FEFECE" filter="url(#f3wx8qj4wydoc)" height="73.6094" id="ListOfSprites" style="stroke: #A80036; stroke-width: 1.5;" width="422" x="6" y="116"/><ellipse cx="173.75" cy="132" fill="#ADD1B2" rx="11" ry="11" style="stroke: #A80036; stroke-width: 1.0;"/><path d="M176.7188,137.6406 Q176.1406,137.9375 175.5,138.0781 Q174.8594,138.2344 174.1563,138.2344 Q171.6563,138.2344 170.3281,136.5938 Q169.0156,134.9375 169.0156,131.8125 Q169.0156,128.6875 170.3281,127.0313 Q171.6563,125.375 174.1563,125.375 Q174.8594,125.375 175.5,125.5313 Q176.1563,125.6875 176.7188,125.9844 L176.7188,128.7031 Q176.0938,128.125 175.5,127.8594 Q174.9063,127.5781 174.2813,127.5781 Q172.9375,127.5781 172.25,128.6563 Q171.5625,129.7188 171.5625,131.8125 Q171.5625,133.9063 172.25,134.9844 Q172.9375,136.0469 174.2813,136.0469 Q174.9063,136.0469 175.5,135.7813 Q176.0938,135.5 176.7188,134.9219 L176.7188,137.6406 Z "/><text fill="#000000" font-family="sans-serif" font-size="12" lengthAdjust="spacingAndGlyphs" textLength="78" x="194.25" y="136.1543">ListOfSprites</text><line style="stroke: #A80036; stroke-width: 1.5;" x1="7" x2="427" y1="148" y2="148"/><line style="stroke: #A80036; stroke-width: 1.5;" x1="7" x2="427" y1="156" y2="156"/><ellipse cx="17" cy="167" fill="#84BE84" rx="3" ry="3" style="stroke: #038048; stroke-width: 1.0;"/><text fill="#000000" font-family="sans-serif" font-size="11" lengthAdjust="spacingAndGlyphs" textLength="357" x="26" y="170.2104">CharacterSetter(speakerLeft:string, speakerRight:string) : void</text><ellipse cx="17" cy="179.8047" fill="#84BE84" rx="3" ry="3" style="stroke: #038048; stroke-width: 1.0;"/><text fill="#000000" font-family="sans-serif" font-size="11" lengthAdjust="spacingAndGlyphs" textLength="396" x="26" y="183.0151">CutSceneImageSetter(currentNodeCutSceneImageName:string) : void</text><!--MD5=[83b3cf3d23d77c6f1e1b5291a241bc2a]
class MonoBehaviour--><rect fill="#FEFECE" filter="url(#f3wx8qj4wydoc)" height="48" id="MonoBehaviour" style="stroke: #A80036; stroke-width: 1.5;" width="128" x="153" y="8"/><ellipse cx="168" cy="24" fill="#ADD1B2" rx="11" ry="11" style="stroke: #A80036; stroke-width: 1.0;"/><path d="M170.9688,29.6406 Q170.3906,29.9375 169.75,30.0781 Q169.1094,30.2344 168.4063,30.2344 Q165.9063,30.2344 164.5781,28.5938 Q163.2656,26.9375 163.2656,23.8125 Q163.2656,20.6875 164.5781,19.0313 Q165.9063,17.375 168.4063,17.375 Q169.1094,17.375 169.75,17.5313 Q170.4063,17.6875 170.9688,17.9844 L170.9688,20.7031 Q170.3438,20.125 169.75,19.8594 Q169.1563,19.5781 168.5313,19.5781 Q167.1875,19.5781 166.5,20.6563 Q165.8125,21.7188 165.8125,23.8125 Q165.8125,25.9063 166.5,26.9844 Q167.1875,28.0469 168.5313,28.0469 Q169.1563,28.0469 169.75,27.7813 Q170.3438,27.5 170.9688,26.9219 L170.9688,29.6406 Z "/><text fill="#000000" font-family="sans-serif" font-size="12" lengthAdjust="spacingAndGlyphs" textLength="96" x="182" y="28.1543">MonoBehaviour</text><line style="stroke: #A80036; stroke-width: 1.5;" x1="154" x2="280" y1="40" y2="40"/><line style="stroke: #A80036; stroke-width: 1.5;" x1="154" x2="280" y1="48" y2="48"/><!--MD5=[c71936c7c8ff86488c3d1d829035806e]
reverse link MonoBehaviour to ListOfSprites--><path d="M217,76.43 C217,89.33 217,103.32 217,115.71 " fill="none" id="MonoBehaviour&lt;-ListOfSprites" style="stroke: #A80036; stroke-width: 1.0;"/><polygon fill="none" points="210,76.23,217,56.23,224,76.23,210,76.23" style="stroke: #A80036; stroke-width: 1.0;"/><!--MD5=[6816300335ce39cf781924a9acfde32b]
@startuml
class ListOfSprites {
    + CharacterSetter(speakerLeft:string, speakerRight:string) : void
    + CutSceneImageSetter(currentNodeCutSceneImageName:string) : void
}
MonoBehaviour <|- - ListOfSprites
@enduml

PlantUML version 1.2020.02(Sun Mar 01 10:22:07 GMT 2020)
(GPL source distribution)
Java Runtime: OpenJDK Runtime Environment
JVM: OpenJDK 64-Bit Server VM
Java Version: 11.0.9+11-Ubuntu-0ubuntu1
Operating System: Linux
Default Encoding: ANSI_X3.4-1968
Language: en
Country: US
--></g></svg>