<?xml version="1.0" encoding="UTF-8" standalone="no"?><svg xmlns="http://www.w3.org/2000/svg" xmlns:xlink="http://www.w3.org/1999/xlink" contentScriptType="application/ecmascript" contentStyleType="text/css" height="213px" preserveAspectRatio="none" style="width:200px;height:213px;" version="1.1" viewBox="0 0 200 213" width="200px" zoomAndPan="magnify"><defs><filter height="300%" id="fu6xoxkmx6j85" width="300%" x="-1" y="-1"><feGaussianBlur result="blurOut" stdDeviation="2.0"/><feColorMatrix in="blurOut" result="blurOut2" type="matrix" values="0 0 0 0 0 0 0 0 0 0 0 0 0 0 0 0 0 0 .4 0"/><feOffset dx="4.0" dy="4.0" in="blurOut2" result="blurOut3"/><feBlend in="SourceGraphic" in2="blurOut3" mode="normal"/></filter></defs><g><!--MD5=[80806e08dac105db4bf03e60335471e4]
class MainMenu--><rect fill="#FEFECE" filter="url(#fu6xoxkmx6j85)" height="86.4141" id="MainMenu" style="stroke: #A80036; stroke-width: 1.5;" width="183" x="6" y="116"/><ellipse cx="61.75" cy="132" fill="#ADD1B2" rx="11" ry="11" style="stroke: #A80036; stroke-width: 1.0;"/><path d="M64.7188,137.6406 Q64.1406,137.9375 63.5,138.0781 Q62.8594,138.2344 62.1563,138.2344 Q59.6563,138.2344 58.3281,136.5938 Q57.0156,134.9375 57.0156,131.8125 Q57.0156,128.6875 58.3281,127.0313 Q59.6563,125.375 62.1563,125.375 Q62.8594,125.375 63.5,125.5313 Q64.1563,125.6875 64.7188,125.9844 L64.7188,128.7031 Q64.0938,128.125 63.5,127.8594 Q62.9063,127.5781 62.2813,127.5781 Q60.9375,127.5781 60.25,128.6563 Q59.5625,129.7188 59.5625,131.8125 Q59.5625,133.9063 60.25,134.9844 Q60.9375,136.0469 62.2813,136.0469 Q62.9063,136.0469 63.5,135.7813 Q64.0938,135.5 64.7188,134.9219 L64.7188,137.6406 Z "/><text fill="#000000" font-family="sans-serif" font-size="12" lengthAdjust="spacingAndGlyphs" textLength="63" x="82.25" y="136.1543">MainMenu</text><line style="stroke: #A80036; stroke-width: 1.5;" x1="7" x2="188" y1="148" y2="148"/><line style="stroke: #A80036; stroke-width: 1.5;" x1="7" x2="188" y1="156" y2="156"/><ellipse cx="17" cy="167" fill="#84BE84" rx="3" ry="3" style="stroke: #038048; stroke-width: 1.0;"/><text fill="#000000" font-family="sans-serif" font-size="11" lengthAdjust="spacingAndGlyphs" textLength="157" x="26" y="170.2104">OnNewGameClicked() : void</text><ellipse cx="17" cy="179.8047" fill="#84BE84" rx="3" ry="3" style="stroke: #038048; stroke-width: 1.0;"/><text fill="#000000" font-family="sans-serif" font-size="11" lengthAdjust="spacingAndGlyphs" textLength="149" x="26" y="183.0151">OnContinueClicked() : void</text><ellipse cx="17" cy="192.6094" fill="#84BE84" rx="3" ry="3" style="stroke: #038048; stroke-width: 1.0;"/><text fill="#000000" font-family="sans-serif" font-size="11" lengthAdjust="spacingAndGlyphs" textLength="119" x="26" y="195.8198">OnExitClicked() : void</text><!--MD5=[83b3cf3d23d77c6f1e1b5291a241bc2a]
class MonoBehaviour--><rect fill="#FEFECE" filter="url(#fu6xoxkmx6j85)" height="48" id="MonoBehaviour" style="stroke: #A80036; stroke-width: 1.5;" width="128" x="33.5" y="8"/><ellipse cx="48.5" cy="24" fill="#ADD1B2" rx="11" ry="11" style="stroke: #A80036; stroke-width: 1.0;"/><path d="M51.4688,29.6406 Q50.8906,29.9375 50.25,30.0781 Q49.6094,30.2344 48.9063,30.2344 Q46.4063,30.2344 45.0781,28.5938 Q43.7656,26.9375 43.7656,23.8125 Q43.7656,20.6875 45.0781,19.0313 Q46.4063,17.375 48.9063,17.375 Q49.6094,17.375 50.25,17.5313 Q50.9063,17.6875 51.4688,17.9844 L51.4688,20.7031 Q50.8438,20.125 50.25,19.8594 Q49.6563,19.5781 49.0313,19.5781 Q47.6875,19.5781 47,20.6563 Q46.3125,21.7188 46.3125,23.8125 Q46.3125,25.9063 47,26.9844 Q47.6875,28.0469 49.0313,28.0469 Q49.6563,28.0469 50.25,27.7813 Q50.8438,27.5 51.4688,26.9219 L51.4688,29.6406 Z "/><text fill="#000000" font-family="sans-serif" font-size="12" lengthAdjust="spacingAndGlyphs" textLength="96" x="62.5" y="28.1543">MonoBehaviour</text><line style="stroke: #A80036; stroke-width: 1.5;" x1="34.5" x2="160.5" y1="40" y2="40"/><line style="stroke: #A80036; stroke-width: 1.5;" x1="34.5" x2="160.5" y1="48" y2="48"/><!--MD5=[433f513694bd447943a8e7c21da51852]
reverse link MonoBehaviour to MainMenu--><path d="M97.5,76.27 C97.5,89.12 97.5,103.17 97.5,115.94 " fill="none" id="MonoBehaviour&lt;-MainMenu" style="stroke: #A80036; stroke-width: 1.0;"/><polygon fill="none" points="90.5,76.22,97.5,56.22,104.5,76.22,90.5,76.22" style="stroke: #A80036; stroke-width: 1.0;"/><!--MD5=[2f4be609e39ad0e2f1dcf26893666bd2]
@startuml
class MainMenu {
    + OnNewGameClicked() : void
    + OnContinueClicked() : void
    + OnExitClicked() : void
}
MonoBehaviour <|- - MainMenu
@enduml

PlantUML version 1.2020.02(Sun Mar 01 10:22:07 GMT 2020)
(GPL source distribution)
Java Runtime: OpenJDK Runtime Environment
JVM: OpenJDK 64-Bit Server VM
Java Version: 11.0.9+11-Ubuntu-0ubuntu1
Operating System: Linux
Default Encoding: ANSI_X3.4-1968
Language: en
Country: US
--></g></svg>