<?xml version="1.0" encoding="UTF-8" standalone="no"?><svg xmlns="http://www.w3.org/2000/svg" xmlns:xlink="http://www.w3.org/1999/xlink" contentScriptType="application/ecmascript" contentStyleType="text/css" height="213px" preserveAspectRatio="none" style="width:318px;height:213px;" version="1.1" viewBox="0 0 318 213" width="318px" zoomAndPan="magnify"><defs><filter height="300%" id="fckexqze6p4mr" width="300%" x="-1" y="-1"><feGaussianBlur result="blurOut" stdDeviation="2.0"/><feColorMatrix in="blurOut" result="blurOut2" type="matrix" values="0 0 0 0 0 0 0 0 0 0 0 0 0 0 0 0 0 0 .4 0"/><feOffset dx="4.0" dy="4.0" in="blurOut2" result="blurOut3"/><feBlend in="SourceGraphic" in2="blurOut3" mode="normal"/></filter></defs><g><!--MD5=[ee084734eb3a5ffad99a0de9980f769b]
class Inventory--><rect fill="#FEFECE" filter="url(#fckexqze6p4mr)" height="86.4141" id="Inventory" style="stroke: #A80036; stroke-width: 1.5;" width="212" x="48.77" y="116"/><ellipse cx="122.02" cy="132" fill="#ADD1B2" rx="11" ry="11" style="stroke: #A80036; stroke-width: 1.0;"/><path d="M124.9888,137.6406 Q124.4106,137.9375 123.77,138.0781 Q123.1294,138.2344 122.4263,138.2344 Q119.9263,138.2344 118.5981,136.5938 Q117.2856,134.9375 117.2856,131.8125 Q117.2856,128.6875 118.5981,127.0313 Q119.9263,125.375 122.4263,125.375 Q123.1294,125.375 123.77,125.5313 Q124.4263,125.6875 124.9888,125.9844 L124.9888,128.7031 Q124.3638,128.125 123.77,127.8594 Q123.1763,127.5781 122.5513,127.5781 Q121.2075,127.5781 120.52,128.6563 Q119.8325,129.7188 119.8325,131.8125 Q119.8325,133.9063 120.52,134.9844 Q121.2075,136.0469 122.5513,136.0469 Q123.1763,136.0469 123.77,135.7813 Q124.3638,135.5 124.9888,134.9219 L124.9888,137.6406 Z "/><text fill="#000000" font-family="sans-serif" font-size="12" lengthAdjust="spacingAndGlyphs" textLength="57" x="142.52" y="136.1543">Inventory</text><line style="stroke: #A80036; stroke-width: 1.5;" x1="49.77" x2="259.77" y1="148" y2="148"/><line style="stroke: #A80036; stroke-width: 1.5;" x1="49.77" x2="259.77" y1="156" y2="156"/><ellipse cx="59.77" cy="167" fill="#84BE84" rx="3" ry="3" style="stroke: #038048; stroke-width: 1.0;"/><text fill="#000000" font-family="sans-serif" font-size="11" lengthAdjust="spacingAndGlyphs" textLength="155" x="68.77" y="170.2104">pickedUpItemNumber() : int</text><ellipse cx="59.77" cy="179.8047" fill="#84BE84" rx="3" ry="3" style="stroke: #038048; stroke-width: 1.0;"/><text fill="#000000" font-family="sans-serif" font-size="11" lengthAdjust="spacingAndGlyphs" textLength="185" x="68.77" y="183.0151">LoadData(data:GameData) : void</text><ellipse cx="59.77" cy="192.6094" fill="#84BE84" rx="3" ry="3" style="stroke: #038048; stroke-width: 1.0;"/><text fill="#000000" font-family="sans-serif" font-size="11" lengthAdjust="spacingAndGlyphs" textLength="186" x="68.77" y="195.8198">SaveData(data:GameData) : void</text><!--MD5=[b6b6da26027cd6dd6d67bd2cf3fa7d56]
class ListOfStuff`1--><rect fill="#FEFECE" filter="url(#fckexqze6p4mr)" height="48" id="ListOfStuff`1" style="stroke: #A80036; stroke-width: 1.5;" width="120" x="12.77" y="8"/><ellipse cx="27.77" cy="24" fill="#ADD1B2" rx="11" ry="11" style="stroke: #A80036; stroke-width: 1.0;"/><path d="M30.7388,29.6406 Q30.1606,29.9375 29.52,30.0781 Q28.8794,30.2344 28.1763,30.2344 Q25.6763,30.2344 24.3481,28.5938 Q23.0356,26.9375 23.0356,23.8125 Q23.0356,20.6875 24.3481,19.0313 Q25.6763,17.375 28.1763,17.375 Q28.8794,17.375 29.52,17.5313 Q30.1763,17.6875 30.7388,17.9844 L30.7388,20.7031 Q30.1138,20.125 29.52,19.8594 Q28.9263,19.5781 28.3013,19.5781 Q26.9575,19.5781 26.27,20.6563 Q25.5825,21.7188 25.5825,23.8125 Q25.5825,25.9063 26.27,26.9844 Q26.9575,28.0469 28.3013,28.0469 Q28.9263,28.0469 29.52,27.7813 Q30.1138,27.5 30.7388,26.9219 L30.7388,29.6406 Z "/><text fill="#000000" font-family="sans-serif" font-size="12" lengthAdjust="spacingAndGlyphs" textLength="77" x="41.77" y="28.1543">ListOfStuff`1</text><rect fill="#FFFFFF" height="15.9688" style="stroke: #000000; stroke-width: 1.0; stroke-dasharray: 2.0,2.0;" width="9" x="126.77" y="5"/><text fill="#000000" font-family="sans-serif" font-size="12" font-style="italic" lengthAdjust="spacingAndGlyphs" textLength="7" x="127.77" y="17.1387">T</text><line style="stroke: #A80036; stroke-width: 1.5;" x1="13.77" x2="131.77" y1="40" y2="40"/><line style="stroke: #A80036; stroke-width: 1.5;" x1="13.77" x2="131.77" y1="48" y2="48"/><!--MD5=[64a01738e00397fdc051c8255b006b82]
class IDataPersistence--><rect fill="#FEFECE" filter="url(#fckexqze6p4mr)" height="48" id="IDataPersistence" style="stroke: #A80036; stroke-width: 1.5;" width="139" x="168.27" y="8"/><ellipse cx="183.27" cy="24" fill="#ADD1B2" rx="11" ry="11" style="stroke: #A80036; stroke-width: 1.0;"/><path d="M186.2388,29.6406 Q185.6606,29.9375 185.02,30.0781 Q184.3794,30.2344 183.6763,30.2344 Q181.1763,30.2344 179.8481,28.5938 Q178.5356,26.9375 178.5356,23.8125 Q178.5356,20.6875 179.8481,19.0313 Q181.1763,17.375 183.6763,17.375 Q184.3794,17.375 185.02,17.5313 Q185.6763,17.6875 186.2388,17.9844 L186.2388,20.7031 Q185.6138,20.125 185.02,19.8594 Q184.4263,19.5781 183.8013,19.5781 Q182.4575,19.5781 181.77,20.6563 Q181.0825,21.7188 181.0825,23.8125 Q181.0825,25.9063 181.77,26.9844 Q182.4575,28.0469 183.8013,28.0469 Q184.4263,28.0469 185.02,27.7813 Q185.6138,27.5 186.2388,26.9219 L186.2388,29.6406 Z "/><text fill="#000000" font-family="sans-serif" font-size="12" lengthAdjust="spacingAndGlyphs" textLength="107" x="197.27" y="28.1543">IDataPersistence</text><line style="stroke: #A80036; stroke-width: 1.5;" x1="169.27" x2="306.27" y1="40" y2="40"/><line style="stroke: #A80036; stroke-width: 1.5;" x1="169.27" x2="306.27" y1="48" y2="48"/><!--MD5=[a8748973c234cbc202f3a59b7d196146]
reverse link ListOfStuff`1 to Inventory--><path d="M99.01,73.01 C108,86.71 118.08,102.08 127.17,115.94 " fill="none" id="ListOfStuff`1&lt;-Inventory" style="stroke: #A80036; stroke-width: 1.0;"/><polygon fill="none" points="93.12,76.78,88,56.22,104.82,69.1,93.12,76.78" style="stroke: #A80036; stroke-width: 1.0;"/><text fill="#000000" font-family="sans-serif" font-size="13" lengthAdjust="spacingAndGlyphs" textLength="82" x="-0.2814" y="76.0348">&lt;ItemData&gt;</text><!--MD5=[88c0f63891f0aece73b0508008546f95]
reverse link IDataPersistence to Inventory--><path d="M211.2,73.01 C202.11,86.71 191.9,102.08 182.7,115.94 " fill="none" id="IDataPersistence&lt;-Inventory" style="stroke: #A80036; stroke-width: 1.0;"/><polygon fill="none" points="205.46,69.01,222.35,56.22,217.12,76.75,205.46,69.01" style="stroke: #A80036; stroke-width: 1.0;"/><!--MD5=[5797831fd6e7e424c41d318a3dfd4d62]
@startuml
class Inventory {
    + pickedUpItemNumber() : int
    + LoadData(data:GameData) : void
    + SaveData(data:GameData) : void
}
class "ListOfStuff`1"<T> {
}
"ListOfStuff`1" "<ItemData>" <|- - Inventory
IDataPersistence <|- - Inventory
@enduml

PlantUML version 1.2020.02(Sun Mar 01 10:22:07 GMT 2020)
(GPL source distribution)
Java Runtime: OpenJDK Runtime Environment
JVM: OpenJDK 64-Bit Server VM
Java Version: 11.0.9+11-Ubuntu-0ubuntu1
Operating System: Linux
Default Encoding: ANSI_X3.4-1968
Language: en
Country: US
--></g></svg>