<?xml version="1.0" encoding="UTF-8" standalone="no"?><svg xmlns="http://www.w3.org/2000/svg" xmlns:xlink="http://www.w3.org/1999/xlink" contentScriptType="application/ecmascript" contentStyleType="text/css" height="187px" preserveAspectRatio="none" style="width:198px;height:187px;" version="1.1" viewBox="0 0 198 187" width="198px" zoomAndPan="magnify"><defs><filter height="300%" id="f17ubflvihlvjb" width="300%" x="-1" y="-1"><feGaussianBlur result="blurOut" stdDeviation="2.0"/><feColorMatrix in="blurOut" result="blurOut2" type="matrix" values="0 0 0 0 0 0 0 0 0 0 0 0 0 0 0 0 0 0 .4 0"/><feOffset dx="4.0" dy="4.0" in="blurOut2" result="blurOut3"/><feBlend in="SourceGraphic" in2="blurOut3" mode="normal"/></filter></defs><g><!--MD5=[ee084734eb3a5ffad99a0de9980f769b]
class Inventory--><rect fill="#FEFECE" filter="url(#f17ubflvihlvjb)" height="60.8047" id="Inventory" style="stroke: #A80036; stroke-width: 1.5;" width="181" x="6" y="116"/><ellipse cx="63.75" cy="132" fill="#ADD1B2" rx="11" ry="11" style="stroke: #A80036; stroke-width: 1.0;"/><path d="M66.7188,137.6406 Q66.1406,137.9375 65.5,138.0781 Q64.8594,138.2344 64.1563,138.2344 Q61.6563,138.2344 60.3281,136.5938 Q59.0156,134.9375 59.0156,131.8125 Q59.0156,128.6875 60.3281,127.0313 Q61.6563,125.375 64.1563,125.375 Q64.8594,125.375 65.5,125.5313 Q66.1563,125.6875 66.7188,125.9844 L66.7188,128.7031 Q66.0938,128.125 65.5,127.8594 Q64.9063,127.5781 64.2813,127.5781 Q62.9375,127.5781 62.25,128.6563 Q61.5625,129.7188 61.5625,131.8125 Q61.5625,133.9063 62.25,134.9844 Q62.9375,136.0469 64.2813,136.0469 Q64.9063,136.0469 65.5,135.7813 Q66.0938,135.5 66.7188,134.9219 L66.7188,137.6406 Z "/><text fill="#000000" font-family="sans-serif" font-size="12" lengthAdjust="spacingAndGlyphs" textLength="57" x="84.25" y="136.1543">Inventory</text><line style="stroke: #A80036; stroke-width: 1.5;" x1="7" x2="186" y1="148" y2="148"/><line style="stroke: #A80036; stroke-width: 1.5;" x1="7" x2="186" y1="156" y2="156"/><ellipse cx="17" cy="167" fill="#84BE84" rx="3" ry="3" style="stroke: #038048; stroke-width: 1.0;"/><text fill="#000000" font-family="sans-serif" font-size="11" lengthAdjust="spacingAndGlyphs" textLength="155" x="26" y="170.2104">pickedUpItemNumber() : int</text><!--MD5=[b6b6da26027cd6dd6d67bd2cf3fa7d56]
class ListOfStuff`1--><rect fill="#FEFECE" filter="url(#f17ubflvihlvjb)" height="48" id="ListOfStuff`1" style="stroke: #A80036; stroke-width: 1.5;" width="120" x="36.5" y="8"/><ellipse cx="51.5" cy="24" fill="#ADD1B2" rx="11" ry="11" style="stroke: #A80036; stroke-width: 1.0;"/><path d="M54.4688,29.6406 Q53.8906,29.9375 53.25,30.0781 Q52.6094,30.2344 51.9063,30.2344 Q49.4063,30.2344 48.0781,28.5938 Q46.7656,26.9375 46.7656,23.8125 Q46.7656,20.6875 48.0781,19.0313 Q49.4063,17.375 51.9063,17.375 Q52.6094,17.375 53.25,17.5313 Q53.9063,17.6875 54.4688,17.9844 L54.4688,20.7031 Q53.8438,20.125 53.25,19.8594 Q52.6563,19.5781 52.0313,19.5781 Q50.6875,19.5781 50,20.6563 Q49.3125,21.7188 49.3125,23.8125 Q49.3125,25.9063 50,26.9844 Q50.6875,28.0469 52.0313,28.0469 Q52.6563,28.0469 53.25,27.7813 Q53.8438,27.5 54.4688,26.9219 L54.4688,29.6406 Z "/><text fill="#000000" font-family="sans-serif" font-size="12" lengthAdjust="spacingAndGlyphs" textLength="77" x="65.5" y="28.1543">ListOfStuff`1</text><rect fill="#FFFFFF" height="15.9688" style="stroke: #000000; stroke-width: 1.0; stroke-dasharray: 2.0,2.0;" width="9" x="150.5" y="5"/><text fill="#000000" font-family="sans-serif" font-size="12" font-style="italic" lengthAdjust="spacingAndGlyphs" textLength="7" x="151.5" y="17.1387">T</text><line style="stroke: #A80036; stroke-width: 1.5;" x1="37.5" x2="155.5" y1="40" y2="40"/><line style="stroke: #A80036; stroke-width: 1.5;" x1="37.5" x2="155.5" y1="48" y2="48"/><!--MD5=[a8748973c234cbc202f3a59b7d196146]
reverse link ListOfStuff`1 to Inventory--><path d="M96.5,76.11 C96.5,89.31 96.5,103.54 96.5,115.65 " fill="none" id="ListOfStuff`1&lt;-Inventory" style="stroke: #A80036; stroke-width: 1.0;"/><polygon fill="none" points="89.5,76.04,96.5,56.04,103.5,76.04,89.5,76.04" style="stroke: #A80036; stroke-width: 1.0;"/><text fill="#000000" font-family="sans-serif" font-size="13" lengthAdjust="spacingAndGlyphs" textLength="82" x="3.9938" y="76.206">&lt;ItemData&gt;</text><!--MD5=[297e5e7f7ebd755c6363a6997e3919c2]
@startuml
class Inventory {
    + pickedUpItemNumber() : int
}
class "ListOfStuff`1"<T> {
}
"ListOfStuff`1" "<ItemData>" <|- - Inventory
@enduml

PlantUML version 1.2020.02(Sun Mar 01 10:22:07 GMT 2020)
(GPL source distribution)
Java Runtime: OpenJDK Runtime Environment
JVM: OpenJDK 64-Bit Server VM
Java Version: 11.0.9+11-Ubuntu-0ubuntu1
Operating System: Linux
Default Encoding: ANSI_X3.4-1968
Language: en
Country: US
--></g></svg>