<?xml version="1.0" encoding="UTF-8" standalone="no"?><svg xmlns="http://www.w3.org/2000/svg" xmlns:xlink="http://www.w3.org/1999/xlink" contentScriptType="application/ecmascript" contentStyleType="text/css" height="334px" preserveAspectRatio="none" style="width:225px;height:334px;" version="1.1" viewBox="0 0 225 334" width="225px" zoomAndPan="magnify"><defs><filter height="300%" id="fn6mn9xh9xp4f" width="300%" x="-1" y="-1"><feGaussianBlur result="blurOut" stdDeviation="2.0"/><feColorMatrix in="blurOut" result="blurOut2" type="matrix" values="0 0 0 0 0 0 0 0 0 0 0 0 0 0 0 0 0 0 .4 0"/><feOffset dx="4.0" dy="4.0" in="blurOut2" result="blurOut3"/><feBlend in="SourceGraphic" in2="blurOut3" mode="normal"/></filter></defs><g><!--MD5=[9f3fcd8bc4efc713d6f54d260476c26d]
class ItemData--><rect fill="#FEFECE" filter="url(#fn6mn9xh9xp4f)" height="99.2188" id="ItemData" style="stroke: #A80036; stroke-width: 1.5;" width="208" x="6" y="116"/><ellipse cx="77.25" cy="132" fill="#ADD1B2" rx="11" ry="11" style="stroke: #A80036; stroke-width: 1.0;"/><path d="M80.2188,137.6406 Q79.6406,137.9375 79,138.0781 Q78.3594,138.2344 77.6563,138.2344 Q75.1563,138.2344 73.8281,136.5938 Q72.5156,134.9375 72.5156,131.8125 Q72.5156,128.6875 73.8281,127.0313 Q75.1563,125.375 77.6563,125.375 Q78.3594,125.375 79,125.5313 Q79.6563,125.6875 80.2188,125.9844 L80.2188,128.7031 Q79.5938,128.125 79,127.8594 Q78.4063,127.5781 77.7813,127.5781 Q76.4375,127.5781 75.75,128.6563 Q75.0625,129.7188 75.0625,131.8125 Q75.0625,133.9063 75.75,134.9844 Q76.4375,136.0469 77.7813,136.0469 Q78.4063,136.0469 79,135.7813 Q79.5938,135.5 80.2188,134.9219 L80.2188,137.6406 Z "/><text fill="#000000" font-family="sans-serif" font-size="12" lengthAdjust="spacingAndGlyphs" textLength="57" x="97.75" y="136.1543">ItemData</text><line style="stroke: #A80036; stroke-width: 1.5;" x1="7" x2="213" y1="148" y2="148"/><ellipse cx="17" cy="159" fill="none" rx="3" ry="3" style="stroke: #038048; stroke-width: 1.0;"/><text fill="#000000" font-family="sans-serif" font-size="11" lengthAdjust="spacingAndGlyphs" textLength="103" x="26" y="162.2104">itemName : string</text><ellipse cx="17" cy="171.8047" fill="none" rx="3" ry="3" style="stroke: #038048; stroke-width: 1.0;"/><text fill="#000000" font-family="sans-serif" font-size="11" lengthAdjust="spacingAndGlyphs" textLength="108" x="26" y="175.0151">description : string</text><ellipse cx="17" cy="184.6094" fill="none" rx="3" ry="3" style="stroke: #038048; stroke-width: 1.0;"/><text fill="#000000" font-family="sans-serif" font-size="11" lengthAdjust="spacingAndGlyphs" textLength="182" x="26" y="187.8198">hasBeenPickedUp : bool = false</text><ellipse cx="17" cy="197.4141" fill="none" rx="3" ry="3" style="stroke: #038048; stroke-width: 1.0;"/><text fill="#000000" font-family="sans-serif" font-size="11" lengthAdjust="spacingAndGlyphs" textLength="122" x="26" y="200.6245">pickedUpNumber : int</text><line style="stroke: #A80036; stroke-width: 1.5;" x1="7" x2="213" y1="207.2188" y2="207.2188"/><!--MD5=[44895057fba17b10f3053a7baa21df04]
class ScriptableObject--><rect fill="#FEFECE" filter="url(#fn6mn9xh9xp4f)" height="48" id="ScriptableObject" style="stroke: #A80036; stroke-width: 1.5;" width="135" x="42.5" y="8"/><ellipse cx="57.5" cy="24" fill="#ADD1B2" rx="11" ry="11" style="stroke: #A80036; stroke-width: 1.0;"/><path d="M60.4688,29.6406 Q59.8906,29.9375 59.25,30.0781 Q58.6094,30.2344 57.9063,30.2344 Q55.4063,30.2344 54.0781,28.5938 Q52.7656,26.9375 52.7656,23.8125 Q52.7656,20.6875 54.0781,19.0313 Q55.4063,17.375 57.9063,17.375 Q58.6094,17.375 59.25,17.5313 Q59.9063,17.6875 60.4688,17.9844 L60.4688,20.7031 Q59.8438,20.125 59.25,19.8594 Q58.6563,19.5781 58.0313,19.5781 Q56.6875,19.5781 56,20.6563 Q55.3125,21.7188 55.3125,23.8125 Q55.3125,25.9063 56,26.9844 Q56.6875,28.0469 58.0313,28.0469 Q58.6563,28.0469 59.25,27.7813 Q59.8438,27.5 60.4688,26.9219 L60.4688,29.6406 Z "/><text fill="#000000" font-family="sans-serif" font-size="12" lengthAdjust="spacingAndGlyphs" textLength="103" x="71.5" y="28.1543">ScriptableObject</text><line style="stroke: #A80036; stroke-width: 1.5;" x1="43.5" x2="176.5" y1="40" y2="40"/><line style="stroke: #A80036; stroke-width: 1.5;" x1="43.5" x2="176.5" y1="48" y2="48"/><!--MD5=[85c2ed8dbf494cb60783de624603a7dd]
class Sprite--><rect fill="#FEFECE" filter="url(#fn6mn9xh9xp4f)" height="48" id="Sprite" style="stroke: #A80036; stroke-width: 1.5;" width="69" x="75.5" y="275"/><ellipse cx="90.5" cy="291" fill="#ADD1B2" rx="11" ry="11" style="stroke: #A80036; stroke-width: 1.0;"/><path d="M93.4688,296.6406 Q92.8906,296.9375 92.25,297.0781 Q91.6094,297.2344 90.9063,297.2344 Q88.4063,297.2344 87.0781,295.5938 Q85.7656,293.9375 85.7656,290.8125 Q85.7656,287.6875 87.0781,286.0313 Q88.4063,284.375 90.9063,284.375 Q91.6094,284.375 92.25,284.5313 Q92.9063,284.6875 93.4688,284.9844 L93.4688,287.7031 Q92.8438,287.125 92.25,286.8594 Q91.6563,286.5781 91.0313,286.5781 Q89.6875,286.5781 89,287.6563 Q88.3125,288.7188 88.3125,290.8125 Q88.3125,292.9063 89,293.9844 Q89.6875,295.0469 91.0313,295.0469 Q91.6563,295.0469 92.25,294.7813 Q92.8438,294.5 93.4688,293.9219 L93.4688,296.6406 Z "/><text fill="#000000" font-family="sans-serif" font-size="12" lengthAdjust="spacingAndGlyphs" textLength="37" x="104.5" y="295.1543">Sprite</text><line style="stroke: #A80036; stroke-width: 1.5;" x1="76.5" x2="143.5" y1="307" y2="307"/><line style="stroke: #A80036; stroke-width: 1.5;" x1="76.5" x2="143.5" y1="315" y2="315"/><!--MD5=[05fca3ad71a050860823697edf529365]
reverse link ScriptableObject to ItemData--><path d="M110,76.51 C110,89.14 110,103.01 110,115.93 " fill="none" id="ScriptableObject&lt;-ItemData" style="stroke: #A80036; stroke-width: 1.0;"/><polygon fill="none" points="103,76.21,110,56.21,117,76.21,103,76.21" style="stroke: #A80036; stroke-width: 1.0;"/><!--MD5=[e9da232b3cf657429f9fa21fbe3c0935]
link ItemData to Sprite--><path d="M110,215.09 C110,233.5 110,253.83 110,269.75 " fill="none" id="ItemData-&gt;Sprite" style="stroke: #A80036; stroke-width: 1.0;"/><polygon fill="#A80036" points="110,274.98,114,265.98,110,269.98,106,265.98,110,274.98" style="stroke: #A80036; stroke-width: 1.0;"/><text fill="#000000" font-family="sans-serif" font-size="13" lengthAdjust="spacingAndGlyphs" textLength="26" x="80.6688" y="263.9869">icon</text><!--MD5=[12554e914843f3d78094ff59d0a5cab5]
@startuml
class ItemData {
    + itemName : string
    + description : string
    + hasBeenPickedUp : bool = false
    + pickedUpNumber : int
}
ScriptableObject <|- - ItemData
ItemData - -> "icon" Sprite
@enduml

PlantUML version 1.2020.02(Sun Mar 01 10:22:07 GMT 2020)
(GPL source distribution)
Java Runtime: OpenJDK Runtime Environment
JVM: OpenJDK 64-Bit Server VM
Java Version: 11.0.9+11-Ubuntu-0ubuntu1
Operating System: Linux
Default Encoding: ANSI_X3.4-1968
Language: en
Country: US
--></g></svg>