<?xml version="1.0" encoding="UTF-8" standalone="no"?><svg xmlns="http://www.w3.org/2000/svg" xmlns:xlink="http://www.w3.org/1999/xlink" contentScriptType="application/ecmascript" contentStyleType="text/css" height="360px" preserveAspectRatio="none" style="width:326px;height:360px;" version="1.1" viewBox="0 0 326 360" width="326px" zoomAndPan="magnify"><defs><filter height="300%" id="fc47z78qlf9w2" width="300%" x="-1" y="-1"><feGaussianBlur result="blurOut" stdDeviation="2.0"/><feColorMatrix in="blurOut" result="blurOut2" type="matrix" values="0 0 0 0 0 0 0 0 0 0 0 0 0 0 0 0 0 0 .4 0"/><feOffset dx="4.0" dy="4.0" in="blurOut2" result="blurOut3"/><feBlend in="SourceGraphic" in2="blurOut3" mode="normal"/></filter></defs><g><!--MD5=[9f3fcd8bc4efc713d6f54d260476c26d]
class ItemData--><rect fill="#FEFECE" filter="url(#fc47z78qlf9w2)" height="124.8281" id="ItemData" style="stroke: #A80036; stroke-width: 1.5;" width="212" x="53.5" y="116"/><ellipse cx="126.75" cy="132" fill="#ADD1B2" rx="11" ry="11" style="stroke: #A80036; stroke-width: 1.0;"/><path d="M129.7188,137.6406 Q129.1406,137.9375 128.5,138.0781 Q127.8594,138.2344 127.1563,138.2344 Q124.6563,138.2344 123.3281,136.5938 Q122.0156,134.9375 122.0156,131.8125 Q122.0156,128.6875 123.3281,127.0313 Q124.6563,125.375 127.1563,125.375 Q127.8594,125.375 128.5,125.5313 Q129.1563,125.6875 129.7188,125.9844 L129.7188,128.7031 Q129.0938,128.125 128.5,127.8594 Q127.9063,127.5781 127.2813,127.5781 Q125.9375,127.5781 125.25,128.6563 Q124.5625,129.7188 124.5625,131.8125 Q124.5625,133.9063 125.25,134.9844 Q125.9375,136.0469 127.2813,136.0469 Q127.9063,136.0469 128.5,135.7813 Q129.0938,135.5 129.7188,134.9219 L129.7188,137.6406 Z "/><text fill="#000000" font-family="sans-serif" font-size="12" lengthAdjust="spacingAndGlyphs" textLength="57" x="147.25" y="136.1543">ItemData</text><line style="stroke: #A80036; stroke-width: 1.5;" x1="54.5" x2="264.5" y1="148" y2="148"/><ellipse cx="64.5" cy="159" fill="none" rx="3" ry="3" style="stroke: #038048; stroke-width: 1.0;"/><text fill="#000000" font-family="sans-serif" font-size="11" lengthAdjust="spacingAndGlyphs" textLength="103" x="73.5" y="162.2104">itemName : string</text><ellipse cx="64.5" cy="171.8047" fill="none" rx="3" ry="3" style="stroke: #038048; stroke-width: 1.0;"/><text fill="#000000" font-family="sans-serif" font-size="11" lengthAdjust="spacingAndGlyphs" textLength="108" x="73.5" y="175.0151">description : string</text><ellipse cx="64.5" cy="184.6094" fill="none" rx="3" ry="3" style="stroke: #038048; stroke-width: 1.0;"/><text fill="#000000" font-family="sans-serif" font-size="11" lengthAdjust="spacingAndGlyphs" textLength="182" x="73.5" y="187.8198">hasBeenPickedUp : bool = false</text><ellipse cx="64.5" cy="197.4141" fill="none" rx="3" ry="3" style="stroke: #038048; stroke-width: 1.0;"/><text fill="#000000" font-family="sans-serif" font-size="11" lengthAdjust="spacingAndGlyphs" textLength="122" x="73.5" y="200.6245">pickedUpNumber : int</text><line style="stroke: #A80036; stroke-width: 1.5;" x1="54.5" x2="264.5" y1="207.2188" y2="207.2188"/><ellipse cx="64.5" cy="218.2188" fill="#84BE84" rx="3" ry="3" style="stroke: #038048; stroke-width: 1.0;"/><text fill="#000000" font-family="sans-serif" font-size="11" lengthAdjust="spacingAndGlyphs" textLength="185" x="73.5" y="221.4292">LoadData(data:GameData) : void</text><ellipse cx="64.5" cy="231.0234" fill="#84BE84" rx="3" ry="3" style="stroke: #038048; stroke-width: 1.0;"/><text fill="#000000" font-family="sans-serif" font-size="11" lengthAdjust="spacingAndGlyphs" textLength="186" x="73.5" y="234.2339">SaveData(data:GameData) : void</text><!--MD5=[44895057fba17b10f3053a7baa21df04]
class ScriptableObject--><rect fill="#FEFECE" filter="url(#fc47z78qlf9w2)" height="48" id="ScriptableObject" style="stroke: #A80036; stroke-width: 1.5;" width="135" x="6" y="8"/><ellipse cx="21" cy="24" fill="#ADD1B2" rx="11" ry="11" style="stroke: #A80036; stroke-width: 1.0;"/><path d="M23.9688,29.6406 Q23.3906,29.9375 22.75,30.0781 Q22.1094,30.2344 21.4063,30.2344 Q18.9063,30.2344 17.5781,28.5938 Q16.2656,26.9375 16.2656,23.8125 Q16.2656,20.6875 17.5781,19.0313 Q18.9063,17.375 21.4063,17.375 Q22.1094,17.375 22.75,17.5313 Q23.4063,17.6875 23.9688,17.9844 L23.9688,20.7031 Q23.3438,20.125 22.75,19.8594 Q22.1563,19.5781 21.5313,19.5781 Q20.1875,19.5781 19.5,20.6563 Q18.8125,21.7188 18.8125,23.8125 Q18.8125,25.9063 19.5,26.9844 Q20.1875,28.0469 21.5313,28.0469 Q22.1563,28.0469 22.75,27.7813 Q23.3438,27.5 23.9688,26.9219 L23.9688,29.6406 Z "/><text fill="#000000" font-family="sans-serif" font-size="12" lengthAdjust="spacingAndGlyphs" textLength="103" x="35" y="28.1543">ScriptableObject</text><line style="stroke: #A80036; stroke-width: 1.5;" x1="7" x2="140" y1="40" y2="40"/><line style="stroke: #A80036; stroke-width: 1.5;" x1="7" x2="140" y1="48" y2="48"/><!--MD5=[64a01738e00397fdc051c8255b006b82]
class IDataPersistence--><rect fill="#FEFECE" filter="url(#fc47z78qlf9w2)" height="48" id="IDataPersistence" style="stroke: #A80036; stroke-width: 1.5;" width="139" x="176" y="8"/><ellipse cx="191" cy="24" fill="#ADD1B2" rx="11" ry="11" style="stroke: #A80036; stroke-width: 1.0;"/><path d="M193.9688,29.6406 Q193.3906,29.9375 192.75,30.0781 Q192.1094,30.2344 191.4063,30.2344 Q188.9063,30.2344 187.5781,28.5938 Q186.2656,26.9375 186.2656,23.8125 Q186.2656,20.6875 187.5781,19.0313 Q188.9063,17.375 191.4063,17.375 Q192.1094,17.375 192.75,17.5313 Q193.4063,17.6875 193.9688,17.9844 L193.9688,20.7031 Q193.3438,20.125 192.75,19.8594 Q192.1563,19.5781 191.5313,19.5781 Q190.1875,19.5781 189.5,20.6563 Q188.8125,21.7188 188.8125,23.8125 Q188.8125,25.9063 189.5,26.9844 Q190.1875,28.0469 191.5313,28.0469 Q192.1563,28.0469 192.75,27.7813 Q193.3438,27.5 193.9688,26.9219 L193.9688,29.6406 Z "/><text fill="#000000" font-family="sans-serif" font-size="12" lengthAdjust="spacingAndGlyphs" textLength="107" x="205" y="28.1543">IDataPersistence</text><line style="stroke: #A80036; stroke-width: 1.5;" x1="177" x2="314" y1="40" y2="40"/><line style="stroke: #A80036; stroke-width: 1.5;" x1="177" x2="314" y1="48" y2="48"/><!--MD5=[85c2ed8dbf494cb60783de624603a7dd]
class Sprite--><rect fill="#FEFECE" filter="url(#fc47z78qlf9w2)" height="48" id="Sprite" style="stroke: #A80036; stroke-width: 1.5;" width="69" x="125" y="301"/><ellipse cx="140" cy="317" fill="#ADD1B2" rx="11" ry="11" style="stroke: #A80036; stroke-width: 1.0;"/><path d="M142.9688,322.6406 Q142.3906,322.9375 141.75,323.0781 Q141.1094,323.2344 140.4063,323.2344 Q137.9063,323.2344 136.5781,321.5938 Q135.2656,319.9375 135.2656,316.8125 Q135.2656,313.6875 136.5781,312.0313 Q137.9063,310.375 140.4063,310.375 Q141.1094,310.375 141.75,310.5313 Q142.4063,310.6875 142.9688,310.9844 L142.9688,313.7031 Q142.3438,313.125 141.75,312.8594 Q141.1563,312.5781 140.5313,312.5781 Q139.1875,312.5781 138.5,313.6563 Q137.8125,314.7188 137.8125,316.8125 Q137.8125,318.9063 138.5,319.9844 Q139.1875,321.0469 140.5313,321.0469 Q141.1563,321.0469 141.75,320.7813 Q142.3438,320.5 142.9688,319.9219 L142.9688,322.6406 Z "/><text fill="#000000" font-family="sans-serif" font-size="12" lengthAdjust="spacingAndGlyphs" textLength="37" x="154" y="321.1543">Sprite</text><line style="stroke: #A80036; stroke-width: 1.5;" x1="126" x2="193" y1="333" y2="333"/><line style="stroke: #A80036; stroke-width: 1.5;" x1="126" x2="193" y1="341" y2="341"/><!--MD5=[05fca3ad71a050860823697edf529365]
reverse link ScriptableObject to ItemData--><path d="M97.57,73.45 C105.43,86.64 114.33,101.61 122.89,115.99 " fill="none" id="ScriptableObject&lt;-ItemData" style="stroke: #A80036; stroke-width: 1.0;"/><polygon fill="none" points="91.53,76.98,87.32,56.22,103.56,69.82,91.53,76.98" style="stroke: #A80036; stroke-width: 1.0;"/><!--MD5=[b1c194710468caebc803b0fc88b8c2ed]
reverse link IDataPersistence to ItemData--><path d="M221.43,73.45 C213.57,86.64 204.67,101.61 196.11,115.99 " fill="none" id="IDataPersistence&lt;-ItemData" style="stroke: #A80036; stroke-width: 1.0;"/><polygon fill="none" points="215.44,69.82,231.68,56.22,227.47,76.98,215.44,69.82" style="stroke: #A80036; stroke-width: 1.0;"/><!--MD5=[e9da232b3cf657429f9fa21fbe3c0935]
link ItemData to Sprite--><path d="M159.5,241.2 C159.5,260.22 159.5,280.24 159.5,295.83 " fill="none" id="ItemData-&gt;Sprite" style="stroke: #A80036; stroke-width: 1.0;"/><polygon fill="#A80036" points="159.5,300.94,163.5,291.94,159.5,295.94,155.5,291.94,159.5,300.94" style="stroke: #A80036; stroke-width: 1.0;"/><text fill="#000000" font-family="sans-serif" font-size="13" lengthAdjust="spacingAndGlyphs" textLength="26" x="130.1688" y="289.9367">icon</text><!--MD5=[4c4a10c3123dd9d921aeb1d2fd1cff60]
@startuml
class ItemData {
    + itemName : string
    + description : string
    + hasBeenPickedUp : bool = false
    + pickedUpNumber : int
    + LoadData(data:GameData) : void
    + SaveData(data:GameData) : void
}
ScriptableObject <|- - ItemData
IDataPersistence <|- - ItemData
ItemData - -> "icon" Sprite
@enduml

PlantUML version 1.2020.02(Sun Mar 01 10:22:07 GMT 2020)
(GPL source distribution)
Java Runtime: OpenJDK Runtime Environment
JVM: OpenJDK 64-Bit Server VM
Java Version: 11.0.9+11-Ubuntu-0ubuntu1
Operating System: Linux
Default Encoding: ANSI_X3.4-1968
Language: en
Country: US
--></g></svg>