<?xml version="1.0" encoding="UTF-8" standalone="no"?><svg xmlns="http://www.w3.org/2000/svg" xmlns:xlink="http://www.w3.org/1999/xlink" contentScriptType="application/ecmascript" contentStyleType="text/css" height="117px" preserveAspectRatio="none" style="width:485px;height:117px;" version="1.1" viewBox="0 0 485 117" width="485px" zoomAndPan="magnify"><defs><filter height="300%" id="f162vinrdxalbn" width="300%" x="-1" y="-1"><feGaussianBlur result="blurOut" stdDeviation="2.0"/><feColorMatrix in="blurOut" result="blurOut2" type="matrix" values="0 0 0 0 0 0 0 0 0 0 0 0 0 0 0 0 0 0 .4 0"/><feOffset dx="4.0" dy="4.0" in="blurOut2" result="blurOut3"/><feBlend in="SourceGraphic" in2="blurOut3" mode="normal"/></filter></defs><g><!--MD5=[e8d36f2f96d5e5262f65ebe3ceecb377]
class ItemDataSave--><rect fill="#FEFECE" filter="url(#f162vinrdxalbn)" height="99.2188" id="ItemDataSave" style="stroke: #A80036; stroke-width: 1.5;" width="467" x="7" y="7"/><ellipse cx="192.75" cy="23" fill="#ADD1B2" rx="11" ry="11" style="stroke: #A80036; stroke-width: 1.0;"/><path d="M195.7188,28.6406 Q195.1406,28.9375 194.5,29.0781 Q193.8594,29.2344 193.1563,29.2344 Q190.6563,29.2344 189.3281,27.5938 Q188.0156,25.9375 188.0156,22.8125 Q188.0156,19.6875 189.3281,18.0313 Q190.6563,16.375 193.1563,16.375 Q193.8594,16.375 194.5,16.5313 Q195.1563,16.6875 195.7188,16.9844 L195.7188,19.7031 Q195.0938,19.125 194.5,18.8594 Q193.9063,18.5781 193.2813,18.5781 Q191.9375,18.5781 191.25,19.6563 Q190.5625,20.7188 190.5625,22.8125 Q190.5625,24.9063 191.25,25.9844 Q191.9375,27.0469 193.2813,27.0469 Q193.9063,27.0469 194.5,26.7813 Q195.0938,26.5 195.7188,25.9219 L195.7188,28.6406 Z "/><text fill="#000000" font-family="sans-serif" font-size="12" lengthAdjust="spacingAndGlyphs" textLength="87" x="213.25" y="27.1543">ItemDataSave</text><line style="stroke: #A80036; stroke-width: 1.5;" x1="8" x2="473" y1="39" y2="39"/><ellipse cx="18" cy="50" fill="none" rx="3" ry="3" style="stroke: #038048; stroke-width: 1.0;"/><text fill="#000000" font-family="sans-serif" font-size="11" lengthAdjust="spacingAndGlyphs" textLength="103" x="27" y="53.2104">itemName : string</text><ellipse cx="18" cy="62.8047" fill="none" rx="3" ry="3" style="stroke: #038048; stroke-width: 1.0;"/><text fill="#000000" font-family="sans-serif" font-size="11" lengthAdjust="spacingAndGlyphs" textLength="182" x="27" y="66.0151">hasBeenPickedUp : bool = false</text><ellipse cx="18" cy="75.6094" fill="none" rx="3" ry="3" style="stroke: #038048; stroke-width: 1.0;"/><text fill="#000000" font-family="sans-serif" font-size="11" lengthAdjust="spacingAndGlyphs" textLength="122" x="27" y="78.8198">pickedUpNumber : int</text><line style="stroke: #A80036; stroke-width: 1.5;" x1="8" x2="473" y1="85.4141" y2="85.4141"/><ellipse cx="18" cy="96.4141" fill="#84BE84" rx="3" ry="3" style="stroke: #038048; stroke-width: 1.0;"/><text fill="#000000" font-family="sans-serif" font-size="11" lengthAdjust="spacingAndGlyphs" textLength="441" x="27" y="99.6245">ItemDataSave(itemName:string, hasBeenPickedUp:bool, pickedUpNumber:int)</text><!--MD5=[01c64d0c1ec2641970e5a8efc034be24]
@startuml
class ItemDataSave {
    + itemName : string
    + hasBeenPickedUp : bool = false
    + pickedUpNumber : int
    + ItemDataSave(itemName:string, hasBeenPickedUp:bool, pickedUpNumber:int)
}
@enduml

PlantUML version 1.2020.02(Sun Mar 01 10:22:07 GMT 2020)
(GPL source distribution)
Java Runtime: OpenJDK Runtime Environment
JVM: OpenJDK 64-Bit Server VM
Java Version: 11.0.9+11-Ubuntu-0ubuntu1
Operating System: Linux
Default Encoding: ANSI_X3.4-1968
Language: en
Country: US
--></g></svg>