<?xml version="1.0" encoding="UTF-8" standalone="no"?><svg xmlns="http://www.w3.org/2000/svg" xmlns:xlink="http://www.w3.org/1999/xlink" contentScriptType="application/ecmascript" contentStyleType="text/css" height="200px" preserveAspectRatio="none" style="width:286px;height:200px;" version="1.1" viewBox="0 0 286 200" width="286px" zoomAndPan="magnify"><defs><filter height="300%" id="f2qtkeojzcrqf" width="300%" x="-1" y="-1"><feGaussianBlur result="blurOut" stdDeviation="2.0"/><feColorMatrix in="blurOut" result="blurOut2" type="matrix" values="0 0 0 0 0 0 0 0 0 0 0 0 0 0 0 0 0 0 .4 0"/><feOffset dx="4.0" dy="4.0" in="blurOut2" result="blurOut3"/><feBlend in="SourceGraphic" in2="blurOut3" mode="normal"/></filter></defs><g><!--MD5=[b6b6da26027cd6dd6d67bd2cf3fa7d56]
class ListOfStuff`1--><rect fill="#FEFECE" filter="url(#f2qtkeojzcrqf)" height="73.6094" id="ListOfStuff`1" style="stroke: #A80036; stroke-width: 1.5;" width="153" x="6" y="116"/><ellipse cx="36.3" cy="132" fill="#A9DCDF" rx="11" ry="11" style="stroke: #A80036; stroke-width: 1.0;"/><path d="M36.4094,127.3438 L35.2531,132.4219 L37.5813,132.4219 L36.4094,127.3438 Z M34.925,125.1094 L37.9094,125.1094 L41.2688,137.5 L38.8156,137.5 L38.05,134.4375 L34.7688,134.4375 L34.0188,137.5 L31.5812,137.5 L34.925,125.1094 Z "/><text fill="#000000" font-family="sans-serif" font-size="12" font-style="italic" lengthAdjust="spacingAndGlyphs" textLength="76" x="53.7" y="136.1543">ListOfStuff`1</text><rect fill="#FFFFFF" height="15.9688" style="stroke: #000000; stroke-width: 1.0; stroke-dasharray: 2.0,2.0;" width="9" x="153" y="113"/><text fill="#000000" font-family="sans-serif" font-size="12" font-style="italic" lengthAdjust="spacingAndGlyphs" textLength="7" x="154" y="125.1387">T</text><line style="stroke: #A80036; stroke-width: 1.5;" x1="7" x2="158" y1="148" y2="148"/><line style="stroke: #A80036; stroke-width: 1.5;" x1="7" x2="158" y1="156" y2="156"/><ellipse cx="17" cy="167" fill="#84BE84" rx="3" ry="3" style="stroke: #038048; stroke-width: 1.0;"/><text fill="#000000" font-family="sans-serif" font-size="11" lengthAdjust="spacingAndGlyphs" textLength="103" x="26" y="170.2104">Add(thing:T) : void</text><ellipse cx="17" cy="179.8047" fill="#84BE84" rx="3" ry="3" style="stroke: #038048; stroke-width: 1.0;"/><text fill="#000000" font-family="sans-serif" font-size="11" lengthAdjust="spacingAndGlyphs" textLength="127" x="26" y="183.0151">Remove(thing:T) : void</text><!--MD5=[e644022de7dea015dd09463c37421447]
class List`1--><rect fill="#FEFECE" filter="url(#f2qtkeojzcrqf)" height="48" id="List`1" style="stroke: #A80036; stroke-width: 1.5;" width="78" x="194.5" y="129"/><ellipse cx="209.5" cy="145" fill="#ADD1B2" rx="11" ry="11" style="stroke: #A80036; stroke-width: 1.0;"/><path d="M212.4688,150.6406 Q211.8906,150.9375 211.25,151.0781 Q210.6094,151.2344 209.9063,151.2344 Q207.4063,151.2344 206.0781,149.5938 Q204.7656,147.9375 204.7656,144.8125 Q204.7656,141.6875 206.0781,140.0313 Q207.4063,138.375 209.9063,138.375 Q210.6094,138.375 211.25,138.5313 Q211.9063,138.6875 212.4688,138.9844 L212.4688,141.7031 Q211.8438,141.125 211.25,140.8594 Q210.6563,140.5781 210.0313,140.5781 Q208.6875,140.5781 208,141.6563 Q207.3125,142.7188 207.3125,144.8125 Q207.3125,146.9063 208,147.9844 Q208.6875,149.0469 210.0313,149.0469 Q210.6563,149.0469 211.25,148.7813 Q211.8438,148.5 212.4688,147.9219 L212.4688,150.6406 Z "/><text fill="#000000" font-family="sans-serif" font-size="12" lengthAdjust="spacingAndGlyphs" textLength="35" x="223.5" y="149.1543">List`1</text><rect fill="#FFFFFF" height="15.9688" style="stroke: #000000; stroke-width: 1.0; stroke-dasharray: 2.0,2.0;" width="9" x="266.5" y="126"/><text fill="#000000" font-family="sans-serif" font-size="12" font-style="italic" lengthAdjust="spacingAndGlyphs" textLength="7" x="267.5" y="138.1387">T</text><line style="stroke: #A80036; stroke-width: 1.5;" x1="195.5" x2="271.5" y1="161" y2="161"/><line style="stroke: #A80036; stroke-width: 1.5;" x1="195.5" x2="271.5" y1="169" y2="169"/><!--MD5=[44895057fba17b10f3053a7baa21df04]
class ScriptableObject--><rect fill="#FEFECE" filter="url(#f2qtkeojzcrqf)" height="48" id="ScriptableObject" style="stroke: #A80036; stroke-width: 1.5;" width="135" x="15" y="8"/><ellipse cx="30" cy="24" fill="#ADD1B2" rx="11" ry="11" style="stroke: #A80036; stroke-width: 1.0;"/><path d="M32.9688,29.6406 Q32.3906,29.9375 31.75,30.0781 Q31.1094,30.2344 30.4063,30.2344 Q27.9063,30.2344 26.5781,28.5938 Q25.2656,26.9375 25.2656,23.8125 Q25.2656,20.6875 26.5781,19.0313 Q27.9063,17.375 30.4063,17.375 Q31.1094,17.375 31.75,17.5313 Q32.4063,17.6875 32.9688,17.9844 L32.9688,20.7031 Q32.3438,20.125 31.75,19.8594 Q31.1563,19.5781 30.5313,19.5781 Q29.1875,19.5781 28.5,20.6563 Q27.8125,21.7188 27.8125,23.8125 Q27.8125,25.9063 28.5,26.9844 Q29.1875,28.0469 30.5313,28.0469 Q31.1563,28.0469 31.75,27.7813 Q32.3438,27.5 32.9688,26.9219 L32.9688,29.6406 Z "/><text fill="#000000" font-family="sans-serif" font-size="12" lengthAdjust="spacingAndGlyphs" textLength="103" x="44" y="28.1543">ScriptableObject</text><line style="stroke: #A80036; stroke-width: 1.5;" x1="16" x2="149" y1="40" y2="40"/><line style="stroke: #A80036; stroke-width: 1.5;" x1="16" x2="149" y1="48" y2="48"/><!--MD5=[e98e2b9ff37acbfda7c1768da7a42d19]
reverse link ScriptableObject to ListOfStuff`1--><path d="M82.5,76.43 C82.5,89.33 82.5,103.32 82.5,115.71 " fill="none" id="ScriptableObject&lt;-ListOfStuff`1" style="stroke: #A80036; stroke-width: 1.0;"/><polygon fill="none" points="75.5,76.23,82.5,56.23,89.5,76.23,75.5,76.23" style="stroke: #A80036; stroke-width: 1.0;"/><!--MD5=[118cfb1431e22a906e1eb065fc077cb1]
link ListOfStuff`1 to List`1--><path d="M171.18,153 C171.18,153 178.3,153 181.27,153 " fill="none" id="ListOfStuff`1-List`1" style="stroke: #A80036; stroke-width: 1.0;"/><polygon fill="#A80036" points="194.31,153,185.31,149,189.31,153,185.31,157,194.31,153" style="stroke: #A80036; stroke-width: 1.0;"/><line style="stroke: #A80036; stroke-width: 1.0;" x1="189.31" x2="181.31" y1="153" y2="153"/><polygon fill="#FFFFFF" points="159.18,153,165.18,157,171.18,153,165.18,149,159.18,153" style="stroke: #A80036; stroke-width: 1.0;"/><text fill="#000000" font-family="sans-serif" font-size="13" lengthAdjust="spacingAndGlyphs" textLength="65" x="120.911" y="130.917">items&lt;T&gt;</text><!--MD5=[0fc7d3953cfa55e8128c8f9799488260]
@startuml
abstract class "ListOfStuff`1"<T> {
    + Add(thing:T) : void
    + Remove(thing:T) : void
}
class "List`1"<T> {
}
ScriptableObject <|- - "ListOfStuff`1"
"ListOfStuff`1" o-> "items<T>" "List`1"
@enduml

PlantUML version 1.2020.02(Sun Mar 01 10:22:07 GMT 2020)
(GPL source distribution)
Java Runtime: OpenJDK Runtime Environment
JVM: OpenJDK 64-Bit Server VM
Java Version: 11.0.9+11-Ubuntu-0ubuntu1
Operating System: Linux
Default Encoding: ANSI_X3.4-1968
Language: en
Country: US
--></g></svg>