<?xml version="1.0" encoding="UTF-8" standalone="no"?><svg xmlns="http://www.w3.org/2000/svg" xmlns:xlink="http://www.w3.org/1999/xlink" contentScriptType="application/ecmascript" contentStyleType="text/css" height="104px" preserveAspectRatio="none" style="width:380px;height:104px;" version="1.1" viewBox="0 0 380 104" width="380px" zoomAndPan="magnify"><defs><filter height="300%" id="fc89t2byaoaw0" width="300%" x="-1" y="-1"><feGaussianBlur result="blurOut" stdDeviation="2.0"/><feColorMatrix in="blurOut" result="blurOut2" type="matrix" values="0 0 0 0 0 0 0 0 0 0 0 0 0 0 0 0 0 0 .4 0"/><feOffset dx="4.0" dy="4.0" in="blurOut2" result="blurOut3"/><feBlend in="SourceGraphic" in2="blurOut3" mode="normal"/></filter></defs><g><!--MD5=[bffb393f7aa83104867e12da49a9a584]
class GraphSaveUtility--><rect fill="#FEFECE" filter="url(#fc89t2byaoaw0)" height="86.4141" id="GraphSaveUtility" style="stroke: #A80036; stroke-width: 1.5;" width="362" x="7" y="7"/><ellipse cx="132.75" cy="23" fill="#ADD1B2" rx="11" ry="11" style="stroke: #A80036; stroke-width: 1.0;"/><path d="M135.7188,28.6406 Q135.1406,28.9375 134.5,29.0781 Q133.8594,29.2344 133.1563,29.2344 Q130.6563,29.2344 129.3281,27.5938 Q128.0156,25.9375 128.0156,22.8125 Q128.0156,19.6875 129.3281,18.0313 Q130.6563,16.375 133.1563,16.375 Q133.8594,16.375 134.5,16.5313 Q135.1563,16.6875 135.7188,16.9844 L135.7188,19.7031 Q135.0938,19.125 134.5,18.8594 Q133.9063,18.5781 133.2813,18.5781 Q131.9375,18.5781 131.25,19.6563 Q130.5625,20.7188 130.5625,22.8125 Q130.5625,24.9063 131.25,25.9844 Q131.9375,27.0469 133.2813,27.0469 Q133.9063,27.0469 134.5,26.7813 Q135.0938,26.5 135.7188,25.9219 L135.7188,28.6406 Z "/><text fill="#000000" font-family="sans-serif" font-size="12" lengthAdjust="spacingAndGlyphs" textLength="102" x="153.25" y="27.1543">GraphSaveUtility</text><line style="stroke: #A80036; stroke-width: 1.5;" x1="8" x2="368" y1="39" y2="39"/><line style="stroke: #A80036; stroke-width: 1.5;" x1="8" x2="368" y1="47" y2="47"/><ellipse cx="18" cy="58" fill="#84BE84" rx="3" ry="3" style="stroke: #038048; stroke-width: 1.0;"/><text fill="#000000" font-family="sans-serif" font-size="11" lengthAdjust="spacingAndGlyphs" text-decoration="underline" textLength="336" x="27" y="61.2104">GetInstance(graphView:StoryGraphView) : GraphSaveUtility</text><ellipse cx="18" cy="70.8047" fill="#84BE84" rx="3" ry="3" style="stroke: #038048; stroke-width: 1.0;"/><text fill="#000000" font-family="sans-serif" font-size="11" lengthAdjust="spacingAndGlyphs" textLength="193" x="27" y="74.0151">SaveGraph(fileName:string) : void</text><ellipse cx="18" cy="83.6094" fill="#84BE84" rx="3" ry="3" style="stroke: #038048; stroke-width: 1.0;"/><text fill="#000000" font-family="sans-serif" font-size="11" lengthAdjust="spacingAndGlyphs" textLength="209" x="27" y="86.8198">LoadNarrative(fileName:string) : void</text><!--MD5=[9364afac9b74c0f3c2b013f9bb60a811]
@startuml
class GraphSaveUtility {
    + {static} GetInstance(graphView:StoryGraphView) : GraphSaveUtility
    + SaveGraph(fileName:string) : void
    + LoadNarrative(fileName:string) : void
}
@enduml

PlantUML version 1.2020.02(Sun Mar 01 10:22:07 GMT 2020)
(GPL source distribution)
Java Runtime: OpenJDK Runtime Environment
JVM: OpenJDK 64-Bit Server VM
Java Version: 11.0.9+11-Ubuntu-0ubuntu1
Operating System: Linux
Default Encoding: ANSI_X3.4-1968
Language: en
Country: US
--></g></svg>