<?xml version="1.0" encoding="UTF-8" standalone="no"?><svg xmlns="http://www.w3.org/2000/svg" xmlns:xlink="http://www.w3.org/1999/xlink" contentScriptType="application/ecmascript" contentStyleType="text/css" height="200px" preserveAspectRatio="none" style="width:241px;height:200px;" version="1.1" viewBox="0 0 241 200" width="241px" zoomAndPan="magnify"><defs><filter height="300%" id="fyimblwq9l91g" width="300%" x="-1" y="-1"><feGaussianBlur result="blurOut" stdDeviation="2.0"/><feColorMatrix in="blurOut" result="blurOut2" type="matrix" values="0 0 0 0 0 0 0 0 0 0 0 0 0 0 0 0 0 0 .4 0"/><feOffset dx="4.0" dy="4.0" in="blurOut2" result="blurOut3"/><feBlend in="SourceGraphic" in2="blurOut3" mode="normal"/></filter></defs><g><!--MD5=[9cf3c98678f6da8691ef4ae60a3eeb4e]
class SceneSwitchData--><rect fill="#FEFECE" filter="url(#fyimblwq9l91g)" height="73.6094" id="SceneSwitchData" style="stroke: #A80036; stroke-width: 1.5;" width="224" x="6" y="116"/><ellipse cx="59.25" cy="132" fill="#ADD1B2" rx="11" ry="11" style="stroke: #A80036; stroke-width: 1.0;"/><path d="M62.2188,137.6406 Q61.6406,137.9375 61,138.0781 Q60.3594,138.2344 59.6563,138.2344 Q57.1563,138.2344 55.8281,136.5938 Q54.5156,134.9375 54.5156,131.8125 Q54.5156,128.6875 55.8281,127.0313 Q57.1563,125.375 59.6563,125.375 Q60.3594,125.375 61,125.5313 Q61.6563,125.6875 62.2188,125.9844 L62.2188,128.7031 Q61.5938,128.125 61,127.8594 Q60.4063,127.5781 59.7813,127.5781 Q58.4375,127.5781 57.75,128.6563 Q57.0625,129.7188 57.0625,131.8125 Q57.0625,133.9063 57.75,134.9844 Q58.4375,136.0469 59.7813,136.0469 Q60.4063,136.0469 61,135.7813 Q61.5938,135.5 62.2188,134.9219 L62.2188,137.6406 Z "/><text fill="#000000" font-family="sans-serif" font-size="12" lengthAdjust="spacingAndGlyphs" textLength="109" x="79.75" y="136.1543">SceneSwitchData</text><line style="stroke: #A80036; stroke-width: 1.5;" x1="7" x2="229" y1="148" y2="148"/><ellipse cx="17" cy="159" fill="none" rx="3" ry="3" style="stroke: #038048; stroke-width: 1.0;"/><text fill="#000000" font-family="sans-serif" font-size="11" lengthAdjust="spacingAndGlyphs" textLength="112" x="26" y="162.2104">sceneName : string</text><ellipse cx="17" cy="171.8047" fill="none" rx="3" ry="3" style="stroke: #038048; stroke-width: 1.0;"/><text fill="#000000" font-family="sans-serif" font-size="11" lengthAdjust="spacingAndGlyphs" textLength="198" x="26" y="175.0151">playerSpawnLocationName : string</text><line style="stroke: #A80036; stroke-width: 1.5;" x1="7" x2="229" y1="181.6094" y2="181.6094"/><!--MD5=[44895057fba17b10f3053a7baa21df04]
class ScriptableObject--><rect fill="#FEFECE" filter="url(#fyimblwq9l91g)" height="48" id="ScriptableObject" style="stroke: #A80036; stroke-width: 1.5;" width="135" x="50.5" y="8"/><ellipse cx="65.5" cy="24" fill="#ADD1B2" rx="11" ry="11" style="stroke: #A80036; stroke-width: 1.0;"/><path d="M68.4688,29.6406 Q67.8906,29.9375 67.25,30.0781 Q66.6094,30.2344 65.9063,30.2344 Q63.4063,30.2344 62.0781,28.5938 Q60.7656,26.9375 60.7656,23.8125 Q60.7656,20.6875 62.0781,19.0313 Q63.4063,17.375 65.9063,17.375 Q66.6094,17.375 67.25,17.5313 Q67.9063,17.6875 68.4688,17.9844 L68.4688,20.7031 Q67.8438,20.125 67.25,19.8594 Q66.6563,19.5781 66.0313,19.5781 Q64.6875,19.5781 64,20.6563 Q63.3125,21.7188 63.3125,23.8125 Q63.3125,25.9063 64,26.9844 Q64.6875,28.0469 66.0313,28.0469 Q66.6563,28.0469 67.25,27.7813 Q67.8438,27.5 68.4688,26.9219 L68.4688,29.6406 Z "/><text fill="#000000" font-family="sans-serif" font-size="12" lengthAdjust="spacingAndGlyphs" textLength="103" x="79.5" y="28.1543">ScriptableObject</text><line style="stroke: #A80036; stroke-width: 1.5;" x1="51.5" x2="184.5" y1="40" y2="40"/><line style="stroke: #A80036; stroke-width: 1.5;" x1="51.5" x2="184.5" y1="48" y2="48"/><!--MD5=[d533fb0df0273d376c1d19b03c78c9c9]
reverse link ScriptableObject to SceneSwitchData--><path d="M118,76.43 C118,89.33 118,103.32 118,115.71 " fill="none" id="ScriptableObject&lt;-SceneSwitchData" style="stroke: #A80036; stroke-width: 1.0;"/><polygon fill="none" points="111,76.23,118,56.23,125,76.23,111,76.23" style="stroke: #A80036; stroke-width: 1.0;"/><!--MD5=[60319ba003be02616953cf9e615dcf38]
@startuml
class SceneSwitchData {
    + sceneName : string
    + playerSpawnLocationName : string
}
ScriptableObject <|- - SceneSwitchData
@enduml

PlantUML version 1.2020.02(Sun Mar 01 10:22:07 GMT 2020)
(GPL source distribution)
Java Runtime: OpenJDK Runtime Environment
JVM: OpenJDK 64-Bit Server VM
Java Version: 11.0.9+11-Ubuntu-0ubuntu1
Operating System: Linux
Default Encoding: ANSI_X3.4-1968
Language: en
Country: US
--></g></svg>