<?xml version="1.0" encoding="UTF-8" standalone="no"?><svg xmlns="http://www.w3.org/2000/svg" xmlns:xlink="http://www.w3.org/1999/xlink" contentScriptType="application/ecmascript" contentStyleType="text/css" height="309px" preserveAspectRatio="none" style="width:372px;height:309px;" version="1.1" viewBox="0 0 372 309" width="372px" zoomAndPan="magnify"><defs><filter height="300%" id="ffprmqq49vcc" width="300%" x="-1" y="-1"><feGaussianBlur result="blurOut" stdDeviation="2.0"/><feColorMatrix in="blurOut" result="blurOut2" type="matrix" values="0 0 0 0 0 0 0 0 0 0 0 0 0 0 0 0 0 0 .4 0"/><feOffset dx="4.0" dy="4.0" in="blurOut2" result="blurOut3"/><feBlend in="SourceGraphic" in2="blurOut3" mode="normal"/></filter></defs><g><!--MD5=[d58cd89bfda90fd9d726e8ec4bd8f94f]
class LevelManager--><rect fill="#FEFECE" filter="url(#ffprmqq49vcc)" height="73.6094" id="LevelManager" style="stroke: #A80036; stroke-width: 1.5;" width="355" x="6" y="116"/><ellipse cx="136.25" cy="132" fill="#ADD1B2" rx="11" ry="11" style="stroke: #A80036; stroke-width: 1.0;"/><path d="M139.2188,137.6406 Q138.6406,137.9375 138,138.0781 Q137.3594,138.2344 136.6563,138.2344 Q134.1563,138.2344 132.8281,136.5938 Q131.5156,134.9375 131.5156,131.8125 Q131.5156,128.6875 132.8281,127.0313 Q134.1563,125.375 136.6563,125.375 Q137.3594,125.375 138,125.5313 Q138.6563,125.6875 139.2188,125.9844 L139.2188,128.7031 Q138.5938,128.125 138,127.8594 Q137.4063,127.5781 136.7813,127.5781 Q135.4375,127.5781 134.75,128.6563 Q134.0625,129.7188 134.0625,131.8125 Q134.0625,133.9063 134.75,134.9844 Q135.4375,136.0469 136.7813,136.0469 Q137.4063,136.0469 138,135.7813 Q138.5938,135.5 139.2188,134.9219 L139.2188,137.6406 Z "/><text fill="#000000" font-family="sans-serif" font-size="12" lengthAdjust="spacingAndGlyphs" textLength="86" x="156.75" y="136.1543">LevelManager</text><line style="stroke: #A80036; stroke-width: 1.5;" x1="7" x2="360" y1="148" y2="148"/><line style="stroke: #A80036; stroke-width: 1.5;" x1="7" x2="360" y1="156" y2="156"/><ellipse cx="17" cy="167" fill="#84BE84" rx="3" ry="3" style="stroke: #038048; stroke-width: 1.0;"/><text fill="#000000" font-family="sans-serif" font-size="11" lengthAdjust="spacingAndGlyphs" textLength="238" x="26" y="170.2104">SpawnPlayer(gameData:GameData) : void</text><ellipse cx="17" cy="179.8047" fill="#84BE84" rx="3" ry="3" style="stroke: #038048; stroke-width: 1.0;"/><text fill="#000000" font-family="sans-serif" font-size="11" lengthAdjust="spacingAndGlyphs" textLength="329" x="26" y="183.0151">LoadNextScene(sceneSwitchData:SceneSwitchData) : void</text><!--MD5=[44895057fba17b10f3053a7baa21df04]
class ScriptableObject--><rect fill="#FEFECE" filter="url(#ffprmqq49vcc)" height="48" id="ScriptableObject" style="stroke: #A80036; stroke-width: 1.5;" width="135" x="116" y="8"/><ellipse cx="131" cy="24" fill="#ADD1B2" rx="11" ry="11" style="stroke: #A80036; stroke-width: 1.0;"/><path d="M133.9688,29.6406 Q133.3906,29.9375 132.75,30.0781 Q132.1094,30.2344 131.4063,30.2344 Q128.9063,30.2344 127.5781,28.5938 Q126.2656,26.9375 126.2656,23.8125 Q126.2656,20.6875 127.5781,19.0313 Q128.9063,17.375 131.4063,17.375 Q132.1094,17.375 132.75,17.5313 Q133.4063,17.6875 133.9688,17.9844 L133.9688,20.7031 Q133.3438,20.125 132.75,19.8594 Q132.1563,19.5781 131.5313,19.5781 Q130.1875,19.5781 129.5,20.6563 Q128.8125,21.7188 128.8125,23.8125 Q128.8125,25.9063 129.5,26.9844 Q130.1875,28.0469 131.5313,28.0469 Q132.1563,28.0469 132.75,27.7813 Q133.3438,27.5 133.9688,26.9219 L133.9688,29.6406 Z "/><text fill="#000000" font-family="sans-serif" font-size="12" lengthAdjust="spacingAndGlyphs" textLength="103" x="145" y="28.1543">ScriptableObject</text><line style="stroke: #A80036; stroke-width: 1.5;" x1="117" x2="250" y1="40" y2="40"/><line style="stroke: #A80036; stroke-width: 1.5;" x1="117" x2="250" y1="48" y2="48"/><!--MD5=[9cf3c98678f6da8691ef4ae60a3eeb4e]
class SceneSwitchData--><rect fill="#FEFECE" filter="url(#ffprmqq49vcc)" height="48" id="SceneSwitchData" style="stroke: #A80036; stroke-width: 1.5;" width="141" x="113" y="250"/><ellipse cx="128" cy="266" fill="#ADD1B2" rx="11" ry="11" style="stroke: #A80036; stroke-width: 1.0;"/><path d="M130.9688,271.6406 Q130.3906,271.9375 129.75,272.0781 Q129.1094,272.2344 128.4063,272.2344 Q125.9063,272.2344 124.5781,270.5938 Q123.2656,268.9375 123.2656,265.8125 Q123.2656,262.6875 124.5781,261.0313 Q125.9063,259.375 128.4063,259.375 Q129.1094,259.375 129.75,259.5313 Q130.4063,259.6875 130.9688,259.9844 L130.9688,262.7031 Q130.3438,262.125 129.75,261.8594 Q129.1563,261.5781 128.5313,261.5781 Q127.1875,261.5781 126.5,262.6563 Q125.8125,263.7188 125.8125,265.8125 Q125.8125,267.9063 126.5,268.9844 Q127.1875,270.0469 128.5313,270.0469 Q129.1563,270.0469 129.75,269.7813 Q130.3438,269.5 130.9688,268.9219 L130.9688,271.6406 Z "/><text fill="#000000" font-family="sans-serif" font-size="12" lengthAdjust="spacingAndGlyphs" textLength="109" x="142" y="270.1543">SceneSwitchData</text><line style="stroke: #A80036; stroke-width: 1.5;" x1="114" x2="253" y1="282" y2="282"/><line style="stroke: #A80036; stroke-width: 1.5;" x1="114" x2="253" y1="290" y2="290"/><!--MD5=[644e407f8e260293fdfc7e6f55b57549]
reverse link ScriptableObject to LevelManager--><path d="M183.5,76.43 C183.5,89.33 183.5,103.32 183.5,115.71 " fill="none" id="ScriptableObject&lt;-LevelManager" style="stroke: #A80036; stroke-width: 1.0;"/><polygon fill="none" points="176.5,76.23,183.5,56.23,190.5,76.23,176.5,76.23" style="stroke: #A80036; stroke-width: 1.0;"/><!--MD5=[2d91a04fa8f002bdc3377d1500976307]
link LevelManager to SceneSwitchData--><path d="M183.5,190.03 C183.5,207.48 183.5,228.15 183.5,244.49 " fill="none" id="LevelManager-&gt;SceneSwitchData" style="stroke: #A80036; stroke-width: 1.0;"/><polygon fill="#A80036" points="183.5,249.85,187.5,240.85,183.5,244.85,179.5,240.85,183.5,249.85" style="stroke: #A80036; stroke-width: 1.0;"/><text fill="#000000" font-family="sans-serif" font-size="13" lengthAdjust="spacingAndGlyphs" textLength="110" x="59.4063" y="238.8236">sceneSwitchData</text><!--MD5=[5951b937bd9797468c1789df4c0bf694]
@startuml
class LevelManager {
    + SpawnPlayer(gameData:GameData) : void
    + LoadNextScene(sceneSwitchData:SceneSwitchData) : void
}
ScriptableObject <|- - LevelManager
LevelManager - -> "sceneSwitchData" SceneSwitchData
@enduml

PlantUML version 1.2020.02(Sun Mar 01 10:22:07 GMT 2020)
(GPL source distribution)
Java Runtime: OpenJDK Runtime Environment
JVM: OpenJDK 64-Bit Server VM
Java Version: 11.0.9+11-Ubuntu-0ubuntu1
Operating System: Linux
Default Encoding: ANSI_X3.4-1968
Language: en
Country: US
--></g></svg>