<?xml version="1.0" encoding="UTF-8" standalone="no"?><svg xmlns="http://www.w3.org/2000/svg" xmlns:xlink="http://www.w3.org/1999/xlink" contentScriptType="application/ecmascript" contentStyleType="text/css" height="411px" preserveAspectRatio="none" style="width:375px;height:411px;" version="1.1" viewBox="0 0 375 411" width="375px" zoomAndPan="magnify"><defs><filter height="300%" id="f1q0r1e88zyhb" width="300%" x="-1" y="-1"><feGaussianBlur result="blurOut" stdDeviation="2.0"/><feColorMatrix in="blurOut" result="blurOut2" type="matrix" values="0 0 0 0 0 0 0 0 0 0 0 0 0 0 0 0 0 0 .4 0"/><feOffset dx="4.0" dy="4.0" in="blurOut2" result="blurOut3"/><feBlend in="SourceGraphic" in2="blurOut3" mode="normal"/></filter></defs><g><!--MD5=[87bb97a8fe305f4037740b58c4d02a1d]
class DialogueNode--><rect fill="#FEFECE" filter="url(#f1q0r1e88zyhb)" height="176.0469" id="DialogueNode" style="stroke: #A80036; stroke-width: 1.5;" width="245" x="119.5" y="116"/><ellipse cx="193.75" cy="132" fill="#ADD1B2" rx="11" ry="11" style="stroke: #A80036; stroke-width: 1.0;"/><path d="M196.7188,137.6406 Q196.1406,137.9375 195.5,138.0781 Q194.8594,138.2344 194.1563,138.2344 Q191.6563,138.2344 190.3281,136.5938 Q189.0156,134.9375 189.0156,131.8125 Q189.0156,128.6875 190.3281,127.0313 Q191.6563,125.375 194.1563,125.375 Q194.8594,125.375 195.5,125.5313 Q196.1563,125.6875 196.7188,125.9844 L196.7188,128.7031 Q196.0938,128.125 195.5,127.8594 Q194.9063,127.5781 194.2813,127.5781 Q192.9375,127.5781 192.25,128.6563 Q191.5625,129.7188 191.5625,131.8125 Q191.5625,133.9063 192.25,134.9844 Q192.9375,136.0469 194.2813,136.0469 Q194.9063,136.0469 195.5,135.7813 Q196.0938,135.5 196.7188,134.9219 L196.7188,137.6406 Z "/><text fill="#000000" font-family="sans-serif" font-size="12" lengthAdjust="spacingAndGlyphs" textLength="88" x="214.25" y="136.1543">DialogueNode</text><line style="stroke: #A80036; stroke-width: 1.5;" x1="120.5" x2="363.5" y1="148" y2="148"/><ellipse cx="130.5" cy="159" fill="none" rx="3" ry="3" style="stroke: #038048; stroke-width: 1.0;"/><text fill="#000000" font-family="sans-serif" font-size="11" lengthAdjust="spacingAndGlyphs" textLength="118" x="139.5" y="162.2104">DialogueText : string</text><ellipse cx="130.5" cy="171.8047" fill="none" rx="3" ry="3" style="stroke: #038048; stroke-width: 1.0;"/><text fill="#000000" font-family="sans-serif" font-size="11" lengthAdjust="spacingAndGlyphs" textLength="73" x="139.5" y="175.0151">GUID : string</text><ellipse cx="130.5" cy="184.6094" fill="none" rx="3" ry="3" style="stroke: #038048; stroke-width: 1.0;"/><text fill="#000000" font-family="sans-serif" font-size="11" lengthAdjust="spacingAndGlyphs" textLength="133" x="139.5" y="187.8198">EntyPoint : bool = false</text><ellipse cx="130.5" cy="197.4141" fill="none" rx="3" ry="3" style="stroke: #038048; stroke-width: 1.0;"/><text fill="#000000" font-family="sans-serif" font-size="11" lengthAdjust="spacingAndGlyphs" textLength="125" x="139.5" y="200.6245">SpeakerName : string</text><ellipse cx="130.5" cy="210.2188" fill="none" rx="3" ry="3" style="stroke: #038048; stroke-width: 1.0;"/><text fill="#000000" font-family="sans-serif" font-size="11" lengthAdjust="spacingAndGlyphs" textLength="172" x="139.5" y="213.4292">SpeakerNameLocation : string</text><ellipse cx="130.5" cy="223.0234" fill="none" rx="3" ry="3" style="stroke: #038048; stroke-width: 1.0;"/><text fill="#000000" font-family="sans-serif" font-size="11" lengthAdjust="spacingAndGlyphs" textLength="147" x="139.5" y="226.2339">SpeakerSpriteLeft : string</text><ellipse cx="130.5" cy="235.8281" fill="none" rx="3" ry="3" style="stroke: #038048; stroke-width: 1.0;"/><text fill="#000000" font-family="sans-serif" font-size="11" lengthAdjust="spacingAndGlyphs" textLength="154" x="139.5" y="239.0386">SpeakerSpriteRight : string</text><ellipse cx="130.5" cy="248.6328" fill="none" rx="3" ry="3" style="stroke: #038048; stroke-width: 1.0;"/><text fill="#000000" font-family="sans-serif" font-size="11" lengthAdjust="spacingAndGlyphs" textLength="175" x="139.5" y="251.8433">alreadyHadConversation : bool</text><line style="stroke: #A80036; stroke-width: 1.5;" x1="120.5" x2="363.5" y1="258.4375" y2="258.4375"/><ellipse cx="130.5" cy="269.4375" fill="#84BE84" rx="3" ry="3" style="stroke: #038048; stroke-width: 1.0;"/><text fill="#000000" font-family="sans-serif" font-size="11" lengthAdjust="spacingAndGlyphs" textLength="219" x="139.5" y="272.6479">DialogueNode(data:DialogueNodeData)</text><ellipse cx="130.5" cy="282.2422" fill="#84BE84" rx="3" ry="3" style="stroke: #038048; stroke-width: 1.0;"/><text fill="#000000" font-family="sans-serif" font-size="11" lengthAdjust="spacingAndGlyphs" textLength="86" x="139.5" y="285.4526">DialogueNode()</text><!--MD5=[e644022de7dea015dd09463c37421447]
class List`1--><rect fill="#FEFECE" filter="url(#f1q0r1e88zyhb)" height="48" id="List`1" style="stroke: #A80036; stroke-width: 1.5;" width="78" x="203" y="352"/><ellipse cx="218" cy="368" fill="#ADD1B2" rx="11" ry="11" style="stroke: #A80036; stroke-width: 1.0;"/><path d="M220.9688,373.6406 Q220.3906,373.9375 219.75,374.0781 Q219.1094,374.2344 218.4063,374.2344 Q215.9063,374.2344 214.5781,372.5938 Q213.2656,370.9375 213.2656,367.8125 Q213.2656,364.6875 214.5781,363.0313 Q215.9063,361.375 218.4063,361.375 Q219.1094,361.375 219.75,361.5313 Q220.4063,361.6875 220.9688,361.9844 L220.9688,364.7031 Q220.3438,364.125 219.75,363.8594 Q219.1563,363.5781 218.5313,363.5781 Q217.1875,363.5781 216.5,364.6563 Q215.8125,365.7188 215.8125,367.8125 Q215.8125,369.9063 216.5,370.9844 Q217.1875,372.0469 218.5313,372.0469 Q219.1563,372.0469 219.75,371.7813 Q220.3438,371.5 220.9688,370.9219 L220.9688,373.6406 Z "/><text fill="#000000" font-family="sans-serif" font-size="12" lengthAdjust="spacingAndGlyphs" textLength="35" x="232" y="372.1543">List`1</text><rect fill="#FFFFFF" height="15.9688" style="stroke: #000000; stroke-width: 1.0; stroke-dasharray: 2.0,2.0;" width="9" x="275" y="349"/><text fill="#000000" font-family="sans-serif" font-size="12" font-style="italic" lengthAdjust="spacingAndGlyphs" textLength="7" x="276" y="361.1387">T</text><line style="stroke: #A80036; stroke-width: 1.5;" x1="204" x2="280" y1="384" y2="384"/><line style="stroke: #A80036; stroke-width: 1.5;" x1="204" x2="280" y1="392" y2="392"/><!--MD5=[3fee75583bb7a64f68d843a3c9534ab3]
class Node--><rect fill="#FEFECE" filter="url(#f1q0r1e88zyhb)" height="48" id="Node" style="stroke: #A80036; stroke-width: 1.5;" width="65" x="209.5" y="8"/><ellipse cx="224.5" cy="24" fill="#ADD1B2" rx="11" ry="11" style="stroke: #A80036; stroke-width: 1.0;"/><path d="M227.4688,29.6406 Q226.8906,29.9375 226.25,30.0781 Q225.6094,30.2344 224.9063,30.2344 Q222.4063,30.2344 221.0781,28.5938 Q219.7656,26.9375 219.7656,23.8125 Q219.7656,20.6875 221.0781,19.0313 Q222.4063,17.375 224.9063,17.375 Q225.6094,17.375 226.25,17.5313 Q226.9063,17.6875 227.4688,17.9844 L227.4688,20.7031 Q226.8438,20.125 226.25,19.8594 Q225.6563,19.5781 225.0313,19.5781 Q223.6875,19.5781 223,20.6563 Q222.3125,21.7188 222.3125,23.8125 Q222.3125,25.9063 223,26.9844 Q223.6875,28.0469 225.0313,28.0469 Q225.6563,28.0469 226.25,27.7813 Q226.8438,27.5 227.4688,26.9219 L227.4688,29.6406 Z "/><text fill="#000000" font-family="sans-serif" font-size="12" lengthAdjust="spacingAndGlyphs" textLength="33" x="238.5" y="28.1543">Node</text><line style="stroke: #A80036; stroke-width: 1.5;" x1="210.5" x2="273.5" y1="40" y2="40"/><line style="stroke: #A80036; stroke-width: 1.5;" x1="210.5" x2="273.5" y1="48" y2="48"/><!--MD5=[51aec658e2aac59f606b6b8cda13c8f7]
reverse link Node to DialogueNode--><path d="M242,76.71 C242,88.77 242,102.3 242,115.9 " fill="none" id="Node&lt;-DialogueNode" style="stroke: #A80036; stroke-width: 1.0;"/><polygon fill="none" points="235,76.28,242,56.28,249,76.28,235,76.28" style="stroke: #A80036; stroke-width: 1.0;"/><!--MD5=[622704bb937f442faf2e07f21a665bae]
link DialogueNode to List`1--><path d="M242,292.49 C242,312.05 242,331.44 242,346.5 " fill="none" id="DialogueNode-&gt;List`1" style="stroke: #A80036; stroke-width: 1.0;"/><polygon fill="#A80036" points="242,351.85,246,342.85,242,346.85,238,342.85,242,351.85" style="stroke: #A80036; stroke-width: 1.0;"/><text fill="#000000" font-family="sans-serif" font-size="13" lengthAdjust="spacingAndGlyphs" textLength="221" x="-7.3156" y="340.8236">ItemPortCombis&lt;ItemPortCombi&gt;</text><!--MD5=[15324cc89b5e6a67124e9d090d662b3e]
@startuml
class DialogueNode {
    + DialogueText : string
    + GUID : string
    + EntyPoint : bool = false
    + SpeakerName : string
    + SpeakerNameLocation : string
    + SpeakerSpriteLeft : string
    + SpeakerSpriteRight : string
    + alreadyHadConversation : bool
    + DialogueNode(data:DialogueNodeData)
    + DialogueNode()
}
class "List`1"<T> {
}
Node <|- - DialogueNode
DialogueNode - -> "ItemPortCombis<ItemPortCombi>" "List`1"
@enduml

PlantUML version 1.2020.02(Sun Mar 01 10:22:07 GMT 2020)
(GPL source distribution)
Java Runtime: OpenJDK Runtime Environment
JVM: OpenJDK 64-Bit Server VM
Java Version: 11.0.9+11-Ubuntu-0ubuntu1
Operating System: Linux
Default Encoding: ANSI_X3.4-1968
Language: en
Country: US
--></g></svg>