<?xml version="1.0" encoding="UTF-8" standalone="no"?><svg xmlns="http://www.w3.org/2000/svg" xmlns:xlink="http://www.w3.org/1999/xlink" contentScriptType="application/ecmascript" contentStyleType="text/css" height="290px" preserveAspectRatio="none" style="width:262px;height:290px;" version="1.1" viewBox="0 0 262 290" width="262px" zoomAndPan="magnify"><defs><filter height="300%" id="f1xjfohw9rcj9w" width="300%" x="-1" y="-1"><feGaussianBlur result="blurOut" stdDeviation="2.0"/><feColorMatrix in="blurOut" result="blurOut2" type="matrix" values="0 0 0 0 0 0 0 0 0 0 0 0 0 0 0 0 0 0 .4 0"/><feOffset dx="4.0" dy="4.0" in="blurOut2" result="blurOut3"/><feBlend in="SourceGraphic" in2="blurOut3" mode="normal"/></filter></defs><g><!--MD5=[87bb97a8fe305f4037740b58c4d02a1d]
class DialogueNode--><rect fill="#FEFECE" filter="url(#f1xjfohw9rcj9w)" height="163.2422" id="DialogueNode" style="stroke: #A80036; stroke-width: 1.5;" width="245" x="6" y="116"/><ellipse cx="80.25" cy="132" fill="#ADD1B2" rx="11" ry="11" style="stroke: #A80036; stroke-width: 1.0;"/><path d="M83.2188,137.6406 Q82.6406,137.9375 82,138.0781 Q81.3594,138.2344 80.6563,138.2344 Q78.1563,138.2344 76.8281,136.5938 Q75.5156,134.9375 75.5156,131.8125 Q75.5156,128.6875 76.8281,127.0313 Q78.1563,125.375 80.6563,125.375 Q81.3594,125.375 82,125.5313 Q82.6563,125.6875 83.2188,125.9844 L83.2188,128.7031 Q82.5938,128.125 82,127.8594 Q81.4063,127.5781 80.7813,127.5781 Q79.4375,127.5781 78.75,128.6563 Q78.0625,129.7188 78.0625,131.8125 Q78.0625,133.9063 78.75,134.9844 Q79.4375,136.0469 80.7813,136.0469 Q81.4063,136.0469 82,135.7813 Q82.5938,135.5 83.2188,134.9219 L83.2188,137.6406 Z "/><text fill="#000000" font-family="sans-serif" font-size="12" lengthAdjust="spacingAndGlyphs" textLength="88" x="100.75" y="136.1543">DialogueNode</text><line style="stroke: #A80036; stroke-width: 1.5;" x1="7" x2="250" y1="148" y2="148"/><ellipse cx="17" cy="159" fill="none" rx="3" ry="3" style="stroke: #038048; stroke-width: 1.0;"/><text fill="#000000" font-family="sans-serif" font-size="11" lengthAdjust="spacingAndGlyphs" textLength="118" x="26" y="162.2104">DialogueText : string</text><ellipse cx="17" cy="171.8047" fill="none" rx="3" ry="3" style="stroke: #038048; stroke-width: 1.0;"/><text fill="#000000" font-family="sans-serif" font-size="11" lengthAdjust="spacingAndGlyphs" textLength="73" x="26" y="175.0151">GUID : string</text><ellipse cx="17" cy="184.6094" fill="none" rx="3" ry="3" style="stroke: #038048; stroke-width: 1.0;"/><text fill="#000000" font-family="sans-serif" font-size="11" lengthAdjust="spacingAndGlyphs" textLength="133" x="26" y="187.8198">EntyPoint : bool = false</text><ellipse cx="17" cy="197.4141" fill="none" rx="3" ry="3" style="stroke: #038048; stroke-width: 1.0;"/><text fill="#000000" font-family="sans-serif" font-size="11" lengthAdjust="spacingAndGlyphs" textLength="125" x="26" y="200.6245">SpeakerName : string</text><ellipse cx="17" cy="210.2188" fill="none" rx="3" ry="3" style="stroke: #038048; stroke-width: 1.0;"/><text fill="#000000" font-family="sans-serif" font-size="11" lengthAdjust="spacingAndGlyphs" textLength="147" x="26" y="213.4292">SpeakerSpriteLeft : string</text><ellipse cx="17" cy="223.0234" fill="none" rx="3" ry="3" style="stroke: #038048; stroke-width: 1.0;"/><text fill="#000000" font-family="sans-serif" font-size="11" lengthAdjust="spacingAndGlyphs" textLength="154" x="26" y="226.2339">SpeakerSpriteRight : string</text><ellipse cx="17" cy="235.8281" fill="none" rx="3" ry="3" style="stroke: #038048; stroke-width: 1.0;"/><text fill="#000000" font-family="sans-serif" font-size="11" lengthAdjust="spacingAndGlyphs" textLength="80" x="26" y="239.0386">ItemId : string</text><line style="stroke: #A80036; stroke-width: 1.5;" x1="7" x2="250" y1="245.6328" y2="245.6328"/><ellipse cx="17" cy="256.6328" fill="#84BE84" rx="3" ry="3" style="stroke: #038048; stroke-width: 1.0;"/><text fill="#000000" font-family="sans-serif" font-size="11" lengthAdjust="spacingAndGlyphs" textLength="219" x="26" y="259.8433">DialogueNode(data:DialogueNodeData)</text><ellipse cx="17" cy="269.4375" fill="#84BE84" rx="3" ry="3" style="stroke: #038048; stroke-width: 1.0;"/><text fill="#000000" font-family="sans-serif" font-size="11" lengthAdjust="spacingAndGlyphs" textLength="86" x="26" y="272.6479">DialogueNode()</text><!--MD5=[3fee75583bb7a64f68d843a3c9534ab3]
class Node--><rect fill="#FEFECE" filter="url(#f1xjfohw9rcj9w)" height="48" id="Node" style="stroke: #A80036; stroke-width: 1.5;" width="65" x="96" y="8"/><ellipse cx="111" cy="24" fill="#ADD1B2" rx="11" ry="11" style="stroke: #A80036; stroke-width: 1.0;"/><path d="M113.9688,29.6406 Q113.3906,29.9375 112.75,30.0781 Q112.1094,30.2344 111.4063,30.2344 Q108.9063,30.2344 107.5781,28.5938 Q106.2656,26.9375 106.2656,23.8125 Q106.2656,20.6875 107.5781,19.0313 Q108.9063,17.375 111.4063,17.375 Q112.1094,17.375 112.75,17.5313 Q113.4063,17.6875 113.9688,17.9844 L113.9688,20.7031 Q113.3438,20.125 112.75,19.8594 Q112.1563,19.5781 111.5313,19.5781 Q110.1875,19.5781 109.5,20.6563 Q108.8125,21.7188 108.8125,23.8125 Q108.8125,25.9063 109.5,26.9844 Q110.1875,28.0469 111.5313,28.0469 Q112.1563,28.0469 112.75,27.7813 Q113.3438,27.5 113.9688,26.9219 L113.9688,29.6406 Z "/><text fill="#000000" font-family="sans-serif" font-size="12" lengthAdjust="spacingAndGlyphs" textLength="33" x="125" y="28.1543">Node</text><line style="stroke: #A80036; stroke-width: 1.5;" x1="97" x2="160" y1="40" y2="40"/><line style="stroke: #A80036; stroke-width: 1.5;" x1="97" x2="160" y1="48" y2="48"/><!--MD5=[51aec658e2aac59f606b6b8cda13c8f7]
reverse link Node to DialogueNode--><path d="M128.5,76.19 C128.5,88.45 128.5,102.21 128.5,115.93 " fill="none" id="Node&lt;-DialogueNode" style="stroke: #A80036; stroke-width: 1.0;"/><polygon fill="none" points="121.5,76.08,128.5,56.08,135.5,76.08,121.5,76.08" style="stroke: #A80036; stroke-width: 1.0;"/><!--MD5=[7495e3f7c1fd3573fdc9144f37ceb24f]
@startuml
class DialogueNode {
    + DialogueText : string
    + GUID : string
    + EntyPoint : bool = false
    + SpeakerName : string
    + SpeakerSpriteLeft : string
    + SpeakerSpriteRight : string
    + ItemId : string
    + DialogueNode(data:DialogueNodeData)
    + DialogueNode()
}
Node <|- - DialogueNode
@enduml

PlantUML version 1.2020.02(Sun Mar 01 10:22:07 GMT 2020)
(GPL source distribution)
Java Runtime: OpenJDK Runtime Environment
JVM: OpenJDK 64-Bit Server VM
Java Version: 11.0.9+11-Ubuntu-0ubuntu1
Operating System: Linux
Default Encoding: ANSI_X3.4-1968
Language: en
Country: US
--></g></svg>