<?xml version="1.0" encoding="UTF-8" standalone="no"?><svg xmlns="http://www.w3.org/2000/svg" xmlns:xlink="http://www.w3.org/1999/xlink" contentScriptType="application/ecmascript" contentStyleType="text/css" height="411px" preserveAspectRatio="none" style="width:408px;height:411px;" version="1.1" viewBox="0 0 408 411" width="408px" zoomAndPan="magnify"><defs><filter height="300%" id="fah6oo5eywz7a" width="300%" x="-1" y="-1"><feGaussianBlur result="blurOut" stdDeviation="2.0"/><feColorMatrix in="blurOut" result="blurOut2" type="matrix" values="0 0 0 0 0 0 0 0 0 0 0 0 0 0 0 0 0 0 .4 0"/><feOffset dx="4.0" dy="4.0" in="blurOut2" result="blurOut3"/><feBlend in="SourceGraphic" in2="blurOut3" mode="normal"/></filter></defs><g><!--MD5=[87bb97a8fe305f4037740b58c4d02a1d]
class DialogueNode--><rect fill="#FEFECE" filter="url(#fah6oo5eywz7a)" height="176.0469" id="DialogueNode" style="stroke: #A80036; stroke-width: 1.5;" width="245" x="128.58" y="116"/><ellipse cx="202.83" cy="132" fill="#ADD1B2" rx="11" ry="11" style="stroke: #A80036; stroke-width: 1.0;"/><path d="M205.7987,137.6406 Q205.2206,137.9375 204.58,138.0781 Q203.9394,138.2344 203.2362,138.2344 Q200.7362,138.2344 199.4081,136.5938 Q198.0956,134.9375 198.0956,131.8125 Q198.0956,128.6875 199.4081,127.0313 Q200.7362,125.375 203.2362,125.375 Q203.9394,125.375 204.58,125.5313 Q205.2362,125.6875 205.7987,125.9844 L205.7987,128.7031 Q205.1737,128.125 204.58,127.8594 Q203.9862,127.5781 203.3612,127.5781 Q202.0175,127.5781 201.33,128.6563 Q200.6425,129.7188 200.6425,131.8125 Q200.6425,133.9063 201.33,134.9844 Q202.0175,136.0469 203.3612,136.0469 Q203.9862,136.0469 204.58,135.7813 Q205.1737,135.5 205.7987,134.9219 L205.7987,137.6406 Z "/><text fill="#000000" font-family="sans-serif" font-size="12" lengthAdjust="spacingAndGlyphs" textLength="88" x="223.33" y="136.1543">DialogueNode</text><line style="stroke: #A80036; stroke-width: 1.5;" x1="129.58" x2="372.58" y1="148" y2="148"/><ellipse cx="139.58" cy="159" fill="none" rx="3" ry="3" style="stroke: #038048; stroke-width: 1.0;"/><text fill="#000000" font-family="sans-serif" font-size="11" lengthAdjust="spacingAndGlyphs" textLength="118" x="148.58" y="162.2104">DialogueText : string</text><ellipse cx="139.58" cy="171.8047" fill="none" rx="3" ry="3" style="stroke: #038048; stroke-width: 1.0;"/><text fill="#000000" font-family="sans-serif" font-size="11" lengthAdjust="spacingAndGlyphs" textLength="73" x="148.58" y="175.0151">GUID : string</text><ellipse cx="139.58" cy="184.6094" fill="none" rx="3" ry="3" style="stroke: #038048; stroke-width: 1.0;"/><text fill="#000000" font-family="sans-serif" font-size="11" lengthAdjust="spacingAndGlyphs" textLength="133" x="148.58" y="187.8198">EntyPoint : bool = false</text><ellipse cx="139.58" cy="197.4141" fill="none" rx="3" ry="3" style="stroke: #038048; stroke-width: 1.0;"/><text fill="#000000" font-family="sans-serif" font-size="11" lengthAdjust="spacingAndGlyphs" textLength="125" x="148.58" y="200.6245">SpeakerName : string</text><ellipse cx="139.58" cy="210.2188" fill="none" rx="3" ry="3" style="stroke: #038048; stroke-width: 1.0;"/><text fill="#000000" font-family="sans-serif" font-size="11" lengthAdjust="spacingAndGlyphs" textLength="172" x="148.58" y="213.4292">SpeakerNameLocation : string</text><ellipse cx="139.58" cy="223.0234" fill="none" rx="3" ry="3" style="stroke: #038048; stroke-width: 1.0;"/><text fill="#000000" font-family="sans-serif" font-size="11" lengthAdjust="spacingAndGlyphs" textLength="147" x="148.58" y="226.2339">SpeakerSpriteLeft : string</text><ellipse cx="139.58" cy="235.8281" fill="none" rx="3" ry="3" style="stroke: #038048; stroke-width: 1.0;"/><text fill="#000000" font-family="sans-serif" font-size="11" lengthAdjust="spacingAndGlyphs" textLength="154" x="148.58" y="239.0386">SpeakerSpriteRight : string</text><ellipse cx="139.58" cy="248.6328" fill="none" rx="3" ry="3" style="stroke: #038048; stroke-width: 1.0;"/><text fill="#000000" font-family="sans-serif" font-size="11" lengthAdjust="spacingAndGlyphs" textLength="208" x="148.58" y="251.8433">CanSkipFromThisPoint : bool = false</text><line style="stroke: #A80036; stroke-width: 1.5;" x1="129.58" x2="372.58" y1="258.4375" y2="258.4375"/><ellipse cx="139.58" cy="269.4375" fill="#84BE84" rx="3" ry="3" style="stroke: #038048; stroke-width: 1.0;"/><text fill="#000000" font-family="sans-serif" font-size="11" lengthAdjust="spacingAndGlyphs" textLength="219" x="148.58" y="272.6479">DialogueNode(data:DialogueNodeData)</text><ellipse cx="139.58" cy="282.2422" fill="#84BE84" rx="3" ry="3" style="stroke: #038048; stroke-width: 1.0;"/><text fill="#000000" font-family="sans-serif" font-size="11" lengthAdjust="spacingAndGlyphs" textLength="86" x="148.58" y="285.4526">DialogueNode()</text><!--MD5=[e644022de7dea015dd09463c37421447]
class List`1--><rect fill="#FEFECE" filter="url(#fah6oo5eywz7a)" height="48" id="List`1" style="stroke: #A80036; stroke-width: 1.5;" width="78" x="212.08" y="352"/><ellipse cx="227.08" cy="368" fill="#ADD1B2" rx="11" ry="11" style="stroke: #A80036; stroke-width: 1.0;"/><path d="M230.0488,373.6406 Q229.4706,373.9375 228.83,374.0781 Q228.1894,374.2344 227.4863,374.2344 Q224.9863,374.2344 223.6581,372.5938 Q222.3456,370.9375 222.3456,367.8125 Q222.3456,364.6875 223.6581,363.0313 Q224.9863,361.375 227.4863,361.375 Q228.1894,361.375 228.83,361.5313 Q229.4863,361.6875 230.0488,361.9844 L230.0488,364.7031 Q229.4238,364.125 228.83,363.8594 Q228.2363,363.5781 227.6113,363.5781 Q226.2675,363.5781 225.58,364.6563 Q224.8925,365.7188 224.8925,367.8125 Q224.8925,369.9063 225.58,370.9844 Q226.2675,372.0469 227.6113,372.0469 Q228.2363,372.0469 228.83,371.7813 Q229.4238,371.5 230.0488,370.9219 L230.0488,373.6406 Z "/><text fill="#000000" font-family="sans-serif" font-size="12" lengthAdjust="spacingAndGlyphs" textLength="35" x="241.08" y="372.1543">List`1</text><rect fill="#FFFFFF" height="15.9688" style="stroke: #000000; stroke-width: 1.0; stroke-dasharray: 2.0,2.0;" width="9" x="284.08" y="349"/><text fill="#000000" font-family="sans-serif" font-size="12" font-style="italic" lengthAdjust="spacingAndGlyphs" textLength="7" x="285.08" y="361.1387">T</text><line style="stroke: #A80036; stroke-width: 1.5;" x1="213.08" x2="289.08" y1="384" y2="384"/><line style="stroke: #A80036; stroke-width: 1.5;" x1="213.08" x2="289.08" y1="392" y2="392"/><!--MD5=[3fee75583bb7a64f68d843a3c9534ab3]
class Node--><rect fill="#FEFECE" filter="url(#fah6oo5eywz7a)" height="48" id="Node" style="stroke: #A80036; stroke-width: 1.5;" width="65" x="218.58" y="8"/><ellipse cx="233.58" cy="24" fill="#ADD1B2" rx="11" ry="11" style="stroke: #A80036; stroke-width: 1.0;"/><path d="M236.5488,29.6406 Q235.9706,29.9375 235.33,30.0781 Q234.6894,30.2344 233.9863,30.2344 Q231.4863,30.2344 230.1581,28.5938 Q228.8456,26.9375 228.8456,23.8125 Q228.8456,20.6875 230.1581,19.0313 Q231.4863,17.375 233.9863,17.375 Q234.6894,17.375 235.33,17.5313 Q235.9863,17.6875 236.5488,17.9844 L236.5488,20.7031 Q235.9238,20.125 235.33,19.8594 Q234.7363,19.5781 234.1113,19.5781 Q232.7675,19.5781 232.08,20.6563 Q231.3925,21.7188 231.3925,23.8125 Q231.3925,25.9063 232.08,26.9844 Q232.7675,28.0469 234.1113,28.0469 Q234.7363,28.0469 235.33,27.7813 Q235.9238,27.5 236.5488,26.9219 L236.5488,29.6406 Z "/><text fill="#000000" font-family="sans-serif" font-size="12" lengthAdjust="spacingAndGlyphs" textLength="33" x="247.58" y="28.1543">Node</text><line style="stroke: #A80036; stroke-width: 1.5;" x1="219.58" x2="282.58" y1="40" y2="40"/><line style="stroke: #A80036; stroke-width: 1.5;" x1="219.58" x2="282.58" y1="48" y2="48"/><!--MD5=[51aec658e2aac59f606b6b8cda13c8f7]
reverse link Node to DialogueNode--><path d="M251.08,76.71 C251.08,88.77 251.08,102.3 251.08,115.9 " fill="none" id="Node&lt;-DialogueNode" style="stroke: #A80036; stroke-width: 1.0;"/><polygon fill="none" points="244.08,76.28,251.08,56.28,258.08,76.28,244.08,76.28" style="stroke: #A80036; stroke-width: 1.0;"/><!--MD5=[622704bb937f442faf2e07f21a665bae]
link DialogueNode to List`1--><path d="M238.33,292.49 C238.41,312.05 239.39,331.44 241.27,346.5 " fill="none" id="DialogueNode-&gt;List`1" style="stroke: #A80036; stroke-width: 1.0;"/><polygon fill="#A80036" points="242,351.85,244.7522,342.3935,241.327,346.8955,236.825,343.4703,242,351.85" style="stroke: #A80036; stroke-width: 1.0;"/><text fill="#000000" font-family="sans-serif" font-size="13" lengthAdjust="spacingAndGlyphs" textLength="221" x="-9.6424" y="340.8236">ItemPortCombis&lt;ItemPortCombi&gt;</text><!--MD5=[622704bb937f442faf2e07f21a665bae]
link DialogueNode to List`1--><path d="M264.57,292.49 C264.49,312.22 263.44,331.78 261.42,346.9 " fill="none" id="DialogueNode-&gt;List`1-1" style="stroke: #A80036; stroke-width: 1.0;"/><polygon fill="#A80036" points="260.69,351.85,265.9327,343.5125,261.4031,346.9011,258.0145,342.3715,260.69,351.85" style="stroke: #A80036; stroke-width: 1.0;"/><text fill="#000000" font-family="sans-serif" font-size="13" lengthAdjust="spacingAndGlyphs" textLength="118" x="278.2713" y="340.8236">SkipPorts&lt;string&gt;</text><!--MD5=[90844a3b0427ba500f9afcbd216c9ab3]
@startuml
class DialogueNode {
    + DialogueText : string
    + GUID : string
    + EntyPoint : bool = false
    + SpeakerName : string
    + SpeakerNameLocation : string
    + SpeakerSpriteLeft : string
    + SpeakerSpriteRight : string
    + CanSkipFromThisPoint : bool = false
    + DialogueNode(data:DialogueNodeData)
    + DialogueNode()
}
class "List`1"<T> {
}
Node <|- - DialogueNode
DialogueNode - -> "ItemPortCombis<ItemPortCombi>" "List`1"
DialogueNode - -> "SkipPorts<string>" "List`1"
@enduml

PlantUML version 1.2020.02(Sun Mar 01 10:22:07 GMT 2020)
(GPL source distribution)
Java Runtime: OpenJDK Runtime Environment
JVM: OpenJDK 64-Bit Server VM
Java Version: 11.0.9+11-Ubuntu-0ubuntu1
Operating System: Linux
Default Encoding: ANSI_X3.4-1968
Language: en
Country: US
--></g></svg>