<?xml version="1.0" encoding="UTF-8" standalone="no"?><svg xmlns="http://www.w3.org/2000/svg" xmlns:xlink="http://www.w3.org/1999/xlink" contentScriptType="application/ecmascript" contentStyleType="text/css" height="239px" preserveAspectRatio="none" style="width:405px;height:239px;" version="1.1" viewBox="0 0 405 239" width="405px" zoomAndPan="magnify"><defs><filter height="300%" id="f1v1yjfdxzi23e" width="300%" x="-1" y="-1"><feGaussianBlur result="blurOut" stdDeviation="2.0"/><feColorMatrix in="blurOut" result="blurOut2" type="matrix" values="0 0 0 0 0 0 0 0 0 0 0 0 0 0 0 0 0 0 .4 0"/><feOffset dx="4.0" dy="4.0" in="blurOut2" result="blurOut3"/><feBlend in="SourceGraphic" in2="blurOut3" mode="normal"/></filter></defs><g><!--MD5=[453fb8a6e80e6b6df41fe7e75c0355f2]
class ItemDataNamesRetriever--><rect fill="#FEFECE" filter="url(#f1v1yjfdxzi23e)" height="112.0234" id="ItemDataNamesRetriever" style="stroke: #A80036; stroke-width: 1.5;" width="388" x="6" y="8"/><ellipse cx="117.75" cy="24" fill="#ADD1B2" rx="11" ry="11" style="stroke: #A80036; stroke-width: 1.0;"/><path d="M120.7188,29.6406 Q120.1406,29.9375 119.5,30.0781 Q118.8594,30.2344 118.1563,30.2344 Q115.6563,30.2344 114.3281,28.5938 Q113.0156,26.9375 113.0156,23.8125 Q113.0156,20.6875 114.3281,19.0313 Q115.6563,17.375 118.1563,17.375 Q118.8594,17.375 119.5,17.5313 Q120.1563,17.6875 120.7188,17.9844 L120.7188,20.7031 Q120.0938,20.125 119.5,19.8594 Q118.9063,19.5781 118.2813,19.5781 Q116.9375,19.5781 116.25,20.6563 Q115.5625,21.7188 115.5625,23.8125 Q115.5625,25.9063 116.25,26.9844 Q116.9375,28.0469 118.2813,28.0469 Q118.9063,28.0469 119.5,27.7813 Q120.0938,27.5 120.7188,26.9219 L120.7188,29.6406 Z "/><text fill="#000000" font-family="sans-serif" font-size="12" lengthAdjust="spacingAndGlyphs" textLength="156" x="138.25" y="28.1543">ItemDataNamesRetriever</text><line style="stroke: #A80036; stroke-width: 1.5;" x1="7" x2="393" y1="40" y2="40"/><ellipse cx="17" cy="51" fill="none" rx="3" ry="3" style="stroke: #038048; stroke-width: 1.0;"/><text fill="#000000" font-family="sans-serif" font-size="11" lengthAdjust="spacingAndGlyphs" textLength="297" x="26" y="54.2104">ClueItems : string = "Resources/Clues/PickupClues"</text><line style="stroke: #A80036; stroke-width: 1.5;" x1="7" x2="393" y1="60.8047" y2="60.8047"/><ellipse cx="17" cy="71.8047" fill="#84BE84" rx="3" ry="3" style="stroke: #038048; stroke-width: 1.0;"/><text fill="#000000" font-family="sans-serif" font-size="11" lengthAdjust="spacingAndGlyphs" textLength="150" x="26" y="75.0151">ItemDataNamesRetriever()</text><ellipse cx="17" cy="84.6094" fill="#84BE84" rx="3" ry="3" style="stroke: #038048; stroke-width: 1.0;"/><text fill="#000000" font-family="sans-serif" font-size="11" lengthAdjust="spacingAndGlyphs" textLength="180" x="26" y="87.8198">RetrieveItemDataNames() : void</text><ellipse cx="17" cy="97.4141" fill="#84BE84" rx="3" ry="3" style="stroke: #038048; stroke-width: 1.0;"/><text fill="#000000" font-family="sans-serif" font-size="11" lengthAdjust="spacingAndGlyphs" textLength="362" x="26" y="100.6245">GetFieldValue(obj:System.Object, name:String) : System.Object</text><ellipse cx="17" cy="110.2188" fill="#84BE84" rx="3" ry="3" style="stroke: #038048; stroke-width: 1.0;"/><text fill="#000000" font-family="sans-serif" font-size="11" lengthAdjust="spacingAndGlyphs" textLength="239" x="26" y="113.4292">GetFieldValue(obj:Object, name:String) : T</text><!--MD5=[e644022de7dea015dd09463c37421447]
class List`1--><rect fill="#FEFECE" filter="url(#f1v1yjfdxzi23e)" height="48" id="List`1" style="stroke: #A80036; stroke-width: 1.5;" width="78" x="161" y="180"/><ellipse cx="176" cy="196" fill="#ADD1B2" rx="11" ry="11" style="stroke: #A80036; stroke-width: 1.0;"/><path d="M178.9688,201.6406 Q178.3906,201.9375 177.75,202.0781 Q177.1094,202.2344 176.4063,202.2344 Q173.9063,202.2344 172.5781,200.5938 Q171.2656,198.9375 171.2656,195.8125 Q171.2656,192.6875 172.5781,191.0313 Q173.9063,189.375 176.4063,189.375 Q177.1094,189.375 177.75,189.5313 Q178.4063,189.6875 178.9688,189.9844 L178.9688,192.7031 Q178.3438,192.125 177.75,191.8594 Q177.1563,191.5781 176.5313,191.5781 Q175.1875,191.5781 174.5,192.6563 Q173.8125,193.7188 173.8125,195.8125 Q173.8125,197.9063 174.5,198.9844 Q175.1875,200.0469 176.5313,200.0469 Q177.1563,200.0469 177.75,199.7813 Q178.3438,199.5 178.9688,198.9219 L178.9688,201.6406 Z "/><text fill="#000000" font-family="sans-serif" font-size="12" lengthAdjust="spacingAndGlyphs" textLength="35" x="190" y="200.1543">List`1</text><rect fill="#FFFFFF" height="15.9688" style="stroke: #000000; stroke-width: 1.0; stroke-dasharray: 2.0,2.0;" width="9" x="233" y="177"/><text fill="#000000" font-family="sans-serif" font-size="12" font-style="italic" lengthAdjust="spacingAndGlyphs" textLength="7" x="234" y="189.1387">T</text><line style="stroke: #A80036; stroke-width: 1.5;" x1="162" x2="238" y1="212" y2="212"/><line style="stroke: #A80036; stroke-width: 1.5;" x1="162" x2="238" y1="220" y2="220"/><!--MD5=[448a00942ad2e60f44c2bf3031746c9c]
link ItemDataNamesRetriever to List`1--><path d="M200,120.33 C200,138.93 200,158.9 200,174.56 " fill="none" id="ItemDataNamesRetriever-&gt;List`1" style="stroke: #A80036; stroke-width: 1.0;"/><polygon fill="#A80036" points="200,179.69,204,170.69,200,174.69,196,170.69,200,179.69" style="stroke: #A80036; stroke-width: 1.0;"/><text fill="#000000" font-family="sans-serif" font-size="13" lengthAdjust="spacingAndGlyphs" textLength="133" x="50.7906" y="169.0194">itemNames&lt;string&gt;</text><!--MD5=[38ee95af20ff5de7c5e78399e1f9b1af]
@startuml
class ItemDataNamesRetriever {
    + ClueItems : string = "Resources/Clues/PickupClues"
    + ItemDataNamesRetriever()
    + RetrieveItemDataNames() : void
    + GetFieldValue(obj:System.Object, name:String) : System.Object
    + GetFieldValue(obj:Object, name:String) : T
}
class "List`1"<T> {
}
ItemDataNamesRetriever - -> "itemNames<string>" "List`1"
@enduml

PlantUML version 1.2020.02(Sun Mar 01 10:22:07 GMT 2020)
(GPL source distribution)
Java Runtime: OpenJDK Runtime Environment
JVM: OpenJDK 64-Bit Server VM
Java Version: 11.0.9+11-Ubuntu-0ubuntu1
Operating System: Linux
Default Encoding: ANSI_X3.4-1968
Language: en
Country: US
--></g></svg>