<?xml version="1.0" encoding="UTF-8" standalone="no"?><svg xmlns="http://www.w3.org/2000/svg" xmlns:xlink="http://www.w3.org/1999/xlink" contentScriptType="application/ecmascript" contentStyleType="text/css" height="213px" preserveAspectRatio="none" style="width:539px;height:213px;" version="1.1" viewBox="0 0 539 213" width="539px" zoomAndPan="magnify"><defs><filter height="300%" id="fxqmq2wottz6k" width="300%" x="-1" y="-1"><feGaussianBlur result="blurOut" stdDeviation="2.0"/><feColorMatrix in="blurOut" result="blurOut2" type="matrix" values="0 0 0 0 0 0 0 0 0 0 0 0 0 0 0 0 0 0 .4 0"/><feOffset dx="4.0" dy="4.0" in="blurOut2" result="blurOut3"/><feBlend in="SourceGraphic" in2="blurOut3" mode="normal"/></filter></defs><g><!--MD5=[152c904994b16d199f506f3d106ad533]
class NodeSearchWindow--><rect fill="#FEFECE" filter="url(#fxqmq2wottz6k)" height="86.4141" id="NodeSearchWindow" style="stroke: #A80036; stroke-width: 1.5;" width="522" x="6" y="116"/><ellipse cx="200.75" cy="132" fill="#ADD1B2" rx="11" ry="11" style="stroke: #A80036; stroke-width: 1.0;"/><path d="M203.7188,137.6406 Q203.1406,137.9375 202.5,138.0781 Q201.8594,138.2344 201.1563,138.2344 Q198.6563,138.2344 197.3281,136.5938 Q196.0156,134.9375 196.0156,131.8125 Q196.0156,128.6875 197.3281,127.0313 Q198.6563,125.375 201.1563,125.375 Q201.8594,125.375 202.5,125.5313 Q203.1563,125.6875 203.7188,125.9844 L203.7188,128.7031 Q203.0938,128.125 202.5,127.8594 Q201.9063,127.5781 201.2813,127.5781 Q199.9375,127.5781 199.25,128.6563 Q198.5625,129.7188 198.5625,131.8125 Q198.5625,133.9063 199.25,134.9844 Q199.9375,136.0469 201.2813,136.0469 Q201.9063,136.0469 202.5,135.7813 Q203.0938,135.5 203.7188,134.9219 L203.7188,137.6406 Z "/><text fill="#000000" font-family="sans-serif" font-size="12" lengthAdjust="spacingAndGlyphs" textLength="124" x="221.25" y="136.1543">NodeSearchWindow</text><line style="stroke: #A80036; stroke-width: 1.5;" x1="7" x2="527" y1="148" y2="148"/><line style="stroke: #A80036; stroke-width: 1.5;" x1="7" x2="527" y1="156" y2="156"/><ellipse cx="17" cy="167" fill="#84BE84" rx="3" ry="3" style="stroke: #038048; stroke-width: 1.0;"/><text fill="#000000" font-family="sans-serif" font-size="11" lengthAdjust="spacingAndGlyphs" textLength="381" x="26" y="170.2104">Configure(window:EditorWindow, graphView:StoryGraphView) : void</text><ellipse cx="17" cy="179.8047" fill="#84BE84" rx="3" ry="3" style="stroke: #038048; stroke-width: 1.0;"/><text fill="#000000" font-family="sans-serif" font-size="11" lengthAdjust="spacingAndGlyphs" textLength="427" x="26" y="183.0151">CreateSearchTree(context:SearchWindowContext) : List&lt;SearchTreeEntry&gt;</text><ellipse cx="17" cy="192.6094" fill="#84BE84" rx="3" ry="3" style="stroke: #038048; stroke-width: 1.0;"/><text fill="#000000" font-family="sans-serif" font-size="11" lengthAdjust="spacingAndGlyphs" textLength="496" x="26" y="195.8198">OnSelectEntry(SearchTreeEntry:SearchTreeEntry, context:SearchWindowContext) : bool</text><!--MD5=[44895057fba17b10f3053a7baa21df04]
class ScriptableObject--><rect fill="#FEFECE" filter="url(#fxqmq2wottz6k)" height="48" id="ScriptableObject" style="stroke: #A80036; stroke-width: 1.5;" width="135" x="104.5" y="8"/><ellipse cx="119.5" cy="24" fill="#ADD1B2" rx="11" ry="11" style="stroke: #A80036; stroke-width: 1.0;"/><path d="M122.4688,29.6406 Q121.8906,29.9375 121.25,30.0781 Q120.6094,30.2344 119.9063,30.2344 Q117.4063,30.2344 116.0781,28.5938 Q114.7656,26.9375 114.7656,23.8125 Q114.7656,20.6875 116.0781,19.0313 Q117.4063,17.375 119.9063,17.375 Q120.6094,17.375 121.25,17.5313 Q121.9063,17.6875 122.4688,17.9844 L122.4688,20.7031 Q121.8438,20.125 121.25,19.8594 Q120.6563,19.5781 120.0313,19.5781 Q118.6875,19.5781 118,20.6563 Q117.3125,21.7188 117.3125,23.8125 Q117.3125,25.9063 118,26.9844 Q118.6875,28.0469 120.0313,28.0469 Q120.6563,28.0469 121.25,27.7813 Q121.8438,27.5 122.4688,26.9219 L122.4688,29.6406 Z "/><text fill="#000000" font-family="sans-serif" font-size="12" lengthAdjust="spacingAndGlyphs" textLength="103" x="133.5" y="28.1543">ScriptableObject</text><line style="stroke: #A80036; stroke-width: 1.5;" x1="105.5" x2="238.5" y1="40" y2="40"/><line style="stroke: #A80036; stroke-width: 1.5;" x1="105.5" x2="238.5" y1="48" y2="48"/><!--MD5=[06b989b58e635062df67a667c72fcf4d]
class ISearchWindowProvider--><rect fill="#FEFECE" filter="url(#fxqmq2wottz6k)" height="48" id="ISearchWindowProvider" style="stroke: #A80036; stroke-width: 1.5;" width="177" x="274.5" y="8"/><ellipse cx="289.5" cy="24" fill="#ADD1B2" rx="11" ry="11" style="stroke: #A80036; stroke-width: 1.0;"/><path d="M292.4688,29.6406 Q291.8906,29.9375 291.25,30.0781 Q290.6094,30.2344 289.9063,30.2344 Q287.4063,30.2344 286.0781,28.5938 Q284.7656,26.9375 284.7656,23.8125 Q284.7656,20.6875 286.0781,19.0313 Q287.4063,17.375 289.9063,17.375 Q290.6094,17.375 291.25,17.5313 Q291.9063,17.6875 292.4688,17.9844 L292.4688,20.7031 Q291.8438,20.125 291.25,19.8594 Q290.6563,19.5781 290.0313,19.5781 Q288.6875,19.5781 288,20.6563 Q287.3125,21.7188 287.3125,23.8125 Q287.3125,25.9063 288,26.9844 Q288.6875,28.0469 290.0313,28.0469 Q290.6563,28.0469 291.25,27.7813 Q291.8438,27.5 292.4688,26.9219 L292.4688,29.6406 Z "/><text fill="#000000" font-family="sans-serif" font-size="12" lengthAdjust="spacingAndGlyphs" textLength="145" x="303.5" y="28.1543">ISearchWindowProvider</text><line style="stroke: #A80036; stroke-width: 1.5;" x1="275.5" x2="450.5" y1="40" y2="40"/><line style="stroke: #A80036; stroke-width: 1.5;" x1="275.5" x2="450.5" y1="48" y2="48"/><!--MD5=[be3fbdd167d2914cc54febc6f627760c]
reverse link ScriptableObject to NodeSearchWindow--><path d="M202.05,72.54 C212.56,86.36 224.38,101.92 235.03,115.94 " fill="none" id="ScriptableObject&lt;-NodeSearchWindow" style="stroke: #A80036; stroke-width: 1.0;"/><polygon fill="none" points="196.17,76.38,189.65,56.22,207.32,67.91,196.17,76.38" style="stroke: #A80036; stroke-width: 1.0;"/><!--MD5=[5445e494dbff69767197e134397eacba]
reverse link ISearchWindowProvider to NodeSearchWindow--><path d="M332.98,72.09 C322.28,86.02 310.19,101.76 299.31,115.94 " fill="none" id="ISearchWindowProvider&lt;-NodeSearchWindow" style="stroke: #A80036; stroke-width: 1.0;"/><polygon fill="none" points="327.43,67.82,345.17,56.22,338.54,76.34,327.43,67.82" style="stroke: #A80036; stroke-width: 1.0;"/><!--MD5=[21900dc0b49270a895aabcf12a024350]
@startuml
class NodeSearchWindow {
    + Configure(window:EditorWindow, graphView:StoryGraphView) : void
    + CreateSearchTree(context:SearchWindowContext) : List<SearchTreeEntry>
    + OnSelectEntry(SearchTreeEntry:SearchTreeEntry, context:SearchWindowContext) : bool
}
ScriptableObject <|- - NodeSearchWindow
ISearchWindowProvider <|- - NodeSearchWindow
@enduml

PlantUML version 1.2020.02(Sun Mar 01 10:22:07 GMT 2020)
(GPL source distribution)
Java Runtime: OpenJDK Runtime Environment
JVM: OpenJDK 64-Bit Server VM
Java Version: 11.0.9+11-Ubuntu-0ubuntu1
Operating System: Linux
Default Encoding: ANSI_X3.4-1968
Language: en
Country: US
--></g></svg>