<?xml version="1.0" encoding="UTF-8" standalone="no"?><svg xmlns="http://www.w3.org/2000/svg" xmlns:xlink="http://www.w3.org/1999/xlink" contentScriptType="application/ecmascript" contentStyleType="text/css" height="385px" preserveAspectRatio="none" style="width:1168px;height:385px;" version="1.1" viewBox="0 0 1168 385" width="1168px" zoomAndPan="magnify"><defs><filter height="300%" id="f9rgdlvt039v6" width="300%" x="-1" y="-1"><feGaussianBlur result="blurOut" stdDeviation="2.0"/><feColorMatrix in="blurOut" result="blurOut2" type="matrix" values="0 0 0 0 0 0 0 0 0 0 0 0 0 0 0 0 0 0 .4 0"/><feOffset dx="4.0" dy="4.0" in="blurOut2" result="blurOut3"/><feBlend in="SourceGraphic" in2="blurOut3" mode="normal"/></filter></defs><g><!--MD5=[3d73f87b9c9274e7c4fcf3089fa7bdf1]
class StoryGraphView--><rect fill="#FEFECE" filter="url(#f9rgdlvt039v6)" height="150.4375" id="StoryGraphView" style="stroke: #A80036; stroke-width: 1.5;" width="644" x="6" y="116"/><ellipse cx="274.75" cy="132" fill="#ADD1B2" rx="11" ry="11" style="stroke: #A80036; stroke-width: 1.0;"/><path d="M277.7188,137.6406 Q277.1406,137.9375 276.5,138.0781 Q275.8594,138.2344 275.1563,138.2344 Q272.6563,138.2344 271.3281,136.5938 Q270.0156,134.9375 270.0156,131.8125 Q270.0156,128.6875 271.3281,127.0313 Q272.6563,125.375 275.1563,125.375 Q275.8594,125.375 276.5,125.5313 Q277.1563,125.6875 277.7188,125.9844 L277.7188,128.7031 Q277.0938,128.125 276.5,127.8594 Q275.9063,127.5781 275.2813,127.5781 Q273.9375,127.5781 273.25,128.6563 Q272.5625,129.7188 272.5625,131.8125 Q272.5625,133.9063 273.25,134.9844 Q273.9375,136.0469 275.2813,136.0469 Q275.9063,136.0469 276.5,135.7813 Q277.0938,135.5 277.7188,134.9219 L277.7188,137.6406 Z "/><text fill="#000000" font-family="sans-serif" font-size="12" lengthAdjust="spacingAndGlyphs" textLength="98" x="295.25" y="136.1543">StoryGraphView</text><line style="stroke: #A80036; stroke-width: 1.5;" x1="7" x2="649" y1="148" y2="148"/><line style="stroke: #A80036; stroke-width: 1.5;" x1="7" x2="649" y1="156" y2="156"/><ellipse cx="17" cy="167" fill="#84BE84" rx="3" ry="3" style="stroke: #038048; stroke-width: 1.0;"/><text fill="#000000" font-family="sans-serif" font-size="11" lengthAdjust="spacingAndGlyphs" textLength="243" x="26" y="170.2104">StoryGraphView(editorWindow:StoryGraph)</text><ellipse cx="17" cy="179.8047" fill="#84BE84" rx="3" ry="3" style="stroke: #038048; stroke-width: 1.0;"/><text fill="#000000" font-family="sans-serif" font-size="11" lengthAdjust="spacingAndGlyphs" textLength="265" x="26" y="183.0151">ClearBlackBoardAndExposedProperties() : void</text><ellipse cx="17" cy="192.6094" fill="#84BE84" rx="3" ry="3" style="stroke: #038048; stroke-width: 1.0;"/><text fill="#000000" font-family="sans-serif" font-size="11" lengthAdjust="spacingAndGlyphs" textLength="460" x="26" y="195.8198">CreateCommentBlock(rect:Rect, commentBlockData:CommentBlockData) : Group</text><ellipse cx="17" cy="205.4141" fill="#84BE84" rx="3" ry="3" style="stroke: #038048; stroke-width: 1.0;"/><text fill="#000000" font-family="sans-serif" font-size="11" lengthAdjust="spacingAndGlyphs" textLength="428" x="26" y="208.6245">AddPropertyToBlackBoard(property:ExposedProperty, loadMode:bool) : void</text><ellipse cx="17" cy="218.2188" fill="#84BE84" rx="3" ry="3" style="stroke: #038048; stroke-width: 1.0;"/><text fill="#000000" font-family="sans-serif" font-size="11" lengthAdjust="spacingAndGlyphs" textLength="494" x="26" y="221.4292">«override» GetCompatiblePorts(startPort:Port, nodeAdapter:NodeAdapter) : List&lt;Port&gt;</text><ellipse cx="17" cy="231.0234" fill="#84BE84" rx="3" ry="3" style="stroke: #038048; stroke-width: 1.0;"/><text fill="#000000" font-family="sans-serif" font-size="11" lengthAdjust="spacingAndGlyphs" textLength="381" x="26" y="234.2339">CreateNewDialogueNode(nodeName:string, position:Vector2) : void</text><ellipse cx="17" cy="243.8281" fill="#84BE84" rx="3" ry="3" style="stroke: #038048; stroke-width: 1.0;"/><text fill="#000000" font-family="sans-serif" font-size="11" lengthAdjust="spacingAndGlyphs" textLength="611" x="26" y="247.0386">CreateNode(dialogueNodeData:DialogueNodeData, position:Vector2, useDefaultValues:bool) : DialogueNode</text><ellipse cx="17" cy="256.6328" fill="#84BE84" rx="3" ry="3" style="stroke: #038048; stroke-width: 1.0;"/><text fill="#000000" font-family="sans-serif" font-size="11" lengthAdjust="spacingAndGlyphs" textLength="618" x="26" y="259.8433">AddChoicePort(nodeCache:DialogueNode, overriddenPortName:string, OverridenItemIdRequired:string) : void</text><!--MD5=[e644022de7dea015dd09463c37421447]
class List`1--><rect fill="#FEFECE" filter="url(#f9rgdlvt039v6)" height="48" id="List`1" style="stroke: #A80036; stroke-width: 1.5;" width="78" x="685" y="167"/><ellipse cx="700" cy="183" fill="#ADD1B2" rx="11" ry="11" style="stroke: #A80036; stroke-width: 1.0;"/><path d="M702.9688,188.6406 Q702.3906,188.9375 701.75,189.0781 Q701.1094,189.2344 700.4063,189.2344 Q697.9063,189.2344 696.5781,187.5938 Q695.2656,185.9375 695.2656,182.8125 Q695.2656,179.6875 696.5781,178.0313 Q697.9063,176.375 700.4063,176.375 Q701.1094,176.375 701.75,176.5313 Q702.4063,176.6875 702.9688,176.9844 L702.9688,179.7031 Q702.3438,179.125 701.75,178.8594 Q701.1563,178.5781 700.5313,178.5781 Q699.1875,178.5781 698.5,179.6563 Q697.8125,180.7188 697.8125,182.8125 Q697.8125,184.9063 698.5,185.9844 Q699.1875,187.0469 700.5313,187.0469 Q701.1563,187.0469 701.75,186.7813 Q702.3438,186.5 702.9688,185.9219 L702.9688,188.6406 Z "/><text fill="#000000" font-family="sans-serif" font-size="12" lengthAdjust="spacingAndGlyphs" textLength="35" x="714" y="187.1543">List`1</text><rect fill="#FFFFFF" height="15.9688" style="stroke: #000000; stroke-width: 1.0; stroke-dasharray: 2.0,2.0;" width="9" x="757" y="164"/><text fill="#000000" font-family="sans-serif" font-size="12" font-style="italic" lengthAdjust="spacingAndGlyphs" textLength="7" x="758" y="176.1387">T</text><line style="stroke: #A80036; stroke-width: 1.5;" x1="686" x2="762" y1="199" y2="199"/><line style="stroke: #A80036; stroke-width: 1.5;" x1="686" x2="762" y1="207" y2="207"/><!--MD5=[618f7d2cd540d91fc43ac61f6f750c09]
class GraphView--><rect fill="#FEFECE" filter="url(#f9rgdlvt039v6)" height="48" id="GraphView" style="stroke: #A80036; stroke-width: 1.5;" width="98" x="279" y="8"/><ellipse cx="294" cy="24" fill="#ADD1B2" rx="11" ry="11" style="stroke: #A80036; stroke-width: 1.0;"/><path d="M296.9688,29.6406 Q296.3906,29.9375 295.75,30.0781 Q295.1094,30.2344 294.4063,30.2344 Q291.9063,30.2344 290.5781,28.5938 Q289.2656,26.9375 289.2656,23.8125 Q289.2656,20.6875 290.5781,19.0313 Q291.9063,17.375 294.4063,17.375 Q295.1094,17.375 295.75,17.5313 Q296.4063,17.6875 296.9688,17.9844 L296.9688,20.7031 Q296.3438,20.125 295.75,19.8594 Q295.1563,19.5781 294.5313,19.5781 Q293.1875,19.5781 292.5,20.6563 Q291.8125,21.7188 291.8125,23.8125 Q291.8125,25.9063 292.5,26.9844 Q293.1875,28.0469 294.5313,28.0469 Q295.1563,28.0469 295.75,27.7813 Q296.3438,27.5 296.9688,26.9219 L296.9688,29.6406 Z "/><text fill="#000000" font-family="sans-serif" font-size="12" lengthAdjust="spacingAndGlyphs" textLength="66" x="308" y="28.1543">GraphView</text><line style="stroke: #A80036; stroke-width: 1.5;" x1="280" x2="376" y1="40" y2="40"/><line style="stroke: #A80036; stroke-width: 1.5;" x1="280" x2="376" y1="48" y2="48"/><!--MD5=[3f551f1273bbfa514d2f681c1c48b5c1]
class Vector2--><rect fill="#FEFECE" filter="url(#f9rgdlvt039v6)" height="48" id="Vector2" style="stroke: #A80036; stroke-width: 1.5;" width="81" x="935.5" y="167"/><ellipse cx="950.5" cy="183" fill="#ADD1B2" rx="11" ry="11" style="stroke: #A80036; stroke-width: 1.0;"/><path d="M953.4688,188.6406 Q952.8906,188.9375 952.25,189.0781 Q951.6094,189.2344 950.9063,189.2344 Q948.4063,189.2344 947.0781,187.5938 Q945.7656,185.9375 945.7656,182.8125 Q945.7656,179.6875 947.0781,178.0313 Q948.4063,176.375 950.9063,176.375 Q951.6094,176.375 952.25,176.5313 Q952.9063,176.6875 953.4688,176.9844 L953.4688,179.7031 Q952.8438,179.125 952.25,178.8594 Q951.6563,178.5781 951.0313,178.5781 Q949.6875,178.5781 949,179.6563 Q948.3125,180.7188 948.3125,182.8125 Q948.3125,184.9063 949,185.9844 Q949.6875,187.0469 951.0313,187.0469 Q951.6563,187.0469 952.25,186.7813 Q952.8438,186.5 953.4688,185.9219 L953.4688,188.6406 Z "/><text fill="#000000" font-family="sans-serif" font-size="12" lengthAdjust="spacingAndGlyphs" textLength="49" x="964.5" y="187.1543">Vector2</text><line style="stroke: #A80036; stroke-width: 1.5;" x1="936.5" x2="1015.5" y1="199" y2="199"/><line style="stroke: #A80036; stroke-width: 1.5;" x1="936.5" x2="1015.5" y1="207" y2="207"/><!--MD5=[87bb97a8fe305f4037740b58c4d02a1d]
class DialogueNode--><rect fill="#FEFECE" filter="url(#f9rgdlvt039v6)" height="48" id="DialogueNode" style="stroke: #A80036; stroke-width: 1.5;" width="120" x="268" y="326"/><ellipse cx="283" cy="342" fill="#ADD1B2" rx="11" ry="11" style="stroke: #A80036; stroke-width: 1.0;"/><path d="M285.9688,347.6406 Q285.3906,347.9375 284.75,348.0781 Q284.1094,348.2344 283.4063,348.2344 Q280.9063,348.2344 279.5781,346.5938 Q278.2656,344.9375 278.2656,341.8125 Q278.2656,338.6875 279.5781,337.0313 Q280.9063,335.375 283.4063,335.375 Q284.1094,335.375 284.75,335.5313 Q285.4063,335.6875 285.9688,335.9844 L285.9688,338.7031 Q285.3438,338.125 284.75,337.8594 Q284.1563,337.5781 283.5313,337.5781 Q282.1875,337.5781 281.5,338.6563 Q280.8125,339.7188 280.8125,341.8125 Q280.8125,343.9063 281.5,344.9844 Q282.1875,346.0469 283.5313,346.0469 Q284.1563,346.0469 284.75,345.7813 Q285.3438,345.5 285.9688,344.9219 L285.9688,347.6406 Z "/><text fill="#000000" font-family="sans-serif" font-size="12" lengthAdjust="spacingAndGlyphs" textLength="88" x="297" y="346.1543">DialogueNode</text><line style="stroke: #A80036; stroke-width: 1.5;" x1="269" x2="387" y1="358" y2="358"/><line style="stroke: #A80036; stroke-width: 1.5;" x1="269" x2="387" y1="366" y2="366"/><!--MD5=[485e504ead8655105acf294cbc41580a]
class Blackboard--><rect fill="#FEFECE" filter="url(#f9rgdlvt039v6)" height="48" id="Blackboard" style="stroke: #A80036; stroke-width: 1.5;" width="102" x="798" y="167"/><ellipse cx="813" cy="183" fill="#ADD1B2" rx="11" ry="11" style="stroke: #A80036; stroke-width: 1.0;"/><path d="M815.9688,188.6406 Q815.3906,188.9375 814.75,189.0781 Q814.1094,189.2344 813.4063,189.2344 Q810.9063,189.2344 809.5781,187.5938 Q808.2656,185.9375 808.2656,182.8125 Q808.2656,179.6875 809.5781,178.0313 Q810.9063,176.375 813.4063,176.375 Q814.1094,176.375 814.75,176.5313 Q815.4063,176.6875 815.9688,176.9844 L815.9688,179.7031 Q815.3438,179.125 814.75,178.8594 Q814.1563,178.5781 813.5313,178.5781 Q812.1875,178.5781 811.5,179.6563 Q810.8125,180.7188 810.8125,182.8125 Q810.8125,184.9063 811.5,185.9844 Q812.1875,187.0469 813.5313,187.0469 Q814.1563,187.0469 814.75,186.7813 Q815.3438,186.5 815.9688,185.9219 L815.9688,188.6406 Z "/><text fill="#000000" font-family="sans-serif" font-size="12" lengthAdjust="spacingAndGlyphs" textLength="70" x="827" y="187.1543">Blackboard</text><line style="stroke: #A80036; stroke-width: 1.5;" x1="799" x2="899" y1="199" y2="199"/><line style="stroke: #A80036; stroke-width: 1.5;" x1="799" x2="899" y1="207" y2="207"/><!--MD5=[20be1b251c886975d36a2790be4cb1fb]
reverse link GraphView to StoryGraphView--><path d="M328,76.38 C328,88.67 328,102.4 328,115.96 " fill="none" id="GraphView&lt;-StoryGraphView" style="stroke: #A80036; stroke-width: 1.0;"/><polygon fill="none" points="321,76.17,328,56.17,335,76.17,321,76.17" style="stroke: #A80036; stroke-width: 1.0;"/><!--MD5=[37b56b00440bf74b55b87174d3a9beaa]
link StoryGraphView to Vector2--><path d="M584.9182,113.2857 C584.9182,113.2857 649.09,100.06 679.67,96 C729.6,89.37 861.4,73.23 906.33,96 C930.7,108.35 948.6,133.66 960.15,155.05 " fill="none" id="StoryGraphView-Vector2" style="stroke: #A80036; stroke-width: 1.0;"/><polygon fill="#A80036" points="966.07,166.75,965.5841,156.9131,963.8164,162.2867,958.4428,160.519,966.07,166.75" style="stroke: #A80036; stroke-width: 1.0;"/><line style="stroke: #A80036; stroke-width: 1.0;" x1="963.8164" x2="960.2" y1="162.2867" y2="155.15"/><polygon fill="#FFFFFF" points="573.22,115.96,579.9605,118.5223,584.9182,113.2857,578.1777,110.7235,573.22,115.96" style="stroke: #A80036; stroke-width: 1.0;"/><text fill="#000000" font-family="sans-serif" font-size="13" lengthAdjust="spacingAndGlyphs" textLength="107" x="843.8344" y="155.9093">DefaultNodeSize</text><!--MD5=[37b56b00440bf74b55b87174d3a9beaa]
link StoryGraphView to Vector2--><path d="M538.6333,112.3615 C538.6333,112.3615 641.41,83.71 691.33,76 C735.99,69.1 854.54,55.23 894.67,76 C926.35,92.4 948.34,127.46 961.39,154.58 " fill="none" id="StoryGraphView-Vector2-1" style="stroke: #A80036; stroke-width: 1.0;"/><polygon fill="#A80036" points="966.92,166.76,966.8453,156.9114,964.8547,162.2065,959.5597,160.2159,966.92,166.76" style="stroke: #A80036; stroke-width: 1.0;"/><line style="stroke: #A80036; stroke-width: 1.0;" x1="964.8547" x2="961.545" y1="162.2065" y2="154.93"/><polygon fill="#FFFFFF" points="527.17,115.91,534.0845,117.9569,538.6333,112.3615,531.7188,110.3146,527.17,115.91" style="stroke: #A80036; stroke-width: 1.0;"/><text fill="#000000" font-family="sans-serif" font-size="13" lengthAdjust="spacingAndGlyphs" textLength="171" x="985.5474" y="156.1065">DefaultCommentBlockSize</text><!--MD5=[2c2bdd7313b0c905ab127af4ddedcd1f]
link StoryGraphView to DialogueNode--><path d="M328,266.36 C328,285.73 328,305.44 328,320.74 " fill="none" id="StoryGraphView-&gt;DialogueNode" style="stroke: #A80036; stroke-width: 1.0;"/><polygon fill="#A80036" points="328,325.76,332,316.76,328,320.76,324,316.76,328,325.76" style="stroke: #A80036; stroke-width: 1.0;"/><text fill="#000000" font-family="sans-serif" font-size="13" lengthAdjust="spacingAndGlyphs" textLength="99" x="216.9344" y="315.1065">EntryPointNode</text><!--MD5=[2166e20599725bf5ccc1d8acfece1824]
link StoryGraphView to Blackboard--><path d="M467.9712,110.9774 C467.9712,110.9774 670.32,41.71 763.5,86 C793.61,100.31 816.59,130.98 831.11,155.5 " fill="none" id="StoryGraphView-Blackboard" style="stroke: #A80036; stroke-width: 1.0;"/><polygon fill="#A80036" points="837.55,166.94,836.6245,157.1347,835.099,162.582,829.6517,161.0564,837.55,166.94" style="stroke: #A80036; stroke-width: 1.0;"/><line style="stroke: #A80036; stroke-width: 1.0;" x1="835.099" x2="831.175" y1="162.582" y2="155.61"/><polygon fill="#FFFFFF" points="457.05,115.95,464.1681,117.1041,467.9712,110.9774,460.8531,109.8233,457.05,115.95" style="stroke: #A80036; stroke-width: 1.0;"/><text fill="#000000" font-family="sans-serif" font-size="13" lengthAdjust="spacingAndGlyphs" textLength="71" x="762.9726" y="155.8356">Blackboard</text><!--MD5=[789b9058a0f456d71c50483516922856]
link StoryGraphView to List`1--><path d="M662.14,191 C662.14,191 668.96,191 671.74,191 " fill="none" id="StoryGraphView-List`1" style="stroke: #A80036; stroke-width: 1.0;"/><polygon fill="#A80036" points="684.76,191,675.76,187,679.76,191,675.76,195,684.76,191" style="stroke: #A80036; stroke-width: 1.0;"/><line style="stroke: #A80036; stroke-width: 1.0;" x1="679.76" x2="671.76" y1="191" y2="191"/><polygon fill="#FFFFFF" points="650.14,191,656.14,195,662.14,191,656.14,187,650.14,191" style="stroke: #A80036; stroke-width: 1.0;"/><text fill="#000000" font-family="sans-serif" font-size="13" lengthAdjust="spacingAndGlyphs" textLength="249" x="669.5155" y="156.0075">ExposedProperties&lt;ExposedProperty&gt;</text><!--MD5=[6d858396f32c37e65831d0f2b707c1b2]
@startuml
class StoryGraphView {
    + StoryGraphView(editorWindow:StoryGraph)
    + ClearBlackBoardAndExposedProperties() : void
    + CreateCommentBlock(rect:Rect, commentBlockData:CommentBlockData) : Group
    + AddPropertyToBlackBoard(property:ExposedProperty, loadMode:bool) : void
    + <<override>> GetCompatiblePorts(startPort:Port, nodeAdapter:NodeAdapter) : List<Port>
    + CreateNewDialogueNode(nodeName:string, position:Vector2) : void
    + CreateNode(dialogueNodeData:DialogueNodeData, position:Vector2, useDefaultValues:bool) : DialogueNode
    + AddChoicePort(nodeCache:DialogueNode, overriddenPortName:string, OverridenItemIdRequired:string) : void
}
class "List`1"<T> {
}
GraphView <|- - StoryGraphView
StoryGraphView o-> "DefaultNodeSize" Vector2
StoryGraphView o-> "DefaultCommentBlockSize" Vector2
StoryGraphView - -> "EntryPointNode" DialogueNode
StoryGraphView o-> "Blackboard" Blackboard
StoryGraphView o-> "ExposedProperties<ExposedProperty>" "List`1"
@enduml

PlantUML version 1.2020.02(Sun Mar 01 10:22:07 GMT 2020)
(GPL source distribution)
Java Runtime: OpenJDK Runtime Environment
JVM: OpenJDK 64-Bit Server VM
Java Version: 11.0.9+11-Ubuntu-0ubuntu1
Operating System: Linux
Default Encoding: ANSI_X3.4-1968
Language: en
Country: US
--></g></svg>