<?xml version="1.0" encoding="UTF-8" standalone="no"?><svg xmlns="http://www.w3.org/2000/svg" xmlns:xlink="http://www.w3.org/1999/xlink" contentScriptType="application/ecmascript" contentStyleType="text/css" height="385px" preserveAspectRatio="none" style="width:1241px;height:385px;" version="1.1" viewBox="0 0 1241 385" width="1241px" zoomAndPan="magnify"><defs><filter height="300%" id="fa6zqvasqa52p" width="300%" x="-1" y="-1"><feGaussianBlur result="blurOut" stdDeviation="2.0"/><feColorMatrix in="blurOut" result="blurOut2" type="matrix" values="0 0 0 0 0 0 0 0 0 0 0 0 0 0 0 0 0 0 .4 0"/><feOffset dx="4.0" dy="4.0" in="blurOut2" result="blurOut3"/><feBlend in="SourceGraphic" in2="blurOut3" mode="normal"/></filter></defs><g><!--MD5=[3d73f87b9c9274e7c4fcf3089fa7bdf1]
class StoryGraphView--><rect fill="#FEFECE" filter="url(#fa6zqvasqa52p)" height="150.4375" id="StoryGraphView" style="stroke: #A80036; stroke-width: 1.5;" width="717" x="6" y="116"/><ellipse cx="311.25" cy="132" fill="#ADD1B2" rx="11" ry="11" style="stroke: #A80036; stroke-width: 1.0;"/><path d="M314.2188,137.6406 Q313.6406,137.9375 313,138.0781 Q312.3594,138.2344 311.6563,138.2344 Q309.1563,138.2344 307.8281,136.5938 Q306.5156,134.9375 306.5156,131.8125 Q306.5156,128.6875 307.8281,127.0313 Q309.1563,125.375 311.6563,125.375 Q312.3594,125.375 313,125.5313 Q313.6563,125.6875 314.2188,125.9844 L314.2188,128.7031 Q313.5938,128.125 313,127.8594 Q312.4063,127.5781 311.7813,127.5781 Q310.4375,127.5781 309.75,128.6563 Q309.0625,129.7188 309.0625,131.8125 Q309.0625,133.9063 309.75,134.9844 Q310.4375,136.0469 311.7813,136.0469 Q312.4063,136.0469 313,135.7813 Q313.5938,135.5 314.2188,134.9219 L314.2188,137.6406 Z "/><text fill="#000000" font-family="sans-serif" font-size="12" lengthAdjust="spacingAndGlyphs" textLength="98" x="331.75" y="136.1543">StoryGraphView</text><line style="stroke: #A80036; stroke-width: 1.5;" x1="7" x2="722" y1="148" y2="148"/><line style="stroke: #A80036; stroke-width: 1.5;" x1="7" x2="722" y1="156" y2="156"/><ellipse cx="17" cy="167" fill="#84BE84" rx="3" ry="3" style="stroke: #038048; stroke-width: 1.0;"/><text fill="#000000" font-family="sans-serif" font-size="11" lengthAdjust="spacingAndGlyphs" textLength="243" x="26" y="170.2104">StoryGraphView(editorWindow:StoryGraph)</text><ellipse cx="17" cy="179.8047" fill="#84BE84" rx="3" ry="3" style="stroke: #038048; stroke-width: 1.0;"/><text fill="#000000" font-family="sans-serif" font-size="11" lengthAdjust="spacingAndGlyphs" textLength="265" x="26" y="183.0151">ClearBlackBoardAndExposedProperties() : void</text><ellipse cx="17" cy="192.6094" fill="#84BE84" rx="3" ry="3" style="stroke: #038048; stroke-width: 1.0;"/><text fill="#000000" font-family="sans-serif" font-size="11" lengthAdjust="spacingAndGlyphs" textLength="460" x="26" y="195.8198">CreateCommentBlock(rect:Rect, commentBlockData:CommentBlockData) : Group</text><ellipse cx="17" cy="205.4141" fill="#84BE84" rx="3" ry="3" style="stroke: #038048; stroke-width: 1.0;"/><text fill="#000000" font-family="sans-serif" font-size="11" lengthAdjust="spacingAndGlyphs" textLength="428" x="26" y="208.6245">AddPropertyToBlackBoard(property:ExposedProperty, loadMode:bool) : void</text><ellipse cx="17" cy="218.2188" fill="#84BE84" rx="3" ry="3" style="stroke: #038048; stroke-width: 1.0;"/><text fill="#000000" font-family="sans-serif" font-size="11" lengthAdjust="spacingAndGlyphs" textLength="494" x="26" y="221.4292">«override» GetCompatiblePorts(startPort:Port, nodeAdapter:NodeAdapter) : List&lt;Port&gt;</text><ellipse cx="17" cy="231.0234" fill="#84BE84" rx="3" ry="3" style="stroke: #038048; stroke-width: 1.0;"/><text fill="#000000" font-family="sans-serif" font-size="11" lengthAdjust="spacingAndGlyphs" textLength="381" x="26" y="234.2339">CreateNewDialogueNode(nodeName:string, position:Vector2) : void</text><ellipse cx="17" cy="243.8281" fill="#84BE84" rx="3" ry="3" style="stroke: #038048; stroke-width: 1.0;"/><text fill="#000000" font-family="sans-serif" font-size="11" lengthAdjust="spacingAndGlyphs" textLength="611" x="26" y="247.0386">CreateNode(dialogueNodeData:DialogueNodeData, position:Vector2, useDefaultValues:bool) : DialogueNode</text><ellipse cx="17" cy="256.6328" fill="#84BE84" rx="3" ry="3" style="stroke: #038048; stroke-width: 1.0;"/><text fill="#000000" font-family="sans-serif" font-size="11" lengthAdjust="spacingAndGlyphs" textLength="691" x="26" y="259.8433">CreateChoicePort(nodeCache:DialogueNode, typeChoice:string, useDefaultValues:bool, overriddenPortName:string) : void</text><!--MD5=[e644022de7dea015dd09463c37421447]
class List`1--><rect fill="#FEFECE" filter="url(#fa6zqvasqa52p)" height="48" id="List`1" style="stroke: #A80036; stroke-width: 1.5;" width="78" x="757.5" y="167"/><ellipse cx="772.5" cy="183" fill="#ADD1B2" rx="11" ry="11" style="stroke: #A80036; stroke-width: 1.0;"/><path d="M775.4688,188.6406 Q774.8906,188.9375 774.25,189.0781 Q773.6094,189.2344 772.9063,189.2344 Q770.4063,189.2344 769.0781,187.5938 Q767.7656,185.9375 767.7656,182.8125 Q767.7656,179.6875 769.0781,178.0313 Q770.4063,176.375 772.9063,176.375 Q773.6094,176.375 774.25,176.5313 Q774.9063,176.6875 775.4688,176.9844 L775.4688,179.7031 Q774.8438,179.125 774.25,178.8594 Q773.6563,178.5781 773.0313,178.5781 Q771.6875,178.5781 771,179.6563 Q770.3125,180.7188 770.3125,182.8125 Q770.3125,184.9063 771,185.9844 Q771.6875,187.0469 773.0313,187.0469 Q773.6563,187.0469 774.25,186.7813 Q774.8438,186.5 775.4688,185.9219 L775.4688,188.6406 Z "/><text fill="#000000" font-family="sans-serif" font-size="12" lengthAdjust="spacingAndGlyphs" textLength="35" x="786.5" y="187.1543">List`1</text><rect fill="#FFFFFF" height="15.9688" style="stroke: #000000; stroke-width: 1.0; stroke-dasharray: 2.0,2.0;" width="9" x="829.5" y="164"/><text fill="#000000" font-family="sans-serif" font-size="12" font-style="italic" lengthAdjust="spacingAndGlyphs" textLength="7" x="830.5" y="176.1387">T</text><line style="stroke: #A80036; stroke-width: 1.5;" x1="758.5" x2="834.5" y1="199" y2="199"/><line style="stroke: #A80036; stroke-width: 1.5;" x1="758.5" x2="834.5" y1="207" y2="207"/><!--MD5=[618f7d2cd540d91fc43ac61f6f750c09]
class GraphView--><rect fill="#FEFECE" filter="url(#fa6zqvasqa52p)" height="48" id="GraphView" style="stroke: #A80036; stroke-width: 1.5;" width="98" x="315.5" y="8"/><ellipse cx="330.5" cy="24" fill="#ADD1B2" rx="11" ry="11" style="stroke: #A80036; stroke-width: 1.0;"/><path d="M333.4688,29.6406 Q332.8906,29.9375 332.25,30.0781 Q331.6094,30.2344 330.9063,30.2344 Q328.4063,30.2344 327.0781,28.5938 Q325.7656,26.9375 325.7656,23.8125 Q325.7656,20.6875 327.0781,19.0313 Q328.4063,17.375 330.9063,17.375 Q331.6094,17.375 332.25,17.5313 Q332.9063,17.6875 333.4688,17.9844 L333.4688,20.7031 Q332.8438,20.125 332.25,19.8594 Q331.6563,19.5781 331.0313,19.5781 Q329.6875,19.5781 329,20.6563 Q328.3125,21.7188 328.3125,23.8125 Q328.3125,25.9063 329,26.9844 Q329.6875,28.0469 331.0313,28.0469 Q331.6563,28.0469 332.25,27.7813 Q332.8438,27.5 333.4688,26.9219 L333.4688,29.6406 Z "/><text fill="#000000" font-family="sans-serif" font-size="12" lengthAdjust="spacingAndGlyphs" textLength="66" x="344.5" y="28.1543">GraphView</text><line style="stroke: #A80036; stroke-width: 1.5;" x1="316.5" x2="412.5" y1="40" y2="40"/><line style="stroke: #A80036; stroke-width: 1.5;" x1="316.5" x2="412.5" y1="48" y2="48"/><!--MD5=[3f551f1273bbfa514d2f681c1c48b5c1]
class Vector2--><rect fill="#FEFECE" filter="url(#fa6zqvasqa52p)" height="48" id="Vector2" style="stroke: #A80036; stroke-width: 1.5;" width="81" x="1008" y="167"/><ellipse cx="1023" cy="183" fill="#ADD1B2" rx="11" ry="11" style="stroke: #A80036; stroke-width: 1.0;"/><path d="M1025.9688,188.6406 Q1025.3906,188.9375 1024.75,189.0781 Q1024.1094,189.2344 1023.4063,189.2344 Q1020.9063,189.2344 1019.5781,187.5938 Q1018.2656,185.9375 1018.2656,182.8125 Q1018.2656,179.6875 1019.5781,178.0313 Q1020.9063,176.375 1023.4063,176.375 Q1024.1094,176.375 1024.75,176.5313 Q1025.4063,176.6875 1025.9688,176.9844 L1025.9688,179.7031 Q1025.3438,179.125 1024.75,178.8594 Q1024.1563,178.5781 1023.5313,178.5781 Q1022.1875,178.5781 1021.5,179.6563 Q1020.8125,180.7188 1020.8125,182.8125 Q1020.8125,184.9063 1021.5,185.9844 Q1022.1875,187.0469 1023.5313,187.0469 Q1024.1563,187.0469 1024.75,186.7813 Q1025.3438,186.5 1025.9688,185.9219 L1025.9688,188.6406 Z "/><text fill="#000000" font-family="sans-serif" font-size="12" lengthAdjust="spacingAndGlyphs" textLength="49" x="1037" y="187.1543">Vector2</text><line style="stroke: #A80036; stroke-width: 1.5;" x1="1009" x2="1088" y1="199" y2="199"/><line style="stroke: #A80036; stroke-width: 1.5;" x1="1009" x2="1088" y1="207" y2="207"/><!--MD5=[87bb97a8fe305f4037740b58c4d02a1d]
class DialogueNode--><rect fill="#FEFECE" filter="url(#fa6zqvasqa52p)" height="48" id="DialogueNode" style="stroke: #A80036; stroke-width: 1.5;" width="120" x="304.5" y="326"/><ellipse cx="319.5" cy="342" fill="#ADD1B2" rx="11" ry="11" style="stroke: #A80036; stroke-width: 1.0;"/><path d="M322.4688,347.6406 Q321.8906,347.9375 321.25,348.0781 Q320.6094,348.2344 319.9063,348.2344 Q317.4063,348.2344 316.0781,346.5938 Q314.7656,344.9375 314.7656,341.8125 Q314.7656,338.6875 316.0781,337.0313 Q317.4063,335.375 319.9063,335.375 Q320.6094,335.375 321.25,335.5313 Q321.9063,335.6875 322.4688,335.9844 L322.4688,338.7031 Q321.8438,338.125 321.25,337.8594 Q320.6563,337.5781 320.0313,337.5781 Q318.6875,337.5781 318,338.6563 Q317.3125,339.7188 317.3125,341.8125 Q317.3125,343.9063 318,344.9844 Q318.6875,346.0469 320.0313,346.0469 Q320.6563,346.0469 321.25,345.7813 Q321.8438,345.5 322.4688,344.9219 L322.4688,347.6406 Z "/><text fill="#000000" font-family="sans-serif" font-size="12" lengthAdjust="spacingAndGlyphs" textLength="88" x="333.5" y="346.1543">DialogueNode</text><line style="stroke: #A80036; stroke-width: 1.5;" x1="305.5" x2="423.5" y1="358" y2="358"/><line style="stroke: #A80036; stroke-width: 1.5;" x1="305.5" x2="423.5" y1="366" y2="366"/><!--MD5=[485e504ead8655105acf294cbc41580a]
class Blackboard--><rect fill="#FEFECE" filter="url(#fa6zqvasqa52p)" height="48" id="Blackboard" style="stroke: #A80036; stroke-width: 1.5;" width="102" x="870.5" y="167"/><ellipse cx="885.5" cy="183" fill="#ADD1B2" rx="11" ry="11" style="stroke: #A80036; stroke-width: 1.0;"/><path d="M888.4688,188.6406 Q887.8906,188.9375 887.25,189.0781 Q886.6094,189.2344 885.9063,189.2344 Q883.4063,189.2344 882.0781,187.5938 Q880.7656,185.9375 880.7656,182.8125 Q880.7656,179.6875 882.0781,178.0313 Q883.4063,176.375 885.9063,176.375 Q886.6094,176.375 887.25,176.5313 Q887.9063,176.6875 888.4688,176.9844 L888.4688,179.7031 Q887.8438,179.125 887.25,178.8594 Q886.6563,178.5781 886.0313,178.5781 Q884.6875,178.5781 884,179.6563 Q883.3125,180.7188 883.3125,182.8125 Q883.3125,184.9063 884,185.9844 Q884.6875,187.0469 886.0313,187.0469 Q886.6563,187.0469 887.25,186.7813 Q887.8438,186.5 888.4688,185.9219 L888.4688,188.6406 Z "/><text fill="#000000" font-family="sans-serif" font-size="12" lengthAdjust="spacingAndGlyphs" textLength="70" x="899.5" y="187.1543">Blackboard</text><line style="stroke: #A80036; stroke-width: 1.5;" x1="871.5" x2="971.5" y1="199" y2="199"/><line style="stroke: #A80036; stroke-width: 1.5;" x1="871.5" x2="971.5" y1="207" y2="207"/><!--MD5=[20be1b251c886975d36a2790be4cb1fb]
reverse link GraphView to StoryGraphView--><path d="M364.5,76.38 C364.5,88.67 364.5,102.4 364.5,115.96 " fill="none" id="GraphView&lt;-StoryGraphView" style="stroke: #A80036; stroke-width: 1.0;"/><polygon fill="none" points="357.5,76.17,364.5,56.17,371.5,76.17,357.5,76.17" style="stroke: #A80036; stroke-width: 1.0;"/><!--MD5=[37b56b00440bf74b55b87174d3a9beaa]
link StoryGraphView to Vector2--><path d="M655.4841,113.4115 C655.4841,113.4115 921.83,67.11 978.83,96 C1003.2,108.35 1021.1,133.66 1032.65,155.05 " fill="none" id="StoryGraphView-Vector2" style="stroke: #A80036; stroke-width: 1.0;"/><polygon fill="#A80036" points="1038.57,166.75,1038.0841,156.9131,1036.3164,162.2867,1030.9428,160.519,1038.57,166.75" style="stroke: #A80036; stroke-width: 1.0;"/><line style="stroke: #A80036; stroke-width: 1.0;" x1="1036.3164" x2="1032.7" y1="162.2867" y2="155.15"/><polygon fill="#FFFFFF" points="643.76,115.97,650.4749,118.5988,655.4841,113.4115,648.7692,110.7827,643.76,115.97" style="stroke: #A80036; stroke-width: 1.0;"/><text fill="#000000" font-family="sans-serif" font-size="13" lengthAdjust="spacingAndGlyphs" textLength="107" x="916.3344" y="155.9093">DefaultNodeSize</text><!--MD5=[37b56b00440bf74b55b87174d3a9beaa]
link StoryGraphView to Vector2--><path d="M595.1797,112.7134 C595.1797,112.7134 708.74,83.77 763.83,76 C808.58,69.69 927.04,55.23 967.17,76 C998.85,92.4 1020.84,127.46 1033.89,154.58 " fill="none" id="StoryGraphView-Vector2-1" style="stroke: #A80036; stroke-width: 1.0;"/><polygon fill="#A80036" points="1039.42,166.76,1039.3453,156.9114,1037.3547,162.2065,1032.0597,160.2159,1039.42,166.76" style="stroke: #A80036; stroke-width: 1.0;"/><line style="stroke: #A80036; stroke-width: 1.0;" x1="1037.3547" x2="1034.045" y1="162.2065" y2="154.93"/><polygon fill="#FFFFFF" points="583.63,115.97,590.4904,118.1916,595.1797,112.7134,588.3193,110.4918,583.63,115.97" style="stroke: #A80036; stroke-width: 1.0;"/><text fill="#000000" font-family="sans-serif" font-size="13" lengthAdjust="spacingAndGlyphs" textLength="171" x="1058.0474" y="156.1065">DefaultCommentBlockSize</text><!--MD5=[2c2bdd7313b0c905ab127af4ddedcd1f]
link StoryGraphView to DialogueNode--><path d="M364.5,266.36 C364.5,285.73 364.5,305.44 364.5,320.74 " fill="none" id="StoryGraphView-&gt;DialogueNode" style="stroke: #A80036; stroke-width: 1.0;"/><polygon fill="#A80036" points="364.5,325.76,368.5,316.76,364.5,320.76,360.5,316.76,364.5,325.76" style="stroke: #A80036; stroke-width: 1.0;"/><text fill="#000000" font-family="sans-serif" font-size="13" lengthAdjust="spacingAndGlyphs" textLength="99" x="253.4344" y="315.1065">EntryPointNode</text><!--MD5=[2166e20599725bf5ccc1d8acfece1824]
link StoryGraphView to Blackboard--><path d="M510.2784,111.1477 C510.2784,111.1477 733.4,37.23 836,86 C866.11,100.31 889.09,130.98 903.61,155.5 " fill="none" id="StoryGraphView-Blackboard" style="stroke: #A80036; stroke-width: 1.0;"/><polygon fill="#A80036" points="910.05,166.94,909.1245,157.1347,907.599,162.582,902.1517,161.0564,910.05,166.94" style="stroke: #A80036; stroke-width: 1.0;"/><line style="stroke: #A80036; stroke-width: 1.0;" x1="907.599" x2="903.675" y1="162.582" y2="155.61"/><polygon fill="#FFFFFF" points="499.29,115.97,506.3916,117.2217,510.2784,111.1477,503.1768,109.8961,499.29,115.97" style="stroke: #A80036; stroke-width: 1.0;"/><text fill="#000000" font-family="sans-serif" font-size="13" lengthAdjust="spacingAndGlyphs" textLength="71" x="835.4726" y="155.8356">Blackboard</text><!--MD5=[789b9058a0f456d71c50483516922856]
link StoryGraphView to List`1--><path d="M735.09,191 C735.09,191 741.42,191 744.05,191 " fill="none" id="StoryGraphView-List`1" style="stroke: #A80036; stroke-width: 1.0;"/><polygon fill="#A80036" points="757.22,191,748.22,187,752.22,191,748.22,195,757.22,191" style="stroke: #A80036; stroke-width: 1.0;"/><line style="stroke: #A80036; stroke-width: 1.0;" x1="752.22" x2="744.22" y1="191" y2="191"/><polygon fill="#FFFFFF" points="723.09,191,729.09,195,735.09,191,729.09,187,723.09,191" style="stroke: #A80036; stroke-width: 1.0;"/><text fill="#000000" font-family="sans-serif" font-size="13" lengthAdjust="spacingAndGlyphs" textLength="249" x="741.803" y="156.0075">ExposedProperties&lt;ExposedProperty&gt;</text><!--MD5=[250e239c39e144bb41c3e2bda2ee157d]
@startuml
class StoryGraphView {
    + StoryGraphView(editorWindow:StoryGraph)
    + ClearBlackBoardAndExposedProperties() : void
    + CreateCommentBlock(rect:Rect, commentBlockData:CommentBlockData) : Group
    + AddPropertyToBlackBoard(property:ExposedProperty, loadMode:bool) : void
    + <<override>> GetCompatiblePorts(startPort:Port, nodeAdapter:NodeAdapter) : List<Port>
    + CreateNewDialogueNode(nodeName:string, position:Vector2) : void
    + CreateNode(dialogueNodeData:DialogueNodeData, position:Vector2, useDefaultValues:bool) : DialogueNode
    + CreateChoicePort(nodeCache:DialogueNode, typeChoice:string, useDefaultValues:bool, overriddenPortName:string) : void
}
class "List`1"<T> {
}
GraphView <|- - StoryGraphView
StoryGraphView o-> "DefaultNodeSize" Vector2
StoryGraphView o-> "DefaultCommentBlockSize" Vector2
StoryGraphView - -> "EntryPointNode" DialogueNode
StoryGraphView o-> "Blackboard" Blackboard
StoryGraphView o-> "ExposedProperties<ExposedProperty>" "List`1"
@enduml

PlantUML version 1.2020.02(Sun Mar 01 10:22:07 GMT 2020)
(GPL source distribution)
Java Runtime: OpenJDK Runtime Environment
JVM: OpenJDK 64-Bit Server VM
Java Version: 11.0.9+11-Ubuntu-0ubuntu1
Operating System: Linux
Default Encoding: ANSI_X3.4-1968
Language: en
Country: US
--></g></svg>