<?xml version="1.0" encoding="UTF-8" standalone="no"?><svg xmlns="http://www.w3.org/2000/svg" xmlns:xlink="http://www.w3.org/1999/xlink" contentScriptType="application/ecmascript" contentStyleType="text/css" height="398px" preserveAspectRatio="none" style="width:1164px;height:398px;" version="1.1" viewBox="0 0 1164 398" width="1164px" zoomAndPan="magnify"><defs><filter height="300%" id="f1lewnn6fl43qm" width="300%" x="-1" y="-1"><feGaussianBlur result="blurOut" stdDeviation="2.0"/><feColorMatrix in="blurOut" result="blurOut2" type="matrix" values="0 0 0 0 0 0 0 0 0 0 0 0 0 0 0 0 0 0 .4 0"/><feOffset dx="4.0" dy="4.0" in="blurOut2" result="blurOut3"/><feBlend in="SourceGraphic" in2="blurOut3" mode="normal"/></filter></defs><g><!--MD5=[3d73f87b9c9274e7c4fcf3089fa7bdf1]
class StoryGraphView--><rect fill="#FEFECE" filter="url(#f1lewnn6fl43qm)" height="163.2422" id="StoryGraphView" style="stroke: #A80036; stroke-width: 1.5;" width="637" x="6" y="116"/><ellipse cx="271.25" cy="132" fill="#ADD1B2" rx="11" ry="11" style="stroke: #A80036; stroke-width: 1.0;"/><path d="M274.2188,137.6406 Q273.6406,137.9375 273,138.0781 Q272.3594,138.2344 271.6563,138.2344 Q269.1563,138.2344 267.8281,136.5938 Q266.5156,134.9375 266.5156,131.8125 Q266.5156,128.6875 267.8281,127.0313 Q269.1563,125.375 271.6563,125.375 Q272.3594,125.375 273,125.5313 Q273.6563,125.6875 274.2188,125.9844 L274.2188,128.7031 Q273.5938,128.125 273,127.8594 Q272.4063,127.5781 271.7813,127.5781 Q270.4375,127.5781 269.75,128.6563 Q269.0625,129.7188 269.0625,131.8125 Q269.0625,133.9063 269.75,134.9844 Q270.4375,136.0469 271.7813,136.0469 Q272.4063,136.0469 273,135.7813 Q273.5938,135.5 274.2188,134.9219 L274.2188,137.6406 Z "/><text fill="#000000" font-family="sans-serif" font-size="12" lengthAdjust="spacingAndGlyphs" textLength="98" x="291.75" y="136.1543">StoryGraphView</text><line style="stroke: #A80036; stroke-width: 1.5;" x1="7" x2="642" y1="148" y2="148"/><line style="stroke: #A80036; stroke-width: 1.5;" x1="7" x2="642" y1="156" y2="156"/><ellipse cx="17" cy="167" fill="#84BE84" rx="3" ry="3" style="stroke: #038048; stroke-width: 1.0;"/><text fill="#000000" font-family="sans-serif" font-size="11" lengthAdjust="spacingAndGlyphs" textLength="243" x="26" y="170.2104">StoryGraphView(editorWindow:StoryGraph)</text><ellipse cx="17" cy="179.8047" fill="#84BE84" rx="3" ry="3" style="stroke: #038048; stroke-width: 1.0;"/><text fill="#000000" font-family="sans-serif" font-size="11" lengthAdjust="spacingAndGlyphs" textLength="265" x="26" y="183.0151">ClearBlackBoardAndExposedProperties() : void</text><ellipse cx="17" cy="192.6094" fill="#84BE84" rx="3" ry="3" style="stroke: #038048; stroke-width: 1.0;"/><text fill="#000000" font-family="sans-serif" font-size="11" lengthAdjust="spacingAndGlyphs" textLength="460" x="26" y="195.8198">CreateCommentBlock(rect:Rect, commentBlockData:CommentBlockData) : Group</text><ellipse cx="17" cy="205.4141" fill="#84BE84" rx="3" ry="3" style="stroke: #038048; stroke-width: 1.0;"/><text fill="#000000" font-family="sans-serif" font-size="11" lengthAdjust="spacingAndGlyphs" textLength="428" x="26" y="208.6245">AddPropertyToBlackBoard(property:ExposedProperty, loadMode:bool) : void</text><ellipse cx="17" cy="218.2188" fill="#84BE84" rx="3" ry="3" style="stroke: #038048; stroke-width: 1.0;"/><text fill="#000000" font-family="sans-serif" font-size="11" lengthAdjust="spacingAndGlyphs" textLength="494" x="26" y="221.4292">«override» GetCompatiblePorts(startPort:Port, nodeAdapter:NodeAdapter) : List&lt;Port&gt;</text><ellipse cx="17" cy="231.0234" fill="#84BE84" rx="3" ry="3" style="stroke: #038048; stroke-width: 1.0;"/><text fill="#000000" font-family="sans-serif" font-size="11" lengthAdjust="spacingAndGlyphs" textLength="381" x="26" y="234.2339">CreateNewDialogueNode(nodeName:string, position:Vector2) : void</text><ellipse cx="17" cy="243.8281" fill="#84BE84" rx="3" ry="3" style="stroke: #038048; stroke-width: 1.0;"/><text fill="#000000" font-family="sans-serif" font-size="11" lengthAdjust="spacingAndGlyphs" textLength="611" x="26" y="247.0386">CreateNode(dialogueNodeData:DialogueNodeData, position:Vector2, useDefaultValues:bool) : DialogueNode</text><ellipse cx="17" cy="256.6328" fill="#84BE84" rx="3" ry="3" style="stroke: #038048; stroke-width: 1.0;"/><text fill="#000000" font-family="sans-serif" font-size="11" lengthAdjust="spacingAndGlyphs" textLength="432" x="26" y="259.8433">AddChoicePort(nodeCache:DialogueNode, overriddenPortName:string) : void</text><ellipse cx="17" cy="269.4375" fill="#84BE84" rx="3" ry="3" style="stroke: #038048; stroke-width: 1.0;"/><text fill="#000000" font-family="sans-serif" font-size="11" lengthAdjust="spacingAndGlyphs" textLength="592" x="26" y="272.6479">AddChoiceItemPort(nodeCache:DialogueNode, useDefaultValues:bool, overriddenPortName:string) : void</text><!--MD5=[e644022de7dea015dd09463c37421447]
class List`1--><rect fill="#FEFECE" filter="url(#f1lewnn6fl43qm)" height="48" id="List`1" style="stroke: #A80036; stroke-width: 1.5;" width="78" x="678.5" y="173.5"/><ellipse cx="693.5" cy="189.5" fill="#ADD1B2" rx="11" ry="11" style="stroke: #A80036; stroke-width: 1.0;"/><path d="M696.4688,195.1406 Q695.8906,195.4375 695.25,195.5781 Q694.6094,195.7344 693.9063,195.7344 Q691.4063,195.7344 690.0781,194.0938 Q688.7656,192.4375 688.7656,189.3125 Q688.7656,186.1875 690.0781,184.5313 Q691.4063,182.875 693.9063,182.875 Q694.6094,182.875 695.25,183.0313 Q695.9063,183.1875 696.4688,183.4844 L696.4688,186.2031 Q695.8438,185.625 695.25,185.3594 Q694.6563,185.0781 694.0313,185.0781 Q692.6875,185.0781 692,186.1563 Q691.3125,187.2188 691.3125,189.3125 Q691.3125,191.4063 692,192.4844 Q692.6875,193.5469 694.0313,193.5469 Q694.6563,193.5469 695.25,193.2813 Q695.8438,193 696.4688,192.4219 L696.4688,195.1406 Z "/><text fill="#000000" font-family="sans-serif" font-size="12" lengthAdjust="spacingAndGlyphs" textLength="35" x="707.5" y="193.6543">List`1</text><rect fill="#FFFFFF" height="15.9688" style="stroke: #000000; stroke-width: 1.0; stroke-dasharray: 2.0,2.0;" width="9" x="750.5" y="170.5"/><text fill="#000000" font-family="sans-serif" font-size="12" font-style="italic" lengthAdjust="spacingAndGlyphs" textLength="7" x="751.5" y="182.6387">T</text><line style="stroke: #A80036; stroke-width: 1.5;" x1="679.5" x2="755.5" y1="205.5" y2="205.5"/><line style="stroke: #A80036; stroke-width: 1.5;" x1="679.5" x2="755.5" y1="213.5" y2="213.5"/><!--MD5=[618f7d2cd540d91fc43ac61f6f750c09]
class GraphView--><rect fill="#FEFECE" filter="url(#f1lewnn6fl43qm)" height="48" id="GraphView" style="stroke: #A80036; stroke-width: 1.5;" width="98" x="275.5" y="8"/><ellipse cx="290.5" cy="24" fill="#ADD1B2" rx="11" ry="11" style="stroke: #A80036; stroke-width: 1.0;"/><path d="M293.4688,29.6406 Q292.8906,29.9375 292.25,30.0781 Q291.6094,30.2344 290.9063,30.2344 Q288.4063,30.2344 287.0781,28.5938 Q285.7656,26.9375 285.7656,23.8125 Q285.7656,20.6875 287.0781,19.0313 Q288.4063,17.375 290.9063,17.375 Q291.6094,17.375 292.25,17.5313 Q292.9063,17.6875 293.4688,17.9844 L293.4688,20.7031 Q292.8438,20.125 292.25,19.8594 Q291.6563,19.5781 291.0313,19.5781 Q289.6875,19.5781 289,20.6563 Q288.3125,21.7188 288.3125,23.8125 Q288.3125,25.9063 289,26.9844 Q289.6875,28.0469 291.0313,28.0469 Q291.6563,28.0469 292.25,27.7813 Q292.8438,27.5 293.4688,26.9219 L293.4688,29.6406 Z "/><text fill="#000000" font-family="sans-serif" font-size="12" lengthAdjust="spacingAndGlyphs" textLength="66" x="304.5" y="28.1543">GraphView</text><line style="stroke: #A80036; stroke-width: 1.5;" x1="276.5" x2="372.5" y1="40" y2="40"/><line style="stroke: #A80036; stroke-width: 1.5;" x1="276.5" x2="372.5" y1="48" y2="48"/><!--MD5=[3f551f1273bbfa514d2f681c1c48b5c1]
class Vector2--><rect fill="#FEFECE" filter="url(#f1lewnn6fl43qm)" height="48" id="Vector2" style="stroke: #A80036; stroke-width: 1.5;" width="81" x="929" y="173.5"/><ellipse cx="944" cy="189.5" fill="#ADD1B2" rx="11" ry="11" style="stroke: #A80036; stroke-width: 1.0;"/><path d="M946.9688,195.1406 Q946.3906,195.4375 945.75,195.5781 Q945.1094,195.7344 944.4063,195.7344 Q941.9063,195.7344 940.5781,194.0938 Q939.2656,192.4375 939.2656,189.3125 Q939.2656,186.1875 940.5781,184.5313 Q941.9063,182.875 944.4063,182.875 Q945.1094,182.875 945.75,183.0313 Q946.4063,183.1875 946.9688,183.4844 L946.9688,186.2031 Q946.3438,185.625 945.75,185.3594 Q945.1563,185.0781 944.5313,185.0781 Q943.1875,185.0781 942.5,186.1563 Q941.8125,187.2188 941.8125,189.3125 Q941.8125,191.4063 942.5,192.4844 Q943.1875,193.5469 944.5313,193.5469 Q945.1563,193.5469 945.75,193.2813 Q946.3438,193 946.9688,192.4219 L946.9688,195.1406 Z "/><text fill="#000000" font-family="sans-serif" font-size="12" lengthAdjust="spacingAndGlyphs" textLength="49" x="958" y="193.6543">Vector2</text><line style="stroke: #A80036; stroke-width: 1.5;" x1="930" x2="1009" y1="205.5" y2="205.5"/><line style="stroke: #A80036; stroke-width: 1.5;" x1="930" x2="1009" y1="213.5" y2="213.5"/><!--MD5=[87bb97a8fe305f4037740b58c4d02a1d]
class DialogueNode--><rect fill="#FEFECE" filter="url(#f1lewnn6fl43qm)" height="48" id="DialogueNode" style="stroke: #A80036; stroke-width: 1.5;" width="120" x="264.5" y="339"/><ellipse cx="279.5" cy="355" fill="#ADD1B2" rx="11" ry="11" style="stroke: #A80036; stroke-width: 1.0;"/><path d="M282.4688,360.6406 Q281.8906,360.9375 281.25,361.0781 Q280.6094,361.2344 279.9063,361.2344 Q277.4063,361.2344 276.0781,359.5938 Q274.7656,357.9375 274.7656,354.8125 Q274.7656,351.6875 276.0781,350.0313 Q277.4063,348.375 279.9063,348.375 Q280.6094,348.375 281.25,348.5313 Q281.9063,348.6875 282.4688,348.9844 L282.4688,351.7031 Q281.8438,351.125 281.25,350.8594 Q280.6563,350.5781 280.0313,350.5781 Q278.6875,350.5781 278,351.6563 Q277.3125,352.7188 277.3125,354.8125 Q277.3125,356.9063 278,357.9844 Q278.6875,359.0469 280.0313,359.0469 Q280.6563,359.0469 281.25,358.7813 Q281.8438,358.5 282.4688,357.9219 L282.4688,360.6406 Z "/><text fill="#000000" font-family="sans-serif" font-size="12" lengthAdjust="spacingAndGlyphs" textLength="88" x="293.5" y="359.1543">DialogueNode</text><line style="stroke: #A80036; stroke-width: 1.5;" x1="265.5" x2="383.5" y1="371" y2="371"/><line style="stroke: #A80036; stroke-width: 1.5;" x1="265.5" x2="383.5" y1="379" y2="379"/><!--MD5=[485e504ead8655105acf294cbc41580a]
class Blackboard--><rect fill="#FEFECE" filter="url(#f1lewnn6fl43qm)" height="48" id="Blackboard" style="stroke: #A80036; stroke-width: 1.5;" width="102" x="791.5" y="173.5"/><ellipse cx="806.5" cy="189.5" fill="#ADD1B2" rx="11" ry="11" style="stroke: #A80036; stroke-width: 1.0;"/><path d="M809.4688,195.1406 Q808.8906,195.4375 808.25,195.5781 Q807.6094,195.7344 806.9063,195.7344 Q804.4063,195.7344 803.0781,194.0938 Q801.7656,192.4375 801.7656,189.3125 Q801.7656,186.1875 803.0781,184.5313 Q804.4063,182.875 806.9063,182.875 Q807.6094,182.875 808.25,183.0313 Q808.9063,183.1875 809.4688,183.4844 L809.4688,186.2031 Q808.8438,185.625 808.25,185.3594 Q807.6563,185.0781 807.0313,185.0781 Q805.6875,185.0781 805,186.1563 Q804.3125,187.2188 804.3125,189.3125 Q804.3125,191.4063 805,192.4844 Q805.6875,193.5469 807.0313,193.5469 Q807.6563,193.5469 808.25,193.2813 Q808.8438,193 809.4688,192.4219 L809.4688,195.1406 Z "/><text fill="#000000" font-family="sans-serif" font-size="12" lengthAdjust="spacingAndGlyphs" textLength="70" x="820.5" y="193.6543">Blackboard</text><line style="stroke: #A80036; stroke-width: 1.5;" x1="792.5" x2="892.5" y1="205.5" y2="205.5"/><line style="stroke: #A80036; stroke-width: 1.5;" x1="792.5" x2="892.5" y1="213.5" y2="213.5"/><!--MD5=[20be1b251c886975d36a2790be4cb1fb]
reverse link GraphView to StoryGraphView--><path d="M324.5,76.19 C324.5,88.45 324.5,102.21 324.5,115.93 " fill="none" id="GraphView&lt;-StoryGraphView" style="stroke: #A80036; stroke-width: 1.0;"/><polygon fill="none" points="317.5,76.08,324.5,56.08,331.5,76.08,317.5,76.08" style="stroke: #A80036; stroke-width: 1.0;"/><!--MD5=[37b56b00440bf74b55b87174d3a9beaa]
link StoryGraphView to Vector2--><path d="M584.7338,113.0896 C584.7338,113.0896 644.62,100.07 673.17,96 C723.03,88.89 855.26,72.53 899.83,96 C925.96,109.76 944.18,138.23 955.42,161.53 " fill="none" id="StoryGraphView-Vector2" style="stroke: #A80036; stroke-width: 1.0;"/><polygon fill="#A80036" points="960.8,173.47,960.7495,163.6213,958.7459,168.9114,953.4557,166.9078,960.8,173.47" style="stroke: #A80036; stroke-width: 1.0;"/><line style="stroke: #A80036; stroke-width: 1.0;" x1="958.7459" x2="955.46" y1="168.9114" y2="161.62"/><polygon fill="#FFFFFF" points="573.07,115.91,579.8421,118.3877,584.7338,113.0896,577.9618,110.6118,573.07,115.91" style="stroke: #A80036; stroke-width: 1.0;"/><text fill="#000000" font-family="sans-serif" font-size="13" lengthAdjust="spacingAndGlyphs" textLength="107" x="837.9376" y="162.4126">DefaultNodeSize</text><!--MD5=[37b56b00440bf74b55b87174d3a9beaa]
link StoryGraphView to Vector2--><path d="M539.7229,112.2825 C539.7229,112.2825 637.29,83.8 684.83,76 C729.42,68.68 848.31,54.72 888.17,76 C921.72,93.91 943.85,132.48 956.45,161.38 " fill="none" id="StoryGraphView-Vector2-1" style="stroke: #A80036; stroke-width: 1.0;"/><polygon fill="#A80036" points="961.42,173.48,961.699,163.6351,959.5196,168.8552,954.2994,166.6758,961.42,173.48" style="stroke: #A80036; stroke-width: 1.0;"/><line style="stroke: #A80036; stroke-width: 1.0;" x1="959.5196" x2="956.48" y1="168.8552" y2="161.46"/><polygon fill="#FFFFFF" points="528.31,115.99,535.2523,117.9405,539.7229,112.2825,532.7806,110.3319,528.31,115.99" style="stroke: #A80036; stroke-width: 1.0;"/><text fill="#000000" font-family="sans-serif" font-size="13" lengthAdjust="spacingAndGlyphs" textLength="171" x="981.2589" y="162.4869">DefaultCommentBlockSize</text><!--MD5=[2c2bdd7313b0c905ab127af4ddedcd1f]
link StoryGraphView to DialogueNode--><path d="M324.5,279.29 C324.5,298.78 324.5,318.34 324.5,333.55 " fill="none" id="StoryGraphView-&gt;DialogueNode" style="stroke: #A80036; stroke-width: 1.0;"/><polygon fill="#A80036" points="324.5,338.94,328.5,329.94,324.5,333.94,320.5,329.94,324.5,338.94" style="stroke: #A80036; stroke-width: 1.0;"/><text fill="#000000" font-family="sans-serif" font-size="13" lengthAdjust="spacingAndGlyphs" textLength="99" x="212.8156" y="327.9367">EntryPointNode</text><!--MD5=[2166e20599725bf5ccc1d8acfece1824]
link StoryGraphView to Blackboard--><path d="M469.5093,110.8736 C469.5093,110.8736 666.75,41.47 757,86 C788.73,101.65 811.95,135.36 826.12,161.63 " fill="none" id="StoryGraphView-Blackboard" style="stroke: #A80036; stroke-width: 1.0;"/><polygon fill="#A80036" points="832.17,173.46,831.631,163.6259,829.8923,169.0089,824.5093,167.2702,832.17,173.46" style="stroke: #A80036; stroke-width: 1.0;"/><line style="stroke: #A80036; stroke-width: 1.0;" x1="829.8923" x2="826.245" y1="169.0089" y2="161.885"/><polygon fill="#FFFFFF" points="458.65,115.98,465.7818,117.0466,469.5093,110.8736,462.3775,109.807,458.65,115.98" style="stroke: #A80036; stroke-width: 1.0;"/><text fill="#000000" font-family="sans-serif" font-size="13" lengthAdjust="spacingAndGlyphs" textLength="71" x="755.7464" y="162.4338">Blackboard</text><!--MD5=[789b9058a0f456d71c50483516922856]
link StoryGraphView to List`1--><path d="M655.04,197.5 C655.04,197.5 662.2,197.5 665.18,197.5 " fill="none" id="StoryGraphView-List`1" style="stroke: #A80036; stroke-width: 1.0;"/><polygon fill="#A80036" points="678.24,197.5,669.24,193.5,673.24,197.5,669.24,201.5,678.24,197.5" style="stroke: #A80036; stroke-width: 1.0;"/><line style="stroke: #A80036; stroke-width: 1.0;" x1="673.24" x2="665.24" y1="197.5" y2="197.5"/><polygon fill="#FFFFFF" points="643.04,197.5,649.04,201.5,655.04,197.5,649.04,193.5,643.04,197.5" style="stroke: #A80036; stroke-width: 1.0;"/><text fill="#000000" font-family="sans-serif" font-size="13" lengthAdjust="spacingAndGlyphs" textLength="249" x="662.9093" y="162.5075">ExposedProperties&lt;ExposedProperty&gt;</text><!--MD5=[b2f3ca74aa1a90a406a64a0f62dc6f38]
@startuml
class StoryGraphView {
    + StoryGraphView(editorWindow:StoryGraph)
    + ClearBlackBoardAndExposedProperties() : void
    + CreateCommentBlock(rect:Rect, commentBlockData:CommentBlockData) : Group
    + AddPropertyToBlackBoard(property:ExposedProperty, loadMode:bool) : void
    + <<override>> GetCompatiblePorts(startPort:Port, nodeAdapter:NodeAdapter) : List<Port>
    + CreateNewDialogueNode(nodeName:string, position:Vector2) : void
    + CreateNode(dialogueNodeData:DialogueNodeData, position:Vector2, useDefaultValues:bool) : DialogueNode
    + AddChoicePort(nodeCache:DialogueNode, overriddenPortName:string) : void
    + AddChoiceItemPort(nodeCache:DialogueNode, useDefaultValues:bool, overriddenPortName:string) : void
}
class "List`1"<T> {
}
GraphView <|- - StoryGraphView
StoryGraphView o-> "DefaultNodeSize" Vector2
StoryGraphView o-> "DefaultCommentBlockSize" Vector2
StoryGraphView - -> "EntryPointNode" DialogueNode
StoryGraphView o-> "Blackboard" Blackboard
StoryGraphView o-> "ExposedProperties<ExposedProperty>" "List`1"
@enduml

PlantUML version 1.2020.02(Sun Mar 01 10:22:07 GMT 2020)
(GPL source distribution)
Java Runtime: OpenJDK Runtime Environment
JVM: OpenJDK 64-Bit Server VM
Java Version: 11.0.9+11-Ubuntu-0ubuntu1
Operating System: Linux
Default Encoding: ANSI_X3.4-1968
Language: en
Country: US
--></g></svg>