<?xml version="1.0" encoding="UTF-8" standalone="no"?><svg xmlns="http://www.w3.org/2000/svg" xmlns:xlink="http://www.w3.org/1999/xlink" contentScriptType="application/ecmascript" contentStyleType="text/css" height="200px" preserveAspectRatio="none" style="width:227px;height:200px;" version="1.1" viewBox="0 0 227 200" width="227px" zoomAndPan="magnify"><defs><filter height="300%" id="f1lkidwac9r8z0" width="300%" x="-1" y="-1"><feGaussianBlur result="blurOut" stdDeviation="2.0"/><feColorMatrix in="blurOut" result="blurOut2" type="matrix" values="0 0 0 0 0 0 0 0 0 0 0 0 0 0 0 0 0 0 .4 0"/><feOffset dx="4.0" dy="4.0" in="blurOut2" result="blurOut3"/><feBlend in="SourceGraphic" in2="blurOut3" mode="normal"/></filter></defs><g><!--MD5=[efd5ebcc74ce0165d13c1df9fdb2b1d2]
class StoryGraph--><rect fill="#FEFECE" filter="url(#f1lkidwac9r8z0)" height="73.6094" id="StoryGraph" style="stroke: #A80036; stroke-width: 1.5;" width="210" x="6" y="116"/><ellipse cx="71.75" cy="132" fill="#ADD1B2" rx="11" ry="11" style="stroke: #A80036; stroke-width: 1.0;"/><path d="M74.7188,137.6406 Q74.1406,137.9375 73.5,138.0781 Q72.8594,138.2344 72.1563,138.2344 Q69.6563,138.2344 68.3281,136.5938 Q67.0156,134.9375 67.0156,131.8125 Q67.0156,128.6875 68.3281,127.0313 Q69.6563,125.375 72.1563,125.375 Q72.8594,125.375 73.5,125.5313 Q74.1563,125.6875 74.7188,125.9844 L74.7188,128.7031 Q74.0938,128.125 73.5,127.8594 Q72.9063,127.5781 72.2813,127.5781 Q70.9375,127.5781 70.25,128.6563 Q69.5625,129.7188 69.5625,131.8125 Q69.5625,133.9063 70.25,134.9844 Q70.9375,136.0469 72.2813,136.0469 Q72.9063,136.0469 73.5,135.7813 Q74.0938,135.5 74.7188,134.9219 L74.7188,137.6406 Z "/><text fill="#000000" font-family="sans-serif" font-size="12" lengthAdjust="spacingAndGlyphs" textLength="70" x="92.25" y="136.1543">StoryGraph</text><line style="stroke: #A80036; stroke-width: 1.5;" x1="7" x2="215" y1="148" y2="148"/><line style="stroke: #A80036; stroke-width: 1.5;" x1="7" x2="215" y1="156" y2="156"/><ellipse cx="17" cy="167" fill="#84BE84" rx="3" ry="3" style="stroke: #038048; stroke-width: 1.0;"/><text fill="#000000" font-family="sans-serif" font-size="11" lengthAdjust="spacingAndGlyphs" text-decoration="underline" textLength="184" x="26" y="170.2104">CreateGraphViewWindow() : void</text><ellipse cx="17" cy="179.8047" fill="#84BE84" rx="3" ry="3" style="stroke: #038048; stroke-width: 1.0;"/><text fill="#000000" font-family="sans-serif" font-size="11" lengthAdjust="spacingAndGlyphs" textLength="179" x="26" y="183.0151">RefreshMinimapPosition() : void</text><!--MD5=[802e82b404e578583cfeee29107899de]
class EditorWindow--><rect fill="#FEFECE" filter="url(#f1lkidwac9r8z0)" height="48" id="EditorWindow" style="stroke: #A80036; stroke-width: 1.5;" width="116" x="53" y="8"/><ellipse cx="68" cy="24" fill="#ADD1B2" rx="11" ry="11" style="stroke: #A80036; stroke-width: 1.0;"/><path d="M70.9688,29.6406 Q70.3906,29.9375 69.75,30.0781 Q69.1094,30.2344 68.4063,30.2344 Q65.9063,30.2344 64.5781,28.5938 Q63.2656,26.9375 63.2656,23.8125 Q63.2656,20.6875 64.5781,19.0313 Q65.9063,17.375 68.4063,17.375 Q69.1094,17.375 69.75,17.5313 Q70.4063,17.6875 70.9688,17.9844 L70.9688,20.7031 Q70.3438,20.125 69.75,19.8594 Q69.1563,19.5781 68.5313,19.5781 Q67.1875,19.5781 66.5,20.6563 Q65.8125,21.7188 65.8125,23.8125 Q65.8125,25.9063 66.5,26.9844 Q67.1875,28.0469 68.5313,28.0469 Q69.1563,28.0469 69.75,27.7813 Q70.3438,27.5 70.9688,26.9219 L70.9688,29.6406 Z "/><text fill="#000000" font-family="sans-serif" font-size="12" lengthAdjust="spacingAndGlyphs" textLength="84" x="82" y="28.1543">EditorWindow</text><line style="stroke: #A80036; stroke-width: 1.5;" x1="54" x2="168" y1="40" y2="40"/><line style="stroke: #A80036; stroke-width: 1.5;" x1="54" x2="168" y1="48" y2="48"/><!--MD5=[9dcd8e6568bb856c2e1d4cd013e600bf]
reverse link EditorWindow to StoryGraph--><path d="M111,76.43 C111,89.33 111,103.32 111,115.71 " fill="none" id="EditorWindow&lt;-StoryGraph" style="stroke: #A80036; stroke-width: 1.0;"/><polygon fill="none" points="104,76.23,111,56.23,118,76.23,104,76.23" style="stroke: #A80036; stroke-width: 1.0;"/><!--MD5=[2f32733e3a09998b083a4ecda224ce8c]
@startuml
class StoryGraph {
    + {static} CreateGraphViewWindow() : void
    + RefreshMinimapPosition() : void
}
EditorWindow <|- - StoryGraph
@enduml

PlantUML version 1.2020.02(Sun Mar 01 10:22:07 GMT 2020)
(GPL source distribution)
Java Runtime: OpenJDK Runtime Environment
JVM: OpenJDK 64-Bit Server VM
Java Version: 11.0.9+11-Ubuntu-0ubuntu1
Operating System: Linux
Default Encoding: ANSI_X3.4-1968
Language: en
Country: US
--></g></svg>