<?xml version="1.0" encoding="UTF-8" standalone="no"?><svg xmlns="http://www.w3.org/2000/svg" xmlns:xlink="http://www.w3.org/1999/xlink" contentScriptType="application/ecmascript" contentStyleType="text/css" height="290px" preserveAspectRatio="none" style="width:544px;height:290px;" version="1.1" viewBox="0 0 544 290" width="544px" zoomAndPan="magnify"><defs><filter height="300%" id="fbsg71p1r0oc7" width="300%" x="-1" y="-1"><feGaussianBlur result="blurOut" stdDeviation="2.0"/><feColorMatrix in="blurOut" result="blurOut2" type="matrix" values="0 0 0 0 0 0 0 0 0 0 0 0 0 0 0 0 0 0 .4 0"/><feOffset dx="4.0" dy="4.0" in="blurOut2" result="blurOut3"/><feBlend in="SourceGraphic" in2="blurOut3" mode="normal"/></filter></defs><g><!--MD5=[4b83d9df387235491124e195a00c9d86]
class DataPersistenceManager--><rect fill="#FEFECE" filter="url(#fbsg71p1r0oc7)" height="163.2422" id="DataPersistenceManager" style="stroke: #A80036; stroke-width: 1.5;" width="465" x="6" y="116"/><ellipse cx="154.75" cy="132" fill="#ADD1B2" rx="11" ry="11" style="stroke: #A80036; stroke-width: 1.0;"/><path d="M157.7188,137.6406 Q157.1406,137.9375 156.5,138.0781 Q155.8594,138.2344 155.1563,138.2344 Q152.6563,138.2344 151.3281,136.5938 Q150.0156,134.9375 150.0156,131.8125 Q150.0156,128.6875 151.3281,127.0313 Q152.6563,125.375 155.1563,125.375 Q155.8594,125.375 156.5,125.5313 Q157.1563,125.6875 157.7188,125.9844 L157.7188,128.7031 Q157.0938,128.125 156.5,127.8594 Q155.9063,127.5781 155.2813,127.5781 Q153.9375,127.5781 153.25,128.6563 Q152.5625,129.7188 152.5625,131.8125 Q152.5625,133.9063 153.25,134.9844 Q153.9375,136.0469 155.2813,136.0469 Q155.9063,136.0469 156.5,135.7813 Q157.0938,135.5 157.7188,134.9219 L157.7188,137.6406 Z "/><text fill="#000000" font-family="sans-serif" font-size="12" lengthAdjust="spacingAndGlyphs" textLength="159" x="175.25" y="136.1543">DataPersistenceManager</text><line style="stroke: #A80036; stroke-width: 1.5;" x1="7" x2="470" y1="148" y2="148"/><line style="stroke: #A80036; stroke-width: 1.5;" x1="7" x2="470" y1="156" y2="156"/><ellipse cx="17" cy="167" fill="#84BE84" rx="3" ry="3" style="stroke: #038048; stroke-width: 1.0;"/><text fill="#000000" font-family="sans-serif" font-size="11" lengthAdjust="spacingAndGlyphs" textLength="101" x="26" y="170.2104">NewGame() : void</text><ellipse cx="17" cy="179.8047" fill="#84BE84" rx="3" ry="3" style="stroke: #038048; stroke-width: 1.0;"/><text fill="#000000" font-family="sans-serif" font-size="11" lengthAdjust="spacingAndGlyphs" textLength="257" x="26" y="183.0151">setFromMainMenu(fromMainMenu:bool) : void</text><ellipse cx="17" cy="192.6094" fill="#84BE84" rx="3" ry="3" style="stroke: #038048; stroke-width: 1.0;"/><text fill="#000000" font-family="sans-serif" font-size="11" lengthAdjust="spacingAndGlyphs" textLength="221" x="26" y="195.8198">getSceneToLoadForMainMenu() : string</text><ellipse cx="17" cy="205.4141" fill="#84BE84" rx="3" ry="3" style="stroke: #038048; stroke-width: 1.0;"/><text fill="#000000" font-family="sans-serif" font-size="11" lengthAdjust="spacingAndGlyphs" textLength="122" x="26" y="208.6245">getStartFresh() : bool</text><ellipse cx="17" cy="218.2188" fill="#84BE84" rx="3" ry="3" style="stroke: #038048; stroke-width: 1.0;"/><text fill="#000000" font-family="sans-serif" font-size="11" lengthAdjust="spacingAndGlyphs" textLength="308" x="26" y="221.4292">getProgession() : ProgressionEnum.gameProgression</text><ellipse cx="17" cy="231.0234" fill="#84BE84" rx="3" ry="3" style="stroke: #038048; stroke-width: 1.0;"/><text fill="#000000" font-family="sans-serif" font-size="11" lengthAdjust="spacingAndGlyphs" textLength="439" x="26" y="234.2339">setProgression(progressionState:ProgressionEnum.gameProgression) : void</text><ellipse cx="17" cy="243.8281" fill="#84BE84" rx="3" ry="3" style="stroke: #038048; stroke-width: 1.0;"/><text fill="#000000" font-family="sans-serif" font-size="11" lengthAdjust="spacingAndGlyphs" textLength="105" x="26" y="247.0386">SaveGame() : void</text><ellipse cx="17" cy="256.6328" fill="#84BE84" rx="3" ry="3" style="stroke: #038048; stroke-width: 1.0;"/><text fill="#000000" font-family="sans-serif" font-size="11" lengthAdjust="spacingAndGlyphs" textLength="125" x="26" y="259.8433">hasGameData() : bool</text><ellipse cx="17" cy="269.4375" fill="#84BE84" rx="3" ry="3" style="stroke: #038048; stroke-width: 1.0;"/><text fill="#000000" font-family="sans-serif" font-size="11" lengthAdjust="spacingAndGlyphs" textLength="177" x="26" y="272.6479">resetToStandardValues() : void</text><!--MD5=[83b3cf3d23d77c6f1e1b5291a241bc2a]
class MonoBehaviour--><rect fill="#FEFECE" filter="url(#fbsg71p1r0oc7)" height="48" id="MonoBehaviour" style="stroke: #A80036; stroke-width: 1.5;" width="128" x="174.5" y="8"/><ellipse cx="189.5" cy="24" fill="#ADD1B2" rx="11" ry="11" style="stroke: #A80036; stroke-width: 1.0;"/><path d="M192.4688,29.6406 Q191.8906,29.9375 191.25,30.0781 Q190.6094,30.2344 189.9063,30.2344 Q187.4063,30.2344 186.0781,28.5938 Q184.7656,26.9375 184.7656,23.8125 Q184.7656,20.6875 186.0781,19.0313 Q187.4063,17.375 189.9063,17.375 Q190.6094,17.375 191.25,17.5313 Q191.9063,17.6875 192.4688,17.9844 L192.4688,20.7031 Q191.8438,20.125 191.25,19.8594 Q190.6563,19.5781 190.0313,19.5781 Q188.6875,19.5781 188,20.6563 Q187.3125,21.7188 187.3125,23.8125 Q187.3125,25.9063 188,26.9844 Q188.6875,28.0469 190.0313,28.0469 Q190.6563,28.0469 191.25,27.7813 Q191.8438,27.5 192.4688,26.9219 L192.4688,29.6406 Z "/><text fill="#000000" font-family="sans-serif" font-size="12" lengthAdjust="spacingAndGlyphs" textLength="96" x="203.5" y="28.1543">MonoBehaviour</text><line style="stroke: #A80036; stroke-width: 1.5;" x1="175.5" x2="301.5" y1="40" y2="40"/><line style="stroke: #A80036; stroke-width: 1.5;" x1="175.5" x2="301.5" y1="48" y2="48"/><!--MD5=[b30e98ee5ddc5c00c834b5697b3cfb41]
reverse link MonoBehaviour to DataPersistenceManager--><path d="M238.5,76.19 C238.5,88.45 238.5,102.21 238.5,115.93 " fill="none" id="MonoBehaviour&lt;-DataPersistenceManager" style="stroke: #A80036; stroke-width: 1.0;"/><polygon fill="none" points="231.5,76.08,238.5,56.08,245.5,76.08,231.5,76.08" style="stroke: #A80036; stroke-width: 1.0;"/><!--MD5=[6b151fb409604a81e345fc9d5946087c]
link DataPersistenceManager to DataPersistenceManager--><path d="M471.01,172.96 C492.48,178.03 506,186.21 506,197.5 C506,207.91 494.51,215.68 475.89,220.8 " fill="none" id="DataPersistenceManager-&gt;DataPersistenceManager" style="stroke: #A80036; stroke-width: 1.0;"/><polygon fill="#A80036" points="471.01,222.04,480.7218,223.6772,475.8531,220.7971,478.7332,215.9283,471.01,222.04" style="stroke: #A80036; stroke-width: 1.0;"/><text fill="#000000" font-family="sans-serif" font-size="13" lengthAdjust="spacingAndGlyphs" textLength="54" x="478.7142" y="219.6111">instance</text><!--MD5=[c51b36e5cacf407238d3bd6c8afd77cc]
@startuml
class DataPersistenceManager {
    + NewGame() : void
    + setFromMainMenu(fromMainMenu:bool) : void
    + getSceneToLoadForMainMenu() : string
    + getStartFresh() : bool
    + getProgession() : ProgressionEnum.gameProgression
    + setProgression(progressionState:ProgressionEnum.gameProgression) : void
    + SaveGame() : void
    + hasGameData() : bool
    + resetToStandardValues() : void
}
MonoBehaviour <|- - DataPersistenceManager
DataPersistenceManager - -> "instance" DataPersistenceManager
@enduml

PlantUML version 1.2020.02(Sun Mar 01 10:22:07 GMT 2020)
(GPL source distribution)
Java Runtime: OpenJDK Runtime Environment
JVM: OpenJDK 64-Bit Server VM
Java Version: 11.0.9+11-Ubuntu-0ubuntu1
Operating System: Linux
Default Encoding: ANSI_X3.4-1968
Language: en
Country: US
--></g></svg>