<?xml version="1.0" encoding="UTF-8" standalone="no"?><svg xmlns="http://www.w3.org/2000/svg" xmlns:xlink="http://www.w3.org/1999/xlink" contentScriptType="application/ecmascript" contentStyleType="text/css" height="239px" preserveAspectRatio="none" style="width:450px;height:239px;" version="1.1" viewBox="0 0 450 239" width="450px" zoomAndPan="magnify"><defs><filter height="300%" id="f466080jno0fj" width="300%" x="-1" y="-1"><feGaussianBlur result="blurOut" stdDeviation="2.0"/><feColorMatrix in="blurOut" result="blurOut2" type="matrix" values="0 0 0 0 0 0 0 0 0 0 0 0 0 0 0 0 0 0 .4 0"/><feOffset dx="4.0" dy="4.0" in="blurOut2" result="blurOut3"/><feBlend in="SourceGraphic" in2="blurOut3" mode="normal"/></filter></defs><g><!--MD5=[4b83d9df387235491124e195a00c9d86]
class DataPersistenceManager--><rect fill="#FEFECE" filter="url(#f466080jno0fj)" height="112.0234" id="DataPersistenceManager" style="stroke: #A80036; stroke-width: 1.5;" width="370" x="6" y="116"/><ellipse cx="107.25" cy="132" fill="#ADD1B2" rx="11" ry="11" style="stroke: #A80036; stroke-width: 1.0;"/><path d="M110.2188,137.6406 Q109.6406,137.9375 109,138.0781 Q108.3594,138.2344 107.6563,138.2344 Q105.1563,138.2344 103.8281,136.5938 Q102.5156,134.9375 102.5156,131.8125 Q102.5156,128.6875 103.8281,127.0313 Q105.1563,125.375 107.6563,125.375 Q108.3594,125.375 109,125.5313 Q109.6563,125.6875 110.2188,125.9844 L110.2188,128.7031 Q109.5938,128.125 109,127.8594 Q108.4063,127.5781 107.7813,127.5781 Q106.4375,127.5781 105.75,128.6563 Q105.0625,129.7188 105.0625,131.8125 Q105.0625,133.9063 105.75,134.9844 Q106.4375,136.0469 107.7813,136.0469 Q108.4063,136.0469 109,135.7813 Q109.5938,135.5 110.2188,134.9219 L110.2188,137.6406 Z "/><text fill="#000000" font-family="sans-serif" font-size="12" lengthAdjust="spacingAndGlyphs" textLength="159" x="127.75" y="136.1543">DataPersistenceManager</text><line style="stroke: #A80036; stroke-width: 1.5;" x1="7" x2="375" y1="148" y2="148"/><line style="stroke: #A80036; stroke-width: 1.5;" x1="7" x2="375" y1="156" y2="156"/><ellipse cx="17" cy="167" fill="#84BE84" rx="3" ry="3" style="stroke: #038048; stroke-width: 1.0;"/><text fill="#000000" font-family="sans-serif" font-size="11" lengthAdjust="spacingAndGlyphs" textLength="344" x="26" y="170.2104">OnSceneLoaded(scene:Scene, mode:LoadSceneMode) : void</text><ellipse cx="17" cy="179.8047" fill="#84BE84" rx="3" ry="3" style="stroke: #038048; stroke-width: 1.0;"/><text fill="#000000" font-family="sans-serif" font-size="11" lengthAdjust="spacingAndGlyphs" textLength="101" x="26" y="183.0151">NewGame() : void</text><ellipse cx="17" cy="192.6094" fill="#84BE84" rx="3" ry="3" style="stroke: #038048; stroke-width: 1.0;"/><text fill="#000000" font-family="sans-serif" font-size="11" lengthAdjust="spacingAndGlyphs" textLength="104" x="26" y="195.8198">LoadGame() : void</text><ellipse cx="17" cy="205.4141" fill="#84BE84" rx="3" ry="3" style="stroke: #038048; stroke-width: 1.0;"/><text fill="#000000" font-family="sans-serif" font-size="11" lengthAdjust="spacingAndGlyphs" textLength="105" x="26" y="208.6245">SaveGame() : void</text><ellipse cx="17" cy="218.2188" fill="#84BE84" rx="3" ry="3" style="stroke: #038048; stroke-width: 1.0;"/><text fill="#000000" font-family="sans-serif" font-size="11" lengthAdjust="spacingAndGlyphs" textLength="125" x="26" y="221.4292">hasGameData() : bool</text><!--MD5=[83b3cf3d23d77c6f1e1b5291a241bc2a]
class MonoBehaviour--><rect fill="#FEFECE" filter="url(#f466080jno0fj)" height="48" id="MonoBehaviour" style="stroke: #A80036; stroke-width: 1.5;" width="128" x="127" y="8"/><ellipse cx="142" cy="24" fill="#ADD1B2" rx="11" ry="11" style="stroke: #A80036; stroke-width: 1.0;"/><path d="M144.9688,29.6406 Q144.3906,29.9375 143.75,30.0781 Q143.1094,30.2344 142.4063,30.2344 Q139.9063,30.2344 138.5781,28.5938 Q137.2656,26.9375 137.2656,23.8125 Q137.2656,20.6875 138.5781,19.0313 Q139.9063,17.375 142.4063,17.375 Q143.1094,17.375 143.75,17.5313 Q144.4063,17.6875 144.9688,17.9844 L144.9688,20.7031 Q144.3438,20.125 143.75,19.8594 Q143.1563,19.5781 142.5313,19.5781 Q141.1875,19.5781 140.5,20.6563 Q139.8125,21.7188 139.8125,23.8125 Q139.8125,25.9063 140.5,26.9844 Q141.1875,28.0469 142.5313,28.0469 Q143.1563,28.0469 143.75,27.7813 Q144.3438,27.5 144.9688,26.9219 L144.9688,29.6406 Z "/><text fill="#000000" font-family="sans-serif" font-size="12" lengthAdjust="spacingAndGlyphs" textLength="96" x="156" y="28.1543">MonoBehaviour</text><line style="stroke: #A80036; stroke-width: 1.5;" x1="128" x2="254" y1="40" y2="40"/><line style="stroke: #A80036; stroke-width: 1.5;" x1="128" x2="254" y1="48" y2="48"/><!--MD5=[b30e98ee5ddc5c00c834b5697b3cfb41]
reverse link MonoBehaviour to DataPersistenceManager--><path d="M191,76.25 C191,88.82 191,102.73 191,115.93 " fill="none" id="MonoBehaviour&lt;-DataPersistenceManager" style="stroke: #A80036; stroke-width: 1.0;"/><polygon fill="none" points="184,76.1,191,56.1,198,76.1,184,76.1" style="stroke: #A80036; stroke-width: 1.0;"/><!--MD5=[6b151fb409604a81e345fc9d5946087c]
link DataPersistenceManager to DataPersistenceManager--><path d="M376.38,149.76 C397.38,153.92 411,161.34 411,172 C411,181.75 399.62,188.78 381.62,193.1 " fill="none" id="DataPersistenceManager-&gt;DataPersistenceManager" style="stroke: #A80036; stroke-width: 1.0;"/><polygon fill="#A80036" points="376.38,194.24,386.0224,196.2462,381.2669,193.1826,384.3305,188.4271,376.38,194.24" style="stroke: #A80036; stroke-width: 1.0;"/><text fill="#000000" font-family="sans-serif" font-size="13" lengthAdjust="spacingAndGlyphs" textLength="54" x="384.0124" y="191.8386">instance</text><!--MD5=[edec861021c9acb11f0684aa3ef4d4df]
@startuml
class DataPersistenceManager {
    + OnSceneLoaded(scene:Scene, mode:LoadSceneMode) : void
    + NewGame() : void
    + LoadGame() : void
    + SaveGame() : void
    + hasGameData() : bool
}
MonoBehaviour <|- - DataPersistenceManager
DataPersistenceManager - -> "instance" DataPersistenceManager
@enduml

PlantUML version 1.2020.02(Sun Mar 01 10:22:07 GMT 2020)
(GPL source distribution)
Java Runtime: OpenJDK Runtime Environment
JVM: OpenJDK 64-Bit Server VM
Java Version: 11.0.9+11-Ubuntu-0ubuntu1
Operating System: Linux
Default Encoding: ANSI_X3.4-1968
Language: en
Country: US
--></g></svg>