<?xml version="1.0" encoding="UTF-8" standalone="no"?><svg xmlns="http://www.w3.org/2000/svg" xmlns:xlink="http://www.w3.org/1999/xlink" contentScriptType="application/ecmascript" contentStyleType="text/css" height="264px" preserveAspectRatio="none" style="width:362px;height:264px;" version="1.1" viewBox="0 0 362 264" width="362px" zoomAndPan="magnify"><defs><filter height="300%" id="f1g5yvluvs1lk5" width="300%" x="-1" y="-1"><feGaussianBlur result="blurOut" stdDeviation="2.0"/><feColorMatrix in="blurOut" result="blurOut2" type="matrix" values="0 0 0 0 0 0 0 0 0 0 0 0 0 0 0 0 0 0 .4 0"/><feOffset dx="4.0" dy="4.0" in="blurOut2" result="blurOut3"/><feBlend in="SourceGraphic" in2="blurOut3" mode="normal"/></filter></defs><g><!--MD5=[4b83d9df387235491124e195a00c9d86]
class DataPersistenceManager--><rect fill="#FEFECE" filter="url(#f1g5yvluvs1lk5)" height="137.6328" id="DataPersistenceManager" style="stroke: #A80036; stroke-width: 1.5;" width="283" x="6" y="116"/><ellipse cx="63.75" cy="132" fill="#ADD1B2" rx="11" ry="11" style="stroke: #A80036; stroke-width: 1.0;"/><path d="M66.7188,137.6406 Q66.1406,137.9375 65.5,138.0781 Q64.8594,138.2344 64.1563,138.2344 Q61.6563,138.2344 60.3281,136.5938 Q59.0156,134.9375 59.0156,131.8125 Q59.0156,128.6875 60.3281,127.0313 Q61.6563,125.375 64.1563,125.375 Q64.8594,125.375 65.5,125.5313 Q66.1563,125.6875 66.7188,125.9844 L66.7188,128.7031 Q66.0938,128.125 65.5,127.8594 Q64.9063,127.5781 64.2813,127.5781 Q62.9375,127.5781 62.25,128.6563 Q61.5625,129.7188 61.5625,131.8125 Q61.5625,133.9063 62.25,134.9844 Q62.9375,136.0469 64.2813,136.0469 Q64.9063,136.0469 65.5,135.7813 Q66.0938,135.5 66.7188,134.9219 L66.7188,137.6406 Z "/><text fill="#000000" font-family="sans-serif" font-size="12" lengthAdjust="spacingAndGlyphs" textLength="159" x="84.25" y="136.1543">DataPersistenceManager</text><line style="stroke: #A80036; stroke-width: 1.5;" x1="7" x2="288" y1="148" y2="148"/><line style="stroke: #A80036; stroke-width: 1.5;" x1="7" x2="288" y1="156" y2="156"/><ellipse cx="17" cy="167" fill="#84BE84" rx="3" ry="3" style="stroke: #038048; stroke-width: 1.0;"/><text fill="#000000" font-family="sans-serif" font-size="11" lengthAdjust="spacingAndGlyphs" textLength="101" x="26" y="170.2104">NewGame() : void</text><ellipse cx="17" cy="179.8047" fill="#84BE84" rx="3" ry="3" style="stroke: #038048; stroke-width: 1.0;"/><text fill="#000000" font-family="sans-serif" font-size="11" lengthAdjust="spacingAndGlyphs" textLength="257" x="26" y="183.0151">setFromMainMenu(fromMainMenu:bool) : void</text><ellipse cx="17" cy="192.6094" fill="#84BE84" rx="3" ry="3" style="stroke: #038048; stroke-width: 1.0;"/><text fill="#000000" font-family="sans-serif" font-size="11" lengthAdjust="spacingAndGlyphs" textLength="221" x="26" y="195.8198">getSceneToLoadForMainMenu() : string</text><ellipse cx="17" cy="205.4141" fill="#84BE84" rx="3" ry="3" style="stroke: #038048; stroke-width: 1.0;"/><text fill="#000000" font-family="sans-serif" font-size="11" lengthAdjust="spacingAndGlyphs" textLength="122" x="26" y="208.6245">getStartFresh() : bool</text><ellipse cx="17" cy="218.2188" fill="#84BE84" rx="3" ry="3" style="stroke: #038048; stroke-width: 1.0;"/><text fill="#000000" font-family="sans-serif" font-size="11" lengthAdjust="spacingAndGlyphs" textLength="105" x="26" y="221.4292">SaveGame() : void</text><ellipse cx="17" cy="231.0234" fill="#84BE84" rx="3" ry="3" style="stroke: #038048; stroke-width: 1.0;"/><text fill="#000000" font-family="sans-serif" font-size="11" lengthAdjust="spacingAndGlyphs" textLength="125" x="26" y="234.2339">hasGameData() : bool</text><ellipse cx="17" cy="243.8281" fill="#84BE84" rx="3" ry="3" style="stroke: #038048; stroke-width: 1.0;"/><text fill="#000000" font-family="sans-serif" font-size="11" lengthAdjust="spacingAndGlyphs" textLength="177" x="26" y="247.0386">resetToStandardValues() : void</text><!--MD5=[83b3cf3d23d77c6f1e1b5291a241bc2a]
class MonoBehaviour--><rect fill="#FEFECE" filter="url(#f1g5yvluvs1lk5)" height="48" id="MonoBehaviour" style="stroke: #A80036; stroke-width: 1.5;" width="128" x="83.5" y="8"/><ellipse cx="98.5" cy="24" fill="#ADD1B2" rx="11" ry="11" style="stroke: #A80036; stroke-width: 1.0;"/><path d="M101.4688,29.6406 Q100.8906,29.9375 100.25,30.0781 Q99.6094,30.2344 98.9063,30.2344 Q96.4063,30.2344 95.0781,28.5938 Q93.7656,26.9375 93.7656,23.8125 Q93.7656,20.6875 95.0781,19.0313 Q96.4063,17.375 98.9063,17.375 Q99.6094,17.375 100.25,17.5313 Q100.9063,17.6875 101.4688,17.9844 L101.4688,20.7031 Q100.8438,20.125 100.25,19.8594 Q99.6563,19.5781 99.0313,19.5781 Q97.6875,19.5781 97,20.6563 Q96.3125,21.7188 96.3125,23.8125 Q96.3125,25.9063 97,26.9844 Q97.6875,28.0469 99.0313,28.0469 Q99.6563,28.0469 100.25,27.7813 Q100.8438,27.5 101.4688,26.9219 L101.4688,29.6406 Z "/><text fill="#000000" font-family="sans-serif" font-size="12" lengthAdjust="spacingAndGlyphs" textLength="96" x="112.5" y="28.1543">MonoBehaviour</text><line style="stroke: #A80036; stroke-width: 1.5;" x1="84.5" x2="210.5" y1="40" y2="40"/><line style="stroke: #A80036; stroke-width: 1.5;" x1="84.5" x2="210.5" y1="48" y2="48"/><!--MD5=[b30e98ee5ddc5c00c834b5697b3cfb41]
reverse link MonoBehaviour to DataPersistenceManager--><path d="M147.5,76.56 C147.5,88.87 147.5,102.57 147.5,115.96 " fill="none" id="MonoBehaviour&lt;-DataPersistenceManager" style="stroke: #A80036; stroke-width: 1.0;"/><polygon fill="none" points="140.5,76.26,147.5,56.26,154.5,76.26,140.5,76.26" style="stroke: #A80036; stroke-width: 1.0;"/><!--MD5=[6b151fb409604a81e345fc9d5946087c]
link DataPersistenceManager to DataPersistenceManager--><path d="M289.1,159.21 C309.94,163.27 324,171.86 324,185 C324,197.01 312.25,205.22 294.32,209.64 " fill="none" id="DataPersistenceManager-&gt;DataPersistenceManager" style="stroke: #A80036; stroke-width: 1.0;"/><polygon fill="#A80036" points="289.1,210.79,298.7479,212.7693,293.9839,209.719,297.0343,204.955,289.1,210.79" style="stroke: #A80036; stroke-width: 1.0;"/><text fill="#000000" font-family="sans-serif" font-size="13" lengthAdjust="spacingAndGlyphs" textLength="54" x="296.7397" y="208.697">instance</text><!--MD5=[064ea3e2ce3418fcee45bbff19523679]
@startuml
class DataPersistenceManager {
    + NewGame() : void
    + setFromMainMenu(fromMainMenu:bool) : void
    + getSceneToLoadForMainMenu() : string
    + getStartFresh() : bool
    + SaveGame() : void
    + hasGameData() : bool
    + resetToStandardValues() : void
}
MonoBehaviour <|- - DataPersistenceManager
DataPersistenceManager - -> "instance" DataPersistenceManager
@enduml

PlantUML version 1.2020.02(Sun Mar 01 10:22:07 GMT 2020)
(GPL source distribution)
Java Runtime: OpenJDK Runtime Environment
JVM: OpenJDK 64-Bit Server VM
Java Version: 11.0.9+11-Ubuntu-0ubuntu1
Operating System: Linux
Default Encoding: ANSI_X3.4-1968
Language: en
Country: US
--></g></svg>