<?xml version="1.0" encoding="UTF-8" standalone="no"?><svg xmlns="http://www.w3.org/2000/svg" xmlns:xlink="http://www.w3.org/1999/xlink" contentScriptType="application/ecmascript" contentStyleType="text/css" height="251px" preserveAspectRatio="none" style="width:326px;height:251px;" version="1.1" viewBox="0 0 326 251" width="326px" zoomAndPan="magnify"><defs><filter height="300%" id="f1jzll6yhle8zm" width="300%" x="-1" y="-1"><feGaussianBlur result="blurOut" stdDeviation="2.0"/><feColorMatrix in="blurOut" result="blurOut2" type="matrix" values="0 0 0 0 0 0 0 0 0 0 0 0 0 0 0 0 0 0 .4 0"/><feOffset dx="4.0" dy="4.0" in="blurOut2" result="blurOut3"/><feBlend in="SourceGraphic" in2="blurOut3" mode="normal"/></filter></defs><g><!--MD5=[4b83d9df387235491124e195a00c9d86]
class DataPersistenceManager--><rect fill="#FEFECE" filter="url(#f1jzll6yhle8zm)" height="124.8281" id="DataPersistenceManager" style="stroke: #A80036; stroke-width: 1.5;" width="247" x="6" y="116"/><ellipse cx="46.2" cy="132" fill="#ADD1B2" rx="11" ry="11" style="stroke: #A80036; stroke-width: 1.0;"/><path d="M49.1688,137.6406 Q48.5906,137.9375 47.95,138.0781 Q47.3094,138.2344 46.6063,138.2344 Q44.1063,138.2344 42.7781,136.5938 Q41.4656,134.9375 41.4656,131.8125 Q41.4656,128.6875 42.7781,127.0313 Q44.1063,125.375 46.6063,125.375 Q47.3094,125.375 47.95,125.5313 Q48.6063,125.6875 49.1688,125.9844 L49.1688,128.7031 Q48.5438,128.125 47.95,127.8594 Q47.3563,127.5781 46.7313,127.5781 Q45.3875,127.5781 44.7,128.6563 Q44.0125,129.7188 44.0125,131.8125 Q44.0125,133.9063 44.7,134.9844 Q45.3875,136.0469 46.7313,136.0469 Q47.3563,136.0469 47.95,135.7813 Q48.5438,135.5 49.1688,134.9219 L49.1688,137.6406 Z "/><text fill="#000000" font-family="sans-serif" font-size="12" lengthAdjust="spacingAndGlyphs" textLength="159" x="65.8" y="136.1543">DataPersistenceManager</text><line style="stroke: #A80036; stroke-width: 1.5;" x1="7" x2="252" y1="148" y2="148"/><line style="stroke: #A80036; stroke-width: 1.5;" x1="7" x2="252" y1="156" y2="156"/><ellipse cx="17" cy="167" fill="#84BE84" rx="3" ry="3" style="stroke: #038048; stroke-width: 1.0;"/><text fill="#000000" font-family="sans-serif" font-size="11" lengthAdjust="spacingAndGlyphs" textLength="101" x="26" y="170.2104">NewGame() : void</text><ellipse cx="17" cy="179.8047" fill="#84BE84" rx="3" ry="3" style="stroke: #038048; stroke-width: 1.0;"/><text fill="#000000" font-family="sans-serif" font-size="11" lengthAdjust="spacingAndGlyphs" textLength="146" x="26" y="183.0151">setFromMainMenu() : void</text><ellipse cx="17" cy="192.6094" fill="#84BE84" rx="3" ry="3" style="stroke: #038048; stroke-width: 1.0;"/><text fill="#000000" font-family="sans-serif" font-size="11" lengthAdjust="spacingAndGlyphs" textLength="221" x="26" y="195.8198">getSceneToLoadForMainMenu() : string</text><ellipse cx="17" cy="205.4141" fill="#84BE84" rx="3" ry="3" style="stroke: #038048; stroke-width: 1.0;"/><text fill="#000000" font-family="sans-serif" font-size="11" lengthAdjust="spacingAndGlyphs" textLength="105" x="26" y="208.6245">SaveGame() : void</text><ellipse cx="17" cy="218.2188" fill="#84BE84" rx="3" ry="3" style="stroke: #038048; stroke-width: 1.0;"/><text fill="#000000" font-family="sans-serif" font-size="11" lengthAdjust="spacingAndGlyphs" textLength="125" x="26" y="221.4292">hasGameData() : bool</text><ellipse cx="17" cy="231.0234" fill="#84BE84" rx="3" ry="3" style="stroke: #038048; stroke-width: 1.0;"/><text fill="#000000" font-family="sans-serif" font-size="11" lengthAdjust="spacingAndGlyphs" textLength="177" x="26" y="234.2339">resetToStandardValues() : void</text><!--MD5=[83b3cf3d23d77c6f1e1b5291a241bc2a]
class MonoBehaviour--><rect fill="#FEFECE" filter="url(#f1jzll6yhle8zm)" height="48" id="MonoBehaviour" style="stroke: #A80036; stroke-width: 1.5;" width="128" x="65.5" y="8"/><ellipse cx="80.5" cy="24" fill="#ADD1B2" rx="11" ry="11" style="stroke: #A80036; stroke-width: 1.0;"/><path d="M83.4688,29.6406 Q82.8906,29.9375 82.25,30.0781 Q81.6094,30.2344 80.9063,30.2344 Q78.4063,30.2344 77.0781,28.5938 Q75.7656,26.9375 75.7656,23.8125 Q75.7656,20.6875 77.0781,19.0313 Q78.4063,17.375 80.9063,17.375 Q81.6094,17.375 82.25,17.5313 Q82.9063,17.6875 83.4688,17.9844 L83.4688,20.7031 Q82.8438,20.125 82.25,19.8594 Q81.6563,19.5781 81.0313,19.5781 Q79.6875,19.5781 79,20.6563 Q78.3125,21.7188 78.3125,23.8125 Q78.3125,25.9063 79,26.9844 Q79.6875,28.0469 81.0313,28.0469 Q81.6563,28.0469 82.25,27.7813 Q82.8438,27.5 83.4688,26.9219 L83.4688,29.6406 Z "/><text fill="#000000" font-family="sans-serif" font-size="12" lengthAdjust="spacingAndGlyphs" textLength="96" x="94.5" y="28.1543">MonoBehaviour</text><line style="stroke: #A80036; stroke-width: 1.5;" x1="66.5" x2="192.5" y1="40" y2="40"/><line style="stroke: #A80036; stroke-width: 1.5;" x1="66.5" x2="192.5" y1="48" y2="48"/><!--MD5=[b30e98ee5ddc5c00c834b5697b3cfb41]
reverse link MonoBehaviour to DataPersistenceManager--><path d="M129.5,76.67 C129.5,89.05 129.5,102.77 129.5,115.99 " fill="none" id="MonoBehaviour&lt;-DataPersistenceManager" style="stroke: #A80036; stroke-width: 1.0;"/><polygon fill="none" points="122.5,76.22,129.5,56.22,136.5,76.22,122.5,76.22" style="stroke: #A80036; stroke-width: 1.0;"/><!--MD5=[6b151fb409604a81e345fc9d5946087c]
link DataPersistenceManager to DataPersistenceManager--><path d="M253.11,153.06 C273.75,156.62 288,165.1 288,178.5 C288,190.75 276.1,198.89 258.28,202.92 " fill="none" id="DataPersistenceManager-&gt;DataPersistenceManager" style="stroke: #A80036; stroke-width: 1.0;"/><polygon fill="#A80036" points="253.11,203.94,262.7148,206.1188,258.0151,202.9704,261.1635,198.2706,253.11,203.94" style="stroke: #A80036; stroke-width: 1.0;"/><text fill="#000000" font-family="sans-serif" font-size="13" lengthAdjust="spacingAndGlyphs" textLength="54" x="260.8758" y="201.9398">instance</text><!--MD5=[29b51427430ff6a1117d46c73bb31e98]
@startuml
class DataPersistenceManager {
    + NewGame() : void
    + setFromMainMenu() : void
    + getSceneToLoadForMainMenu() : string
    + SaveGame() : void
    + hasGameData() : bool
    + resetToStandardValues() : void
}
MonoBehaviour <|- - DataPersistenceManager
DataPersistenceManager - -> "instance" DataPersistenceManager
@enduml

PlantUML version 1.2020.02(Sun Mar 01 10:22:07 GMT 2020)
(GPL source distribution)
Java Runtime: OpenJDK Runtime Environment
JVM: OpenJDK 64-Bit Server VM
Java Version: 11.0.9+11-Ubuntu-0ubuntu1
Operating System: Linux
Default Encoding: ANSI_X3.4-1968
Language: en
Country: US
--></g></svg>