<?xml version="1.0" encoding="UTF-8" standalone="no"?><svg xmlns="http://www.w3.org/2000/svg" xmlns:xlink="http://www.w3.org/1999/xlink" contentScriptType="application/ecmascript" contentStyleType="text/css" height="277px" preserveAspectRatio="none" style="width:413px;height:277px;" version="1.1" viewBox="0 0 413 277" width="413px" zoomAndPan="magnify"><defs><filter height="300%" id="f15vjd0y50ljc3" width="300%" x="-1" y="-1"><feGaussianBlur result="blurOut" stdDeviation="2.0"/><feColorMatrix in="blurOut" result="blurOut2" type="matrix" values="0 0 0 0 0 0 0 0 0 0 0 0 0 0 0 0 0 0 .4 0"/><feOffset dx="4.0" dy="4.0" in="blurOut2" result="blurOut3"/><feBlend in="SourceGraphic" in2="blurOut3" mode="normal"/></filter></defs><g><!--MD5=[4b83d9df387235491124e195a00c9d86]
class DataPersistenceManager--><rect fill="#FEFECE" filter="url(#f15vjd0y50ljc3)" height="150.4375" id="DataPersistenceManager" style="stroke: #A80036; stroke-width: 1.5;" width="334" x="6" y="116"/><ellipse cx="89.25" cy="132" fill="#ADD1B2" rx="11" ry="11" style="stroke: #A80036; stroke-width: 1.0;"/><path d="M92.2188,137.6406 Q91.6406,137.9375 91,138.0781 Q90.3594,138.2344 89.6563,138.2344 Q87.1563,138.2344 85.8281,136.5938 Q84.5156,134.9375 84.5156,131.8125 Q84.5156,128.6875 85.8281,127.0313 Q87.1563,125.375 89.6563,125.375 Q90.3594,125.375 91,125.5313 Q91.6563,125.6875 92.2188,125.9844 L92.2188,128.7031 Q91.5938,128.125 91,127.8594 Q90.4063,127.5781 89.7813,127.5781 Q88.4375,127.5781 87.75,128.6563 Q87.0625,129.7188 87.0625,131.8125 Q87.0625,133.9063 87.75,134.9844 Q88.4375,136.0469 89.7813,136.0469 Q90.4063,136.0469 91,135.7813 Q91.5938,135.5 92.2188,134.9219 L92.2188,137.6406 Z "/><text fill="#000000" font-family="sans-serif" font-size="12" lengthAdjust="spacingAndGlyphs" textLength="159" x="109.75" y="136.1543">DataPersistenceManager</text><line style="stroke: #A80036; stroke-width: 1.5;" x1="7" x2="339" y1="148" y2="148"/><line style="stroke: #A80036; stroke-width: 1.5;" x1="7" x2="339" y1="156" y2="156"/><ellipse cx="17" cy="167" fill="#84BE84" rx="3" ry="3" style="stroke: #038048; stroke-width: 1.0;"/><text fill="#000000" font-family="sans-serif" font-size="11" lengthAdjust="spacingAndGlyphs" textLength="101" x="26" y="170.2104">NewGame() : void</text><ellipse cx="17" cy="179.8047" fill="#84BE84" rx="3" ry="3" style="stroke: #038048; stroke-width: 1.0;"/><text fill="#000000" font-family="sans-serif" font-size="11" lengthAdjust="spacingAndGlyphs" textLength="146" x="26" y="183.0151">setFromMainMenu() : void</text><ellipse cx="17" cy="192.6094" fill="#84BE84" rx="3" ry="3" style="stroke: #038048; stroke-width: 1.0;"/><text fill="#000000" font-family="sans-serif" font-size="11" lengthAdjust="spacingAndGlyphs" textLength="221" x="26" y="195.8198">getSceneToLoadForMainMenu() : string</text><ellipse cx="17" cy="205.4141" fill="#84BE84" rx="3" ry="3" style="stroke: #038048; stroke-width: 1.0;"/><text fill="#000000" font-family="sans-serif" font-size="11" lengthAdjust="spacingAndGlyphs" textLength="308" x="26" y="208.6245">getProgession() : ProgressionEnum.gameProgression</text><ellipse cx="17" cy="218.2188" fill="#84BE84" rx="3" ry="3" style="stroke: #038048; stroke-width: 1.0;"/><text fill="#000000" font-family="sans-serif" font-size="11" lengthAdjust="spacingAndGlyphs" textLength="105" x="26" y="221.4292">SaveGame() : void</text><ellipse cx="17" cy="231.0234" fill="#84BE84" rx="3" ry="3" style="stroke: #038048; stroke-width: 1.0;"/><text fill="#000000" font-family="sans-serif" font-size="11" lengthAdjust="spacingAndGlyphs" textLength="125" x="26" y="234.2339">hasGameData() : bool</text><ellipse cx="17" cy="243.8281" fill="#84BE84" rx="3" ry="3" style="stroke: #038048; stroke-width: 1.0;"/><text fill="#000000" font-family="sans-serif" font-size="11" lengthAdjust="spacingAndGlyphs" textLength="177" x="26" y="247.0386">resetToStandardValues() : void</text><ellipse cx="17" cy="256.6328" fill="#84BE84" rx="3" ry="3" style="stroke: #038048; stroke-width: 1.0;"/><text fill="#000000" font-family="sans-serif" font-size="11" lengthAdjust="spacingAndGlyphs" textLength="223" x="26" y="259.8433">setGameState(gamestate:string) : void</text><!--MD5=[83b3cf3d23d77c6f1e1b5291a241bc2a]
class MonoBehaviour--><rect fill="#FEFECE" filter="url(#f15vjd0y50ljc3)" height="48" id="MonoBehaviour" style="stroke: #A80036; stroke-width: 1.5;" width="128" x="109" y="8"/><ellipse cx="124" cy="24" fill="#ADD1B2" rx="11" ry="11" style="stroke: #A80036; stroke-width: 1.0;"/><path d="M126.9688,29.6406 Q126.3906,29.9375 125.75,30.0781 Q125.1094,30.2344 124.4063,30.2344 Q121.9063,30.2344 120.5781,28.5938 Q119.2656,26.9375 119.2656,23.8125 Q119.2656,20.6875 120.5781,19.0313 Q121.9063,17.375 124.4063,17.375 Q125.1094,17.375 125.75,17.5313 Q126.4063,17.6875 126.9688,17.9844 L126.9688,20.7031 Q126.3438,20.125 125.75,19.8594 Q125.1563,19.5781 124.5313,19.5781 Q123.1875,19.5781 122.5,20.6563 Q121.8125,21.7188 121.8125,23.8125 Q121.8125,25.9063 122.5,26.9844 Q123.1875,28.0469 124.5313,28.0469 Q125.1563,28.0469 125.75,27.7813 Q126.3438,27.5 126.9688,26.9219 L126.9688,29.6406 Z "/><text fill="#000000" font-family="sans-serif" font-size="12" lengthAdjust="spacingAndGlyphs" textLength="96" x="138" y="28.1543">MonoBehaviour</text><line style="stroke: #A80036; stroke-width: 1.5;" x1="110" x2="236" y1="40" y2="40"/><line style="stroke: #A80036; stroke-width: 1.5;" x1="110" x2="236" y1="48" y2="48"/><!--MD5=[b30e98ee5ddc5c00c834b5697b3cfb41]
reverse link MonoBehaviour to DataPersistenceManager--><path d="M173,76.38 C173,88.67 173,102.4 173,115.96 " fill="none" id="MonoBehaviour&lt;-DataPersistenceManager" style="stroke: #A80036; stroke-width: 1.0;"/><polygon fill="none" points="166,76.17,173,56.17,180,76.17,166,76.17" style="stroke: #A80036; stroke-width: 1.0;"/><!--MD5=[6b151fb409604a81e345fc9d5946087c]
link DataPersistenceManager to DataPersistenceManager--><path d="M340.19,165.2 C361.18,169.75 375,178.35 375,191 C375,202.57 363.46,210.74 345.44,215.54 " fill="none" id="DataPersistenceManager-&gt;DataPersistenceManager" style="stroke: #A80036; stroke-width: 1.0;"/><polygon fill="#A80036" points="340.19,216.8,349.877,218.5784,345.0506,215.6277,348.0013,210.8014,340.19,216.8" style="stroke: #A80036; stroke-width: 1.0;"/><text fill="#000000" font-family="sans-serif" font-size="13" lengthAdjust="spacingAndGlyphs" textLength="54" x="347.7755" y="214.5758">instance</text><!--MD5=[17d2eb9b1d0ab5e4477276fc7d6c267f]
@startuml
class DataPersistenceManager {
    + NewGame() : void
    + setFromMainMenu() : void
    + getSceneToLoadForMainMenu() : string
    + getProgession() : ProgressionEnum.gameProgression
    + SaveGame() : void
    + hasGameData() : bool
    + resetToStandardValues() : void
    + setGameState(gamestate:string) : void
}
MonoBehaviour <|- - DataPersistenceManager
DataPersistenceManager - -> "instance" DataPersistenceManager
@enduml

PlantUML version 1.2020.02(Sun Mar 01 10:22:07 GMT 2020)
(GPL source distribution)
Java Runtime: OpenJDK Runtime Environment
JVM: OpenJDK 64-Bit Server VM
Java Version: 11.0.9+11-Ubuntu-0ubuntu1
Operating System: Linux
Default Encoding: ANSI_X3.4-1968
Language: en
Country: US
--></g></svg>