<?xml version="1.0" encoding="UTF-8" standalone="no"?><svg xmlns="http://www.w3.org/2000/svg" xmlns:xlink="http://www.w3.org/1999/xlink" contentScriptType="application/ecmascript" contentStyleType="text/css" height="104px" preserveAspectRatio="none" style="width:482px;height:104px;" version="1.1" viewBox="0 0 482 104" width="482px" zoomAndPan="magnify"><defs><filter height="300%" id="f18a338hs5smq3" width="300%" x="-1" y="-1"><feGaussianBlur result="blurOut" stdDeviation="2.0"/><feColorMatrix in="blurOut" result="blurOut2" type="matrix" values="0 0 0 0 0 0 0 0 0 0 0 0 0 0 0 0 0 0 .4 0"/><feOffset dx="4.0" dy="4.0" in="blurOut2" result="blurOut3"/><feBlend in="SourceGraphic" in2="blurOut3" mode="normal"/></filter></defs><g><!--MD5=[ec21b0355a5d6c1b355348409c88cf7d]
class FileDataHandler--><rect fill="#FEFECE" filter="url(#f18a338hs5smq3)" height="86.4141" id="FileDataHandler" style="stroke: #A80036; stroke-width: 1.5;" width="464" x="7" y="7"/><ellipse cx="184.75" cy="23" fill="#ADD1B2" rx="11" ry="11" style="stroke: #A80036; stroke-width: 1.0;"/><path d="M187.7188,28.6406 Q187.1406,28.9375 186.5,29.0781 Q185.8594,29.2344 185.1563,29.2344 Q182.6563,29.2344 181.3281,27.5938 Q180.0156,25.9375 180.0156,22.8125 Q180.0156,19.6875 181.3281,18.0313 Q182.6563,16.375 185.1563,16.375 Q185.8594,16.375 186.5,16.5313 Q187.1563,16.6875 187.7188,16.9844 L187.7188,19.7031 Q187.0938,19.125 186.5,18.8594 Q185.9063,18.5781 185.2813,18.5781 Q183.9375,18.5781 183.25,19.6563 Q182.5625,20.7188 182.5625,22.8125 Q182.5625,24.9063 183.25,25.9844 Q183.9375,27.0469 185.2813,27.0469 Q185.9063,27.0469 186.5,26.7813 Q187.0938,26.5 187.7188,25.9219 L187.7188,28.6406 Z "/><text fill="#000000" font-family="sans-serif" font-size="12" lengthAdjust="spacingAndGlyphs" textLength="100" x="205.25" y="27.1543">FileDataHandler</text><line style="stroke: #A80036; stroke-width: 1.5;" x1="8" x2="470" y1="39" y2="39"/><line style="stroke: #A80036; stroke-width: 1.5;" x1="8" x2="470" y1="47" y2="47"/><ellipse cx="18" cy="58" fill="#84BE84" rx="3" ry="3" style="stroke: #038048; stroke-width: 1.0;"/><text fill="#000000" font-family="sans-serif" font-size="11" lengthAdjust="spacingAndGlyphs" textLength="438" x="27" y="61.2104">FileDataHandler(dataDirPath:string, dataFileName:string, useEncryption:bool)</text><ellipse cx="18" cy="70.8047" fill="#84BE84" rx="3" ry="3" style="stroke: #038048; stroke-width: 1.0;"/><text fill="#000000" font-family="sans-serif" font-size="11" lengthAdjust="spacingAndGlyphs" textLength="107" x="27" y="74.0151">Load() : GameData</text><ellipse cx="18" cy="83.6094" fill="#84BE84" rx="3" ry="3" style="stroke: #038048; stroke-width: 1.0;"/><text fill="#000000" font-family="sans-serif" font-size="11" lengthAdjust="spacingAndGlyphs" textLength="160" x="27" y="86.8198">Save(data:GameData) : void</text><!--MD5=[0c7c83d3247177e9505c238cc84d0d56]
@startuml
class FileDataHandler {
    + FileDataHandler(dataDirPath:string, dataFileName:string, useEncryption:bool)
    + Load() : GameData
    + Save(data:GameData) : void
}
@enduml

PlantUML version 1.2020.02(Sun Mar 01 10:22:07 GMT 2020)
(GPL source distribution)
Java Runtime: OpenJDK Runtime Environment
JVM: OpenJDK 64-Bit Server VM
Java Version: 11.0.9+11-Ubuntu-0ubuntu1
Operating System: Linux
Default Encoding: ANSI_X3.4-1968
Language: en
Country: US
--></g></svg>